<svg id="Слой_1" data-name="Слой 1" xmlns="http://www.w3.org/2000/svg" viewBox="0 0 180.03 148.84"><title>commandimg</title><path d="M1281.22,1905a5.56,5.56,0,0,0,1.42-.6,6.94,6.94,0,0,1,.94-0.43c0.26-.09,0,1.17,0,1.26a8,8,0,0,1-3.26,4.3c-0.77.56,0,1.86,0.76,1.3a9.25,9.25,0,0,0,4.13-6.38c0.09-.85-0.29-2.06-1.34-2s-2,.89-3,1.11-0.55,1.64.4,1.45h0Z" transform="translate(-1110.62 -1822.33)" style="fill:#fff"/><path d="M1249.69,1901.3a4.88,4.88,0,0,1,1.91,2.13,0.77,0.77,0,0,0,.92.52,0.75,0.75,0,0,0,.52-0.92,6.61,6.61,0,0,0-2.59-3c-0.81-.53-1.56.77-0.76,1.3h0Z" transform="translate(-1110.62 -1822.33)" style="fill:#fff"/><path d="M1243.28,1906c-2.53-.15-2.63,3.33-1.24,4.7,1.85,1.82,5.72,1.45,8,.75a0.75,0.75,0,0,0-.4-1.45,11,11,0,0,1-4.26.39,4.33,4.33,0,0,1-2.24-.75c-0.51-.4-0.9-2.2.17-2.14s1-1.44,0-1.5h0Z" transform="translate(-1110.62 -1822.33)" style="fill:#fff"/><path d="M1278.76,1915.27c1.37,7.46,1.82,15.16,2.56,22.7l0.55-.72c-7.21,2.71-15.85,3.19-23.45,2.77a33.32,33.32,0,0,1-5.95-.85c-1.08-.26-5-1.2-5-2.77,0-3.24.73-6.67,1.11-9.89,0.42-3.55.81-7.11,1-10.68,0.07-1-1.43-1-1.5,0-0.27,3.89-.71,7.77-1.16,11.65-0.23,1.94-.45,3.88-0.65,5.82-0.1,1-.64,2.71-0.32,3.73,1,3.06,6.83,3.89,9.46,4.22a64.83,64.83,0,0,0,15.37-.18,48,48,0,0,0,11.41-2.37,0.76,0.76,0,0,0,.55-0.72c-0.75-7.67-1.22-15.51-2.61-23.1-0.17-1-1.62-.55-1.45.4h0Z" transform="translate(-1110.62 -1822.33)" style="fill:#fff"/><path d="M1229.94,1915.1c1.95,6.81,3.21,13.87,4.68,20.79,1.7,8,3.56,16,4.74,24,0.14,1,1.59.55,1.45-.4-1.15-7.88-3-15.69-4.62-23.48-1.51-7.11-2.8-14.36-4.8-21.36a0.75,0.75,0,0,0-1.45.4h0Z" transform="translate(-1110.62 -1822.33)" style="fill:#fff"/><path d="M1197.5,1918c1,8,.75,16.28.9,24.32,0.13,6.75.25,13.51,0.27,20.26a0.75,0.75,0,0,0,1.5,0c0-6.75-.15-13.51-0.27-20.26-0.15-8,.1-16.32-0.9-24.32-0.12-.95-1.62-1-1.5,0h0Z" transform="translate(-1110.62 -1822.33)" style="fill:#fff"/><path d="M1150.55,1917.48c0.26,3.62-.1,7.38-0.19,11q-0.25,9.66-.54,19.32-0.11,4.07-.22,8.13c0,1.5-.41,3.46,0,4.91,0.62,2.05,4,2.51,5.75,2.77,2.36,0.36,5.23.62,7.53-.16,0.91-.31.52-1.76-0.4-1.45-2.36.8-5.39,0.41-7.78,0a6.82,6.82,0,0,1-3.53-1.4c-0.4-.38-0.18-1.57-0.17-2.06,0.1-4.81.25-9.62,0.39-14.44q0.24-8.53.47-17.05c0.08-3.15.38-6.41,0.15-9.56-0.07-1-1.57-1-1.5,0h0Z" transform="translate(-1110.62 -1822.33)" style="fill:#fff"/><path d="M1165.82,1932.81c-1.66,9.84-1.59,20-3.67,29.81-0.2.94,1.25,1.34,1.45,0.4,2.07-9.77,2-20,3.67-29.81,0.16-.95-1.29-1.35-1.45-0.4h0Z" transform="translate(-1110.62 -1822.33)" style="fill:#fff"/><path d="M1165,1931.68c1.41,1.46,1.82,4.2,2.3,6.09,0.86,3.41,1.49,6.88,2.13,10.34,0.58,3.15,1.11,6.3,1.72,9.44,0.33,1.68.51,3.81,1.43,5.31a0.75,0.75,0,0,0,1.29-.76c-1-1.59-1.1-4-1.44-5.81-0.65-3.4-1.22-6.81-1.85-10.22s-1.28-6.72-2.17-10c-0.48-1.79-1-4.05-2.34-5.44a0.75,0.75,0,0,0-1.06,1.06h0Z" transform="translate(-1110.62 -1822.33)" style="fill:#fff"/><path d="M1177.4,1915.45c1.17,2.39,1.33,5.6,1.75,8.18,0.82,5.05,1.49,10.13,2.13,15.21q0.91,7.25,1.69,14.52a58.42,58.42,0,0,1,.66,7.29,0.75,0.75,0,0,0,1.5,0,58.78,58.78,0,0,0-.66-7.29q-0.8-7.53-1.76-15c-0.63-5-1.31-10.07-2.11-15.08-0.44-2.74-.66-6-1.9-8.54-0.42-.87-1.72-0.11-1.29.76h0Z" transform="translate(-1110.62 -1822.33)" style="fill:#fff"/><path d="M1123.46,1894h1a0.75,0.75,0,0,0,0-1.5h-1a0.75,0.75,0,0,0,0,1.5h0Z" transform="translate(-1110.62 -1822.33)" style="fill:#fff"/><path d="M1148.4,1844.19c-3.48,7.6-4.75,16.9-.46,24.41,3.89,6.8,11.14,7.21,18,5.16a0.75,0.75,0,0,0-.4-1.45c-6.37,1.91-12.5,1.62-16.28-4.47-4.22-6.79-2.71-16,.45-22.89,0.4-.87-0.89-1.64-1.29-0.76h0Z" transform="translate(-1110.62 -1822.33)" style="fill:#fff"/><path d="M1181.07,1849.36c-0.79,1.87-1.68,3.7-2.41,5.6a0.74,0.74,0,0,0,.34.85c3,1.46-2.13,9.54-5.58,7.87-0.87-.42-1.63.87-0.76,1.3,5.11,2.47,12.07-8,7.09-10.46l0.34,0.85c0.68-1.78,1.52-3.49,2.26-5.24,0.37-.88-0.92-1.65-1.29-0.76h0Z" transform="translate(-1110.62 -1822.33)" style="fill:#fff"/><path d="M1173.15,1865c-1.1,2.07-2,4.36-3.88,5.85-0.76.6,0.31,1.65,1.06,1.06,2-1.57,3-4,4.12-6.15a0.75,0.75,0,0,0-1.29-.76h0Z" transform="translate(-1110.62 -1822.33)" style="fill:#fff"/><path d="M1174.5,1850.12c1.91-.49,3.89-0.67,5.83-1,1-.16.55-1.6-0.4-1.45-1.95.33-3.92,0.51-5.83,1a0.75,0.75,0,0,0,.4,1.45h0Z" transform="translate(-1110.62 -1822.33)" style="fill:#fff"/><path d="M1174.88,1851.48a30.07,30.07,0,0,0,5.37-.78,0.75,0.75,0,0,0-.4-1.45,27.81,27.81,0,0,1-5,.72c-1,.05-1,1.55,0,1.5h0Z" transform="translate(-1110.62 -1822.33)" style="fill:#fff"/><path d="M1175.3,1853c1.27-.15,2.56-0.11,3.83-0.25,1-.11,1-1.61,0-1.5-1.27.14-2.56,0.1-3.83,0.25-0.95.11-1,1.61,0,1.5h0Z" transform="translate(-1110.62 -1822.33)" style="fill:#fff"/><path d="M1175.71,1854.15c0.92,0,1.83.08,2.75,0.08a0.75,0.75,0,0,0,0-1.5c-0.92,0-1.83-.08-2.75-0.08a0.75,0.75,0,0,0,0,1.5h0Z" transform="translate(-1110.62 -1822.33)" style="fill:#fff"/><path d="M1176,1855.46l1.67,0.25a0.77,0.77,0,0,0,.92-0.52,0.75,0.75,0,0,0-.52-0.92l-1.67-.25a0.77,0.77,0,0,0-.92.52,0.75,0.75,0,0,0,.52.92h0Z" transform="translate(-1110.62 -1822.33)" style="fill:#fff"/><path d="M1175.52,1856.26c0.26,0.24.57,0.43,0.83,0.67a0.75,0.75,0,0,0,1.06-1.06c-0.26-.24-0.57-0.43-0.83-0.67a0.75,0.75,0,0,0-1.06,1.06h0Z" transform="translate(-1110.62 -1822.33)" style="fill:#fff"/><path d="M1175.71,1857.57a0.75,0.75,0,0,0,0-1.5,0.75,0.75,0,0,0,0,1.5h0Z" transform="translate(-1110.62 -1822.33)" style="fill:#fff"/><path d="M1155.07,1856.37c-0.39,1.32-1.84,4.13.36,4.67a0.75,0.75,0,0,0,.4-1.45c-0.27-.07-0.09,0-0.07,0a0.81,0.81,0,0,1,0-.31,3.53,3.53,0,0,1,.2-0.89c0.17-.56.41-1.09,0.58-1.64a0.75,0.75,0,0,0-1.45-.4h0Z" transform="translate(-1110.62 -1822.33)" style="fill:#fff"/><path d="M1160.07,1853.94a3,3,0,0,0-.74,2.23,1.46,1.46,0,0,0,1.36,1.13,2.47,2.47,0,0,0,2.67-2.13,1.92,1.92,0,0,0-1.33-2,2.15,2.15,0,0,0-2.27,1.81c-0.21,1,.44,2.31,1.59,1.64a2.44,2.44,0,0,0,1-2.45,0.75,0.75,0,0,0-.92-0.52,1.56,1.56,0,0,0-1.05,1.81,0.77,0.77,0,0,0,.75.75,0.75,0.75,0,0,0,.75-0.75,3.5,3.5,0,0,1,0-.39s-0.13.07,0,0l-0.92-.52a0.92,0.92,0,0,1-.06.35,2.09,2.09,0,0,1-.19.33s-0.2.17-.07,0.08l-0.06,0a0.51,0.51,0,0,1,.66.17c0.07,0.11,0-.24,0-0.24a1,1,0,0,1,.34-0.54,0.64,0.64,0,0,0,.16-0.11s0.14,0.29.09,0.16c0,0,.07.32,0.05,0.16a1.37,1.37,0,0,1,0,.2c0,0.12,0-.09,0,0.11l-0.11.19-0.13.13c-0.09.08,0.08,0-.09,0.07l-0.21.12c-0.11.06,0.1,0-.1,0l-0.17,0c-0.13,0,.14,0-0.08,0h-0.21c0.22,0,0,0,0,0,0.19,0.06.07,0,0,0,0.2,0.12,0-.1.08,0.08-0.06-.09,0,0.16,0,0,0.05,0.2,0,0,0-.08a0.58,0.58,0,0,0,.1-0.28,4.71,4.71,0,0,1,.47-0.77c0.57-.79-0.74-1.54-1.29-0.76h0Z" transform="translate(-1110.62 -1822.33)" style="fill:#fff"/><path d="M1151.43,1852a2.34,2.34,0,0,0,.11,3.27,1.4,1.4,0,0,0,1.6.24,2.05,2.05,0,0,0,.83-1.72c0.12-1.12-.65-3-2-2.34a1.66,1.66,0,0,0-.77,1.67,3.66,3.66,0,0,0,.33,1.7,0.75,0.75,0,0,0,1,.27,2,2,0,0,0,.68-2.26,0.75,0.75,0,0,0-1.45.4,0.6,0.6,0,0,1,0,.57l1,0.27a0.33,0.33,0,1,0,0,0l0-.14a2.93,2.93,0,0,1-.07-0.39,2.42,2.42,0,0,1,0-.94,0.28,0.28,0,0,1-.42.14c-0.12-.05,0,0,0,0.11a2.18,2.18,0,0,1,.15.84,1.11,1.11,0,0,1-.14.53c0.09-.09.32-0.05,0.22-0.08,0.08,0,.08,0,0,0,0.12,0.07,0,0-.07-0.06a0.94,0.94,0,0,1-.2-0.48,0.86,0.86,0,0,1,.2-0.56c0.62-.74-0.44-1.8-1.06-1.06h0Z" transform="translate(-1110.62 -1822.33)" style="fill:#fff"/><path d="M1150.57,1864.85c2.07,6,8.74,4.21,13,1.7a0.75,0.75,0,0,0-.76-1.3c-3.3,1.94-9.11,4.17-10.81-.8-0.31-.91-1.76-0.52-1.45.4h0Z" transform="translate(-1110.62 -1822.33)" style="fill:#fff"/><path d="M1154.34,1835.5c-1.53.82-4.35,2.47-2.92,4.58,1,1.47,5.4-.71,6.5-1.11,0.58-.21,1.14-0.48,1.71-0.7,0.9-.35,1.44-0.69.51,0.21-0.53.51-1.26,1.25-1,2.09,0.8,2.45,4.06,1,5.64.28,4.22-2-.62.12,1.13,1.66,1.3,1.13,3.43-.31,4.74-0.8a2.57,2.57,0,0,0,1-.48,3.1,3.1,0,0,0-.91,1,1.61,1.61,0,0,0,.4,1.89c1.94,1.75,5-2.41,7.14-.56,0.72,0.63,1.79-.42,1.06-1.06-1.66-1.45-3.65-.79-5.52,0-0.91.37-2,.52-0.82-0.48a1.14,1.14,0,0,0,.22-1.41c-0.74-1.27-2.68-.5-3.68-0.08-0.41.17-2.3,0.63-2.37,1.07,0.13-.79,1.55-1.09,1.28-2.09-0.53-1.91-2.51-.88-3.69-0.32a18.19,18.19,0,0,1-2.75,1.13c-0.74.21-1.51-.12-0.82-0.8,0.4-.38,1.3-1.1,1.23-1.77-0.17-1.65-2-1.34-3.19-1-1.49.5-2.91,1.09-4.42,1.54-0.57.17-1.14,0.38-1.7,0.58a1.6,1.6,0,0,1,1-1.62l1-.51a0.75,0.75,0,0,0-.76-1.3h0Z" transform="translate(-1110.62 -1822.33)" style="fill:#fff"/><path d="M1148.63,1835.73c-0.22-2.42,2.61-1,3.58-2.27a1.46,1.46,0,0,0,.2-1.21c-0.55-2.84,2.56-.47,2.91-0.2,1.08,0.8,5.58,4.07,5.81.68a3.85,3.85,0,0,0-.31-1.75q-0.54-.8.56-1.13a3.76,3.76,0,0,1,.74,1,8.41,8.41,0,0,0,1.86,2.63,1.53,1.53,0,0,0,2-.11,1.76,1.76,0,0,0,.62-1.14,3.89,3.89,0,0,0-.06-1c-0.09-.72.47-1.41,0.61-0.12,0.2,1.89.72,5.43,3.45,5,1.52-.26,1.81-1.41,2.45-2.67-0.59,1.18-1.1,2.34-.57,3.62a1.69,1.69,0,0,0,2.06.87,2.53,2.53,0,0,0,1.31-1.09c1-1.41,1.08,0,.75,1-0.47,1.49.51,2.5,1.7,3.2,1.41,0.83,3-.23,3.93-1.25,0.65-.72-0.41-1.78-1.06-1.06q-3.86,1-3-1a4.11,4.11,0,0,0,.25-1,2.53,2.53,0,0,0-.36-1.61,1.52,1.52,0,0,0-2.3-.73,1.9,1.9,0,0,0-.43.44l-0.29.4q-0.3.89-1.33,0.37c0.2-.71.63-1.38,0.85-2.1a1.4,1.4,0,0,0-1.11-1.9c-1.17-.23-1.77,1.06-2.15,1.91s-0.92,1-2.05.37a4.85,4.85,0,0,1-.49-1.66c-0.14-.75-0.18-1.52-0.3-2.27a1.73,1.73,0,0,0-2.23-1.54c-1.43.4-1.28,2.26-1.16,3.33s-1.06-.58-1.1-0.66c-0.33-.55-0.64-1.11-1-1.64a2.42,2.42,0,0,0-2.07-1.23,2.09,2.09,0,0,0-1.83,2c0,0.3.94,2.71-.13,2.49a7,7,0,0,1-2.35-1.47c-1.29-1-4.84-3.56-5.66-.53a13.17,13.17,0,0,0-.22,1.81,3.12,3.12,0,0,0-2,0c-1.37.4-1.72,2.1-1.61,3.3,0.08,1,1.59,1,1.5,0h0Z" transform="translate(-1110.62 -1822.33)" style="fill:#fff"/><path d="M1180,1842.29a8.84,8.84,0,0,0,3.4,0,0.75,0.75,0,0,0-.4-1.45,6.85,6.85,0,0,1-2.6,0c-0.95-.15-1.35,1.29-0.4,1.45h0Z" transform="translate(-1110.62 -1822.33)" style="fill:#fff"/><path d="M1180.27,1843.51a6.39,6.39,0,0,0,1.48,1.12,0.75,0.75,0,0,0,.76-1.3,5,5,0,0,1-1.18-.88,0.75,0.75,0,0,0-1.06,1.06h0Z" transform="translate(-1110.62 -1822.33)" style="fill:#fff"/><path d="M1149.34,1836.75c-2.68-1.82-6.55,1.17-7,4.12-0.29,2.11,2.31,1.38,3.41,1l0.49-.15c1-.3-0.67.23-0.21-0.6-0.38.67-1,1.2-1.34,1.88a1.63,1.63,0,0,0,.71,2.39c1.53,0.77,3.46-.79,4.74-1.38a25,25,0,0,1,4.48-1.49c0.53-.13,2.12-0.28,1.26.51a4.87,4.87,0,0,0-.77.77c-1.77,2.56,1.37,3.33,3.27,3,1.7-.33,3.29-1.12,5-1.49q0.92-1.22.46-.61a3.84,3.84,0,0,0-.59,1.1,1.83,1.83,0,0,0,0,1.53c0.52,0.89,2,.46,2.66.15s3.78-2.27,3.56-.76a2.67,2.67,0,0,0,.17,1.63c0.53,0.9,2,.59,2.72.19,3.18-1.74,5.39-2.32,8.45-.06,0.78,0.58,1.53-.73.76-1.3-3.08-2.28-5.59-2.25-8.92-.5-0.76.4-1.86,1.37-1.66,0a2.33,2.33,0,0,0,.13-1c-0.25-.9-1.6-1.06-2.34-1a6.24,6.24,0,0,0-2.25.81c-0.82.45-2.61,1.44-1.3-.11,0.57-.67,0-1.26-0.65-1.52-1.12-.48-2.89.33-3.93,0.69-0.55.19-1.09,0.38-1.65,0.55-0.24.07-3.79,0.78-2.37-.66,0.67-.68,1.31-1.1,1.29-2.12a1.78,1.78,0,0,0-1.91-1.47,18.17,18.17,0,0,0-4.89,1.22c-0.84.3-1.66,0.68-2.47,1-1,.45-3.16,1.24-1.74-0.61,0.59-.76,1.23-2.5-0.45-2.31a13.52,13.52,0,0,0-2.15.61c-0.52.15-.5,0.37-0.38-0.06,0.47-1.6,3-3.78,4.63-2.67,0.8,0.55,1.55-.75.76-1.3h0Z" transform="translate(-1110.62 -1822.33)" style="fill:#fff"/><path d="M1123.55,1880.33a58.19,58.19,0,0,0,23.11-1.44c2.4-.63,4.8-1.24,7.2-1.85l2.86-.73c1.32-.34.5,0,1.57,0.94,3.65,3.22,7.26-.53,9.95-3,0.64-.58,1.59-1.48,2.55-1.32,2.05,0.34,3.93,2.65,5.38,4s2.7,2.4,3.94,3.75c1.5,1.64,3.44,3.33,4.5,5.28a0.75,0.75,0,0,0,1.29-.76,24.77,24.77,0,0,0-3.63-4.33,45.05,45.05,0,0,0-4.54-4.55c-2-1.69-4.43-4.89-7.31-4.89-1.76,0-3.37,1.89-4.53,3-2.7,2.52-5.13,3.61-7.88.39a0.74,0.74,0,0,0-.73-0.19q-5.33,1.35-10.66,2.72a57.4,57.4,0,0,1-22.67,1.54c-0.95-.14-1.35,1.31-0.4,1.45h0Z" transform="translate(-1110.62 -1822.33)" style="fill:#fff"/><path d="M1123,1880c1.39,4.22,1.92,8.92.51,13.2-0.3.92,1.14,1.31,1.45,0.4,1.5-4.52,1-9.54-.51-14a0.75,0.75,0,0,0-1.45.4h0Z" transform="translate(-1110.62 -1822.33)" style="fill:#fff"/><path d="M1125.07,1880.27c0.91,4.13,1.73,8.18.58,12.35a0.75,0.75,0,0,0,1.45.4c1.22-4.43.38-8.75-.58-13.15-0.21-.94-1.65-0.54-1.45.4h0Z" transform="translate(-1110.62 -1822.33)" style="fill:#fff"/><path d="M1172.65,1893.11c1.64,2.45,4.55,3.42,7.28,4.09a0.75,0.75,0,0,0,.4-1.45c-2.31-.57-5-1.32-6.38-3.41-0.54-.8-1.83,0-1.29.76h0Z" transform="translate(-1110.62 -1822.33)" style="fill:#fff"/><path d="M1175.49,1896c-0.95,6.39.47,12.74,2.08,18.9a0.75,0.75,0,0,0,1.45-.4c-1.54-5.87-3-12-2.08-18.1,0.14-.95-1.31-1.35-1.45-0.4h0Z" transform="translate(-1110.62 -1822.33)" style="fill:#fff"/><path d="M1177.67,1914.42c-6.37,2.79-13.2,3.49-20.11,3.08a19.15,19.15,0,0,1-4.91-1c-1.29-.43-1.08-0.55-1.52-1.88a42.18,42.18,0,0,1-1.42-6.44,105.33,105.33,0,0,1-1-20.14,0.76,0.76,0,0,0-1.13-.65,69.75,69.75,0,0,1-9.76,3.08,55.12,55.12,0,0,1-13.1,2.17,0.75,0.75,0,0,0,0,1.5,56.73,56.73,0,0,0,12.84-2.06,71.18,71.18,0,0,0,10.78-3.4l-1.13-.65a103.17,103.17,0,0,0,1.49,23,20.26,20.26,0,0,0,1.79,6.15c0.27,0.46,1.37.6,1.77,0.76a18.93,18.93,0,0,0,5.31,1,42.72,42.72,0,0,0,20.87-3.29c0.88-.39.12-1.68-0.76-1.3h0Z" transform="translate(-1110.62 -1822.33)" style="fill:#fff"/><path d="M1117.16,1887.71a5.22,5.22,0,0,1,3.35-.57c1.2,0.32,2.07,1.85,1.25,2.9-0.58.75,0.47,1.82,1.06,1.06a3.18,3.18,0,0,0-.24-4.35c-1.57-1.77-3.91-1.27-5.83-.49-0.88.36-.5,1.81,0.4,1.45h0Z" transform="translate(-1110.62 -1822.33)" style="fill:#fff"/><path d="M1117.41,1883.46a6.76,6.76,0,0,1,3.6.07c1.42,0.47,1.25,1.85.81,3-0.35.91,1.11,1.29,1.45,0.4,0.65-1.71.53-3.53-1.16-4.54a7.24,7.24,0,0,0-5.1-.38,0.75,0.75,0,0,0,.4,1.45h0Z" transform="translate(-1110.62 -1822.33)" style="fill:#fff"/><path d="M1123.61,1883.53c0.77-1.15.31-3.24-.62-4.24a5.79,5.79,0,0,0-5.8-1.77c-5.11,1-7.58,6.5-6.19,11.15,1.33,4.44,6.59,8.58,11.23,6.23,1.62-.82,2.28-3.25.71-4.42-1.76-1.32-4.08-.38-5.79.52a0.75,0.75,0,0,0,.76,1.3c1.15-.6,2.63-1.36,3.94-0.74s-0.55,2.18-1.23,2.39a5.2,5.2,0,0,1-2.45,0c-3.29-.64-5.38-3.87-6.07-6.91-0.73-3.22,1.38-6,4-7.49a4.88,4.88,0,0,1,4.56-.2c0.94,0.46,2.35,2.34,1.59,3.47-0.54.81,0.76,1.55,1.29,0.76h0Z" transform="translate(-1110.62 -1822.33)" style="fill:#fff"/><path d="M1115.93,1878.52c-0.63-1.36-1.79-4.74.25-5.46s1.65,1.83,1.75,3a3.23,3.23,0,0,0,1.77,2.65,0.75,0.75,0,0,0,.76-1.3c-1.77-1-.65-3.33-1.59-4.9-0.81-1.35-2.77-1.23-3.95-.5-2.35,1.47-1.19,5.3-.29,7.26,0.41,0.88,1.7.11,1.29-.76h0Z" transform="translate(-1110.62 -1822.33)" style="fill:#fff"/><path d="M1166.55,1934.15a0.75,0.75,0,0,0,0-1.5,0.75,0.75,0,0,0,0,1.5h0Z" transform="translate(-1110.62 -1822.33)" style="fill:#fff"/><path d="M1172.92,1963.3c3.57,1.8,8.71.61,11.74-1.78,0.76-.6-0.31-1.65-1.06-1.06-2.46,1.95-7,3-9.92,1.55-0.86-.43-1.62.86-0.76,1.3h0Z" transform="translate(-1110.62 -1822.33)" style="fill:#fff"/><path d="M1150.5,1960.67c-2.26,1.12-5.87,3.48-6.18,6.28s2.83,3.23,5,2.76,4.62-1.93,6.72-2.91,4.23-1.89,6.24-3a0.75,0.75,0,0,0-.76-1.3c-2.82,1.55-5.83,2.83-8.76,4.15a17.22,17.22,0,0,1-4.81,1.78c-1.23.15-2.85-.18-1.69-2.4a7,7,0,0,1,1.44-1.62,14.27,14.27,0,0,1,3.54-2.44c0.87-.43.11-1.72-0.76-1.3h0Z" transform="translate(-1110.62 -1822.33)" style="fill:#fff"/><path d="M1147.59,1964.8a5,5,0,0,1,1.73,1.73,0.75,0.75,0,0,0,1.29-.76,6.64,6.64,0,0,0-2.27-2.27c-0.8-.54-1.55.76-0.76,1.3h0Z" transform="translate(-1110.62 -1822.33)" style="fill:#fff"/><path d="M1149,1963.88a9.78,9.78,0,0,1,1.6,1.3,0.75,0.75,0,0,0,1.06-1.06,11.74,11.74,0,0,0-1.9-1.53,0.75,0.75,0,0,0-.76,1.3h0Z" transform="translate(-1110.62 -1822.33)" style="fill:#fff"/><path d="M1173.77,1963.76c2.63,2.76,7.6,9.16,12.11,6.62,3.2-1.8-.2-7.52-1.18-9.69-0.4-.88-1.69-0.12-1.29.76,0.77,1.71,3.4,5.85,1.78,7.59s-5-1.08-6.07-2a55.78,55.78,0,0,1-4.28-4.3,0.75,0.75,0,0,0-1.06,1.06h0Z" transform="translate(-1110.62 -1822.33)" style="fill:#fff"/><path d="M1180.66,1965.79a12.09,12.09,0,0,0,2.85-1.08c0.8-.53.05-1.83-0.76-1.3a10.53,10.53,0,0,1-2.49.92c-0.91.32-.52,1.77,0.4,1.45h0Z" transform="translate(-1110.62 -1822.33)" style="fill:#fff"/><path d="M1181.68,1967.13a24.39,24.39,0,0,0,2.42-1.42c0.8-.53.05-1.83-0.76-1.3a24.06,24.06,0,0,1-2.42,1.42c-0.86.44-.1,1.73,0.76,1.3h0Z" transform="translate(-1110.62 -1822.33)" style="fill:#fff"/><path d="M1220.47,1829.87c-2.9,2.35-4.38-2.89-6.74-3.66a4.16,4.16,0,0,0-4.35.69,3.06,3.06,0,0,0-.78,2l0,0.58q0.43,1.62-1.91,0c-0.16-.44-0.21-1-0.33-1.41-0.32-1.17-1.66-2.2-2.86-1.37s-3.57,6.31-4.7,4c-0.64-1.33-2-1.1-3-.22a8,8,0,0,0-2.54,5.48c0,1.47.86,4.13,2.57,4.45,1.94,0.36,3.54-.74,5.07-1.8,1.18-.81,2.18-1.83,3.38-2.61,1.67-1.07,1.25,1.38,1.49,2.13,1,3.15,6.15-1.17,7.46-1.82,1.92-1,.91,1,0.91,1.8a1.34,1.34,0,0,0,.73,1.21c2.5,1.47,7.72-4.44,8.29,1.11,0.13,1.32-1.27,2.85-1.52,4.17a3.1,3.1,0,0,0,.5,2.1c0.91,1.62,3.28,2,4.94,2a0.75,0.75,0,0,0,0-1.5c-1.61,0-4.32-.44-3.88-2.82,0.2-1,1.05-2,1.37-3.09,0.39-1.29-.18-3.51-1.49-4.16a6.09,6.09,0,0,0-5.62.27c-3,1.62-1.28.09-1.23-1a2.38,2.38,0,0,0-.63-1.85c-0.86-1-2.77.29-3.56,0.69-0.62.31-4.81,3.54-5,1.81-0.09-1.08.1-2.56-1.23-2.93-1.73-.48-3.68,1.56-4.81,2.53a17.14,17.14,0,0,1-2.93,1.93c-3.11,1.71-3.78-2.68-2.91-4.69,0,0.07,2-3,2.3-2.28a3.21,3.21,0,0,0,1.17,1.38c1.06,0.81,3.15-1.3,3.64-2,0.13-.17,2-3.77,2.55-2.51a23,23,0,0,0,.93,2.76c0.84,1.51,2.54,1.24,3.69.36,1.68-1.29-.8-4.15,2.47-4.27,2.8-.1,3.07,3.13,5,4.3,1.69,1,3,.42,4.44-0.74,0.75-.61-0.32-1.66-1.06-1.06h0Z" transform="translate(-1110.62 -1822.33)" style="fill:#fff"/><path d="M1192.38,1835.45c-2.18,2.77-2,6.15-.78,9.31,0.34,0.9,1.79.51,1.45-.4-1-2.57-1.44-5.53.39-7.85,0.59-.75-0.46-1.82-1.06-1.06h0Z" transform="translate(-1110.62 -1822.33)" style="fill:#fff"/><path d="M1216.53,1827.35c2.19-2.18,2.17,1,3.35,1.19,1.43,0.2,3.27-1.09,4,.83,0.79,2.2,1,3.28,3.18,4.44,1.3,0.7,2.59,1.24,3.15,2.73,0.7,1.88-.56,3.7-0.6,5.54-0.05,2.26.58,4.25,0.22,6.56-0.32,2-1,4-1.44,6.07-0.2.94,1.25,1.34,1.45,0.4a67.41,67.41,0,0,0,1.6-7.13,11.59,11.59,0,0,0-.06-3.71,10.18,10.18,0,0,1,.32-4.84c0.88-3.84-1.4-5.58-4.42-7.2-2.58-1.39-1.28-5.12-4.73-5.52-0.45-.05-2.09.59-2.28,0a2.57,2.57,0,0,0-1.14-1.43c-1.35-.79-2.67,0-3.63,1a0.75,0.75,0,0,0,1.06,1.06h0Z" transform="translate(-1110.62 -1822.33)" style="fill:#fff"/><path d="M1223.13,1850.21c1.52,0.48,3,1,4.58,1.42a0.75,0.75,0,0,0,.4-1.45c-1.54-.42-3.06-0.93-4.58-1.42a0.75,0.75,0,0,0-.4,1.45h0Z" transform="translate(-1110.62 -1822.33)" style="fill:#fff"/><path d="M1223.55,1852.46c1.21,0.32,2.44.59,3.67,0.83,0.94,0.19,1.35-1.26.4-1.45-1.23-.25-2.45-0.51-3.67-0.83a0.75,0.75,0,0,0-.4,1.45h0Z" transform="translate(-1110.62 -1822.33)" style="fill:#fff"/><path d="M1223.75,1854.4a6.46,6.46,0,0,1,2.72.64,0.75,0.75,0,0,0,.4-1.45,7.35,7.35,0,0,0-3.12-.69,0.77,0.77,0,0,0-.75.75,0.75,0.75,0,0,0,.75.75h0Z" transform="translate(-1110.62 -1822.33)" style="fill:#fff"/><path d="M1223.63,1856.21c0.79,0.24,1.62.28,2.42,0.5a0.75,0.75,0,0,0,.4-1.45c-0.79-.22-1.63-0.26-2.42-0.5a0.75,0.75,0,0,0-.4,1.45h0Z" transform="translate(-1110.62 -1822.33)" style="fill:#fff"/><path d="M1223.66,1857.73a9,9,0,0,1,2,.47,0.75,0.75,0,0,0,.4-1.45,10.55,10.55,0,0,0-2.37-.53,0.75,0.75,0,0,0,0,1.5h0Z" transform="translate(-1110.62 -1822.33)" style="fill:#fff"/><path d="M1228.88,1855.26c2.1,1.63.09,3.7-.61,5.52-0.59,1.54-1.26,4.48-3.49,3.81a0.74,0.74,0,0,0-.85.34,22,22,0,0,1-4.8,7.18,0.75,0.75,0,0,0,1.06,1.06,23,23,0,0,0,5-7.49l-0.85.34c2.63,0.79,3.91-1.32,4.81-3.47,1.12-2.69,3.74-6.05.75-8.37-0.75-.59-1.82.47-1.06,1.06h0Z" transform="translate(-1110.62 -1822.33)" style="fill:#fff"/><path d="M1202.86,1852.87a28.33,28.33,0,0,0-1.25,4.25,0.78,0.78,0,0,0,.34.85,2.53,2.53,0,0,0,1.46.35c1-.06,1-1.56,0-1.5a0.85,0.85,0,0,1-.7-0.15l0.34,0.85a28.09,28.09,0,0,1,1.25-4.25,0.75,0.75,0,0,0-1.45-.4h0Z" transform="translate(-1110.62 -1822.33)" style="fill:#fff"/><path d="M1210.63,1849.7a3,3,0,0,0-.87,2.45,2,2,0,0,0,1.25,1.52,1.77,1.77,0,0,0,1.9-.59,2.45,2.45,0,0,0,.41-2.67,1.58,1.58,0,0,0-2.24-.65,2.07,2.07,0,0,0-1,2.17,1.35,1.35,0,0,0,1.59.89,1.52,1.52,0,0,0,1-1.76,0.79,0.79,0,0,0-.55-0.72,1.21,1.21,0,0,0-1.31.44,0.75,0.75,0,0,0,0,1.06,0.77,0.77,0,0,0,1.06,0,0.85,0.85,0,0,0,.17-0.15q0.24-.24-0.31.09l-0.55-.72a1.08,1.08,0,0,1,0,.4c0-.1,0,0,0.13-0.1a0.14,0.14,0,1,0,0,0c0.18,0,0,0,.1,0-0.09,0,.09.2,0.06,0.07,0,0.08,0,0,0-.08a0.9,0.9,0,0,1,.35-0.4c-0.1.06-.12-0.07,0,0.06a0.57,0.57,0,0,1,.11.44,1.05,1.05,0,0,1-.42.72,0.14,0.14,0,0,1-.15,0c0.06,0-.13-0.07-0.08,0a0.54,0.54,0,0,1-.2-0.46,1.55,1.55,0,0,1,.47-1c0.64-.72-0.42-1.79-1.06-1.06h0Z" transform="translate(-1110.62 -1822.33)" style="fill:#fff"/><path d="M1197.72,1848.29a2.71,2.71,0,0,0-.52,3.19c0.8,1.27,2.31.26,2.76-.77a1.54,1.54,0,0,0-1.16-2.24c-1.3-.16-1.51,1.38-1.36,2.3a0.75,0.75,0,0,0,.92.52,1.35,1.35,0,0,0,.95-0.76,0.75,0.75,0,0,0,0-.76,0.86,0.86,0,0,0-1.41-.14h1a0.75,0.75,0,0,0-1.06,1.06h0a0.77,0.77,0,0,0,1.06,0h0l-0.58.08h0.05l-0.45-.34,0,0.08v-0.76s-0.22.33-.09,0.17,0.28-.15,0-0.09l0.92,0.52a2,2,0,0,1,0-.37c0,0.07.08-.24,0-0.09,0-.07,0,0,0,0s-0.15,0-.09,0-0.14,0-.09,0c-0.17-.1.07,0.13,0,0,0,0,0,0,0,0,0,0.13,0,.12,0,0.13a1.39,1.39,0,0,1-.43.54l0,0a0.3,0.3,0,0,1,.26,0,0.18,0.18,0,0,1,.08.09s-0.09-.2-0.06-0.1a1.3,1.3,0,0,1,.34-1.27,0.75,0.75,0,0,0-1.06-1.06h0Z" transform="translate(-1110.62 -1822.33)" style="fill:#fff"/><path d="M1197.43,1864.47c3.18,6.1,11.24,4.13,15.32,0a0.75,0.75,0,0,0-1.06-1.06c-3.39,3.4-10.26,5.47-13,.27a0.75,0.75,0,0,0-1.29.76h0Z" transform="translate(-1110.62 -1822.33)" style="fill:#fff"/><path d="M1196.81,1895.48c-0.5-.55-1.35-1.49-0.45-2s1.89,0.81,2.53,1.19a0.75,0.75,0,0,0,.76-1.3,15.29,15.29,0,0,0-2-1.33,2.38,2.38,0,0,0-2.37.35c-1.59,1.18-.56,3,0.47,4.17a0.75,0.75,0,0,0,1.06-1.06h0Z" transform="translate(-1110.62 -1822.33)" style="fill:#fff"/><path d="M1197.82,1892.11c0.43-1.86,2.37-.57,3,0.48a0.75,0.75,0,0,0,1.29-.76c-1.34-2.13-5-3.41-5.77-.12a0.75,0.75,0,0,0,1.45.4h0Z" transform="translate(-1110.62 -1822.33)" style="fill:#fff"/><path d="M1200.5,1890.27c1.46-2.24,4.65,2.64,5.49,3.73,0.58,0.76,1.88,0,1.29-.76-1.58-2.06-5.5-7.69-8.08-3.73a0.75,0.75,0,0,0,1.29.76h0Z" transform="translate(-1110.62 -1822.33)" style="fill:#fff"/><path d="M1217.39,1892.53c1.07-1.39,2.16-2.34,4-2.35a5.61,5.61,0,0,1,4.88,3.59c0.31,0.91,1.76.52,1.45-.4a7.27,7.27,0,0,0-5.52-4.61c-2.68-.52-4.57,1-6.1,3-0.59.77,0.72,1.51,1.29,0.76h0Z" transform="translate(-1110.62 -1822.33)" style="fill:#fff"/><path d="M1219.8,1900.6a9,9,0,0,1,4-5.88,0.75,0.75,0,0,0-.76-1.3,10.49,10.49,0,0,0-4.68,6.78c-0.2.94,1.24,1.34,1.45,0.4h0Z" transform="translate(-1110.62 -1822.33)" style="fill:#fff"/><path d="M1194.94,1910.93c0.54,1.33,1,2.69,1.49,4,0.39,1.09.61,3,1.53,3.75s2.79,0.92,4.09,1.09a46.89,46.89,0,0,0,7.17.34,63.25,63.25,0,0,0,12.85-1.75,29.06,29.06,0,0,0,9-3.28,0.77,0.77,0,0,0,.27-1c-0.88-1.74-.64-4.22-0.65-6.12a0.75,0.75,0,0,0-1.5,0c0,2.16-.15,4.88.85,6.88l0.27-1c-5.27,3.36-12.78,4.25-18.85,4.71a40.21,40.21,0,0,1-11.85-.71c-1.15-.26-1.35-2.28-1.7-3.27-0.48-1.35-1-2.71-1.49-4-0.36-.89-1.81-0.5-1.45.4h0Z" transform="translate(-1110.62 -1822.33)" style="fill:#fff"/><path d="M1215.89,1933.59a26.49,26.49,0,0,0-1.3,5.66c-0.54,3.1-1,6.21-1.42,9.33-0.64,4.56-.92,9.29-1.9,13.79-0.21.94,1.24,1.34,1.45,0.4,1-4.5,1.27-9.24,1.9-13.8,0.43-3.11.89-6.23,1.42-9.33a26.12,26.12,0,0,1,1.3-5.66c0.37-.89-1.08-1.28-1.45-0.4h0Z" transform="translate(-1110.62 -1822.33)" style="fill:#fff"/><path d="M1199.21,1963.29c4.24,0.87,8.5,1.66,12.65,0,0.89-.35.5-1.81-0.4-1.45-3.92,1.57-7.85.82-11.85,0-0.94-.19-1.35,1.25-0.4,1.45h0Z" transform="translate(-1110.62 -1822.33)" style="fill:#fff"/><path d="M1214.29,1932.38c2,1.45,2.63,3.88,3.73,6a82.71,82.71,0,0,1,3.63,7.94c2.2,5.57,3.92,11.33,5.71,17a0.75,0.75,0,0,0,1.45-.4c-2-6.34-4-12.65-6.42-18.83-1.06-2.68-2.47-5.17-3.7-7.76-1-2.07-1.75-3.89-3.65-5.27-0.79-.57-1.53.73-0.76,1.3h0Z" transform="translate(-1110.62 -1822.33)" style="fill:#fff"/><path d="M1228.36,1964.21c2.16-.49,4.38-0.58,6.53-1.11a25.07,25.07,0,0,0,5.48-2.47,0.75,0.75,0,0,0-.76-1.3,26,26,0,0,1-5.9,2.51c-1.88.46-3.86,0.49-5.75,0.92a0.75,0.75,0,0,0,.4,1.45h0Z" transform="translate(-1110.62 -1822.33)" style="fill:#fff"/><path d="M1199.79,1962.54a36.39,36.39,0,0,1-6.34,4.26c-1.11.66-2.72,1.43-2.79,2.89-0.14,2.87,6.23.75,7.15,0.5a75.32,75.32,0,0,0,7.53-2.15,5,5,0,0,0,1.57-.87,1.48,1.48,0,0,0,1.17.64c3.63,0.74,4.08-1.64,3.64-4.7-0.14-1-1.58-.55-1.45.4a7.32,7.32,0,0,1,0,2.51c-0.09.67-2.06,0.43-2.24,0.1a1.38,1.38,0,0,0-1.32-.54c-0.83.23-1.81,1-2.58,1.3a44.8,44.8,0,0,1-5,1.43c-1.38.34-2.76,0.69-4.13,1.11a6.17,6.17,0,0,1-1.87.23c-1.65,0,0-.86.47-1.17,2.46-1.61,5.12-2.86,7.29-4.89a0.75,0.75,0,0,0-1.06-1.06h0Z" transform="translate(-1110.62 -1822.33)" style="fill:#fff"/><path d="M1228.61,1963.76a11.23,11.23,0,0,0,4.91,5.55c1.68,1,4.2,2,6.08,1,3-1.56,1.42-7.43,1-9.9-0.18-.95-1.62-0.55-1.45.4,0.44,2.31,1.24,5.33.24,7.59-0.76,1.71-3.43.41-4.56-.14a9.46,9.46,0,0,1-4.74-4.94c-0.34-.89-1.79-0.51-1.45.4h0Z" transform="translate(-1110.62 -1822.33)" style="fill:#fff"/><path d="M1180.08,1903.6c-0.29,1.53-1.69,4.43-.38,5.83a5.59,5.59,0,0,0,2.46,1.18,31.34,31.34,0,0,0,5.1,1.26,0.78,0.78,0,0,0,.92-0.52,4,4,0,0,0,.25-0.92c0.14-.95-1.3-1.35-1.45-0.4a3.92,3.92,0,0,1-.25.92l0.92-.52a33.42,33.42,0,0,1-6.33-1.68c-1.43-.52,0-3.69.19-4.75s-1.26-1.35-1.45-.4h0Z" transform="translate(-1110.62 -1822.33)" style="fill:#fff"/><path d="M1178.66,1909.62c-0.71,3.36-.31,6.09,2.62,8.18,2.43,1.74,6.23,2.38,8.19-.31a4.18,4.18,0,0,0-2.06-6.37,2.31,2.31,0,0,0-2.75,1.32c-0.71,1.48.35,3.06,1.37,4.08a0.75,0.75,0,0,0,1.06-1.06c-0.84-.84-1.33-3.54.52-2.67a2.36,2.36,0,0,1,1.08,2.24c0.05,2.25-2.06,3-4,2.68a7.15,7.15,0,0,1-4.29-2.77c-1-1.41-.66-3.36-0.32-4.93,0.2-.94-1.25-1.34-1.45-0.4h0Z" transform="translate(-1110.62 -1822.33)" style="fill:#fff"/><path d="M1263.65,1831.92c0,2.16.67,5.1,3.14,5.71a5.6,5.6,0,0,0,3.89-.37c1.46-.66,4.72-2.31,4.15.49-0.36,1.72.77,2.59,2.36,2.8,1.14,0.14,3.42-1.63,4.3-.45,0.65,0.86.6,2.65,0.93,3.68,0.41,1.28,1.18,2.12,1.31,3.55,0.09,1,1.59,1,1.5,0-0.17-1.83-1.08-3.07-1.63-4.79-0.4-1.23-.18-3-1.4-3.89a2.7,2.7,0,0,0-2.25-.37c-1.18.2-4.14,1.78-3.53-.8,0.33-1.38,0-2.73-1.64-2.86a8,8,0,0,0-4.22,1.06c-3.33,1.57-5.42-.39-5.42-3.75a0.75,0.75,0,0,0-1.5,0h0Z" transform="translate(-1110.62 -1822.33)" style="fill:#fff"/><path d="M1263.65,1832.48c-0.23,3.41.12,6.28-2.64,8.75-1.64,1.46-3.6,2.47-5.17,4a3.75,3.75,0,0,0-1.16,3.82,4.1,4.1,0,0,0,1.5,1.82c2.14,1.74.25,3.05-1.11,4-0.84.57-1.78,1.64-1.17,2.69a3.49,3.49,0,0,0,1.48,1c2.4,1.25.82,3.58-.43,4.87-2.31,2.38-5.48,1.69-8,.19a4.71,4.71,0,0,1-2.46-3.54c-0.21-1.93,1.85-2.74,3.28-3.23,0.91-.31.52-1.76-0.4-1.45-1.86.64-4.23,1.74-4.35,4-0.14,2.71,1.49,4.47,3.71,5.8a7.89,7.89,0,0,0,7,.73c2.4-.95,4.66-3.64,4.39-6.31a3.22,3.22,0,0,0-1.55-2.1c-0.21-.16-1.55-0.6-1.1-1.16a12,12,0,0,1,1.92-1.34c2-1.64,1.66-3.73-.21-5.26-3.58-2.93,3.46-6.32,5.33-8,2.78-2.48,2.36-6,2.59-9.36,0.06-1-1.44-1-1.5,0h0Z" transform="translate(-1110.62 -1822.33)" style="fill:#fff"/><path d="M1284.84,1849.11c1.85-3.08,6.33-4.61,5.75-8.81-0.22-1.65-2.25-2.81-3.35-3.82-1.6-1.46-.51-3.84-1.65-5.6a4.27,4.27,0,0,0-4.29-1.61c-1.65.36-3.21,0.78-4.33-1-0.61-1-.94-2.11-1.46-3.13a5.15,5.15,0,0,0-4.33-2.82c-2.75.14-4,1.87-6.1,3.38-1.52,1.11-4.66-1.38-6.45-1.42a5,5,0,0,0-4.83,2.51,7.59,7.59,0,0,0-.67,2.51c-0.38,2.18-1.85,3.17-3.88,3.73-1.48.41-3.82,0.49-4.31,2.36-0.59,2.29,1.38,4,1,6.18-0.2,1.19-2,2.3-2.81,3.08a11.52,11.52,0,0,0-2.33,3.44,7.39,7.39,0,0,0,3.95,9.68c0.91,0.34,1.3-1.11.4-1.45-2.72-1-3.79-4.22-3.23-6.91s3.2-4.21,4.84-6.24a3.19,3.19,0,0,0,.69-2.51,11.64,11.64,0,0,0-.77-2.39c-0.85-2.05.29-3.2,2.27-3.63,3.61-.78,5.14-2.59,5.83-6.12,1.28-6.59,7.41.45,10.6-1.29,2.2-1.19,3.44-3.76,6.35-3.33,2.37,0.35,3,3.36,3.93,5.12a4.18,4.18,0,0,0,2.66,2.17c2.1,0.58,5.07-2.09,6.31,1.1,0.48,1.22-.19,2.67.49,3.87a13.94,13.94,0,0,0,3.11,3.17c3.27,3-3.3,6.65-4.71,9a0.75,0.75,0,0,0,1.29.76h0Z" transform="translate(-1110.62 -1822.33)" style="fill:#fff"/><path d="M1283.76,1847c-1,5.63-1.69,11.37-4.68,16.38a14.74,14.74,0,0,1-5.74,5.52c-3.54,1.88-6.55-.1-9.25-2.4-0.73-.62-1.8.43-1.06,1.06,2.14,1.82,4.47,3.56,7.38,3.71,2.65,0.13,5.42-1.94,7.22-3.65,5.48-5.18,6.29-13.25,7.57-20.22,0.17-.95-1.27-1.35-1.45-0.4h0Z" transform="translate(-1110.62 -1822.33)" style="fill:#fff"/><path d="M1255.23,1864.23c0,1.64.14,3.79-1.38,4.85-0.79.55,0,1.85,0.76,1.3,2-1.44,2.12-3.86,2.12-6.15a0.75,0.75,0,0,0-1.5,0h0Z" transform="translate(-1110.62 -1822.33)" style="fill:#fff"/><path d="M1266.09,1869.87a3.63,3.63,0,0,0,.17,2.46,3.12,3.12,0,0,0,2.1,1.29,0.75,0.75,0,0,0,.4-1.45,1.91,1.91,0,0,1-1.21-.6,2,2,0,0,1,0-1.31c0.18-.95-1.27-1.35-1.45-0.4h0Z" transform="translate(-1110.62 -1822.33)" style="fill:#fff"/><path d="M1255.45,1869.35c2.9,3,7.54,4.69,11.65,3.61a0.75,0.75,0,0,0-.4-1.45c-3.59.94-7.66-.62-10.19-3.22a0.75,0.75,0,0,0-1.06,1.06h0Z" transform="translate(-1110.62 -1822.33)" style="fill:#fff"/><path d="M1239.51,1883.26a64.44,64.44,0,0,1,9.25-8.47l-1.25-.33a57.41,57.41,0,0,0,4,8.35,20.09,20.09,0,0,1,2.37,11.44,48.35,48.35,0,0,1-2.61,11.53c-1.08,3.19-3.22,5.84-3.53,9.28a0.76,0.76,0,0,0,.55.72,23.63,23.63,0,0,0,17.47.45c5.35-2.08,7.71-6.27,8.75-11.69a37.64,37.64,0,0,0,.52-9.19c-0.17-3.14-.21-6.43-1.73-9.25-1.38-2.58-3.83-4.61-5.9-6.61-2.54-2.46-5.21-4.51-8-6.71-1.79-1.43-3.61-3.43-6-3.9-1.3-.26-3,1.42-3.92,2.16-1.14.88-2.16,2-1.89,3.56s2.95,1.53,4.09,1.58c1,0,1.94.08,2.91,0.09,2.25,0,.58,2.32.58,3.38,0,2.24,1.61,2.72,3.57,2.93,4.59,0.51,8.84,3.39,11.91,6.69a23.58,23.58,0,0,1,2.69,3.67,0.75,0.75,0,0,0,1.3-.76,25,25,0,0,0-9.07-8.82,22.15,22.15,0,0,0-4-1.7c-1.74-.56-5.55-0.32-4.52-3.12,1.37-3.75-1.27-3.76-4.32-3.84a19.81,19.81,0,0,1-3-.21c-1.92-.34,1.3-2.75,1.53-2.91,0.61-.44,1.25-0.82,1.89-1.21,0.44-.27,2.83,1.55,3.42,2a155.7,155.7,0,0,1,12,10.34c2.42,2.38,4.22,4.82,4.6,8.27a53.32,53.32,0,0,1,.32,9.91,29.06,29.06,0,0,1-1.5,7.24c-1.07,3.1-3.26,5-6.13,6.41-5.32,2.62-11.87,1.94-17.19-.22l0.55,0.72c0.33-3.71,2.92-7,4-10.58a53.62,53.62,0,0,0,2.11-10.24,19.46,19.46,0,0,0-1.42-9.77c-1.5-3.56-3.77-6.74-5-10.42a0.76,0.76,0,0,0-1.25-.33,64.4,64.4,0,0,0-9.25,8.47c-0.62.73,0.44,1.8,1.06,1.06h0Z" transform="translate(-1110.62 -1822.33)" style="fill:#fff"/><path d="M1254.37,1895.12c-0.68-2.17-2.88-3.06-4.36-4.58a0.75,0.75,0,0,0-1.06,1.06c1.23,1.26,3.41,2.14,4,3.92a0.75,0.75,0,0,0,1.45-.4h0Z" transform="translate(-1110.62 -1822.33)" style="fill:#fff"/><path d="M1249.52,1889.92c-2.45,1.13-7.37,3.38-4.27,6.51a14.45,14.45,0,0,0,2.3,1.64c1.75,1.17,1.17,2.5.45,4.12-0.3.67-1.54,4.53-2.58,4.35a15,15,0,0,1-5.83-3.08c-0.73-.63-1.8.43-1.06,1.06a19.63,19.63,0,0,0,4.41,2.56,5.75,5.75,0,0,0,3,1,2.31,2.31,0,0,0,1.51-1.26,52.26,52.26,0,0,0,2.61-5.44c1-2-.11-3.37-1.78-4.55-1.14-.81-3.52-1.79-2-3.35a13.27,13.27,0,0,1,3.94-2.21c0.88-.41.11-1.7-0.76-1.3h0Z" transform="translate(-1110.62 -1822.33)" style="fill:#fff"/><path d="M1274.64,1890.53a43.24,43.24,0,0,1,.91-5.36c0.29-1.2,1.11-2.33,1.52-3.5a2.32,2.32,0,0,0-.25-2.21c-0.3-.41-2.34-1.09-2.08-1.26,3.51-2.4-4.14-5.52-5.68-6a0.75,0.75,0,0,0-.92.92c2.14,5.1,4.64,10.78,4.91,16.38a0.75,0.75,0,0,0,1.5,0c-0.28-5.76-2.76-11.53-5-16.78l-0.92.92a14.24,14.24,0,0,1,4.81,2.39c1.06,0.88-1.31,1.89-.37,3.28a2.6,2.6,0,0,0,1.63.77c1.83,0.44.27,2.75-.2,3.72-1,2-1.13,4.52-1.38,6.75-0.11,1,1.39.95,1.5,0h0Z" transform="translate(-1110.62 -1822.33)" style="fill:#fff"/><path d="M1274.33,1877.16c2.9,2.55,5.35,6.92,4.79,10.91a40.65,40.65,0,0,0-.79,4.21c-0.07,1.87.79,3.78,1.14,5.59a36,36,0,0,1,0,13.1c-0.14.72-.34,1.43-0.53,2.13-0.46,1.72-1.13.58-2.16-.24a37,37,0,0,1-3.84-3.73,0.75,0.75,0,0,0-1.06,1.06c1.3,1.39,5.17,6.47,7.48,5.22,1.1-.59,1.33-3,1.56-4a33,33,0,0,0,.44-8,35.69,35.69,0,0,0-.89-7.75,11.57,11.57,0,0,1-.54-4.83,19.88,19.88,0,0,0,.74-3.3,15.68,15.68,0,0,0-5.31-11.37c-0.72-.64-1.79.42-1.06,1.06h0Z" transform="translate(-1110.62 -1822.33)" style="fill:#fff"/><path d="M1273.42,1876.87a18.72,18.72,0,0,1,6.23,4.69c2.14,2.4,4.63,4.8,5.56,8,1.7,5.77-4.58,9.86-5.07,15.08-0.09,1,1.41,1,1.5,0,0.14-1.51,1.16-2.87,1.94-4.13a30.58,30.58,0,0,0,2-4.06,11.68,11.68,0,0,0,.84-8c-0.83-2.81-3.31-5.23-5.21-7.35a21.49,21.49,0,0,0-7.06-5.52c-0.87-.4-1.63.89-0.76,1.3h0Z" transform="translate(-1110.62 -1822.33)" style="fill:#fff"/><path d="M1252.4,1940.4c-0.65,5.31-.66,10.77-0.93,16.11q-0.09,1.82-.18,3.64,0,0.49,0,1c0,0.52,0-.2-0.3.09a20.77,20.77,0,0,0-3.91,5.22c-0.84,1.4-1.75,2.06-1.27,3.65a0.76,0.76,0,0,0,1.1.45,52.58,52.58,0,0,1,10.52-4.73c1.4-.51,1.61-3.32,2-4.57,2-6.66,3.9-13.4,6.25-19.95,0.33-.91-1.12-1.3-1.45-0.4-2.25,6.27-4.06,12.73-6,19.11q-0.57,1.88-1.13,3.76l-0.25.86c0.09-.33.73-0.46-0.31-0.08a52.79,52.79,0,0,0-10.39,4.7l1.1,0.45c-0.34-1.14,1.59-3.29,2.27-4.37a11,11,0,0,1,2.89-3.28,0.8,0.8,0,0,0,.37-0.66q0.13-2.66.26-5.32c0.26-5.19.27-10.49,0.9-15.66,0.12-1-1.38-.95-1.5,0h0Z" transform="translate(-1110.62 -1822.33)" style="fill:#fff"/><path d="M1266.18,1941c1.29,3.48,1.62,7.43,2.15,11.07s1.49,7.51,1.49,11.14a0.75,0.75,0,0,0,.37.65c1.82,0.94,3.67,1.8,5.52,2.67,1.36,0.64,4,1.41,4.79,2.73a0.75,0.75,0,0,0,1.29-.76c-1.3-2.91-2.3-7-4.62-9.32a4.18,4.18,0,0,0,.09-1.55c0-1.16.08-2.31,0.13-3.47,0.2-4.85.43-9.69,0.74-14.53,0.06-1-1.44-1-1.5,0-0.32,5-.55,10.06-0.77,15.09-0.05,1.22-.7,4.09,0,5.21a93.29,93.29,0,0,1,4.67,9.33l1.29-.76c-0.65-1.14-1.78-1.51-2.94-2.11-2.09-1.07-4.24-2-6.35-3-0.65-.32-1.12-0.14-1.21-0.67s-0.12-.77-0.18-1.16c-0.21-1.46-.4-2.92-0.59-4.39-0.72-5.39-1-11.4-2.9-16.54-0.33-.9-1.78-0.51-1.45.4h0Z" transform="translate(-1110.62 -1822.33)" style="fill:#fff"/><path d="M1270.84,1896.52a1.9,1.9,0,0,0,.75,3c1.32,0.52,2.33-.9,2.26-2.07a1.66,1.66,0,0,0-2.15-1.54,1.45,1.45,0,0,0-1,1,2,2,0,0,0,.55,1.73,0.75,0.75,0,0,0,1.06,0,0.77,0.77,0,0,0,0-1.06l-0.12-.19a1.15,1.15,0,0,1,0-.15c0,0.16,0-.13,0,0.07,0-.07,0,0,0,0s-0.09,0,0,0-0.12,0,.09,0h0c0.19,0-.12-0.08,0,0s0-.05,0,0a0.17,0.17,0,0,1,0,.15,0.75,0.75,0,0,1-.18.56h-0.08c0.05,0,0,0-.11,0,0.06,0,0,0,0,0a0.16,0.16,0,0,1-.08-0.13,0.94,0.94,0,0,1,.28-0.65,0.75,0.75,0,0,0-.27-1,0.77,0.77,0,0,0-1,.27h0Z" transform="translate(-1110.62 -1822.33)" style="fill:#fff"/><path d="M1271,1901.84a1.94,1.94,0,0,0-1.06,2.2,1.6,1.6,0,0,0,2.48.59c1.28-1.06.26-3.85-1.51-2.87a0.75,0.75,0,0,0,.76,1.3c0.15-.09,0,0,0,0a0.3,0.3,0,0,1-.21-0.09c0.14,0.11-.06-0.11,0,0-0.08-.13,0,0.05,0,0.08,0.06,0.21,0-.13,0,0.1,0,0,0,.25,0,0.1a1.27,1.27,0,0,1-.06.22c0-.15-0.09.1,0,0-0.08.1,0,0,0,0-0.15.06,0.06,0-.12,0s0,0,0,.13a0.64,0.64,0,0,1,.39-0.48c0.87-.43.11-1.72-0.76-1.3h0Z" transform="translate(-1110.62 -1822.33)" style="fill:#fff"/><path d="M1274,1855.35c0.12,0.79.6,1.51,0.64,2.3,0,0.08-.13.33,0,0.21s0.07,0-.05,0c-0.31,0-.61,0-0.92.07-0.94.13-1,1.63,0,1.5s1.92,0,2.34-1c0.5-1.18-.36-2.33-0.54-3.48-0.15-1-1.59-.55-1.45.4h0Z" transform="translate(-1110.62 -1822.33)" style="fill:#fff"/><path d="M1276.12,1849.54a2.81,2.81,0,0,0,0,4,1.65,1.65,0,0,0,1.85.4,2.45,2.45,0,0,0,1.2-1.75,3,3,0,0,0-.28-2.24,1.62,1.62,0,0,0-2.1-.49c-1.22.6-1.13,2.77-.56,3.76a0.76,0.76,0,0,0,1,.27,2.3,2.3,0,0,0,.77-3.28,0.77,0.77,0,0,0-1.18-.15,2.06,2.06,0,0,0-.64,1.78c0.1,1,1.6,1,1.5,0a0.72,0.72,0,0,1,.2-0.72l-1.18-.15a0.81,0.81,0,0,1-.23,1.22l1,0.27a2.08,2.08,0,0,1,0-1.67s0.11-.12.17,0a1.81,1.81,0,0,1,0,1.07,1.16,1.16,0,0,1-.41.72c0.09-.05.06,0,0-0.05s-0.13-.12-0.21-0.21a1.28,1.28,0,0,1,.17-1.72,0.75,0.75,0,0,0-1.06-1.06h0Z" transform="translate(-1110.62 -1822.33)" style="fill:#fff"/><path d="M1267.29,1850a2.66,2.66,0,0,0,.28,3.88,1.52,1.52,0,0,0,1.87-.09,2.31,2.31,0,0,0,.82-1.85c0-1.2-.74-3.14-2.29-2.5s-1.11,2.89-.17,3.78a0.76,0.76,0,0,0,1.06,0,2.18,2.18,0,0,0,.42-2.3,1,1,0,0,0-.89-0.58,1.31,1.31,0,0,0-1,.73c-0.54.81,0.76,1.56,1.3,0.76,0.13-.19-0.71-0.24-0.69-0.21s0,0.07,0,.12a0.65,0.65,0,0,1-.14.43h1.06a1.61,1.61,0,0,1-.29-1.38c-0.15.07-.16,0.09,0,0a0.09,0.09,0,0,1-.08,0,0.42,0.42,0,0,1,.17.24,2.15,2.15,0,0,1,.14.88,0.71,0.71,0,0,1-.16.58,0.32,0.32,0,0,1-.2.16c0.05,0,.18,0,0,0,0.12,0-.08-0.07,0,0a1.16,1.16,0,0,1-.06-1.58c0.64-.72-0.42-1.79-1.06-1.06h0Z" transform="translate(-1110.62 -1822.33)" style="fill:#fff"/><path d="M1276.62,1847.92a4.06,4.06,0,0,1,2.37.65c0.73,0.63,1.8-.43,1.06-1.06a5.67,5.67,0,0,0-3.43-1.09c-1-.09-1,1.42,0,1.5h0Z" transform="translate(-1110.62 -1822.33)" style="fill:#fff"/><path d="M1266.28,1848.63a3.21,3.21,0,0,1,2.51-.59c0.94,0.2,1.34-1.24.4-1.45a4.68,4.68,0,0,0-3.66.74c-0.77.56,0,1.87,0.76,1.3h0Z" transform="translate(-1110.62 -1822.33)" style="fill:#fff"/><path d="M1265.87,1862c4.26,0.77,8,1.51,12.08-.41,0.87-.41.11-1.7-0.76-1.3-3.65,1.72-7.12.95-10.92,0.26-0.95-.17-1.35,1.27-0.4,1.45h0Z" transform="translate(-1110.62 -1822.33)" style="fill:#fff"/><path d="M1267.87,1863c1.4,1.61,2.72,3.1,5,2.89a5.46,5.46,0,0,0,4.47-4c0.31-.92-1.14-1.31-1.45-0.4a4,4,0,0,1-3.51,2.91c-1.53.14-2.62-1.49-3.49-2.49-0.64-.73-1.69.33-1.06,1.06h0Z" transform="translate(-1110.62 -1822.33)" style="fill:#fff"/><path d="M1276.87,1861.18a2.16,2.16,0,0,1,.47,1.09c0.18,0.95,1.63.55,1.45-.4a3.57,3.57,0,0,0-.86-1.75,0.75,0.75,0,0,0-1.06,1.06h0Z" transform="translate(-1110.62 -1822.33)" style="fill:#fff"/><path d="M1196.11,1897c5.7-1,10.88-3.55,16.77-3.53,0.61,0,2.75-.15,2.89.34,0.44,1.52.72,3.09,1.18,4.61,0.41,1.34.38,2.86,1.76,3.41l-0.18-1.37c-2.84,1.41-5.53,3.11-8.33,4.59a53.17,53.17,0,0,1-10.78,4.06c-5.09,1.37-12.1.34-15.45-4.09-2.54-3.35-1.31-7.7,0-11.27a37.91,37.91,0,0,1,6.75-11.91,23.62,23.62,0,0,1,5.46-4.73c1.54-1,4.71-2.79,6.56-2.19s3.35,1.33,5.07,2a11,11,0,0,0,7.87-.58,15.53,15.53,0,0,0,3.39-2c1.88-1.49,3.18-2.34,5.6-1.24a26.68,26.68,0,0,1,6.8,4.87c3.78,3.49,7,7.75,8.29,12.77a14,14,0,0,1-.85,9.71c-1.32,2.61-4,4.13-6.58,5.31-7,3.27-15,1.66-22.18-.18a0.75,0.75,0,0,0-.4,1.45c6.58,1.69,12.94,2.83,19.72,1.37,4.47-1,9.78-4.06,11.37-8.57,3.31-9.41-3-18.42-9.86-24.3a23,23,0,0,0-7.15-4.37c-2.47-.87-4.47,1.11-6.27,2.45A10.42,10.42,0,0,1,1207,1875a35,35,0,0,0-4.36-1.61c-1.41-.46-3.9.86-5.19,1.42a21.49,21.49,0,0,0-5.83,4,34.56,34.56,0,0,0-7.61,11c-3.14,6.72-5.17,15.16,2.66,19.49,11,6.07,23.11-2.66,32.66-7.41a0.76,0.76,0,0,0-.18-1.37c-0.35-.14-0.81-2.71-1-3.28-0.43-1.41-.67-2.87-1.07-4.28a0.74,0.74,0,0,0-.52-0.52,28,28,0,0,0-9.15.14c-4,.72-7.69,2.39-11.66,3.11-1,.17-0.55,1.62.4,1.45h0Z" transform="translate(-1110.62 -1822.33)" style="fill:#fff"/><path d="M1222,1896.71c2.21-.89,4.48-1.61,6.75-2.33a0.75,0.75,0,0,0-.4-1.45c-2.27.73-4.54,1.45-6.75,2.33-0.89.35-.5,1.81,0.4,1.45h0Z" transform="translate(-1110.62 -1822.33)" style="fill:#fff"/><path d="M1193.44,1840.87c-2.64,9.26-5,22,2.53,29.74,2.95,3,8.53,5.43,12.81,4.18a0.75,0.75,0,0,0-.4-1.45c-3.72,1.09-8.48-1.11-11.13-3.57-7.52-7-4.81-19.94-2.37-28.5a0.75,0.75,0,0,0-1.45-.4h0Z" transform="translate(-1110.62 -1822.33)" style="fill:#fff"/></svg>