<svg id="Слой_2" data-name="Слой 2" xmlns="http://www.w3.org/2000/svg" viewBox="0 0 178.77 465.71"><title>handup</title><path d="M214.9,1291.68c-13.79.9-18.94,2.53-20.4,15.65-0.93,8.34-7.77,98.64-3.23,100.45,3.45,1.37,14.36,1,18,1.73,5.1,1.07,15.47-84.72,16.1-100.09,0.3-7.37,5-16.7-10.5-17.75" transform="translate(-101.99 -1288.68)" style="fill:none;stroke:#ea4e3e;stroke-linecap:round;stroke-linejoin:round;stroke-width:6px;fill-rule:evenodd"/><path d="M192.87,1420.08c-6.83,4.42-9.47,12.73-4.71,17.5,4.07,4.09,12.74,6.47,16.46,1.63,10.23-13.3-5-23.16-11.76-19.13" transform="translate(-101.99 -1288.68)" style="fill:none;stroke:#ea4e3e;stroke-linecap:round;stroke-linejoin:round;stroke-width:5px;fill-rule:evenodd"/><path d="M265.56,1328.29c-9.6-1.57-11.2-1.6-13.24,6.95-1,4.35-12.14,70.61-12.41,83.95-0.05,2.47,16.54,5.87,17.25,3.25,13.25-48.75,20.6-80.18,20.61-87,0-6.27-6.12-6.19-12.2-7.16" transform="translate(-101.99 -1288.68)" style="fill:none;stroke:#ea4e3e;stroke-linecap:round;stroke-linejoin:round;stroke-width:6px;fill-rule:evenodd"/><path d="M242.46,1432.76c-17.93,12.42,9.77,23.92,9.74,7.09,0-5.21-4.31-9.3-9.74-7.09" transform="translate(-101.99 -1288.68)" style="fill:none;stroke:#ea4e3e;stroke-linecap:round;stroke-linejoin:round;stroke-width:5px;fill-rule:evenodd"/><path d="M271.08,1686.28a7,7,0,0,0,1.41-2.12c4.51-10.32,5.89-20.86.33-31.05a22.8,22.8,0,0,0-2-3.1,7.69,7.69,0,0,0,.87-1.36c5.38-10.68,10.39-24,5.51-35.83a25.65,25.65,0,0,0-10.64-12.11,6.45,6.45,0,0,0,3.13-4.34c5.34-22.76-17.43-37.43-37.83-42.07-0.1-.68-0.31-4.74-0.31-5.69,0-24.07-12.22-63.08-40.46-66.43-17.15-2-29.15,9-30,25.77-0.39,7.75,1.89,15.52,2.82,23.16,1.38,11.3,0,22.56-2.49,33.58,0,0.07,0,.13,0,0.2,0.09,2.94-2.65,4.12-2.41,6.5-11.52,6-22.15,13.34-31.23,23-23.6,25.2-30.15,62.41-23,95.42,6.67,30.73,30.41,54.34,60.65,62,19.25,4.88,39.79,2.28,58.39-3.95s40-17.77,48.5-36.5C276.32,1702.52,275.51,1693.4,271.08,1686.28Z" transform="translate(-101.99 -1288.68)" style="fill:#181716;fill-rule:evenodd"/><path d="M187.7,1492.5c10.56,1.25,17.26,12.4,21.13,21.19a80.54,80.54,0,0,1,7.1,32,6.89,6.89,0,0,0,.62,3,6.3,6.3,0,0,0-.16.61c-14.36,0-28.88,5.18-42.09,10.8a117.78,117.78,0,0,0,.33-43.29C172.71,1505.78,171.94,1490.64,187.7,1492.5Z" transform="translate(-101.99 -1288.68)" style="fill:#fff;stroke:#fff;stroke-miterlimit:10;stroke-width:6px;fill-rule:evenodd"/><path d="M245.53,1725.36c-27.94,19-68.37,24.47-98.64,6.89-30.78-17.88-38.73-56.26-32.42-88.15,3.39-17.14,12.21-32.3,24.91-44.39,13.32-12.68,31.33-20.33,48.61-26.48,15.54-5.54,34.86-7.12,50.61-4.8,10.61,1.56,22,12.92,19,25.37-0.28,1.17-2,2.71-3.05,2.5-23-4.66-52.89-3.82-71,12.29-6.94,6.19-.41,16.56,7.71,12.12,16.09-8.79,36.57-12.56,55-11.32,6.55,0.44,15.08,2.29,19,7.86,5.24,7.46,2.93,16.31-.65,23.34-9.89-5.6-53.41-6.93-71.84,10-6.82,6.25,2.65,15.75,10.55,11.08,15.08-8.9,41.56-15.82,57.19-4.61,6.39,4.58,5.19,18.36,2.53,24.82a32.38,32.38,0,0,0-5-2.06c-20.42-6.45-41.32,7.73-54.11,20.73-6.48,6.58,4.13,16.41,10.59,9.85,9.93-10.09,34-23.66,43.69-18.33C274.06,1700.75,253.34,1720,245.53,1725.36Z" transform="translate(-101.99 -1288.68)" style="fill:#fff;stroke:#fff;stroke-miterlimit:10;stroke-width:6px;fill-rule:evenodd"/><path d="M129.89,1305.37c-5.57-1.17-11.5,1-16.28,3.78-2.88,1.67-5.54,3.81-6,7.25-1.07,7.49,2,15.74,4.32,22.73,3.7,11.29,8.21,22.32,12.77,33.28q3.67,8.83,7.46,17.61l3.5,8.12c0.79,1.83,1.44,5.09,3.48,6,3.08,1.33,7,.27,10.13-0.51,3.33-.84,7.38-2.09,9.75-4.73,1.42-1.58,1.53-3.25,1.14-5.26-0.62-3.16-1.29-6.31-2-9.46-1.49-6.73-3.15-13.43-4.9-20.1-3.09-11.75-6.53-23.43-10.45-34.94-2.39-7-4.68-14.81-8.7-21.13-2.07-3.25-7.26-.25-5.18,3,4.1,6.45,6.32,14.4,8.73,21.58,4.1,12.2,7.65,24.6,10.85,37.07q2.57,10,4.72,20.07,0.5,2.35,1,4.71c0,0.2.12,1.48,0.28,0.64,0.12-.64-0.21.12,0.08-0.22-0.89,1-2.68,1.62-4.07,2.11a36.93,36.93,0,0,1-5.65,1.47,17.68,17.68,0,0,1-2.06.25c-0.33,0-.65,0-1,0s-0.18,0,.18.17l0.79,0.81-0.55-1.29-0.84-2-1.72-4q-1.92-4.46-3.83-8.93c-7.09-16.57-14.35-33.24-19.57-50.51-1.49-4.94-3.28-10.37-2.82-15.54-0.06.71,0.07-.3,0.11-0.44s0.08-.29.13-0.43c0.22-.69-0.29.57,0,0a0.72,0.72,0,1,0-.15.15,6.74,6.74,0,0,1,.65-0.64,14.37,14.37,0,0,1,2.43-1.74c3.17-2,7.85-4,11.65-3.17s5.38-5,1.59-5.79h0Z" transform="translate(-101.99 -1288.68)" style="fill:#ea4e3e"/><path d="M149.34,1407.6c-7.2,2.3-10.87,9.8-7.59,16.79,2.73,5.83,10.69,9.55,16.31,5.34,4.58-3.44,6.37-9.82,5.33-15.3-1.3-6.86-8.11-8.56-14.05-6.83-3.09.9-1.77,5.72,1.33,4.82,3.61-1.05,7-.75,7.9,3.34a11,11,0,0,1-2.76,9.35c-2.94,3-7.53.69-9.34-2.43-2.41-4.16-.18-8.87,4.2-10.26,3.06-1,1.75-5.8-1.33-4.82h0Z" transform="translate(-101.99 -1288.68)" style="fill:#ea4e3e"/></svg>