<svg id="Слой_1" data-name="Слой 1" xmlns="http://www.w3.org/2000/svg" viewBox="0 0 1404.19 592.21"><title>header-bg</title><g style="opacity:0.4"><path d="M-181.79,780.45l14.29-6.92a1.14,1.14,0,0,0,.13-0.71,1.13,1.13,0,0,0-.29-0.67l-13.77-3.43Z" transform="translate(198.57 -318.2)" style="fill:#f7a800;fill-rule:evenodd"/><path d="M-172.49,794.65l6.71-19.44a1.13,1.13,0,0,0-.41-0.6,1.17,1.17,0,0,0-.68-0.27L-182,783.48Z" transform="translate(198.57 -318.2)" style="fill:#f7a800;fill-rule:evenodd"/><path d="M-152.2,798.42l-11.19-23.25a1.16,1.16,0,0,0-.71-0.13,1.15,1.15,0,0,0-.67.29l-5.44,21.85Z" transform="translate(198.57 -318.2)" style="fill:#f7a800;fill-rule:evenodd"/><path d="M-133,783.46l-28.71-10a1.18,1.18,0,0,0-.6.41,1.17,1.17,0,0,0-.27.68l14.47,24.23Z" transform="translate(198.57 -318.2)" style="fill:#f7a800;fill-rule:evenodd"/><path d="M-130.13,755.85l-31.62,15.21a1.15,1.15,0,0,0-.13.72,1.13,1.13,0,0,0,.29.67l31.49,7.89Z" transform="translate(198.57 -318.2)" style="fill:#f7a800;fill-rule:evenodd"/><path d="M-151,733.3l-12.46,36.1a1.15,1.15,0,0,0,.41.6,1.16,1.16,0,0,0,.68.27l32.19-19.19Z" transform="translate(198.57 -318.2)" style="fill:#f7a800;fill-rule:evenodd"/><path d="M-187.41,724.13l21.56,45.29a1.14,1.14,0,0,0,.71.13,1.15,1.15,0,0,0,.67-0.29l9.75-39.14Z" transform="translate(198.57 -318.2)" style="fill:#f7a800;fill-rule:evenodd"/><path d="M-180,767.08l12.55,4.15a0.91,0.91,0,0,0,.48-0.41,1.17,1.17,0,0,0,.26-0.68l-6.51-10.46Z" transform="translate(198.57 -318.2)" style="fill:#f7a800;fill-rule:evenodd"/><path d="M-13.75,664.13l7.59-3.67,5.1-2.47c0.37-.18,1.73-0.55,1.83-1.07,0.53-2.81-3.25-2.69-5.26-3.19l-9-2.25a0.51,0.51,0,0,0-.63.48L-14.5,663.7a0.5,0.5,0,0,0,1,0L-13.13,652l-0.63.48,7.13,1.77,4.76,1.18c0.15,0,2.73.55,1.76,1l-14.13,6.84C-14.84,663.55-14.33,664.41-13.75,664.13Z" transform="translate(198.57 -318.2)" style="fill:#f7a800"/><path d="M-4.22,678l3.35-9.72,2.37-6.86a11.12,11.12,0,0,0,1-3C2.5,655-4,660-4.56,660.32l-9.85,6a0.51,0.51,0,0,0-.1.79l9.46,11.17c0.42,0.49,1.12-.22.71-0.71l-9.46-11.17-0.1.79,8.18-5L-0.51,659c0.34-.2,2.36-1.68,1.91-0.35l-6.58,19.09C-5.4,678.38-4.43,678.64-4.22,678Z" transform="translate(198.57 -318.2)" style="fill:#f7a800"/><path d="M16,681.42L4.83,658.17c-0.72-1.5-2.3.26-2.51,1.11l-1.8,7.23L-2.9,680.3a0.51,0.51,0,0,0,.48.63l18,1.24c0.64,0,.64-1,0-1l-18-1.24,0.48,0.63,3-11.89,1.88-7.57c0.07-.3.62-3.36,1.2-2.16l11.05,23C15.43,682.5,16.29,682,16,681.42Z" transform="translate(198.57 -318.2)" style="fill:#f7a800"/><path d="M34.91,666.23l-14.82-5.17-9.75-3.4c-1-.33-3.36-1.73-4.41-1.44-2.21.61-.76,2.51-0.12,3.58l5,8.44,8.38,14a0.51,0.51,0,0,0,.79.1l15.11-15.31a0.5,0.5,0,0,0-.71-0.71L19.32,681.67l0.79,0.1L12.48,669l-5-8.38L6,658.15c-0.12-.19-0.69-1.18.11-0.9l28.55,10C35.26,667.41,35.52,666.44,34.91,666.23Z" transform="translate(198.57 -318.2)" style="fill:#f7a800"/><path d="M37.41,638.67L6.08,653.74c-1.32.63-.59,2.3,0.57,2.59l7.71,1.93,21.2,5.31,2,0.5a0.51,0.51,0,0,0,.63-0.48q0-12.24,0-24.49a0.5,0.5,0,0,0-1,0q0,12.24,0,24.49l0.63-.48L21.59,659l-10.87-2.73-3.29-.82s-1.87-.4-1.06-0.78l31.47-15.14,0.07,0C38.5,639.26,38,638.39,37.41,638.67Z" transform="translate(198.57 -318.2)" style="fill:#f7a800"/><path d="M16.31,616.41L4.42,650.83l-0.56,1.61c-0.26.75,1,1.75,1.68,1.56,1.3-.36,2.71-1.6,3.86-2.28L29,640l8.86-5.28A0.5,0.5,0,0,0,38,634L17.14,616.19c-0.49-.42-1.2.29-0.71,0.71l20.82,17.77,0.1-.79-31,18.49c-1.39.83-1.62,0.65-1.09-.88L8,643.56l7.54-21.84,1.74-5C17.48,616.07,16.52,615.81,16.31,616.41Z" transform="translate(198.57 -318.2)" style="fill:#f7a800"/><path d="M-20.06,607.63l15.84,33.28,5.71,12c0.32,0.68,2.13.44,2.3-.27l0.31-1.26,2-7.9,7.47-30a0.5,0.5,0,0,0-.35-0.61l-32.69-6c-0.63-.12-0.9.85-0.27,1l32.69,6-0.35-.61-9,36c-0.06.24-.89,3.92-1.32,3l-2.15-4.51-9.53-20-9.81-20.62C-19.47,606.55-20.33,607.06-20.06,607.63Z" transform="translate(198.57 -318.2)" style="fill:#f7a800"/><path d="M-12.36,650.81l7.21,2.38c0.88,0.29,5,2.36,5.82,1.64C2.6,653.18.15,651-.85,649.37L-5,642.67a0.5,0.5,0,0,0-.79-0.1L-12.58,650a0.5,0.5,0,0,0,.71.71l6.77-7.41-0.79-.1,3.39,5.44,2.16,3.46c0,0.07,1.3,2.08.7,1.88l-12.46-4.12C-12.7,649.65-13,650.61-12.36,650.81Z" transform="translate(198.57 -318.2)" style="fill:#f7a800"/><path d="M93.05,770.93l7.59-3.67,5.1-2.47c0.37-.18,1.74-0.55,1.83-1.07,0.52-2.81-3.25-2.69-5.26-3.19l-9-2.25a0.51,0.51,0,0,0-.63.48L92.3,770.5a0.5,0.5,0,0,0,1,0l0.37-11.73-0.63.48,7.13,1.77,4.76,1.19c0.15,0,2.73.55,1.76,1l-14.13,6.84C92,770.35,92.48,771.21,93.05,770.93Z" transform="translate(198.57 -318.2)" style="fill:#f7a800"/><path d="M102.58,784.84l3.35-9.72,2.37-6.86a11.12,11.12,0,0,0,1-3c0-3.48-6.47,1.51-7.07,1.87l-9.85,6a0.51,0.51,0,0,0-.1.79l9.46,11.17c0.42,0.49,1.12-.22.71-0.71L93,773.18l-0.1.79,8.18-5,5.22-3.17c0.33-.2,2.36-1.68,1.91-0.35l-6.58,19.09C101.41,785.18,102.37,785.44,102.58,784.84Z" transform="translate(198.57 -318.2)" style="fill:#f7a800"/><path d="M122.82,788.22L111.63,765c-0.72-1.5-2.3.26-2.51,1.11l-1.8,7.23L103.9,787.1a0.51,0.51,0,0,0,.48.63l18,1.24c0.64,0,.64-1,0-1l-18-1.24,0.48,0.63,3-11.89,1.88-7.57c0.07-.3.62-3.36,1.2-2.16l11.05,23C122.24,789.31,123.1,788.8,122.82,788.22Z" transform="translate(198.57 -318.2)" style="fill:#f7a800"/><path d="M141.72,773l-14.82-5.17-9.75-3.4c-1-.33-3.36-1.73-4.41-1.44-2.21.61-.76,2.51-0.12,3.58l5,8.44,8.38,14a0.51,0.51,0,0,0,.79.1l15.11-15.31a0.5,0.5,0,0,0-.71-0.71l-15.11,15.31,0.79,0.1-7.62-12.76-5-8.38L112.79,765c-0.12-.19-0.69-1.18.11-0.9l28.55,10C142.06,774.21,142.32,773.25,141.72,773Z" transform="translate(198.57 -318.2)" style="fill:#f7a800"/><path d="M144.21,745.48l-31.33,15.07c-1.31.63-.59,2.3,0.57,2.59l7.71,1.93,21.2,5.31,2,0.5a0.51,0.51,0,0,0,.63-0.48q0-12.24,0-24.49a0.5,0.5,0,0,0-1,0q0,12.24,0,24.49l0.63-.48-16.23-4.07-10.87-2.73-3.29-.82s-1.87-.4-1.06-0.78l31.47-15.14,0.07,0C145.3,746.06,144.79,745.2,144.21,745.48Z" transform="translate(198.57 -318.2)" style="fill:#f7a800"/><path d="M123.11,723.22l-11.88,34.41-0.56,1.61c-0.26.75,1,1.75,1.67,1.56,1.3-.36,2.71-1.6,3.86-2.28l19.6-11.68,8.86-5.28a0.5,0.5,0,0,0,.1-0.79L123.94,723c-0.49-.42-1.2.29-0.71,0.71l20.82,17.77,0.1-.79-31,18.49c-1.39.83-1.62,0.64-1.09-.88l2.74-7.94,7.54-21.84,1.74-5C124.28,722.87,123.32,722.61,123.11,723.22Z" transform="translate(198.57 -318.2)" style="fill:#f7a800"/><path d="M86.75,714.44l15.84,33.28,5.71,12c0.32,0.68,2.13.44,2.3-.27l0.31-1.26,2-7.9,7.47-30a0.5,0.5,0,0,0-.35-0.61l-32.69-6c-0.63-.12-0.9.85-0.27,1l32.69,6-0.35-.61-9,36c-0.06.24-.89,3.92-1.32,3L107,754.57l-9.53-20-9.82-20.62C87.33,713.35,86.47,713.86,86.75,714.44Z" transform="translate(198.57 -318.2)" style="fill:#f7a800"/><path d="M94.45,757.62l7.21,2.39c0.88,0.29,5,2.36,5.82,1.64,1.92-1.66-.53-3.86-1.53-5.46l-4.17-6.7a0.5,0.5,0,0,0-.79-0.1l-6.77,7.41a0.5,0.5,0,0,0,.71.71l6.77-7.41-0.79-.1,3.39,5.44,2.16,3.46c0,0.07,1.3,2.08.7,1.88l-12.46-4.12C94.1,756.45,93.84,757.42,94.45,757.62Z" transform="translate(198.57 -318.2)" style="fill:#f7a800"/><path d="M667.88,823.85l7.59-3.67,5.1-2.47c0.37-.18,1.73-0.55,1.83-1.07,0.53-2.81-3.25-2.69-5.26-3.19l-9-2.25a0.51,0.51,0,0,0-.63.48l-0.37,11.73a0.5,0.5,0,0,0,1,0l0.37-11.73-0.63.48,7.13,1.77,4.76,1.18c0.15,0,2.73.55,1.76,1L667.37,823C666.79,823.27,667.3,824.13,667.88,823.85Z" transform="translate(198.57 -318.2)" style="fill:#f7a800"/><path d="M677.4,837.75l3.35-9.72,2.37-6.86a11.12,11.12,0,0,0,1-3c0-3.48-6.47,1.5-7.07,1.87l-9.85,6a0.51,0.51,0,0,0-.1.79L676.57,838c0.42,0.49,1.12-.22.71-0.71l-9.46-11.17-0.1.79,8.18-5,5.22-3.17c0.33-.2,2.37-1.68,1.91-0.35l-6.59,19.08C676.23,838.1,677.19,838.36,677.4,837.75Z" transform="translate(198.57 -318.2)" style="fill:#f7a800"/><path d="M697.64,841.14l-11.19-23.25c-0.72-1.5-2.3.26-2.51,1.11l-1.8,7.23L678.72,840a0.51,0.51,0,0,0,.48.63l18,1.24c0.64,0,.64-1,0-1l-18-1.24,0.48,0.63,3-11.89,1.88-7.57c0.07-.3.62-3.36,1.2-2.16l11.05,23C697.06,842.23,697.92,841.72,697.64,841.14Z" transform="translate(198.57 -318.2)" style="fill:#f7a800"/><path d="M716.54,826l-14.82-5.17-9.75-3.4c-1-.33-3.36-1.73-4.41-1.44-2.21.61-.76,2.51-0.12,3.58l5,8.44,8.38,14a0.51,0.51,0,0,0,.79.1l15.11-15.31a0.5,0.5,0,0,0-.71-0.71l-15.11,15.31,0.79,0.1-7.62-12.76-5-8.38-1.49-2.49c-0.12-.19-0.69-1.18.11-0.9l28.55,10C716.89,827.13,717.15,826.16,716.54,826Z" transform="translate(198.57 -318.2)" style="fill:#f7a800"/><path d="M719,798.39l-31.33,15.07c-1.31.63-.59,2.3,0.57,2.59L696,818l21.2,5.31,2,0.5a0.51,0.51,0,0,0,.63-0.48q0-12.25,0-24.49a0.5,0.5,0,0,0-1,0q0,12.25,0,24.49l0.63-.48-16.23-4.07L692.34,816l-3.29-.82s-1.87-.4-1.06-0.78l31.47-15.14,0.07,0C720.12,799,719.62,798.12,719,798.39Z" transform="translate(198.57 -318.2)" style="fill:#f7a800"/><path d="M697.93,776.13l-11.88,34.41-0.56,1.61c-0.26.75,1,1.75,1.67,1.56,1.3-.36,2.71-1.6,3.86-2.28l19.6-11.68,8.86-5.28a0.5,0.5,0,0,0,.1-0.79l-20.82-17.77c-0.49-.42-1.2.29-0.71,0.71l20.82,17.77,0.1-.79L688,812.1c-1.39.83-1.62,0.64-1.09-.88l2.74-7.94,7.54-21.84,1.74-5C699.11,775.79,698.14,775.53,697.93,776.13Z" transform="translate(198.57 -318.2)" style="fill:#f7a800"/><path d="M661.57,767.36l15.84,33.28,5.71,12c0.32,0.68,2.13.43,2.3-.27l0.31-1.26,2-7.9,7.47-30a0.5,0.5,0,0,0-.35-0.61l-32.69-6c-0.63-.12-0.9.85-0.27,1l32.69,6-0.35-.61-9,36c-0.06.24-.89,3.92-1.32,3l-2.15-4.51-9.53-20-9.82-20.62C662.16,766.27,661.3,766.78,661.57,767.36Z" transform="translate(198.57 -318.2)" style="fill:#f7a800"/><path d="M669.27,810.53l7.21,2.38c0.88,0.29,5,2.36,5.82,1.64,1.92-1.66-.53-3.86-1.53-5.46l-4.17-6.7a0.5,0.5,0,0,0-.79-0.1L669,809.7a0.5,0.5,0,0,0,.71.71l6.77-7.41-0.79-.1,3.39,5.44,2.16,3.46c0,0.07,1.3,2.08.7,1.88l-12.46-4.12C668.92,809.37,668.66,810.33,669.27,810.53Z" transform="translate(198.57 -318.2)" style="fill:#f7a800"/><path d="M1028.93,696l7.59-3.67,5.1-2.47c0.37-.18,1.73-0.55,1.83-1.07,0.53-2.81-3.25-2.69-5.26-3.19l-9-2.24a0.51,0.51,0,0,0-.63.48l-0.37,11.73a0.5,0.5,0,0,0,1,0l0.37-11.73-0.63.48,7.12,1.77,4.76,1.19c0.15,0,2.73.55,1.76,1l-14.13,6.84C1027.84,695.46,1028.35,696.32,1028.93,696Z" transform="translate(198.57 -318.2)" style="fill:#f7a800"/><path d="M1038.46,709.95l3.35-9.72,2.37-6.86a11.12,11.12,0,0,0,1-3c0-3.48-6.47,1.51-7.07,1.87l-9.85,6a0.51,0.51,0,0,0-.1.79l9.46,11.17c0.42,0.49,1.12-.22.71-0.71l-9.46-11.17-0.1.79,8.18-5,5.22-3.17c0.33-.2,2.37-1.68,1.91-0.35l-6.59,19.09C1037.28,710.29,1038.25,710.55,1038.46,709.95Z" transform="translate(198.57 -318.2)" style="fill:#f7a800"/><path d="M1058.7,713.33l-11.18-23.25c-0.72-1.5-2.3.26-2.51,1.11l-1.8,7.23-3.43,13.79a0.51,0.51,0,0,0,.48.63l18,1.24c0.64,0,.64-1,0-1l-18-1.24,0.48,0.63,3-11.89,1.88-7.57c0.07-.3.62-3.36,1.2-2.16l11.05,23C1058.11,714.42,1059,713.91,1058.7,713.33Z" transform="translate(198.57 -318.2)" style="fill:#f7a800"/><path d="M1077.59,698.15L1062.77,693l-9.75-3.4c-1-.33-3.36-1.73-4.41-1.44-2.21.61-.76,2.51-0.12,3.58l5,8.44,8.38,14a0.5,0.5,0,0,0,.79.1L1077.81,699a0.5,0.5,0,0,0-.71-0.71L1062,713.59l0.79,0.1-7.62-12.76-5-8.38-1.49-2.49c-0.12-.19-0.69-1.18.11-0.9l28.55,10C1077.94,699.32,1078.2,698.36,1077.59,698.15Z" transform="translate(198.57 -318.2)" style="fill:#f7a800"/><path d="M1080.09,670.59l-31.33,15.07c-1.32.63-.59,2.3,0.58,2.59l7.71,1.93,21.2,5.31,2,0.5a0.51,0.51,0,0,0,.63-0.48q0-12.24,0-24.49a0.5,0.5,0,0,0-1,0q0,12.24,0,24.49l0.63-.48L1064.27,691l-10.87-2.73-3.29-.82s-1.87-.4-1.06-0.78l31.47-15.14,0.07,0C1081.17,671.17,1080.67,670.31,1080.09,670.59Z" transform="translate(198.57 -318.2)" style="fill:#f7a800"/><path d="M1059,648.33l-11.88,34.41-0.56,1.61c-0.26.75,1,1.75,1.67,1.56,1.3-.36,2.71-1.6,3.86-2.28l19.6-11.68,8.86-5.28a0.5,0.5,0,0,0,.1-0.79l-20.82-17.77c-0.49-.42-1.2.29-0.71,0.71l20.82,17.77,0.1-.79-31,18.49c-1.39.83-1.62,0.64-1.09-.88l2.74-7.94,7.54-21.84,1.74-5C1060.16,648,1059.19,647.72,1059,648.33Z" transform="translate(198.57 -318.2)" style="fill:#f7a800"/><path d="M1022.63,639.55l15.84,33.28,5.71,12c0.32,0.68,2.13.44,2.3-.27l0.31-1.26,2-7.9,7.47-30a0.5,0.5,0,0,0-.35-0.61l-32.69-6c-0.63-.12-0.9.85-0.27,1l32.69,6-0.35-.61-9,36c-0.06.24-.89,3.92-1.32,3l-2.14-4.51-9.53-20L1023.49,639C1023.21,638.46,1022.35,639,1022.63,639.55Z" transform="translate(198.57 -318.2)" style="fill:#f7a800"/><path d="M1030.32,682.73l7.21,2.38c0.88,0.29,5,2.36,5.82,1.64,1.92-1.65-.53-3.85-1.53-5.46l-4.17-6.7a0.5,0.5,0,0,0-.79-0.1l-6.77,7.41a0.5,0.5,0,0,0,.71.71l6.77-7.41-0.79-.1,3.39,5.44,2.16,3.46c0,0.07,1.3,2.08.7,1.88l-12.46-4.12C1030,681.56,1029.71,682.53,1030.32,682.73Z" transform="translate(198.57 -318.2)" style="fill:#f7a800"/><path d="M187.66,892.08l14.29-6.91a1.13,1.13,0,0,0,.13-0.71,1.1,1.1,0,0,0-.29-0.67L188,880.35Z" transform="translate(198.57 -318.2)" style="fill:#f7a800;fill-rule:evenodd"/><path d="M197,906.28l6.71-19.44a1.14,1.14,0,0,0-.41-0.6,1.16,1.16,0,0,0-.68-0.27l-15.08,9.15Z" transform="translate(198.57 -318.2)" style="fill:#f7a800;fill-rule:evenodd"/><path d="M217.24,910.06l-11.18-23.25a1.19,1.19,0,0,0-.72-0.13,1.16,1.16,0,0,0-.67.29l-5.44,21.85Z" transform="translate(198.57 -318.2)" style="fill:#f7a800;fill-rule:evenodd"/><path d="M236.44,895.1l-28.71-10a1.26,1.26,0,0,0-.87,1.09l14.47,24.23Z" transform="translate(198.57 -318.2)" style="fill:#f7a800;fill-rule:evenodd"/><path d="M239.32,867.49L207.7,882.7a1.15,1.15,0,0,0-.13.72,1.12,1.12,0,0,0,.29.67L239.34,892Z" transform="translate(198.57 -318.2)" style="fill:#f7a800;fill-rule:evenodd"/><path d="M218.45,844.93L206,881a1.24,1.24,0,0,0,1.09.87l32.19-19.19Z" transform="translate(198.57 -318.2)" style="fill:#f7a800;fill-rule:evenodd"/><path d="M182,835.77l21.56,45.29a1.14,1.14,0,0,0,.71.13,1.15,1.15,0,0,0,.67-0.29l9.75-39.13Z" transform="translate(198.57 -318.2)" style="fill:#f7a800;fill-rule:evenodd"/><path d="M189.44,878.72L202,882.87a0.91,0.91,0,0,0,.48-0.41,1.16,1.16,0,0,0,.26-0.68l-6.51-10.46Z" transform="translate(198.57 -318.2)" style="fill:#f7a800;fill-rule:evenodd"/><path d="M432.06,530.11l14.29-6.92a1.26,1.26,0,0,0-.15-1.39l-13.77-3.43Z" transform="translate(198.57 -318.2)" style="fill:#f7a800;fill-rule:evenodd"/><path d="M441.36,544.31l6.71-19.44a1.14,1.14,0,0,0-.41-0.6A1.17,1.17,0,0,0,447,524l-15.08,9.15Z" transform="translate(198.57 -318.2)" style="fill:#f7a800;fill-rule:evenodd"/><path d="M461.65,548.09l-11.19-23.25a1.26,1.26,0,0,0-1.39.15l-5.44,21.85Z" transform="translate(198.57 -318.2)" style="fill:#f7a800;fill-rule:evenodd"/><path d="M480.85,533.13l-28.71-10a1.19,1.19,0,0,0-.6.41,1.17,1.17,0,0,0-.27.68l14.47,24.23Z" transform="translate(198.57 -318.2)" style="fill:#f7a800;fill-rule:evenodd"/><path d="M483.73,505.52L452.1,520.73a1.15,1.15,0,0,0-.13.72,1.13,1.13,0,0,0,.29.67L483.75,530Z" transform="translate(198.57 -318.2)" style="fill:#f7a800;fill-rule:evenodd"/><path d="M462.85,483l-12.46,36.1a1.15,1.15,0,0,0,.41.6,1.16,1.16,0,0,0,.68.27l32.19-19.19Z" transform="translate(198.57 -318.2)" style="fill:#f7a800;fill-rule:evenodd"/><path d="M426.44,473.8L448,519.09a1.13,1.13,0,0,0,.71.13,1.15,1.15,0,0,0,.67-0.29l9.75-39.13Z" transform="translate(198.57 -318.2)" style="fill:#f7a800;fill-rule:evenodd"/><path d="M433.84,516.75l12.55,4.15a0.91,0.91,0,0,0,.48-0.41,1.17,1.17,0,0,0,.26-0.68l-6.51-10.46Z" transform="translate(198.57 -318.2)" style="fill:#f7a800;fill-rule:evenodd"/><path d="M853.34,813.64l14.29-6.92a1.13,1.13,0,0,0,.13-0.71,1.12,1.12,0,0,0-.28-0.67l-13.77-3.43Z" transform="translate(198.57 -318.2)" style="fill:#f7a800;fill-rule:evenodd"/><path d="M862.64,827.84l6.71-19.44a1.13,1.13,0,0,0-.41-0.6,1.16,1.16,0,0,0-.68-0.27l-15.08,9.15Z" transform="translate(198.57 -318.2)" style="fill:#f7a800;fill-rule:evenodd"/><path d="M882.93,831.61l-11.18-23.25a1.18,1.18,0,0,0-.71-0.13,1.17,1.17,0,0,0-.67.29l-5.43,21.86Z" transform="translate(198.57 -318.2)" style="fill:#f7a800;fill-rule:evenodd"/><path d="M902.13,816.66l-28.71-10a1.17,1.17,0,0,0-.6.41,1.16,1.16,0,0,0-.27.68L887,832Z" transform="translate(198.57 -318.2)" style="fill:#f7a800;fill-rule:evenodd"/><path d="M905,789l-31.62,15.21a1.16,1.16,0,0,0-.13.72,1.15,1.15,0,0,0,.29.67L905,813.54Z" transform="translate(198.57 -318.2)" style="fill:#f7a800;fill-rule:evenodd"/><path d="M884.13,766.49l-12.46,36.1a1.12,1.12,0,0,0,.41.6,1.17,1.17,0,0,0,.68.27l32.19-19.19Z" transform="translate(198.57 -318.2)" style="fill:#f7a800;fill-rule:evenodd"/><path d="M847.72,757.33l21.55,45.29a1.25,1.25,0,0,0,1.38-.15l9.75-39.13Z" transform="translate(198.57 -318.2)" style="fill:#f7a800;fill-rule:evenodd"/><path d="M855.12,800.28l12.55,4.15a0.9,0.9,0,0,0,.48-0.41,1.18,1.18,0,0,0,.26-0.68l-6.51-10.46Z" transform="translate(198.57 -318.2)" style="fill:#f7a800;fill-rule:evenodd"/><path d="M521,697.81l9-4.36a0.73,0.73,0,0,0,.08-0.45,0.71,0.71,0,0,0-.18-0.42l-8.68-2.16Z" transform="translate(198.57 -318.2)" style="fill:#f7a800;fill-rule:evenodd"/><path d="M526.87,706.76l4.23-12.26a0.72,0.72,0,0,0-.26-0.38,0.74,0.74,0,0,0-.43-0.17l-9.51,5.77Z" transform="translate(198.57 -318.2)" style="fill:#f7a800;fill-rule:evenodd"/><path d="M539.66,709.14l-7.05-14.66a0.74,0.74,0,0,0-.45-0.09,0.72,0.72,0,0,0-.42.18l-3.43,13.78Z" transform="translate(198.57 -318.2)" style="fill:#f7a800;fill-rule:evenodd"/><path d="M551.77,699.71l-18.1-6.31a0.75,0.75,0,0,0-.38.26,0.74,0.74,0,0,0-.17.43l9.13,15.28Z" transform="translate(198.57 -318.2)" style="fill:#f7a800;fill-rule:evenodd"/><path d="M553.58,682.3l-19.94,9.59a0.79,0.79,0,0,0,.1.87l19.86,5Z" transform="translate(198.57 -318.2)" style="fill:#f7a800;fill-rule:evenodd"/><path d="M540.42,668.07l-7.86,22.76a0.72,0.72,0,0,0,.26.38,0.74,0.74,0,0,0,.43.17l20.3-12.1Z" transform="translate(198.57 -318.2)" style="fill:#f7a800;fill-rule:evenodd"/><path d="M517.46,662.3l13.59,28.56a0.79,0.79,0,0,0,.87-0.1l6.15-24.68Z" transform="translate(198.57 -318.2)" style="fill:#f7a800;fill-rule:evenodd"/><path d="M522.13,689.38L530,692a0.57,0.57,0,0,0,.3-0.26,0.74,0.74,0,0,0,.17-0.43l-4.11-6.6Z" transform="translate(198.57 -318.2)" style="fill:#f7a800;fill-rule:evenodd"/><path d="M346.57,676.11l4.83-2.34,3.12-1.51c0.3-.15,1.21-0.39,1.29-0.81,0.36-1.91-1.85-1.84-3.23-2.18l-5.89-1.47a0.51,0.51,0,0,0-.63.48l-0.23,7.4a0.5,0.5,0,0,0,1,0l0.23-7.4-0.63.48,4.52,1.13,3.12,0.78c0.24,0.06,1.15.16,0.89,0.28l-8.88,4.3C345.48,675.52,346,676.38,346.57,676.11Z" transform="translate(198.57 -318.2)" style="fill:#f7a800"/><path d="M352.66,684.76l2.36-6.84,1.41-4.09c0.12-.35.68-1.32,0.41-1.72-1.18-1.74-3.21.39-4.48,1.16l-6.4,3.88a0.51,0.51,0,0,0-.1.79l6,7c0.42,0.49,1.12-.22.71-0.71l-6-7-0.1.79,5.17-3.14,3.29-2c0.25-.15,1.07-0.87.92-0.44l-4.16,12.05C351.49,685.11,352.45,685.37,352.66,684.76Z" transform="translate(198.57 -318.2)" style="fill:#f7a800"/><path d="M365.4,686.75l-3.63-7.55L359.26,674c-0.24-.51-0.56-1.75-1.09-2.06-2.13-1.25-2.56,4.22-2.79,5.15l-2.24,9a0.51,0.51,0,0,0,.48.63L365,687.51c0.64,0,.64-1,0-1l-11.35-.78,0.48,0.63,1.77-7.13,1.18-4.76c0.09-.35.39-2,0.51-1.71l7,14.5C364.82,687.84,365.68,687.33,365.4,686.75Z" transform="translate(198.57 -318.2)" style="fill:#f7a800"/><path d="M377.21,677.09l-9.52-3.32-6.26-2.18c-0.47-.16-2.18-1.12-2.71-0.76-1,.66-0.83,1.21-0.31,2.07l3.14,5.25,5.57,9.32a0.51,0.51,0,0,0,.79.1l9.53-9.66a0.5,0.5,0,0,0-.71-0.71l-9.53,9.66L368,687l-4.56-7.64-3.23-5.41a14.74,14.74,0,0,0-1.28-2.16l18,6.29C377.55,678.27,377.81,677.3,377.21,677.09Z" transform="translate(198.57 -318.2)" style="fill:#f7a800"/><path d="M378.64,659.73L368,664.85l-6.75,3.25c-0.48.23-2.65,0.86-2.78,1.53-0.26,1.37.49,1.5,1.58,1.77l6.88,1.73,11.84,3a0.51,0.51,0,0,0,.63-0.48q0-7.72,0-15.44a0.5,0.5,0,0,0-1,0q0,7.72,0,15.44l0.63-.48-10.41-2.61-6.87-1.72c-0.46-.12-2.45-0.66-2.44-0.66l19.82-9.53C379.73,660.32,379.22,659.46,378.64,659.73Z" transform="translate(198.57 -318.2)" style="fill:#f7a800"/><path d="M365.25,645.81l-4.17,12.08-2.72,7.88c-0.36,1-1.35,2.55-.66,3.57s2-.19,2.66-0.57l7.11-4.24,11.65-6.94a0.5,0.5,0,0,0,.1-0.79l-13.13-11.21c-0.49-.42-1.2.29-0.71,0.71L378.5,657.5l0.1-.79-9.94,5.92-7.11,4.24c-0.59.35-3,1.37-3.2,1.94l7.85-22.75C366.42,645.46,365.46,645.2,365.25,645.81Z" transform="translate(198.57 -318.2)" style="fill:#f7a800"/><path d="M342.34,640.42l13.52,28.41c0.64,1.34,1.83,0,2-.81l2-8,4-15.9a0.5,0.5,0,0,0-.35-0.61l-20.62-3.79c-0.63-.12-0.9.85-0.27,1l20.62,3.79-0.35-.61-3.49,14-2.12,8.51-0.51,2a1.27,1.27,0,0,1-.33-0.63L343.2,639.91C342.93,639.33,342.06,639.84,342.34,640.42Z" transform="translate(198.57 -318.2)" style="fill:#f7a800"/><path d="M347.31,667.73l4.58,1.51c0.66,0.22,3.16,1.54,3.82,1,1.3-1.13-.22-2.53-0.9-3.62l-2.66-4.28a0.5,0.5,0,0,0-.79-0.1l-4.27,4.67a0.5,0.5,0,0,0,.71.71l4.27-4.67-0.79-.1,2.14,3.44c0.42,0.67,1.47,2.91,2,3.09l-7.85-2.59C347,666.56,346.7,667.53,347.31,667.73Z" transform="translate(198.57 -318.2)" style="fill:#f7a800"/><path d="M135.37,464.9l4.83-2.34,3.12-1.51c0.3-.15,1.21-0.39,1.29-0.81,0.36-1.91-1.85-1.84-3.23-2.18l-5.89-1.47a0.51,0.51,0,0,0-.63.48l-0.23,7.4a0.5,0.5,0,0,0,1,0l0.23-7.4-0.63.48,4.52,1.13,3.12,0.78c0.24,0.06,1.15.16,0.89,0.28l-8.88,4.3C134.28,464.32,134.79,465.18,135.37,464.9Z" transform="translate(198.57 -318.2)" style="fill:#f7a800"/><path d="M141.46,473.56l2.36-6.84,1.41-4.09c0.12-.35.68-1.32,0.41-1.72-1.18-1.74-3.21.39-4.48,1.16l-6.4,3.88a0.51,0.51,0,0,0-.1.79l6,7c0.42,0.49,1.12-.22.71-0.71l-6-7-0.1.79,5.17-3.14,3.29-2c0.25-.15,1.07-0.87.92-0.44l-4.16,12.05C140.28,473.9,141.25,474.16,141.46,473.56Z" transform="translate(198.57 -318.2)" style="fill:#f7a800"/><path d="M154.2,475.55L150.57,468l-2.51-5.22c-0.24-.51-0.56-1.75-1.09-2.06-2.13-1.25-2.56,4.22-2.79,5.15l-2.24,9a0.51,0.51,0,0,0,.48.63l11.35,0.78c0.64,0,.64-1,0-1l-11.35-.78,0.48,0.63,1.77-7.13,1.18-4.76c0.09-.35.39-2,0.51-1.71l7,14.5C153.62,476.64,154.48,476.13,154.2,475.55Z" transform="translate(198.57 -318.2)" style="fill:#f7a800"/><path d="M166,465.89l-9.52-3.32-6.26-2.18c-0.47-.16-2.18-1.12-2.71-0.76-1,.66-0.83,1.21-0.31,2.07l3.14,5.25,5.57,9.32a0.51,0.51,0,0,0,.79.1l9.53-9.66a0.5,0.5,0,0,0-.71-0.71L156,475.67l0.79,0.1-4.56-7.64L149,462.73a14.64,14.64,0,0,0-1.28-2.16l18,6.29C166.35,467.07,166.61,466.1,166,465.89Z" transform="translate(198.57 -318.2)" style="fill:#f7a800"/><path d="M167.44,448.53l-10.64,5.12-6.75,3.25c-0.48.23-2.66,0.86-2.78,1.53-0.25,1.37.49,1.5,1.58,1.77l6.88,1.73,11.84,3a0.51,0.51,0,0,0,.63-0.48q0-7.72,0-15.44a0.5,0.5,0,0,0-1,0q0,7.72,0,15.44l0.63-.48-10.41-2.61-6.87-1.72c-0.46-.12-2.45-0.66-2.44-0.66l19.82-9.53C168.52,449.12,168,448.25,167.44,448.53Z" transform="translate(198.57 -318.2)" style="fill:#f7a800"/><path d="M154,434.61l-4.17,12.08-2.72,7.88c-0.36,1-1.35,2.55-.66,3.57s2-.18,2.65-0.57l7.11-4.24,11.65-6.94a0.5,0.5,0,0,0,.1-0.79l-13.13-11.21c-0.49-.42-1.2.29-0.71,0.71L167.3,446.3l0.1-.79-9.93,5.92-7.11,4.24c-0.59.35-3,1.37-3.2,1.94L155,434.87C155.22,434.26,154.26,434,154,434.61Z" transform="translate(198.57 -318.2)" style="fill:#f7a800"/><path d="M131.14,429.21l13.52,28.41c0.64,1.34,1.83,0,2-.81l2-8,4-15.9a0.5,0.5,0,0,0-.35-0.61l-20.62-3.79c-0.63-.12-0.9.85-0.27,1l20.62,3.79-0.35-.61-3.49,14-2.12,8.51-0.51,2a1.25,1.25,0,0,1-.33-0.63L132,428.71C131.72,428.13,130.86,428.64,131.14,429.21Z" transform="translate(198.57 -318.2)" style="fill:#f7a800"/><path d="M136.1,456.52l4.58,1.51c0.66,0.22,3.16,1.54,3.82,1,1.3-1.13-.22-2.52-0.9-3.62l-2.66-4.28a0.5,0.5,0,0,0-.79-0.1l-4.27,4.67a0.5,0.5,0,0,0,.71.71l4.27-4.67-0.79-.1,2.14,3.44c0.42,0.67,1.47,2.91,2,3.09l-7.85-2.59C135.76,455.36,135.49,456.32,136.1,456.52Z" transform="translate(198.57 -318.2)" style="fill:#f7a800"/><path d="M-194.28,629.15l4.83-2.34,3.12-1.51c0.3-.15,1.21-0.39,1.29-0.81,0.36-1.91-1.85-1.84-3.23-2.18l-5.89-1.47a0.51,0.51,0,0,0-.63.48l-0.23,7.4a0.5,0.5,0,0,0,1,0l0.23-7.4-0.63.48,4.52,1.13,3.12,0.78c0.24,0.06,1.15.16,0.89,0.28l-8.88,4.3C-195.37,628.57-194.86,629.43-194.28,629.15Z" transform="translate(198.57 -318.2)" style="fill:#f7a800"/><path d="M-188.19,637.81l2.36-6.84,1.41-4.09c0.12-.35.68-1.32,0.41-1.72-1.18-1.74-3.21.39-4.48,1.16l-6.4,3.88a0.51,0.51,0,0,0-.1.79l6,7c0.42,0.49,1.12-.22.71-0.71l-6-7-0.1.79,5.17-3.14,3.29-2c0.25-.15,1.07-0.87.92-0.44l-4.16,12.05C-189.37,638.15-188.4,638.41-188.19,637.81Z" transform="translate(198.57 -318.2)" style="fill:#f7a800"/><path d="M-175.45,639.8l-3.63-7.55-2.51-5.22c-0.24-.51-0.56-1.75-1.09-2.06-2.13-1.25-2.56,4.23-2.79,5.15l-2.24,9a0.51,0.51,0,0,0,.48.63l11.35,0.78c0.64,0,.64-1,0-1l-11.35-.78,0.48,0.63,1.77-7.13,1.18-4.76c0.09-.35.39-2,0.51-1.71l7,14.5C-176,640.89-175.17,640.38-175.45,639.8Z" transform="translate(198.57 -318.2)" style="fill:#f7a800"/><path d="M-163.64,630.14l-9.52-3.32-6.26-2.18c-0.47-.16-2.18-1.12-2.71-0.76-1,.66-0.83,1.21-0.31,2.08l3.14,5.25,5.57,9.32a0.51,0.51,0,0,0,.79.1l9.53-9.66a0.5,0.5,0,0,0-.71-0.71l-9.53,9.66,0.79,0.1-4.56-7.64-3.23-5.41a14.55,14.55,0,0,0-1.28-2.16l18,6.29C-163.3,631.32-163,630.35-163.64,630.14Z" transform="translate(198.57 -318.2)" style="fill:#f7a800"/><path d="M-162.21,612.78l-10.64,5.12-6.75,3.25c-0.48.23-2.65,0.86-2.78,1.53-0.26,1.37.49,1.5,1.58,1.77l6.88,1.73,11.84,3a0.51,0.51,0,0,0,.63-0.48q0-7.72,0-15.44a0.5,0.5,0,0,0-1,0q0,7.72,0,15.44l0.63-.48-10.41-2.61-6.87-1.72c-0.46-.12-2.45-0.66-2.44-0.66l19.82-9.53C-161.12,613.37-161.63,612.5-162.21,612.78Z" transform="translate(198.57 -318.2)" style="fill:#f7a800"/><path d="M-175.6,598.86l-4.17,12.08-2.72,7.88c-0.36,1-1.35,2.55-.66,3.57s2-.19,2.65-0.57l7.11-4.24,11.65-6.94a0.5,0.5,0,0,0,.1-0.79l-13.13-11.21c-0.49-.42-1.2.29-0.71,0.71l13.13,11.21,0.1-.79-9.94,5.92-7.11,4.24c-0.59.35-3,1.37-3.2,1.94l7.85-22.75C-174.43,598.51-175.39,598.25-175.6,598.86Z" transform="translate(198.57 -318.2)" style="fill:#f7a800"/><path d="M-198.51,593.46L-185,621.87c0.64,1.34,1.83,0,2-.81l2-8,4-15.9a0.5,0.5,0,0,0-.35-0.61l-20.62-3.79c-0.63-.12-0.9.85-0.27,1l20.62,3.79-0.35-.61-3.49,14-2.12,8.51-0.51,2a1.26,1.26,0,0,1-.33-0.63L-197.65,593C-197.93,592.38-198.79,592.88-198.51,593.46Z" transform="translate(198.57 -318.2)" style="fill:#f7a800"/><path d="M-193.55,620.77l4.58,1.51c0.66,0.22,3.16,1.54,3.82,1,1.3-1.13-.22-2.52-0.9-3.62l-2.66-4.28a0.5,0.5,0,0,0-.79-0.1l-4.27,4.67a0.5,0.5,0,0,0,.71.71l4.27-4.67-0.79-.1,2.14,3.44c0.42,0.67,1.47,2.92,2,3.09l-7.85-2.59C-193.89,619.61-194.16,620.57-193.55,620.77Z" transform="translate(198.57 -318.2)" style="fill:#f7a800"/><path d="M790.44,542.42l4.83-2.34,3.12-1.51c0.3-.15,1.21-0.39,1.29-0.81,0.37-1.91-1.86-1.84-3.23-2.18l-5.89-1.47a0.51,0.51,0,0,0-.63.48l-0.23,7.4a0.5,0.5,0,0,0,1,0l0.23-7.4-0.63.48,4.52,1.13,3.12,0.78c0.24,0.06,1.15.16,0.89,0.28l-8.88,4.3C789.35,541.84,789.86,542.7,790.44,542.42Z" transform="translate(198.57 -318.2)" style="fill:#f7a800"/><path d="M796.53,551.07l2.36-6.84,1.41-4.09c0.12-.35.68-1.33,0.41-1.72-1.19-1.74-3.21.39-4.48,1.16l-6.4,3.88a0.51,0.51,0,0,0-.1.79l6,7c0.42,0.49,1.12-.22.71-0.71l-6-7-0.1.79,5.17-3.14,3.29-2c0.25-.15,1.07-0.87.92-0.44l-4.16,12.05C795.36,551.42,796.32,551.68,796.53,551.07Z" transform="translate(198.57 -318.2)" style="fill:#f7a800"/><path d="M809.28,553.07l-3.63-7.55-2.51-5.22c-0.24-.51-0.55-1.75-1.09-2.06-2.13-1.25-2.56,4.22-2.79,5.15l-2.24,9a0.51,0.51,0,0,0,.48.63l11.35,0.78c0.64,0,.64-1,0-1L797.49,552l0.48,0.63,1.77-7.13,1.18-4.76c0.09-.35.39-2,0.51-1.71l7,14.5C808.69,554.15,809.55,553.65,809.28,553.07Z" transform="translate(198.57 -318.2)" style="fill:#f7a800"/><path d="M821.08,543.41l-9.52-3.32-6.26-2.18c-0.47-.16-2.18-1.12-2.71-0.76-1,.66-0.83,1.21-0.31,2.07l3.14,5.25L811,553.8a0.5,0.5,0,0,0,.79.1l9.53-9.66a0.5,0.5,0,0,0-.71-0.71l-9.53,9.66,0.79,0.1-4.56-7.64-3.23-5.41a14.56,14.56,0,0,0-1.28-2.16l18,6.29C821.42,544.59,821.69,543.62,821.08,543.41Z" transform="translate(198.57 -318.2)" style="fill:#f7a800"/><path d="M822.51,526l-10.64,5.12-6.75,3.25c-0.48.23-2.66,0.86-2.78,1.53-0.25,1.37.49,1.5,1.58,1.77l6.88,1.73,11.84,3a0.51,0.51,0,0,0,.63-0.48q0-7.72,0-15.44a0.5,0.5,0,0,0-1,0q0,7.72,0,15.44l0.63-.48-10.41-2.61-6.87-1.72-2.44-.66L823,526.91C823.6,526.63,823.09,525.77,822.51,526Z" transform="translate(198.57 -318.2)" style="fill:#f7a800"/><path d="M809.12,512.12l-4.17,12.08-2.72,7.88c-0.36,1-1.35,2.55-.66,3.57s2-.18,2.66-0.57l7.11-4.24L823,523.9a0.5,0.5,0,0,0,.1-0.79L810,511.9c-0.49-.42-1.2.29-0.71,0.71l13.13,11.21,0.1-.79L812.54,529l-7.11,4.24c-0.59.35-3,1.36-3.2,1.94l7.85-22.75C810.29,511.78,809.33,511.52,809.12,512.12Z" transform="translate(198.57 -318.2)" style="fill:#f7a800"/><path d="M786.21,506.73l13.52,28.41c0.64,1.34,1.83,0,2-.81l2-8,4-15.9a0.5,0.5,0,0,0-.35-0.61L786.78,506c-0.63-.12-0.9.85-0.27,1l20.62,3.79-0.35-.61-3.49,14-2.12,8.51-0.51,2a1.29,1.29,0,0,1-.33-0.64l-13.25-27.84C786.8,505.64,785.94,506.15,786.21,506.73Z" transform="translate(198.57 -318.2)" style="fill:#f7a800"/><path d="M791.18,534l4.58,1.51c0.66,0.22,3.16,1.54,3.82,1,1.3-1.13-.22-2.52-0.9-3.62L796,528.64a0.5,0.5,0,0,0-.79-0.1L791,533.21a0.5,0.5,0,0,0,.71.71l4.27-4.67-0.79-.1,2.14,3.44c0.42,0.67,1.47,2.92,2,3.09l-7.85-2.6C790.83,532.88,790.57,533.84,791.18,534Z" transform="translate(198.57 -318.2)" style="fill:#f7a800"/><path d="M903.91,428.95l4.83-2.34,3.12-1.51c0.3-.15,1.21-0.39,1.29-0.81,0.36-1.91-1.85-1.84-3.23-2.18L904,420.64a0.51,0.51,0,0,0-.63.48l-0.23,7.4a0.5,0.5,0,0,0,1,0l0.23-7.4-0.63.48,4.52,1.13,3.12,0.78c0.24,0.06,1.15.16,0.89,0.28l-8.88,4.3C902.83,428.37,903.33,429.23,903.91,428.95Z" transform="translate(198.57 -318.2)" style="fill:#f7a800"/><path d="M910,437.61l2.36-6.84,1.41-4.09c0.12-.35.68-1.32,0.41-1.72-1.18-1.74-3.21.39-4.48,1.16L903.3,430a0.51,0.51,0,0,0-.1.79l6,7c0.42,0.49,1.12-.22.71-0.71l-6-7-0.1.79,5.17-3.14,3.29-2c0.25-.15,1.07-0.87.92-0.44L909,437.34C908.83,438,909.79,438.21,910,437.61Z" transform="translate(198.57 -318.2)" style="fill:#f7a800"/><path d="M922.75,439.6L919.11,432l-2.51-5.22c-0.24-.51-0.56-1.75-1.09-2.06-2.13-1.25-2.56,4.23-2.79,5.15l-2.24,9a0.51,0.51,0,0,0,.48.63l11.35,0.78c0.64,0,.64-1,0-1L911,438.57l0.48,0.63,1.77-7.13,1.18-4.76c0.09-.35.39-2,0.5-1.71l7,14.5C922.16,440.68,923,440.18,922.75,439.6Z" transform="translate(198.57 -318.2)" style="fill:#f7a800"/><path d="M934.55,429.94L925,426.62l-6.26-2.18c-0.47-.16-2.18-1.12-2.71-0.76-1,.66-0.83,1.21-0.31,2.07l3.14,5.25,5.57,9.32a0.5,0.5,0,0,0,.79.1l9.53-9.66a0.5,0.5,0,0,0-.71-0.71l-9.53,9.66,0.79,0.1-4.56-7.64-3.23-5.41a14.73,14.73,0,0,0-1.28-2.16l18,6.29C934.9,431.12,935.16,430.15,934.55,429.94Z" transform="translate(198.57 -318.2)" style="fill:#f7a800"/><path d="M936,412.58l-10.64,5.12-6.75,3.25c-0.49.23-2.65,0.85-2.78,1.53-0.26,1.37.49,1.5,1.58,1.77l6.88,1.73,11.84,3a0.51,0.51,0,0,0,.63-0.48q0-7.72,0-15.44a0.5,0.5,0,0,0-1,0q0,7.72,0,15.44l0.63-.48L926,425.36l-6.87-1.72-2.44-.66,19.82-9.53C937.07,413.16,936.56,412.3,936,412.58Z" transform="translate(198.57 -318.2)" style="fill:#f7a800"/><path d="M922.59,398.65l-4.17,12.08-2.72,7.88c-0.36,1-1.35,2.55-.66,3.57s2-.19,2.66-0.57l7.11-4.24,11.65-6.94a0.5,0.5,0,0,0,.1-0.79l-13.13-11.21c-0.49-.42-1.2.29-0.71,0.71l13.13,11.21,0.1-.79L926,415.49l-7.11,4.24c-0.59.35-3,1.37-3.2,1.94l7.85-22.75C923.77,398.31,922.8,398,922.59,398.65Z" transform="translate(198.57 -318.2)" style="fill:#f7a800"/><path d="M899.68,393.26l13.52,28.41c0.64,1.34,1.83,0,2-.81l2-8,4-15.9a0.5,0.5,0,0,0-.35-0.61l-20.62-3.79c-0.63-.12-0.9.85-0.27,1l20.62,3.79-0.35-.61-3.49,14-2.12,8.51-0.51,2a1.27,1.27,0,0,1-.33-0.63l-13.25-27.84C900.27,392.17,899.41,392.68,899.68,393.26Z" transform="translate(198.57 -318.2)" style="fill:#f7a800"/><path d="M904.65,420.57l4.58,1.51c0.66,0.22,3.16,1.54,3.82,1,1.3-1.13-.23-2.53-0.9-3.62l-2.66-4.28a0.5,0.5,0,0,0-.79-0.1l-4.27,4.67a0.5,0.5,0,0,0,.71.71l4.27-4.67-0.79-.1,2.14,3.44c0.42,0.67,1.47,2.91,2,3.09l-7.85-2.59C904.3,419.41,904,420.37,904.65,420.57Z" transform="translate(198.57 -318.2)" style="fill:#f7a800"/><path d="M756.19,689l4.83-2.34,3.12-1.51c0.3-.15,1.21-0.39,1.29-0.81,0.37-1.91-1.85-1.84-3.23-2.18l-5.89-1.47a0.51,0.51,0,0,0-.63.48l-0.23,7.4a0.5,0.5,0,0,0,1,0l0.23-7.4-0.63.48,4.52,1.13,3.12,0.78c0.24,0.06,1.15.16,0.89,0.28l-8.88,4.3C755.11,688.44,755.61,689.31,756.19,689Z" transform="translate(198.57 -318.2)" style="fill:#f7a800"/><path d="M762.28,697.68l2.36-6.84,1.41-4.09c0.12-.35.68-1.32,0.41-1.72-1.18-1.74-3.21.39-4.48,1.16l-6.4,3.88a0.51,0.51,0,0,0-.1.79l6,7c0.42,0.49,1.12-.22.71-0.71l-6-7-0.1.79,5.17-3.14,3.29-2c0.26-.15,1.07-0.87.92-0.44l-4.16,12.05C761.11,698,762.07,698.29,762.28,697.68Z" transform="translate(198.57 -318.2)" style="fill:#f7a800"/><path d="M775,699.67l-3.63-7.55-2.51-5.22c-0.24-.51-0.55-1.75-1.09-2.06-2.13-1.25-2.56,4.22-2.79,5.15l-2.24,9a0.51,0.51,0,0,0,.48.63l11.35,0.78c0.64,0,.64-1,0-1l-11.35-.78,0.48,0.63,1.77-7.13,1.18-4.76c0.09-.34.39-2,0.51-1.71l7,14.5C774.44,700.76,775.3,700.25,775,699.67Z" transform="translate(198.57 -318.2)" style="fill:#f7a800"/><path d="M786.83,690l-9.52-3.32L771,684.51c-0.47-.16-2.18-1.12-2.71-0.76-1,.66-0.83,1.21-0.31,2.07l3.14,5.25,5.57,9.32a0.51,0.51,0,0,0,.79.1l9.53-9.66a0.5,0.5,0,0,0-.71-0.71l-9.53,9.66,0.79,0.1L773,692.26l-3.23-5.41a14.58,14.58,0,0,0-1.28-2.16l18,6.29C787.18,691.19,787.44,690.23,786.83,690Z" transform="translate(198.57 -318.2)" style="fill:#f7a800"/><path d="M788.26,672.66l-10.64,5.12L770.88,681c-0.48.23-2.65,0.86-2.78,1.53-0.26,1.37.49,1.5,1.58,1.77l6.88,1.73,11.84,3a0.51,0.51,0,0,0,.63-0.48q0-7.72,0-15.44a0.5,0.5,0,0,0-1,0q0,7.72,0,15.44l0.63-.48-10.41-2.61-6.87-1.72-2.44-.66,19.82-9.53C789.35,673.24,788.84,672.38,788.26,672.66Z" transform="translate(198.57 -318.2)" style="fill:#f7a800"/><path d="M774.87,658.73l-4.17,12.08L768,678.69c-0.36,1-1.35,2.55-.66,3.57s2-.19,2.66-0.57l7.11-4.24,11.65-6.94a0.5,0.5,0,0,0,.1-0.79l-13.13-11.21c-0.49-.42-1.2.29-0.71,0.71l13.13,11.21,0.1-.79-9.94,5.92-7.11,4.24c-0.59.35-3,1.37-3.2,1.94L775.84,659C776,658.39,775.08,658.13,774.87,658.73Z" transform="translate(198.57 -318.2)" style="fill:#f7a800"/><path d="M752,653.34l13.52,28.41c0.64,1.34,1.83,0,2-.81l2-8,4-15.9a0.5,0.5,0,0,0-.35-0.61l-20.62-3.79c-0.63-.12-0.9.85-0.27,1l20.62,3.79-0.35-.61-3.49,14-2.12,8.51-0.51,2a1.28,1.28,0,0,1-.33-0.63l-13.25-27.84C752.55,652.25,751.69,652.76,752,653.34Z" transform="translate(198.57 -318.2)" style="fill:#f7a800"/><path d="M756.93,680.65l4.58,1.51c0.66,0.22,3.16,1.54,3.82,1,1.3-1.13-.22-2.53-0.9-3.62l-2.66-4.28a0.5,0.5,0,0,0-.79-0.1l-4.27,4.67a0.5,0.5,0,0,0,.71.71l4.27-4.67-0.79-.1,2.14,3.44c0.42,0.67,1.47,2.92,2,3.09l-7.85-2.59C756.58,679.48,756.32,680.45,756.93,680.65Z" transform="translate(198.57 -318.2)" style="fill:#f7a800"/><path d="M1172.78,558l4.83-2.34,3.12-1.51c0.3-.15,1.21-0.39,1.29-0.81,0.36-1.91-1.85-1.84-3.23-2.18l-5.89-1.47a0.51,0.51,0,0,0-.63.48q-0.12,3.7-.23,7.4a0.5,0.5,0,0,0,1,0q0.12-3.7.23-7.4l-0.63.48,4.52,1.13,3.12,0.78c0.24,0.06,1.15.16,0.89,0.28l-8.88,4.3C1171.7,557.39,1172.21,558.25,1172.78,558Z" transform="translate(198.57 -318.2)" style="fill:#f7a800"/><path d="M1178.87,566.62l2.36-6.84,1.41-4.09c0.12-.35.68-1.32,0.41-1.72-1.18-1.74-3.22.39-4.48,1.16l-6.4,3.88a0.51,0.51,0,0,0-.1.79l6,7c0.42,0.49,1.12-.22.71-0.71l-6-7-0.1.79,5.17-3.14,3.29-2c0.25-.15,1.07-0.87.92-0.44l-4.16,12.05C1177.7,567,1178.66,567.23,1178.87,566.62Z" transform="translate(198.57 -318.2)" style="fill:#f7a800"/><path d="M1191.62,568.62l-3.63-7.55-2.51-5.22c-0.24-.51-0.55-1.75-1.09-2.06-2.13-1.25-2.56,4.22-2.79,5.15l-2.24,9a0.51,0.51,0,0,0,.48.63l11.35,0.78c0.64,0,.64-1,0-1l-11.35-.78,0.48,0.63,1.77-7.13,1.18-4.76c0.09-.35.39-2,0.51-1.71l7,14.5C1191,569.7,1191.9,569.2,1191.62,568.62Z" transform="translate(198.57 -318.2)" style="fill:#f7a800"/><path d="M1203.42,559l-9.52-3.32-6.26-2.18c-0.47-.16-2.18-1.12-2.71-0.76-1,.66-0.83,1.21-0.31,2.07l3.14,5.25,5.57,9.32a0.5,0.5,0,0,0,.79.1l9.53-9.66a0.5,0.5,0,0,0-.71-0.71l-9.53,9.66,0.79,0.1-4.56-7.64-3.23-5.41a14.63,14.63,0,0,0-1.28-2.16l18,6.29C1203.77,560.14,1204,559.17,1203.42,559Z" transform="translate(198.57 -318.2)" style="fill:#f7a800"/><path d="M1204.85,541.6l-10.64,5.12-6.75,3.25c-0.48.23-2.66,0.86-2.78,1.53-0.25,1.37.49,1.5,1.58,1.77l6.88,1.73,11.84,3a0.51,0.51,0,0,0,.63-0.48q0-7.72,0-15.44a0.5,0.5,0,0,0-1,0q0,7.72,0,15.44l0.63-.48-10.41-2.61-6.87-1.72c-0.46-.12-2.45-0.66-2.44-0.66l19.82-9.53C1205.94,542.18,1205.43,541.32,1204.85,541.6Z" transform="translate(198.57 -318.2)" style="fill:#f7a800"/><path d="M1191.46,527.67l-4.17,12.08-2.72,7.88c-0.36,1-1.35,2.55-.66,3.57s2-.19,2.66-0.57l7.11-4.24,11.64-6.94a0.5,0.5,0,0,0,.1-0.79l-13.12-11.21c-0.49-.42-1.2.29-0.71,0.71l13.12,11.21,0.1-.79-9.93,5.92-7.11,4.24c-0.59.35-3,1.37-3.2,1.94l7.85-22.75C1192.64,527.33,1191.67,527.07,1191.46,527.67Z" transform="translate(198.57 -318.2)" style="fill:#f7a800"/><path d="M1168.55,522.28l13.52,28.41c0.64,1.34,1.84,0,2-.81l2-8,4-15.9a0.5,0.5,0,0,0-.35-0.61l-20.61-3.79c-0.63-.12-0.9.85-0.27,1l20.61,3.79-0.35-.61-3.49,14-2.12,8.51-0.51,2a1.27,1.27,0,0,1-.33-0.63l-13.25-27.84C1169.14,521.19,1168.28,521.7,1168.55,522.28Z" transform="translate(198.57 -318.2)" style="fill:#f7a800"/><path d="M1173.52,549.59l4.58,1.51c0.67,0.22,3.16,1.54,3.82,1,1.31-1.12-.22-2.53-0.9-3.62l-2.66-4.28a0.5,0.5,0,0,0-.79-0.1l-4.27,4.67a0.5,0.5,0,0,0,.71.71l4.27-4.67-0.79-.1,2.14,3.44c0.42,0.67,1.47,2.92,2,3.09l-7.85-2.59C1173.17,548.43,1172.91,549.39,1173.52,549.59Z" transform="translate(198.57 -318.2)" style="fill:#f7a800"/><path d="M378.9,431l4.83-2.34,3.12-1.51c0.3-.15,1.21-0.39,1.29-0.81,0.36-1.91-1.85-1.84-3.24-2.18L379,422.65a0.51,0.51,0,0,0-.63.48l-0.23,7.4a0.5,0.5,0,0,0,1,0l0.23-7.4-0.63.48,4.52,1.13,3.12,0.78c0.24,0.06,1.15.16,0.89,0.28l-8.88,4.3C377.81,430.38,378.32,431.24,378.9,431Z" transform="translate(198.57 -318.2)" style="fill:#f7a800"/><path d="M385,439.62l2.36-6.84,1.41-4.09c0.12-.35.68-1.32,0.41-1.72-1.18-1.74-3.21.39-4.48,1.16l-6.4,3.88a0.51,0.51,0,0,0-.1.79l6,7c0.42,0.49,1.12-.22.71-0.71l-6-7-0.1.79,5.17-3.14,3.29-2c0.25-.15,1.07-0.87.92-0.44L384,439.35C383.82,440,384.78,440.22,385,439.62Z" transform="translate(198.57 -318.2)" style="fill:#f7a800"/><path d="M397.74,441.61l-3.63-7.55-2.51-5.22c-0.24-.51-0.56-1.75-1.09-2.06-2.14-1.25-2.56,4.22-2.79,5.15l-2.24,9a0.51,0.51,0,0,0,.48.63l11.35,0.78c0.64,0,.64-1,0-1l-11.35-.78,0.48,0.63,1.77-7.13,1.18-4.76c0.09-.35.39-2,0.51-1.71l7,14.5C397.15,442.7,398,442.19,397.74,441.61Z" transform="translate(198.57 -318.2)" style="fill:#f7a800"/><path d="M409.54,432L400,428.63l-6.26-2.18c-0.47-.16-2.18-1.12-2.71-0.76-1,.66-0.82,1.21-0.31,2.07l3.14,5.25,5.57,9.32a0.51,0.51,0,0,0,.79.1l9.53-9.66a0.5,0.5,0,0,0-.71-0.71l-9.53,9.66,0.79,0.1-4.56-7.64-3.23-5.41a14.64,14.64,0,0,0-1.28-2.16l18,6.29C409.88,433.13,410.14,432.16,409.54,432Z" transform="translate(198.57 -318.2)" style="fill:#f7a800"/><path d="M411,414.59l-10.64,5.12L393.58,423c-0.48.23-2.66,0.86-2.78,1.53-0.25,1.37.49,1.5,1.58,1.77l6.88,1.73,11.84,3a0.51,0.51,0,0,0,.63-0.48q0-7.72,0-15.44a0.5,0.5,0,0,0-1,0q0,7.72,0,15.44l0.63-.48L401,427.37l-6.87-1.72c-0.46-.12-2.45-0.66-2.44-0.66l19.82-9.53C412.06,415.18,411.55,414.31,411,414.59Z" transform="translate(198.57 -318.2)" style="fill:#f7a800"/><path d="M397.58,400.67l-4.17,12.08-2.72,7.88c-0.36,1-1.35,2.55-.66,3.57s2-.18,2.65-0.57l7.11-4.24,11.65-6.94a0.5,0.5,0,0,0,.1-0.79l-13.13-11.21c-0.49-.42-1.2.29-0.71,0.71l13.13,11.21,0.1-.79L401,417.5l-7.11,4.24c-0.59.35-3,1.36-3.2,1.94l7.85-22.75C398.75,400.32,397.79,400.06,397.58,400.67Z" transform="translate(198.57 -318.2)" style="fill:#f7a800"/><path d="M374.67,395.27l13.52,28.41c0.64,1.34,1.83,0,2-.81l2-8,4-15.9a0.5,0.5,0,0,0-.35-0.61l-20.62-3.79c-0.63-.12-0.9.85-0.27,1l20.62,3.79-0.35-.61-3.49,14-2.12,8.51-0.51,2a1.28,1.28,0,0,1-.33-0.63l-13.25-27.84C375.26,394.19,374.4,394.69,374.67,395.27Z" transform="translate(198.57 -318.2)" style="fill:#f7a800"/><path d="M379.64,422.59l4.58,1.51c0.66,0.22,3.16,1.54,3.82,1,1.3-1.13-.22-2.52-0.9-3.62l-2.66-4.28a0.5,0.5,0,0,0-.79-0.1l-4.27,4.67a0.5,0.5,0,0,0,.71.71l4.27-4.67-0.79-.1,2.14,3.44c0.42,0.67,1.47,2.92,2,3.09l-7.85-2.59C379.29,421.42,379,422.38,379.64,422.59Z" transform="translate(198.57 -318.2)" style="fill:#f7a800"/><path d="M313.18,779.59l8.18-4a0.66,0.66,0,0,0,.08-0.41,0.65,0.65,0,0,0-.16-0.39l-7.89-2Z" transform="translate(198.57 -318.2)" style="fill:#f7a800;fill-rule:evenodd"/><path d="M318.5,787.72l3.84-11.13a0.66,0.66,0,0,0-.23-0.34,0.67,0.67,0,0,0-.39-0.16l-8.63,5.24Z" transform="translate(198.57 -318.2)" style="fill:#f7a800;fill-rule:evenodd"/><path d="M330.12,789.88l-6.4-13.31a0.72,0.72,0,0,0-.79.09l-3.11,12.51Z" transform="translate(198.57 -318.2)" style="fill:#f7a800;fill-rule:evenodd"/><path d="M341.11,781.32l-16.44-5.73a0.72,0.72,0,0,0-.5.62l8.29,13.87Z" transform="translate(198.57 -318.2)" style="fill:#f7a800;fill-rule:evenodd"/><path d="M342.76,765.51l-18.11,8.71a0.66,0.66,0,0,0-.08.41,0.65,0.65,0,0,0,.16.38l18,4.52v-14Z" transform="translate(198.57 -318.2)" style="fill:#f7a800;fill-rule:evenodd"/><path d="M330.81,752.59l-7.14,20.67a0.66,0.66,0,0,0,.23.34,0.66,0.66,0,0,0,.39.16l18.43-11Z" transform="translate(198.57 -318.2)" style="fill:#f7a800;fill-rule:evenodd"/><path d="M310,747.34l12.34,25.93a0.65,0.65,0,0,0,.41.08,0.66,0.66,0,0,0,.38-0.16l5.59-22.41Z" transform="translate(198.57 -318.2)" style="fill:#f7a800;fill-rule:evenodd"/><path d="M314.2,771.94l7.19,2.38a0.52,0.52,0,0,0,.27-0.23,0.67,0.67,0,0,0,.15-0.39l-3.73-6Z" transform="translate(198.57 -318.2)" style="fill:#f7a800;fill-rule:evenodd"/><path d="M192.8,644.76l8.18-4a0.67,0.67,0,0,0,.07-0.41,0.64,0.64,0,0,0-.16-0.39L193,638Z" transform="translate(198.57 -318.2)" style="fill:#f7a800;fill-rule:evenodd"/><path d="M198.12,652.89L202,641.76a0.66,0.66,0,0,0-.23-0.34,0.67,0.67,0,0,0-.39-0.16l-8.64,5.24Z" transform="translate(198.57 -318.2)" style="fill:#f7a800;fill-rule:evenodd"/><path d="M209.74,655.05l-6.4-13.31a0.72,0.72,0,0,0-.79.09l-3.11,12.51Z" transform="translate(198.57 -318.2)" style="fill:#f7a800;fill-rule:evenodd"/><path d="M220.73,646.49l-16.44-5.73a0.68,0.68,0,0,0-.34.24,0.66,0.66,0,0,0-.16.39l8.29,13.87Z" transform="translate(198.57 -318.2)" style="fill:#f7a800;fill-rule:evenodd"/><path d="M222.38,630.68l-18.11,8.71a0.65,0.65,0,0,0-.08.41,0.64,0.64,0,0,0,.16.38l18,4.52v-14Z" transform="translate(198.57 -318.2)" style="fill:#f7a800;fill-rule:evenodd"/><path d="M210.43,617.76l-7.14,20.67a0.67,0.67,0,0,0,.23.34,0.66,0.66,0,0,0,.39.15l18.43-11Z" transform="translate(198.57 -318.2)" style="fill:#f7a800;fill-rule:evenodd"/><path d="M189.58,612.52l12.34,25.94a0.72,0.72,0,0,0,.79-0.09L208.3,616Z" transform="translate(198.57 -318.2)" style="fill:#f7a800;fill-rule:evenodd"/><path d="M193.82,637.11l7.19,2.38a0.53,0.53,0,0,0,.27-0.24,0.67,0.67,0,0,0,.15-0.39l-3.73-6Z" transform="translate(198.57 -318.2)" style="fill:#f7a800;fill-rule:evenodd"/><path d="M661.06,628.64l8.18-4a0.72,0.72,0,0,0-.09-0.79l-7.88-2Z" transform="translate(198.57 -318.2)" style="fill:#f7a800;fill-rule:evenodd"/><path d="M666.38,636.77l3.84-11.13a0.67,0.67,0,0,0-.23-0.34,0.68,0.68,0,0,0-.39-0.16L661,630.38Z" transform="translate(198.57 -318.2)" style="fill:#f7a800;fill-rule:evenodd"/><path d="M678,638.93l-6.41-13.31a0.67,0.67,0,0,0-.41-0.08,0.66,0.66,0,0,0-.38.16l-3.11,12.51Z" transform="translate(198.57 -318.2)" style="fill:#f7a800;fill-rule:evenodd"/><path d="M689,630.37l-16.44-5.73a0.72,0.72,0,0,0-.5.62l8.29,13.87Z" transform="translate(198.57 -318.2)" style="fill:#f7a800;fill-rule:evenodd"/><path d="M690.64,614.56l-18.11,8.71a0.72,0.72,0,0,0,.09.79l18,4.52v-14Z" transform="translate(198.57 -318.2)" style="fill:#f7a800;fill-rule:evenodd"/><path d="M678.69,601.64l-7.13,20.67a0.65,0.65,0,0,0,.23.34,0.66,0.66,0,0,0,.39.16l18.43-11Z" transform="translate(198.57 -318.2)" style="fill:#f7a800;fill-rule:evenodd"/><path d="M657.84,596.39l12.34,25.94a0.72,0.72,0,0,0,.79-0.09l5.59-22.41Z" transform="translate(198.57 -318.2)" style="fill:#f7a800;fill-rule:evenodd"/><path d="M662.08,621l7.18,2.38a0.52,0.52,0,0,0,.27-0.24,0.66,0.66,0,0,0,.15-0.39l-3.73-6Z" transform="translate(198.57 -318.2)" style="fill:#f7a800;fill-rule:evenodd"/><path d="M975.68,546.66l8.19-4a0.66,0.66,0,0,0,.08-0.41,0.63,0.63,0,0,0-.17-0.39l-7.88-2Z" transform="translate(198.57 -318.2)" style="fill:#f7a800;fill-rule:evenodd"/><path d="M981,554.79l3.84-11.13a0.72,0.72,0,0,0-.62-0.5l-8.64,5.24Z" transform="translate(198.57 -318.2)" style="fill:#f7a800;fill-rule:evenodd"/><path d="M992.62,557l-6.41-13.31a0.67,0.67,0,0,0-.41-0.08,0.66,0.66,0,0,0-.38.16l-3.11,12.51Z" transform="translate(198.57 -318.2)" style="fill:#f7a800;fill-rule:evenodd"/><path d="M1003.61,548.39l-16.44-5.73a0.67,0.67,0,0,0-.34.24,0.65,0.65,0,0,0-.16.39L995,557.16Z" transform="translate(198.57 -318.2)" style="fill:#f7a800;fill-rule:evenodd"/><path d="M1005.26,532.58l-18.11,8.71a0.65,0.65,0,0,0-.08.41,0.64,0.64,0,0,0,.17.38l18,4.52v-14Z" transform="translate(198.57 -318.2)" style="fill:#f7a800;fill-rule:evenodd"/><path d="M993.31,519.66l-7.14,20.67a0.67,0.67,0,0,0,.23.34,0.66,0.66,0,0,0,.39.15l18.43-11Z" transform="translate(198.57 -318.2)" style="fill:#f7a800;fill-rule:evenodd"/><path d="M972.46,514.41l12.34,25.93a0.66,0.66,0,0,0,.41.08,0.64,0.64,0,0,0,.38-0.16l5.59-22.41Z" transform="translate(198.57 -318.2)" style="fill:#f7a800;fill-rule:evenodd"/><path d="M976.69,539l7.19,2.38a0.52,0.52,0,0,0,.27-0.24,0.66,0.66,0,0,0,.15-0.39l-3.73-6Z" transform="translate(198.57 -318.2)" style="fill:#f7a800;fill-rule:evenodd"/><path d="M701.18,472.47l8.18-4a0.66,0.66,0,0,0,.07-0.41,0.64,0.64,0,0,0-.16-0.39l-7.89-2Z" transform="translate(198.57 -318.2)" style="fill:#f7a800;fill-rule:evenodd"/><path d="M706.51,480.6l3.84-11.13a0.66,0.66,0,0,0-.23-0.34,0.67,0.67,0,0,0-.39-0.16l-8.64,5.24Z" transform="translate(198.57 -318.2)" style="fill:#f7a800;fill-rule:evenodd"/><path d="M718.13,482.76l-6.41-13.31a0.67,0.67,0,0,0-.41-0.08,0.67,0.67,0,0,0-.38.16L707.81,482Z" transform="translate(198.57 -318.2)" style="fill:#f7a800;fill-rule:evenodd"/><path d="M729.12,474.19l-16.44-5.73a0.68,0.68,0,0,0-.34.24,0.66,0.66,0,0,0-.16.39L720.46,483Z" transform="translate(198.57 -318.2)" style="fill:#f7a800;fill-rule:evenodd"/><path d="M730.77,458.38l-18.11,8.71a0.65,0.65,0,0,0-.08.41,0.63,0.63,0,0,0,.16.38l18,4.52v-14Z" transform="translate(198.57 -318.2)" style="fill:#f7a800;fill-rule:evenodd"/><path d="M718.82,445.47l-7.14,20.67a0.66,0.66,0,0,0,.23.34,0.66,0.66,0,0,0,.39.15l18.43-11Z" transform="translate(198.57 -318.2)" style="fill:#f7a800;fill-rule:evenodd"/><path d="M698,440.22l12.34,25.94a0.71,0.71,0,0,0,.79-0.09l5.59-22.41Z" transform="translate(198.57 -318.2)" style="fill:#f7a800;fill-rule:evenodd"/><path d="M702.2,464.81l7.19,2.38a0.52,0.52,0,0,0,.27-0.24,0.67,0.67,0,0,0,.15-0.39l-3.73-6Z" transform="translate(198.57 -318.2)" style="fill:#f7a800;fill-rule:evenodd"/><path d="M692.13,350.45l8.18-4a0.67,0.67,0,0,0,.08-0.41,0.64,0.64,0,0,0-.16-0.38l-7.89-2Z" transform="translate(198.57 -318.2)" style="fill:#f7a800;fill-rule:evenodd"/><path d="M697.45,358.58l3.84-11.13a0.65,0.65,0,0,0-.23-0.34,0.66,0.66,0,0,0-.39-0.16L692,352.19Z" transform="translate(198.57 -318.2)" style="fill:#f7a800;fill-rule:evenodd"/><path d="M709.07,360.74l-6.4-13.31a0.71,0.71,0,0,0-.79.09L698.76,360Z" transform="translate(198.57 -318.2)" style="fill:#f7a800;fill-rule:evenodd"/><path d="M720.06,352.18l-16.44-5.73a0.69,0.69,0,0,0-.34.24,0.67,0.67,0,0,0-.16.39l8.29,13.87Z" transform="translate(198.57 -318.2)" style="fill:#f7a800;fill-rule:evenodd"/><path d="M721.71,336.37l-18.11,8.71a0.65,0.65,0,0,0-.08.41,0.63,0.63,0,0,0,.16.38l18,4.52v-14Z" transform="translate(198.57 -318.2)" style="fill:#f7a800;fill-rule:evenodd"/><path d="M709.76,323.45l-7.14,20.67a0.72,0.72,0,0,0,.62.5l18.43-11Z" transform="translate(198.57 -318.2)" style="fill:#f7a800;fill-rule:evenodd"/><path d="M688.91,318.2l12.34,25.93a0.72,0.72,0,0,0,.79-0.09l5.59-22.41Z" transform="translate(198.57 -318.2)" style="fill:#f7a800;fill-rule:evenodd"/><path d="M693.15,342.8l7.18,2.38a0.51,0.51,0,0,0,.27-0.23,0.67,0.67,0,0,0,.15-0.39l-3.73-6Z" transform="translate(198.57 -318.2)" style="fill:#f7a800;fill-rule:evenodd"/><path d="M1123.88,435l8.18-4a0.71,0.71,0,0,0-.09-0.79l-7.88-2Z" transform="translate(198.57 -318.2)" style="fill:#f7a800;fill-rule:evenodd"/><path d="M1129.21,443.1l3.84-11.13a0.67,0.67,0,0,0-.23-0.34,0.68,0.68,0,0,0-.39-0.16l-8.63,5.24Z" transform="translate(198.57 -318.2)" style="fill:#f7a800;fill-rule:evenodd"/><path d="M1140.83,445.26l-6.4-13.31a0.72,0.72,0,0,0-.79.09l-3.11,12.51Z" transform="translate(198.57 -318.2)" style="fill:#f7a800;fill-rule:evenodd"/><path d="M1151.82,436.7L1135.38,431a0.73,0.73,0,0,0-.5.62l8.29,13.87Z" transform="translate(198.57 -318.2)" style="fill:#f7a800;fill-rule:evenodd"/><path d="M1153.47,420.89l-18.11,8.71a0.72,0.72,0,0,0,.09.8l18,4.52v-14Z" transform="translate(198.57 -318.2)" style="fill:#f7a800;fill-rule:evenodd"/><path d="M1141.52,408l-7.13,20.67a0.65,0.65,0,0,0,.23.34,0.67,0.67,0,0,0,.39.16l18.43-11Z" transform="translate(198.57 -318.2)" style="fill:#f7a800;fill-rule:evenodd"/><path d="M1120.67,402.72L1133,428.66a0.72,0.72,0,0,0,.79-0.09l5.59-22.41Z" transform="translate(198.57 -318.2)" style="fill:#f7a800;fill-rule:evenodd"/><path d="M1124.9,427.32l7.18,2.38a0.52,0.52,0,0,0,.27-0.24,0.66,0.66,0,0,0,.15-0.39l-3.73-6Z" transform="translate(198.57 -318.2)" style="fill:#f7a800;fill-rule:evenodd"/></g></svg>