<svg id="Слой_1" data-name="Слой 1" xmlns="http://www.w3.org/2000/svg" viewBox="0 0 104.2 135.72"><title>logo</title><path d="M443,198.45l26-12.57a2.07,2.07,0,0,0,.24-1.3,2,2,0,0,0-.52-1.22l-25-6.24Z" transform="translate(-432.83 -96.06)" style="fill:#ea4e3e;fill-rule:evenodd"/><path d="M460,224.27l12.2-35.35a2.07,2.07,0,0,0-.74-1.09,2.12,2.12,0,0,0-1.23-.5L442.76,204Z" transform="translate(-432.83 -96.06)" style="fill:#ea4e3e;fill-rule:evenodd"/><path d="M496.85,231.13l-20.34-42.27a2.14,2.14,0,0,0-1.3-.24,2.1,2.1,0,0,0-1.22.52l-9.88,39.74Z" transform="translate(-432.83 -96.06)" style="fill:#ea4e3e;fill-rule:evenodd"/><path d="M531.75,203.93l-52.2-18.19a2.29,2.29,0,0,0-1.59,2l26.32,44.05Z" transform="translate(-432.83 -96.06)" style="fill:#ea4e3e;fill-rule:evenodd"/><path d="M537,153.74l-57.49,27.65a2.08,2.08,0,0,0-.24,1.3,2,2,0,0,0,.52,1.22L537,198.26Z" transform="translate(-432.83 -96.06)" style="fill:#ea4e3e;fill-rule:evenodd"/><path d="M499,112.72l-22.66,65.63a2.26,2.26,0,0,0,2,1.59L536.88,145Z" transform="translate(-432.83 -96.06)" style="fill:#ea4e3e;fill-rule:evenodd"/><path d="M432.83,96.06L472,178.4a2.06,2.06,0,0,0,1.3.24,2.1,2.1,0,0,0,1.22-.52L492.27,107Z" transform="translate(-432.83 -96.06)" style="fill:#ea4e3e;fill-rule:evenodd"/><path d="M446.29,174.15l22.81,7.54a1.64,1.64,0,0,0,.87-0.75,2.12,2.12,0,0,0,.48-1.24l-11.84-19Z" transform="translate(-432.83 -96.06)" style="fill:#ea4e3e;fill-rule:evenodd"/></svg>