<svg id="Слой_1" data-name="Слой 1" xmlns="http://www.w3.org/2000/svg" viewBox="0 0 610.84 293.36"><title>map </title><line x1="23.79" y1="143.21" x2="200.23" y2="143.21" style="fill:none;stroke:#fff;stroke-linecap:round;stroke-linejoin:round;stroke-width:15px"/><polyline points="591.47 265.38 100.09 265.38 53.63 22.86" style="fill:none;stroke:#fff;stroke-linecap:round;stroke-linejoin:round;stroke-width:15px"/><path d="M2441.81,956c0,15.59-12.3,28.35-27.33,28.35s-27.33-12.76-27.33-28.35V926c0-15.59,12.3-28.35,27.33-28.35s27.33,12.76,27.33,28.35v30Z" transform="translate(-2254.52 -874.67)" style="fill:#fff"/><line x1="303.69" y1="22.86" x2="100.09" y2="265.38" style="fill:none;stroke:#fff;stroke-linecap:round;stroke-linejoin:round;stroke-width:15px"/><line x1="499.32" y1="84.93" x2="468.35" y2="121.94" style="fill:none;stroke:#e94b3d;stroke-linecap:round;stroke-miterlimit:10;stroke-dasharray:2,2"/><path d="M2753.58,959.91A7.38,7.38,0,0,0,2756,964a13.63,13.63,0,0,1,.07-7.17,14.37,14.37,0,0,1-7,1.34A7.64,7.64,0,0,0,2753.58,959.91Z" transform="translate(-2254.52 -874.67)" style="fill:#e94b3d"/><polyline points="252.46 85.71 314.88 139.35 440.21 139.35" style="fill:none;stroke:#fff;stroke-linecap:round;stroke-miterlimit:10;stroke-width:15px"/><line x1="260.04" y1="91.67" x2="260.8" y2="92.32" style="fill:none;stroke:#e94b3d;stroke-linecap:round;stroke-miterlimit:10"/><polyline points="262.31 93.61 316.69 140.35 430.6 140.35" style="fill:none;stroke:#e94b3d;stroke-linecap:round;stroke-miterlimit:10;stroke-dasharray:1.9851499795913696,1.9851499795913696"/><line x1="431.59" y1="140.35" x2="432.59" y2="140.35" style="fill:none;stroke:#e94b3d;stroke-linecap:round;stroke-miterlimit:10"/><path d="M2686.7,1015a7.38,7.38,0,0,1-1.58-4.54,13.63,13.63,0,0,0,5.55,4.54,14.37,14.37,0,0,0-5.55,4.54A7.64,7.64,0,0,1,2686.7,1015Z" transform="translate(-2254.52 -874.67)" style="fill:#e94b3d"/><rect x="2530.84" y="945.57" width="28" height="16.67" transform="matrix(0.65, -0.76, 0.76, 0.65, -2091.85, 1387.44)" style="fill:#fff"/><rect x="2400.67" y="1093.94" width="28" height="16.67" transform="translate(-2249.7 1340.38) rotate(-49.32)" style="fill:#fff"/><path d="M2399.06,937.7a5.18,5.18,0,0,1-2.13.38,3.78,3.78,0,0,1-4-4.09,4,4,0,0,1,4.22-4.25,4.33,4.33,0,0,1,1.92.36l-0.25.85a3.8,3.8,0,0,0-1.63-.34A3,3,0,0,0,2394,934a2.94,2.94,0,0,0,3.11,3.25,4.18,4.18,0,0,0,1.7-.34Z" transform="translate(-2254.52 -874.67)" style="fill:#181716"/><path d="M2403.86,932.16V933H2402v5h-1v-5h-1.81v-0.84h4.67Z" transform="translate(-2254.52 -874.67)" style="fill:#181716"/><path d="M2407.92,938l-0.08-.73h0a2.16,2.16,0,0,1-1.78.86,1.65,1.65,0,0,1-1.77-1.67c0-1.4,1.25-2.17,3.49-2.16v-0.12a1.2,1.2,0,0,0-1.32-1.34,2.89,2.89,0,0,0-1.51.43l-0.24-.7a3.6,3.6,0,0,1,1.91-.52,2.06,2.06,0,0,1,2.21,2.37v2.17a8.24,8.24,0,0,0,.1,1.39h-1Zm-0.16-3c-1.15,0-2.46.18-2.46,1.31a0.93,0.93,0,0,0,1,1,1.44,1.44,0,0,0,1.4-1,1.1,1.1,0,0,0,.06-0.34v-1Z" transform="translate(-2254.52 -874.67)" style="fill:#181716"/><path d="M2415,932.16v5h0.6l-0.06,2.63h-0.83l0-1.85h-4l0,1.85h-0.83l0-2.63h0.49a4.52,4.52,0,0,0,.58-1.19,7.64,7.64,0,0,0,.34-2.31v-1.51H2415Zm-2.94,1.76a7.68,7.68,0,0,1-.3,2.16,5.55,5.55,0,0,1-.47,1.08H2414V933H2412v1Z" transform="translate(-2254.52 -874.67)" style="fill:#181716"/><path d="M2417.82,932.16v2.45c0,0.92,0,1.5-.06,2.33h0c0.35-.71.55-1.12,0.94-1.79l1.81-3h1.24V938h-1v-2.46c0-.95,0-1.44.07-2.37h0c-0.37.74-.62,1.21-1,1.8-0.55.9-1.19,2-1.81,3h-1.21v-5.8h1Z" transform="translate(-2254.52 -874.67)" style="fill:#181716"/><path d="M2428.75,935a2.84,2.84,0,0,1-2.89,3.08,2.76,2.76,0,0,1-2.78-3A2.83,2.83,0,0,1,2426,932,2.75,2.75,0,0,1,2428.75,935Zm-4.61.06a1.81,1.81,0,1,0,3.53,0c0-1-.49-2.23-1.74-2.23S2424.14,934,2424.14,935.08Z" transform="translate(-2254.52 -874.67)" style="fill:#181716"/><path d="M2431.1,932.16v2.34h2.76v-2.34h1V938h-1v-2.63h-2.76V938h-1v-5.8h1Z" transform="translate(-2254.52 -874.67)" style="fill:#181716"/><path d="M2393.67,949.35l1.61,2.21h-0.85l-1.58-2.21,1.58-2.21h0.85Zm2,0,1.61,2.21h-0.85l-1.58-2.21,1.58-2.21h0.85Z" transform="translate(-2254.52 -874.67)" style="fill:#181716"/><path d="M2398.44,944.38a12.11,12.11,0,0,1,2-.16,3.32,3.32,0,0,1,2.27.67,2.17,2.17,0,0,1,.71,1.69,2.38,2.38,0,0,1-.62,1.73,3.35,3.35,0,0,1-2.47.89,3.59,3.59,0,0,1-.84-0.07v3.24h-1v-8Zm1,3.9a3.5,3.5,0,0,0,.86.08c1.26,0,2-.61,2-1.73s-0.76-1.58-1.91-1.58a4.37,4.37,0,0,0-1,.08v3.14Z" transform="translate(-2254.52 -874.67)" style="fill:#181716"/><path d="M2405.21,946.56l1.27,3.43c0.13,0.38.28,0.84,0.37,1.19h0c0.11-.35.23-0.79,0.37-1.21l1.15-3.41h1.12l-1.58,4.14c-0.75,2-1.27,3-2,3.63a2.86,2.86,0,0,1-1.3.68l-0.26-.89a2.8,2.8,0,0,0,.92-0.52,3.2,3.2,0,0,0,.89-1.18,0.76,0.76,0,0,0,.08-0.25,0.93,0.93,0,0,0-.07-0.28l-2.15-5.35h1.15Z" transform="translate(-2254.52 -874.67)" style="fill:#181716"/><path d="M2415,944.6a7.9,7.9,0,0,1-1.21.26,2.84,2.84,0,0,0-2.06,1.09,4.14,4.14,0,0,0-.64,1.92h0a2.2,2.2,0,0,1,2-1.31c1.43,0,2.47,1,2.47,2.87s-1,3.07-2.69,3.07c-2,0-2.71-2-2.71-3.89a5.16,5.16,0,0,1,.9-3.21,3.49,3.49,0,0,1,2.5-1.37,8.47,8.47,0,0,0,1.44-.31Zm-2.07,2.75a1.41,1.41,0,0,0-1.31.79,2.55,2.55,0,0,0-.29,1.24c0,1,.47,2.34,1.62,2.34s1.6-1.13,1.6-2.19S2414.13,947.34,2412.88,947.34Z" transform="translate(-2254.52 -874.67)" style="fill:#181716"/><path d="M2417.88,946.56V949c0,0.92,0,1.5-.06,2.33h0c0.35-.71.55-1.12,0.94-1.79l1.81-3h1.24v5.8h-1v-2.46c0-.95,0-1.44.07-2.37h0c-0.37.74-.62,1.21-1,1.8-0.55.9-1.19,2-1.81,3h-1.21v-5.8h1Z" transform="translate(-2254.52 -874.67)" style="fill:#181716"/><path d="M2424.57,946.56v2.34h2.76v-2.34h1v5.8h-1v-2.63h-2.76v2.63h-1v-5.8h1Z" transform="translate(-2254.52 -874.67)" style="fill:#181716"/><path d="M2429.51,947.14h0.85l1.6,2.21-1.6,2.21h-0.84l1.59-2.21Zm2,0h0.85l1.6,2.21-1.6,2.21h-0.84l1.59-2.21Z" transform="translate(-2254.52 -874.67)" style="fill:#181716"/><path d="M2565.07,945.11l-0.84,2.54h-1.08l2.75-8.08h1.26l2.76,8.08h-1.12l-0.86-2.54h-2.87Zm2.65-.82-0.79-2.33c-0.18-.53-0.3-1-0.42-1.48h0c-0.12.48-.25,1-0.41,1.46l-0.79,2.34h2.43Z" transform="translate(-2254.52 -874.67)" style="fill:#181716"/><path d="M2575.75,941.84v5h0.6l-0.06,2.63h-0.83l0-1.85h-4l0,1.85h-0.83l0-2.63H2571a4.52,4.52,0,0,0,.58-1.19,7.64,7.64,0,0,0,.34-2.31v-1.51h3.87Zm-2.94,1.76a7.68,7.68,0,0,1-.3,2.16,5.55,5.55,0,0,1-.47,1.08h2.67v-4.2h-1.91v1Z" transform="translate(-2254.52 -874.67)" style="fill:#181716"/><path d="M2577.67,941.84H2579l1.06,2.93c0.14,0.43.4,1.14,0.53,1.6h0c0.13-.43.46-1.36,0.68-2l0.94-2.53h1.31l0.41,5.8h-1l-0.13-2.77c0-.62-0.08-1.37-0.11-2.07h0c-0.16.53-.31,1-0.64,1.88l-1.12,2.93h-0.77l-1-2.87c-0.18-.55-0.43-1.39-0.58-1.93h0c0,0.68-.06,1.45-0.1,2.09l-0.14,2.75h-1Z" transform="translate(-2254.52 -874.67)" style="fill:#181716"/><path d="M2586.25,941.84v2.45c0,0.92,0,1.5-.06,2.33h0c0.35-.71.55-1.12,0.94-1.79l1.81-3h1.24v5.8h-1v-2.46c0-.95,0-1.44.07-2.37h0c-0.37.74-.62,1.21-1,1.8-0.55.9-1.19,2-1.81,3h-1.21v-5.8h1Z" transform="translate(-2254.52 -874.67)" style="fill:#181716"/><path d="M2592.94,941.84v2.34h2.76v-2.34h1v5.8h-1V945h-2.76v2.63h-1v-5.8h1Z" transform="translate(-2254.52 -874.67)" style="fill:#181716"/><path d="M2599.45,941.84v2.45c0,0.92,0,1.5-.06,2.33h0c0.35-.71.55-1.12,0.94-1.79l1.81-3h1.24v5.8h-1v-2.46c0-.95,0-1.44.07-2.37h0c-0.37.74-.62,1.21-1,1.8-0.55.9-1.19,2-1.81,3h-1.21v-5.8h1Z" transform="translate(-2254.52 -874.67)" style="fill:#181716"/><path d="M2609.26,947.43a3.89,3.89,0,0,1-1.67.34,2.76,2.76,0,0,1-2.89-3,3,3,0,0,1,3.12-3.08,3.53,3.53,0,0,1,1.46.3l-0.24.82a2.45,2.45,0,0,0-1.22-.28,2.19,2.19,0,0,0,0,4.37,3,3,0,0,0,1.29-.29Z" transform="translate(-2254.52 -874.67)" style="fill:#181716"/><path d="M2614.61,941.84v0.84h-1.81v5h-1v-5h-1.81v-0.84h4.67Z" transform="translate(-2254.52 -874.67)" style="fill:#181716"/><path d="M2615.54,943.74c0-.74,0-1.34,0-1.89h0.95l0,1h0a2.28,2.28,0,0,1,2.06-1.13c1.4,0,2.46,1.19,2.46,3,0,2.09-1.27,3.12-2.64,3.12a2,2,0,0,1-1.79-.91h0V950h-1v-6.28Zm1,1.55a2.43,2.43,0,0,0,0,.43,1.63,1.63,0,0,0,1.58,1.24c1.12,0,1.76-.91,1.76-2.24a1.89,1.89,0,0,0-1.73-2.16,1.68,1.68,0,0,0-1.59,1.31,1.71,1.71,0,0,0-.07.43v1Z" transform="translate(-2254.52 -874.67)" style="fill:#181716"/><path d="M2625.58,947.65l-0.08-.73h0a2.16,2.16,0,0,1-1.78.86,1.65,1.65,0,0,1-1.77-1.67c0-1.4,1.25-2.17,3.49-2.16v-0.12a1.2,1.2,0,0,0-1.32-1.34,2.89,2.89,0,0,0-1.51.43l-0.24-.7a3.6,3.6,0,0,1,1.91-.52,2.06,2.06,0,0,1,2.21,2.37v2.17a8.24,8.24,0,0,0,.1,1.39h-1Zm-0.16-3c-1.15,0-2.46.18-2.46,1.31a0.93,0.93,0,0,0,1,1,1.44,1.44,0,0,0,1.4-1,1.1,1.1,0,0,0,.06-0.34v-1Z" transform="translate(-2254.52 -874.67)" style="fill:#181716"/><path d="M2629.17,941.84v5h2.67v-5h1v5h0.6l-0.06,2.63h-0.82l0-1.85h-4.44v-5.8h1Z" transform="translate(-2254.52 -874.67)" style="fill:#181716"/><path d="M2635.72,941.84v2.45c0,0.92,0,1.5-.06,2.33h0c0.35-.71.55-1.12,0.94-1.79l1.81-3h1.24v5.8h-1v-2.46c0-.95,0-1.44.07-2.37h0c-0.37.74-.62,1.21-1,1.8-0.55.9-1.19,2-1.81,3h-1.21v-5.8h1Z" transform="translate(-2254.52 -874.67)" style="fill:#181716"/><path d="M2645.68,947.65h-1v-2.43h-0.78a1.37,1.37,0,0,0-1,.32,4,4,0,0,0-.82,1.63,3.61,3.61,0,0,1-.24.48h-1.13a3.82,3.82,0,0,0,.36-0.66,4.45,4.45,0,0,1,.91-1.75,1.38,1.38,0,0,1,.66-0.34v0a1.55,1.55,0,0,1-1.54-1.44,1.4,1.4,0,0,1,.77-1.26,4.07,4.07,0,0,1,1.94-.4,16.19,16.19,0,0,1,1.87.12v5.76Zm-1-5.11a5.87,5.87,0,0,0-.87-0.06c-0.72,0-1.57.2-1.57,1s0.92,1,1.55,1h0.9v-2Z" transform="translate(-2254.52 -874.67)" style="fill:#181716"/><path d="M2566.94,959.65l-0.08-.73h0a2.16,2.16,0,0,1-1.78.86,1.65,1.65,0,0,1-1.77-1.67c0-1.4,1.25-2.17,3.49-2.16v-0.12a1.2,1.2,0,0,0-1.32-1.34,2.89,2.89,0,0,0-1.51.43l-0.24-.7a3.6,3.6,0,0,1,1.91-.52,2.06,2.06,0,0,1,2.21,2.37v2.17a8.24,8.24,0,0,0,.1,1.39h-1Zm-0.16-3c-1.15,0-2.46.18-2.46,1.31a0.93,0.93,0,0,0,1,1,1.44,1.44,0,0,0,1.4-1,1.1,1.1,0,0,0,.06-0.34v-1Z" transform="translate(-2254.52 -874.67)" style="fill:#181716"/><path d="M2569.48,953.92a12.38,12.38,0,0,1,1.85-.13c1,0,2.58.16,2.58,1.45a1.37,1.37,0,0,1-1.21,1.31v0a1.48,1.48,0,0,1,1.48,1.44c0,1.52-1.92,1.72-3.06,1.72-0.65,0-1.32,0-1.63-.07v-5.73Zm1,5a6.41,6.41,0,0,0,.85,0c0.71,0,1.76-.17,1.76-1s-0.84-1-1.85-1h-0.77v2Zm0-2.67h0.79c0.78,0,1.58-.23,1.58-0.91s-0.5-.85-1.56-0.85a7.47,7.47,0,0,0-.82,0v1.72Z" transform="translate(-2254.52 -874.67)" style="fill:#181716"/><path d="M2576.48,953.84v2.45c0,0.92,0,1.5-.06,2.33h0c0.35-.71.55-1.12,0.94-1.79l1.81-3h1.24v5.8h-1v-2.46c0-.95,0-1.44.07-2.37h0c-0.37.74-.62,1.21-1,1.8-0.55.9-1.19,2-1.81,3h-1.21v-5.8h1Z" transform="translate(-2254.52 -874.67)" style="fill:#181716"/><path d="M2585.37,959.65l-0.08-.73h0a2.16,2.16,0,0,1-1.78.86,1.65,1.65,0,0,1-1.77-1.67c0-1.4,1.25-2.17,3.49-2.16v-0.12a1.2,1.2,0,0,0-1.32-1.34,2.89,2.89,0,0,0-1.51.43l-0.24-.7a3.6,3.6,0,0,1,1.91-.52,2.06,2.06,0,0,1,2.21,2.37v2.17a8.24,8.24,0,0,0,.1,1.39h-1Zm-0.16-3c-1.15,0-2.46.18-2.46,1.31a0.93,0.93,0,0,0,1,1,1.44,1.44,0,0,0,1.4-1,1.1,1.1,0,0,0,.06-0.34v-1Z" transform="translate(-2254.52 -874.67)" style="fill:#181716"/><path d="M2592.08,959.43a3.89,3.89,0,0,1-1.67.34,2.76,2.76,0,0,1-2.89-3,3,3,0,0,1,3.12-3.08,3.53,3.53,0,0,1,1.46.3l-0.24.82a2.45,2.45,0,0,0-1.22-.28,2.19,2.19,0,0,0,0,4.37,3,3,0,0,0,1.29-.29Z" transform="translate(-2254.52 -874.67)" style="fill:#181716"/><path d="M2597.43,953.84v0.84h-1.81v5h-1v-5h-1.81v-0.84h4.67Z" transform="translate(-2254.52 -874.67)" style="fill:#181716"/><path d="M2598.36,955.74c0-.74,0-1.34,0-1.89h0.95l0,1h0a2.28,2.28,0,0,1,2.06-1.13c1.4,0,2.46,1.19,2.46,3,0,2.09-1.27,3.12-2.64,3.12a2,2,0,0,1-1.79-.91h0V962h-1v-6.28Zm1,1.55a2.43,2.43,0,0,0,0,.43A1.63,1.63,0,0,0,2601,959c1.12,0,1.76-.91,1.76-2.24a1.89,1.89,0,0,0-1.73-2.16,1.68,1.68,0,0,0-1.59,1.31,1.71,1.71,0,0,0-.07.43v1Z" transform="translate(-2254.52 -874.67)" style="fill:#181716"/><path d="M2610.44,956.7a2.84,2.84,0,0,1-2.89,3.08,2.76,2.76,0,0,1-2.78-3,2.83,2.83,0,0,1,2.88-3.08A2.75,2.75,0,0,1,2610.44,956.7Zm-4.61.06a1.81,1.81,0,1,0,3.53,0c0-1-.49-2.23-1.74-2.23S2605.83,955.66,2605.83,956.76Z" transform="translate(-2254.52 -874.67)" style="fill:#181716"/><path d="M2612.74,953.84v2.45c0,0.92,0,1.5-.06,2.33h0c0.35-.71.55-1.12,0.94-1.79l1.81-3h1.24v5.8h-1v-2.46c0-.95,0-1.44.07-2.37h0c-0.37.74-.62,1.21-1,1.8-0.55.9-1.19,2-1.81,3h-1.21v-5.8h1Z" transform="translate(-2254.52 -874.67)" style="fill:#181716"/><path d="M2622.3,953.84v0.84h-1.81v5h-1v-5h-1.81v-0.84h4.67Z" transform="translate(-2254.52 -874.67)" style="fill:#181716"/><path d="M2623.66,956.94a1.86,1.86,0,0,0,2,2,3.82,3.82,0,0,0,1.61-.3l0.18,0.76a4.7,4.7,0,0,1-1.93.36,2.7,2.7,0,0,1-2.85-2.93c0-1.75,1-3.13,2.72-3.13a2.46,2.46,0,0,1,2.4,2.73,4,4,0,0,1,0,.49h-4.08Zm3.09-.76a1.5,1.5,0,0,0-1.46-1.72,1.75,1.75,0,0,0-1.62,1.72h3.08Z" transform="translate(-2254.52 -874.67)" style="fill:#181716"/><path d="M2633.5,953.84v5.8h-1v-5h-2v1.51c0,1.63-.16,2.72-0.91,3.21a1.69,1.69,0,0,1-1.15.36l-0.11-.83a1.31,1.31,0,0,0,.58-0.24c0.54-.4.6-1.21,0.6-2.51v-2.34h4Z" transform="translate(-2254.52 -874.67)" style="fill:#181716"/><path d="M2636.25,953.84v2a5.89,5.89,0,0,1,1-.06c1.31,0,2.69.41,2.69,2a1.65,1.65,0,0,1-.61,1.33,4,4,0,0,1-2.52.67,14.41,14.41,0,0,1-1.56-.08v-5.78h1Zm0,5.07a6.12,6.12,0,0,0,.78,0c0.79,0,1.81-.26,1.81-1.24s-1.06-1.22-1.83-1.22a5,5,0,0,0-.76.06v2.35Z" transform="translate(-2254.52 -874.67)" style="fill:#181716"/><path d="M2642.22,953.84v2.34H2645v-2.34h1v5.8h-1V957h-2.76v2.63h-1v-5.8h1Z" transform="translate(-2254.52 -874.67)" style="fill:#181716"/><path d="M2653,956.7a2.84,2.84,0,0,1-2.89,3.08,2.76,2.76,0,0,1-2.78-3,2.83,2.83,0,0,1,2.88-3.08A2.75,2.75,0,0,1,2653,956.7Zm-4.61.06a1.81,1.81,0,1,0,3.53,0c0-1-.49-2.23-1.74-2.23S2648.41,955.66,2648.41,956.76Z" transform="translate(-2254.52 -874.67)" style="fill:#181716"/><path d="M2657.88,953.84v0.85h-2.52v5h-1v-5.8h3.56Z" transform="translate(-2254.52 -874.67)" style="fill:#181716"/><path d="M2664,956.7a2.84,2.84,0,0,1-2.89,3.08,2.76,2.76,0,0,1-2.78-3,2.83,2.83,0,0,1,2.88-3.08A2.75,2.75,0,0,1,2664,956.7Zm-4.61.06a1.81,1.81,0,1,0,3.53,0c0-1-.49-2.23-1.74-2.23S2659.37,955.66,2659.37,956.76Z" transform="translate(-2254.52 -874.67)" style="fill:#181716"/><path d="M2563.72,967.74c0-.74,0-1.34,0-1.89h0.95l0,1h0a2.28,2.28,0,0,1,2.06-1.13c1.4,0,2.46,1.19,2.46,3,0,2.09-1.27,3.12-2.64,3.12a2,2,0,0,1-1.79-.91h0V974h-1v-6.28Zm1,1.55a2.43,2.43,0,0,0,0,.43,1.63,1.63,0,0,0,1.58,1.24c1.12,0,1.76-.91,1.76-2.24a1.89,1.89,0,0,0-1.73-2.16,1.68,1.68,0,0,0-1.59,1.31,1.71,1.71,0,0,0-.07.43v1Z" transform="translate(-2254.52 -874.67)" style="fill:#181716"/><path d="M2573.77,971.65l-0.08-.73h0a2.16,2.16,0,0,1-1.78.86,1.65,1.65,0,0,1-1.77-1.67c0-1.4,1.25-2.17,3.49-2.16v-0.12a1.2,1.2,0,0,0-1.32-1.34,2.89,2.89,0,0,0-1.51.43l-0.24-.7a3.6,3.6,0,0,1,1.91-.52,2.06,2.06,0,0,1,2.21,2.37v2.17a8.24,8.24,0,0,0,.1,1.39h-1Zm-0.16-3c-1.15,0-2.46.18-2.46,1.31a0.93,0.93,0,0,0,1,1,1.44,1.44,0,0,0,1.4-1,1.1,1.1,0,0,0,.06-0.34v-1Z" transform="translate(-2254.52 -874.67)" style="fill:#181716"/><path d="M2577.31,965.84v2.45c0,0.92,0,1.5-.06,2.33h0c0.35-.71.55-1.12,0.94-1.79l1.81-3h1.24v5.8h-1v-2.46c0-.95,0-1.44.07-2.37h0c-0.37.74-.62,1.21-1,1.8-0.55.9-1.19,2-1.81,3h-1.21v-5.8h1Zm0.68-2.36a0.83,0.83,0,0,0,.77.91,0.85,0.85,0,0,0,.82-0.91h0.76a1.45,1.45,0,0,1-1.59,1.49,1.4,1.4,0,0,1-1.51-1.49H2578Z" transform="translate(-2254.52 -874.67)" style="fill:#181716"/><path d="M2588.24,968.7a2.84,2.84,0,0,1-2.89,3.08,2.76,2.76,0,0,1-2.78-3,2.83,2.83,0,0,1,2.88-3.08A2.75,2.75,0,0,1,2588.24,968.7Zm-4.61.06a1.81,1.81,0,1,0,3.53,0c0-1-.49-2.23-1.74-2.23S2583.63,967.66,2583.63,968.76Z" transform="translate(-2254.52 -874.67)" style="fill:#181716"/><path d="M2590.59,965.84v2.34h2.76v-2.34h1v5.8h-1V969h-2.76v2.63h-1v-5.8h1Z" transform="translate(-2254.52 -874.67)" style="fill:#181716"/><path d="M2599.34,971.65l-0.08-.73h0a2.16,2.16,0,0,1-1.78.86,1.65,1.65,0,0,1-1.77-1.67c0-1.4,1.25-2.17,3.49-2.16v-0.12a1.2,1.2,0,0,0-1.32-1.34,2.89,2.89,0,0,0-1.51.43l-0.24-.7a3.6,3.6,0,0,1,1.91-.52,2.06,2.06,0,0,1,2.21,2.37v2.17a8.24,8.24,0,0,0,.1,1.39h-1Zm-0.16-3c-1.15,0-2.46.18-2.46,1.31a0.93,0.93,0,0,0,1,1,1.44,1.44,0,0,0,1.4-1,1.1,1.1,0,0,0,.06-0.34v-1Z" transform="translate(-2254.52 -874.67)" style="fill:#181716"/><path d="M2439.79,1083h-2.46v-0.89h6V1083h-2.47v7.2h-1.06V1083Z" transform="translate(-2254.52 -874.67)" style="fill:#181716"/><path d="M2443.38,1086.29c0-.74,0-1.34,0-1.89h0.95l0,1h0a2.28,2.28,0,0,1,2.06-1.13c1.4,0,2.46,1.19,2.46,3,0,2.09-1.27,3.12-2.64,3.12a2,2,0,0,1-1.79-.91h0v3.15h-1v-6.28Zm1,1.55a2.43,2.43,0,0,0,0,.43,1.63,1.63,0,0,0,1.58,1.24c1.12,0,1.76-.91,1.76-2.24a1.89,1.89,0,0,0-1.73-2.16,1.68,1.68,0,0,0-1.59,1.31,1.71,1.71,0,0,0-.07.43v1Z" transform="translate(-2254.52 -874.67)" style="fill:#181716"/><path d="M2455.46,1087.25a2.84,2.84,0,0,1-2.89,3.08,2.76,2.76,0,0,1-2.78-3,2.83,2.83,0,0,1,2.88-3.08A2.75,2.75,0,0,1,2455.46,1087.25Zm-4.61.06a1.81,1.81,0,1,0,3.53,0c0-1-.49-2.23-1.74-2.23S2450.86,1086.2,2450.86,1087.31Z" transform="translate(-2254.52 -874.67)" style="fill:#181716"/><path d="M2461.2,1084.39v5.8h-1v-5h-2v1.51c0,1.63-.16,2.72-0.91,3.21a1.69,1.69,0,0,1-1.15.36l-0.11-.83a1.31,1.31,0,0,0,.58-0.24c0.54-.4.6-1.21,0.6-2.51v-2.34h4Z" transform="translate(-2254.52 -874.67)" style="fill:#181716"/><path d="M2467.33,1084.39v5.8h-1v-5h-2v1.51c0,1.63-.16,2.72-0.91,3.21a1.69,1.69,0,0,1-1.15.36l-0.11-.83a1.31,1.31,0,0,0,.58-0.24c0.54-.4.6-1.21,0.6-2.51v-2.34h4Z" transform="translate(-2254.52 -874.67)" style="fill:#181716"/><path d="M2469.65,1087.49a1.86,1.86,0,0,0,2,2,3.82,3.82,0,0,0,1.61-.3l0.18,0.76a4.7,4.7,0,0,1-1.93.36,2.7,2.7,0,0,1-2.85-2.93c0-1.75,1-3.13,2.72-3.13a2.46,2.46,0,0,1,2.4,2.73,4,4,0,0,1,0,.49h-4.08Zm3.09-.76a1.5,1.5,0,0,0-1.46-1.72,1.75,1.75,0,0,0-1.62,1.72h3.08Z" transform="translate(-2254.52 -874.67)" style="fill:#181716"/><path d="M2476,1084.39v2.45c0,0.92,0,1.5-.06,2.33h0c0.35-.71.55-1.12,0.94-1.79l1.81-3H2480v5.8h-1v-2.46c0-.95,0-1.44.07-2.37h0c-0.37.74-.62,1.21-1,1.8-0.55.9-1.19,2-1.81,3H2475v-5.8h1Zm0.68-2.36a0.83,0.83,0,0,0,.77.91,0.85,0.85,0,0,0,.82-0.91h0.76a1.45,1.45,0,0,1-1.59,1.49A1.4,1.4,0,0,1,2476,1082h0.77Z" transform="translate(-2254.52 -874.67)" style="fill:#181716"/><path d="M2486.11,1082.42a7.92,7.92,0,0,1-1.21.26,2.84,2.84,0,0,0-2.06,1.09,4.14,4.14,0,0,0-.64,1.92h0a2.2,2.2,0,0,1,2-1.31c1.43,0,2.47,1,2.47,2.87s-1,3.07-2.69,3.07c-2,0-2.71-2-2.71-3.89a5.16,5.16,0,0,1,.9-3.21,3.49,3.49,0,0,1,2.5-1.37,8.47,8.47,0,0,0,1.44-.31Zm-2.07,2.75a1.41,1.41,0,0,0-1.31.79,2.55,2.55,0,0,0-.29,1.24c0,1,.47,2.34,1.62,2.34s1.6-1.13,1.6-2.19S2485.28,1085.17,2484,1085.17Z" transform="translate(-2254.52 -874.67)" style="fill:#181716"/><path d="M2488.32,1084.39l1.27,3.43c0.13,0.38.28,0.84,0.37,1.19h0c0.11-.35.23-0.79,0.37-1.21l1.15-3.41h1.12l-1.58,4.14c-0.75,2-1.27,3-2,3.63a2.86,2.86,0,0,1-1.3.68l-0.26-.89a2.8,2.8,0,0,0,.92-0.52,3.2,3.2,0,0,0,.89-1.18,0.76,0.76,0,0,0,.08-0.25,0.93,0.93,0,0,0-.07-0.28l-2.15-5.35h1.15Z" transform="translate(-2254.52 -874.67)" style="fill:#181716"/><path d="M2497.62,1090a3.89,3.89,0,0,1-1.67.34,2.76,2.76,0,0,1-2.89-3,3,3,0,0,1,3.12-3.08,3.53,3.53,0,0,1,1.46.3l-0.24.82a2.44,2.44,0,0,0-1.22-.28,2.19,2.19,0,0,0,0,4.37,3,3,0,0,0,1.29-.29Z" transform="translate(-2254.52 -874.67)" style="fill:#181716"/><path d="M2499.87,1084.39v2.34h2.76v-2.34h1v5.8h-1v-2.63h-2.76v2.63h-1v-5.8h1Z" transform="translate(-2254.52 -874.67)" style="fill:#181716"/><path d="M2510.66,1087.25a2.84,2.84,0,0,1-2.89,3.08,2.76,2.76,0,0,1-2.78-3,2.83,2.83,0,0,1,2.88-3.08A2.75,2.75,0,0,1,2510.66,1087.25Zm-4.61.06a1.81,1.81,0,1,0,3.53,0c0-1-.49-2.23-1.74-2.23S2506.05,1086.2,2506.05,1087.31Z" transform="translate(-2254.52 -874.67)" style="fill:#181716"/><path d="M2512.58,1087.49a1.86,1.86,0,0,0,2,2,3.82,3.82,0,0,0,1.61-.3l0.18,0.76a4.7,4.7,0,0,1-1.93.36,2.7,2.7,0,0,1-2.85-2.93c0-1.75,1-3.13,2.72-3.13a2.46,2.46,0,0,1,2.4,2.73,4,4,0,0,1,0,.49h-4.08Zm3.09-.76a1.5,1.5,0,0,0-1.46-1.72,1.75,1.75,0,0,0-1.62,1.72h3.08Z" transform="translate(-2254.52 -874.67)" style="fill:#181716"/><path d="M2443.78,1094.11v7.23l0.71,0-0.07,2.77h-0.82l-0.07-1.94h-5.1l-0.07,1.94h-0.82l-0.07-2.77,0.61,0a9.48,9.48,0,0,0,.79-1.78,12,12,0,0,0,.38-3.41v-2.05h4.52Zm-3.55,2.39a11.05,11.05,0,0,1-.41,3.3,7.92,7.92,0,0,1-.66,1.54h3.57V1095h-2.51v1.52Z" transform="translate(-2254.52 -874.67)" style="fill:#181716"/><path d="M2450,1098.41h-3.14v2.91h3.5v0.88h-4.55v-8.08h4.37V1095h-3.32v2.55H2450v0.86Z" transform="translate(-2254.52 -874.67)" style="fill:#181716"/><path d="M2457.56,1094.11v8.08h-1V1095h-3.75v7.21h-1v-8.08h5.84Z" transform="translate(-2254.52 -874.67)" style="fill:#181716"/><path d="M2466.29,1098.07c0,2.78-1.69,4.26-3.75,4.26s-3.63-1.66-3.63-4.1,1.6-4.25,3.75-4.25S2466.29,1095.67,2466.29,1098.07Zm-6.27.13c0,1.73.94,3.27,2.58,3.27s2.59-1.52,2.59-3.36c0-1.61-.84-3.29-2.58-3.29S2460,1096.43,2460,1098.2Z" transform="translate(-2254.52 -874.67)" style="fill:#181716"/><path d="M2470.17,1102.2v-7.8h1.15l2,3.85c0.47,0.92.89,1.79,1.22,2.6h0c-0.08-1.09-.11-2-0.11-3.24v-3.2h0.94v7.8h-1.07l-2.05-3.87c-0.46-.88-0.88-1.76-1.24-2.65h0c0,1,.07,1.91.07,3.29v3.23h-0.94Zm9.73-5.56a1.9,1.9,0,1,1-3.79,0,1.91,1.91,0,0,1,1.91-2.1A1.84,1.84,0,0,1,2479.9,1096.63Zm-3.47,3.24v-0.62h3.15v0.62h-3.15Zm0.54-3.19a1.28,1.28,0,0,0,1,1.45,1.24,1.24,0,0,0,1-1.48,1.26,1.26,0,0,0-1-1.48A1.3,1.3,0,0,0,2477,1096.68Z" transform="translate(-2254.52 -874.67)" style="fill:#181716"/><path d="M2483.11,1095.38h0l-1.36.73-0.2-.8,1.7-.91h0.9v7.8h-1v-6.81Z" transform="translate(-2254.52 -874.67)" style="fill:#181716"/><path d="M2571.82,1137.85l1.27,3.43c0.13,0.38.28,0.84,0.37,1.19h0c0.11-.35.23-0.79,0.37-1.21l1.15-3.41h1.12l-1.58,4.14c-0.75,2-1.27,3-2,3.63a2.86,2.86,0,0,1-1.3.68l-0.26-.89a2.8,2.8,0,0,0,.92-0.52,3.2,3.2,0,0,0,.89-1.18,0.76,0.76,0,0,0,.08-0.25,0.93,0.93,0,0,0-.07-0.28l-2.15-5.35h1.15Z" transform="translate(-2254.52 -874.67)" style="fill:#181716"/><path d="M2581.4,1137.85v5.8h-1v-5h-2v1.51c0,1.63-.16,2.72-0.91,3.21a1.69,1.69,0,0,1-1.15.36l-0.11-.83a1.31,1.31,0,0,0,.58-0.24c0.54-.4.6-1.21,0.6-2.51v-2.34h4Z" transform="translate(-2254.52 -874.67)" style="fill:#181716"/><path d="M2582.88,1143a0.71,0.71,0,0,1,.72-0.76A0.76,0.76,0,1,1,2582.88,1143Z" transform="translate(-2254.52 -874.67)" style="fill:#181716"/><path d="M2595,1140.1c-0.06-1.13-.13-2.48-0.12-3.49h0c-0.28.95-.61,2-1,3.07l-1.43,3.92h-0.79l-1.31-3.85c-0.38-1.14-.71-2.18-0.94-3.14h0c0,1-.08,2.36-0.16,3.57l-0.22,3.47h-1l0.56-8.08h1.33l1.38,3.91c0.34,1,.61,1.88.82,2.72h0c0.2-.82.49-1.7,0.85-2.72l1.44-3.91h1.33l0.5,8.08h-1Z" transform="translate(-2254.52 -874.67)" style="fill:#181716"/><path d="M2597.55,1143a0.71,0.71,0,0,1,.72-0.76A0.76,0.76,0,1,1,2597.55,1143Z" transform="translate(-2254.52 -874.67)" style="fill:#181716"/><path d="M2609.68,1140.1c-0.06-1.13-.13-2.48-0.12-3.49h0c-0.28.95-.61,2-1,3.07l-1.43,3.92h-0.79l-1.31-3.85c-0.38-1.14-.71-2.18-0.94-3.14h0c0,1-.08,2.36-0.16,3.57l-0.22,3.47h-1l0.56-8.08h1.33l1.38,3.91c0.34,1,.61,1.88.82,2.72h0c0.2-.82.49-1.7,0.85-2.72l1.44-3.91h1.33l0.5,8.08h-1Z" transform="translate(-2254.52 -874.67)" style="fill:#181716"/><path d="M2613.45,1137.85v2.45c0,0.92,0,1.5-.06,2.33h0c0.35-.71.55-1.12,0.94-1.79l1.81-3h1.24v5.8h-1v-2.46c0-.95,0-1.44.07-2.37h0c-0.37.74-.62,1.21-1,1.8-0.55.9-1.19,2-1.81,3h-1.21v-5.8h1Z" transform="translate(-2254.52 -874.67)" style="fill:#181716"/><path d="M2623.53,1137.85v5.8h-1v-5h-2v1.51c0,1.63-.16,2.72-0.91,3.21a1.69,1.69,0,0,1-1.15.36l-0.11-.83a1.31,1.31,0,0,0,.58-0.24c0.54-.4.6-1.21,0.6-2.51v-2.34h4Z" transform="translate(-2254.52 -874.67)" style="fill:#181716"/><path d="M2629.54,1143.65h-1v-2.43h-0.78a1.37,1.37,0,0,0-1,.32,4,4,0,0,0-.82,1.63,3.73,3.73,0,0,1-.24.48h-1.13a3.82,3.82,0,0,0,.36-0.66,4.45,4.45,0,0,1,.91-1.75,1.38,1.38,0,0,1,.66-0.34v0a1.55,1.55,0,0,1-1.54-1.44,1.4,1.4,0,0,1,.77-1.26,4.07,4.07,0,0,1,1.94-.4,16.19,16.19,0,0,1,1.87.12v5.76Zm-1-5.11a5.87,5.87,0,0,0-.87-0.06c-0.72,0-1.57.2-1.57,1s0.92,1,1.55,1h0.9v-2Z" transform="translate(-2254.52 -874.67)" style="fill:#181716"/><path d="M2351.84,1016.22l1.27,3.43c0.13,0.38.28,0.84,0.37,1.19h0c0.11-.35.23-0.79,0.37-1.21l1.15-3.41h1.12l-1.58,4.14c-0.75,2-1.27,3-2,3.63a2.86,2.86,0,0,1-1.3.68l-0.26-.89a2.8,2.8,0,0,0,.92-0.52,3.2,3.2,0,0,0,.89-1.18,0.76,0.76,0,0,0,.08-0.25,0.93,0.93,0,0,0-.07-0.28l-2.15-5.35h1.15Z" transform="translate(-2254.52 -874.67)" style="fill:#181716"/><path d="M2361.41,1016.22v5.8h-1v-5h-2v1.51c0,1.63-.16,2.72-0.91,3.21a1.69,1.69,0,0,1-1.15.36l-0.11-.83a1.31,1.31,0,0,0,.58-0.24c0.54-.4.6-1.21,0.6-2.51v-2.34h4Z" transform="translate(-2254.52 -874.67)" style="fill:#181716"/><path d="M2362.89,1021.4a0.71,0.71,0,0,1,.72-0.76A0.76,0.76,0,1,1,2362.89,1021.4Z" transform="translate(-2254.52 -874.67)" style="fill:#181716"/><path d="M2369.74,1014.83h-2.46v-0.89h6v0.89h-2.47v7.2h-1.06v-7.2Z" transform="translate(-2254.52 -874.67)" style="fill:#181716"/><path d="M2373.65,1018.71h2.93a1.86,1.86,0,0,0-2-1.81,3.25,3.25,0,0,0-1.39.32l-0.23-.68a3.77,3.77,0,0,1,1.79-.46,2.87,2.87,0,0,1,2.11.83,3.17,3.17,0,0,1,.79,2.23,2.88,2.88,0,0,1-3.08,3,3.78,3.78,0,0,1-1.69-.4l0.2-.76a3.53,3.53,0,0,0,1.45.31,1.93,1.93,0,0,0,2-1.88h-2.91v-0.72Z" transform="translate(-2254.52 -874.67)" style="fill:#181716"/><path d="M2380,1016.22v5h2.67v-5h1v5h0.6l-0.06,2.63h-0.82l0-1.85H2379v-5.8h1Z" transform="translate(-2254.52 -874.67)" style="fill:#181716"/><path d="M2386.12,1019.31a1.86,1.86,0,0,0,2,2,3.82,3.82,0,0,0,1.61-.3l0.18,0.76a4.7,4.7,0,0,1-1.93.36,2.7,2.7,0,0,1-2.85-2.93c0-1.75,1-3.13,2.72-3.13a2.46,2.46,0,0,1,2.4,2.73,4,4,0,0,1,0,.49h-4.08Zm3.09-.76a1.5,1.5,0,0,0-1.46-1.72,1.75,1.75,0,0,0-1.62,1.72h3.08Z" transform="translate(-2254.52 -874.67)" style="fill:#181716"/><path d="M2391.52,1016.29a12.38,12.38,0,0,1,1.85-.13c1,0,2.58.16,2.58,1.45a1.37,1.37,0,0,1-1.21,1.31v0a1.48,1.48,0,0,1,1.48,1.44c0,1.52-1.92,1.72-3.06,1.72-0.65,0-1.32,0-1.63-.07v-5.73Zm1,5a6.41,6.41,0,0,0,.85,0c0.71,0,1.76-.17,1.76-1s-0.84-1-1.85-1h-0.77v2Zm0-2.67h0.79c0.78,0,1.58-.23,1.58-0.91s-0.5-.85-1.56-0.85a7.47,7.47,0,0,0-.82,0v1.72Z" transform="translate(-2254.52 -874.67)" style="fill:#181716"/><path d="M2401.68,1021.81a3.89,3.89,0,0,1-1.67.34,2.76,2.76,0,0,1-2.89-3,3,3,0,0,1,3.12-3.08,3.53,3.53,0,0,1,1.46.3l-0.24.82a2.45,2.45,0,0,0-1.22-.28,2.19,2.19,0,0,0,0,4.37,3,3,0,0,0,1.29-.29Z" transform="translate(-2254.52 -874.67)" style="fill:#181716"/><path d="M2404,1016.22v2.52h0.25l2.18-2.52h1.28l-2.53,2.63a2.43,2.43,0,0,1,2,1.76,12.16,12.16,0,0,0,.62,1.42h-1.1a7.76,7.76,0,0,1-.54-1.19,1.88,1.88,0,0,0-1.92-1.37H2404V1022h-1v-5.8h1Z" transform="translate(-2254.52 -874.67)" style="fill:#181716"/><path d="M2412,1022l-0.08-.73h0a2.16,2.16,0,0,1-1.78.86,1.65,1.65,0,0,1-1.77-1.67c0-1.4,1.25-2.17,3.49-2.16v-0.12a1.2,1.2,0,0,0-1.32-1.34,2.89,2.89,0,0,0-1.51.43l-0.24-.7a3.6,3.6,0,0,1,1.91-.52,2.06,2.06,0,0,1,2.21,2.37v2.17a8.24,8.24,0,0,0,.1,1.39h-1Zm-0.16-3c-1.15,0-2.46.18-2.46,1.31a0.93,0.93,0,0,0,1,1,1.44,1.44,0,0,0,1.4-1,1.1,1.1,0,0,0,.06-0.34v-1Z" transform="translate(-2254.52 -874.67)" style="fill:#181716"/><path d="M2418.89,1022h-1v-2.43h-0.78a1.37,1.37,0,0,0-1,.32,4,4,0,0,0-.82,1.63,3.61,3.61,0,0,1-.24.48h-1.13a3.82,3.82,0,0,0,.36-0.66,4.45,4.45,0,0,1,.91-1.75,1.38,1.38,0,0,1,.66-0.34v0a1.55,1.55,0,0,1-1.54-1.44,1.4,1.4,0,0,1,.77-1.26,4.07,4.07,0,0,1,1.94-.4,16.19,16.19,0,0,1,1.87.12V1022Zm-1-5.11a5.87,5.87,0,0,0-.87-0.06c-0.72,0-1.57.2-1.57,1s0.92,1,1.55,1h0.9v-2Z" transform="translate(-2254.52 -874.67)" style="fill:#181716"/><path d="M2463.21,1003.69l3.67,1,1.47,0.47,0,0c-0.23-.38-0.49-0.8-0.79-1.33l-1.79-3.16,0.71-.84,2.08,4a15.66,15.66,0,0,1,1.37,3.13,2.28,2.28,0,0,1-.42,2,1.77,1.77,0,0,1-.43.4l-0.58-.63a1.46,1.46,0,0,0,.28-0.27,2,2,0,0,0,0-2.11,0.49,0.49,0,0,0-.4-0.29l-5.89-1.46Z" transform="translate(-2254.52 -874.67)" style="fill:#181716"/><path d="M2471.33,997.62l4.44,3.74-0.67.8-3.8-3.21-1.29,1.52,1.16,1c1.25,1.05,2,1.88,1.87,2.77a1.7,1.7,0,0,1-.47,1.11l-0.7-.45a1.32,1.32,0,0,0,.19-0.59c0-.67-0.54-1.24-1.53-2.08l-1.79-1.51Z" transform="translate(-2254.52 -874.67)" style="fill:#181716"/><path d="M2476.24,999.83a0.71,0.71,0,0,1-.11-1A0.76,0.76,0,1,1,2476.24,999.83Z" transform="translate(-2254.52 -874.67)" style="fill:#181716"/><path d="M2477.54,986.73l5.53,4.67,0.47-.53,2.07,1.84-0.53.62-1.53-1.2-3.29,3.89,1.44,1.31-0.53.62-2.16-1.73,0.38-.48a9.52,9.52,0,0,0-.84-1.75,12,12,0,0,0-2.35-2.49l-1.57-1.32Zm-0.47,4.25a11,11,0,0,1,2.26,2.44,7.89,7.89,0,0,1,.75,1.49l2.31-2.73-4.86-4.1L2475.9,990Z" transform="translate(-2254.52 -874.67)" style="fill:#181716"/><path d="M2483.26,988.28a1.86,1.86,0,0,0,2.82-.22,3.81,3.81,0,0,0,.81-1.42l0.69,0.35a4.69,4.69,0,0,1-1,1.71,2.69,2.69,0,0,1-4.08.29c-1.34-1.13-1.73-2.81-.64-4.1a2.46,2.46,0,0,1,3.64-.07,4.09,4.09,0,0,1,.35.34Zm1.42-2.85a1.5,1.5,0,0,0-2.25,0,1.75,1.75,0,0,0,.27,2.34Z" transform="translate(-2254.52 -874.67)" style="fill:#181716"/><path d="M2484.43,982.09l0.83-1,2.92,1.08c0.42,0.17,1.13.43,1.56,0.63l0,0c-0.25-.38-0.74-1.22-1.08-1.81l-1.33-2.35,0.84-1,4.7,3.43-0.65.77-2.2-1.69c-0.5-.38-1.1-0.82-1.66-1.26l0,0c0.3,0.46.56,0.88,1,1.7l1.52,2.74-0.5.59-2.86-1.06c-0.54-.22-1.34-0.57-1.85-0.81l0,0c0.51,0.46,1.07,1,1.53,1.42l2,1.88-0.63.74Z" transform="translate(-2254.52 -874.67)" style="fill:#181716"/><path d="M2492.08,977.83a1.86,1.86,0,0,0,2.82-.22,3.81,3.81,0,0,0,.81-1.42l0.69,0.35a4.71,4.71,0,0,1-1,1.71,2.7,2.7,0,0,1-4.08.29c-1.34-1.13-1.73-2.81-.63-4.1a2.46,2.46,0,0,1,3.64-.07,4.12,4.12,0,0,1,.35.34Zm1.42-2.85a1.5,1.5,0,0,0-2.25,0,1.75,1.75,0,0,0,.27,2.34Z" transform="translate(-2254.52 -874.67)" style="fill:#181716"/><path d="M2493.88,970.91l1.79,1.51,1.78-2.11-1.79-1.51,0.67-.8,4.44,3.74-0.67.8-2-1.69-1.78,2.11,2,1.69-0.67.8-4.44-3.74Z" transform="translate(-2254.52 -874.67)" style="fill:#181716"/><path d="M2500,963.71l0.64,0.54-1.17,1.38,3.79,3.2-0.67.8-3.79-3.2-1.17,1.38-0.64-.54Z" transform="translate(-2254.52 -874.67)" style="fill:#181716"/><path d="M2501.21,962.22l1.5,1.27a6,6,0,0,1,.57-0.77c0.84-1,2-1.79,3.23-.79a1.65,1.65,0,0,1,.62,1.33,4,4,0,0,1-1.11,2.36,14.6,14.6,0,0,1-1.07,1.14l-4.42-3.73Zm3.88,3.27a6.12,6.12,0,0,0,.54-0.57c0.51-.6,1-1.55.22-2.18s-1.62,0-2.12.61a4.88,4.88,0,0,0-.44.62Z" transform="translate(-2254.52 -874.67)" style="fill:#181716"/><path d="M2507.15,960a1.86,1.86,0,0,0,2.82-.22,3.83,3.83,0,0,0,.81-1.42l0.69,0.35a4.7,4.7,0,0,1-1,1.71,2.7,2.7,0,0,1-4.08.29c-1.34-1.13-1.73-2.81-.63-4.1a2.46,2.46,0,0,1,3.64-.07,4.35,4.35,0,0,1,.35.34Zm1.42-2.85a1.5,1.5,0,0,0-2.25,0,1.75,1.75,0,0,0,.27,2.34Z" transform="translate(-2254.52 -874.67)" style="fill:#181716"/><path d="M2508.32,953.91a12.17,12.17,0,0,1,1.09-1.5c0.63-.74,1.78-1.87,2.77-1a1.38,1.38,0,0,1,.22,1.77l0,0a1.48,1.48,0,0,1,2.05-.2c1.16,1,.07,2.57-0.66,3.44-0.42.49-.89,1-1.11,1.2Zm2.46,0.75,0.51-.6c0.5-.6.85-1.36,0.33-1.8s-1-.17-1.66.64a7.34,7.34,0,0,0-.49.65Zm2,1.73a6.38,6.38,0,0,0,.59-0.62c0.46-.54,1-1.46.37-2s-1.32,0-2,.75l-0.5.59Z" transform="translate(-2254.52 -874.67)" style="fill:#181716"/><path d="M2518.66,950.55l-0.61-.41,0,0a2.16,2.16,0,0,1-.49,1.91,1.65,1.65,0,0,1-2.42.28c-1.07-.91-0.85-2.35.6-4.06l-0.09-.08a1.2,1.2,0,0,0-1.88.14,2.9,2.9,0,0,0-.64,1.43l-0.69-.27a3.6,3.6,0,0,1,.84-1.79,2.06,2.06,0,0,1,3.24-.15l1.66,1.4a8.19,8.19,0,0,0,1.12.82Zm-2.37-1.79c-0.76.86-1.45,2-.59,2.72a0.93,0.93,0,0,0,1.41-.11,1.45,1.45,0,0,0,.16-1.7,1.07,1.07,0,0,0-.22-0.26Z" transform="translate(-2254.52 -874.67)" style="fill:#181716"/><path d="M2321.77,987.74l3-2.29,1.27-.87v0l-1.54-.19-3.59-.52-0.23-1.08,4.41,0.79a15.55,15.55,0,0,1,3.32.84,2.29,2.29,0,0,1,1.36,1.59,1.81,1.81,0,0,1,.05.59l-0.85.07a1.45,1.45,0,0,0,0-.38,2,2,0,0,0-1.69-1.26,0.49,0.49,0,0,0-.47.14L2322,988.9Z" transform="translate(-2254.52 -874.67)" style="fill:#181716"/><path d="M2321.93,977.61l5.68-1.21,0.22,1-4.87,1,0.42,1.95,1.48-.32c1.59-.34,2.69-0.42,3.33.22a1.7,1.7,0,0,1,.59,1.05l-0.79.28a1.31,1.31,0,0,0-.36-0.51c-0.5-.45-1.31-0.33-2.58-0.06l-2.29.49Z" transform="translate(-2254.52 -874.67)" style="fill:#181716"/><path d="M2326.69,975.08a0.71,0.71,0,0,1-.89-0.55A0.76,0.76,0,1,1,2326.69,975.08Z" transform="translate(-2254.52 -874.67)" style="fill:#181716"/><path d="M2318.07,970.43l3.51-.75-0.07-.32-4.09-2-0.26-1.23,4.26,2.22a2.7,2.7,0,0,1,1.57-2.65,21.25,21.25,0,0,0,2.05-1.35l0.24,1.1a14.48,14.48,0,0,1-1.71,1.11,2.18,2.18,0,0,0-1.29,2.58l0.07,0.33,3.62-.78,0.22,1-7.9,1.69Z" transform="translate(-2254.52 -874.67)" style="fill:#181716"/><path d="M2320.86,958.94a2.84,2.84,0,0,1,3.62,2.18,2.76,2.76,0,0,1-2.34,3.34,2.83,2.83,0,0,1-3.62-2.17A2.75,2.75,0,0,1,2320.86,958.94Zm1,4.49a1.81,1.81,0,1,0-.76-3.44c-1,.21-2.08.95-1.82,2.17S2320.8,963.66,2321.88,963.43Z" transform="translate(-2254.52 -874.67)" style="fill:#181716"/><path d="M2316.79,953.56l5.68-1.21,0.22,1-4.86,1,0.57,2.64,4.86-1,0.22,1-5.68,1.21Z" transform="translate(-2254.52 -874.67)" style="fill:#181716"/><path d="M2315.12,945.77l5.68-1.21,0.22,1-5.68,1.21Zm1.09,5.11,1.94-.41a5,5,0,0,1-.27-0.91c-0.26-1.22,0-2.56,1.38-2.86a1.65,1.65,0,0,1,1.44.3,3.65,3.65,0,0,1,1.15,2.15,14.56,14.56,0,0,1,.25,1.54l-5.65,1.21Zm5-1.06a5.65,5.65,0,0,0-.11-0.73,1.43,1.43,0,0,0-1.56-1.38c-0.92.2-1,1.08-.86,1.85a4.7,4.7,0,0,0,.22.75Z" transform="translate(-2254.52 -874.67)" style="fill:#181716"/><path d="M2313.84,939.78l5.68-1.21,0.22,1-4.87,1,0.42,1.95,1.48-.32c1.59-.34,2.69-0.42,3.33.22a1.69,1.69,0,0,1,.59,1.05l-0.79.28a1.31,1.31,0,0,0-.35-0.51c-0.5-.44-1.31-0.33-2.58-0.06l-2.29.49Z" transform="translate(-2254.52 -874.67)" style="fill:#181716"/><path d="M2315.17,932.35a2.84,2.84,0,0,1,3.62,2.18,2.76,2.76,0,0,1-2.34,3.34,2.83,2.83,0,0,1-3.62-2.17A2.75,2.75,0,0,1,2315.17,932.35Zm1,4.49a1.81,1.81,0,1,0-.76-3.44c-1,.21-2.08.95-1.82,2.17S2315.11,937.07,2316.19,936.84Z" transform="translate(-2254.52 -874.67)" style="fill:#181716"/><path d="M2312.17,931.65a12.26,12.26,0,0,1-.52-1.78c-0.2-1-.39-2.55.88-2.83a1.37,1.37,0,0,1,1.53.91h0a1.48,1.48,0,0,1,1.1-1.74c1.49-.32,2.08,1.52,2.32,2.63,0.14,0.63.23,1.3,0.27,1.61Zm2.1-1.48-0.17-.77c-0.16-.76-0.55-1.5-1.22-1.36s-0.73.67-.51,1.7a7.37,7.37,0,0,0,.22.79Zm2.62-.55a6.51,6.51,0,0,0-.13-0.84c-0.15-.69-0.53-1.69-1.35-1.51s-0.82,1-.61,2L2315,930Z" transform="translate(-2254.52 -874.67)" style="fill:#181716"/><path d="M2315.85,921.42l-0.7.24v0a2.16,2.16,0,0,1,1.22,1.55,1.65,1.65,0,0,1-1.26,2.08c-1.37.29-2.38-.76-2.84-3l-0.12,0a1.2,1.2,0,0,0-1,1.57,2.89,2.89,0,0,0,.74,1.39l-0.63.38a3.6,3.6,0,0,1-.9-1.76,2.06,2.06,0,0,1,1.86-2.66l2.12-.45a8.19,8.19,0,0,0,1.34-.38Zm-2.86.77c0.22,1.13.69,2.37,1.79,2.13a0.93,0.93,0,0,0,.78-1.18,1.44,1.44,0,0,0-1.24-1.17,1.07,1.07,0,0,0-.34,0Z" transform="translate(-2254.52 -874.67)" style="fill:#181716"/><path d="M2740.12,1007.57v3.59h0.32l2.77-3.59h1.26l-3.06,3.71a2.7,2.7,0,0,1,2.27,2.09,21.07,21.07,0,0,0,.89,2.29h-1.13a14.4,14.4,0,0,1-.73-1.91,2.18,2.18,0,0,0-2.25-1.8h-0.33v3.71h-1v-8.08h1Z" transform="translate(-2254.52 -874.67)" style="fill:#181716"/><path d="M2745.56,1011.74c0-.74,0-1.34,0-1.89h0.95l0,1h0a2.28,2.28,0,0,1,2.06-1.13c1.4,0,2.46,1.19,2.46,3,0,2.09-1.27,3.12-2.64,3.12a2,2,0,0,1-1.79-.91h0V1018h-1v-6.28Zm1,1.55a2.43,2.43,0,0,0,0,.43,1.63,1.63,0,0,0,1.58,1.24c1.12,0,1.76-.91,1.76-2.24a1.89,1.89,0,0,0-1.73-2.16,1.68,1.68,0,0,0-1.59,1.31,1.71,1.71,0,0,0-.07.43v1Z" transform="translate(-2254.52 -874.67)" style="fill:#181716"/><path d="M2755.6,1015.65l-0.08-.73h0a2.16,2.16,0,0,1-1.78.86,1.65,1.65,0,0,1-1.77-1.67c0-1.4,1.25-2.17,3.49-2.16v-0.12a1.2,1.2,0,0,0-1.32-1.34,2.89,2.89,0,0,0-1.51.43l-0.24-.7a3.6,3.6,0,0,1,1.91-.52,2.06,2.06,0,0,1,2.21,2.37v2.17a8.24,8.24,0,0,0,.1,1.39h-1Zm-0.16-3c-1.15,0-2.46.18-2.46,1.31a0.93,0.93,0,0,0,1,1,1.44,1.44,0,0,0,1.4-1,1.1,1.1,0,0,0,.06-0.34v-1Z" transform="translate(-2254.52 -874.67)" style="fill:#181716"/><path d="M2762.31,1015.43a3.89,3.89,0,0,1-1.67.34,2.76,2.76,0,0,1-2.89-3,3,3,0,0,1,3.12-3.08,3.53,3.53,0,0,1,1.46.3l-0.24.82a2.44,2.44,0,0,0-1.22-.28,2.19,2.19,0,0,0,0,4.37,3,3,0,0,0,1.29-.29Z" transform="translate(-2254.52 -874.67)" style="fill:#181716"/><path d="M2764.57,1009.84v2.34h2.76v-2.34h1v5.8h-1V1013h-2.76v2.63h-1v-5.8h1Z" transform="translate(-2254.52 -874.67)" style="fill:#181716"/><path d="M2771.12,1009.84v2a5,5,0,0,1,.95-0.07c1.25,0,2.51.52,2.51,1.94a1.64,1.64,0,0,1-.6,1.34,3.66,3.66,0,0,1-2.34.67,14.41,14.41,0,0,1-1.56-.08v-5.78h1Zm0,5.07a5.91,5.91,0,0,0,.73,0,1.43,1.43,0,0,0,1.68-1.24,1.36,1.36,0,0,0-1.63-1.22,4.8,4.8,0,0,0-.78.06v2.35Zm5.23-5.07v5.8h-1v-5.8h1Z" transform="translate(-2254.52 -874.67)" style="fill:#181716"/><path d="M2778.67,1012.94a1.86,1.86,0,0,0,2,2,3.82,3.82,0,0,0,1.61-.3l0.18,0.76a4.7,4.7,0,0,1-1.93.36,2.7,2.7,0,0,1-2.85-2.93c0-1.75,1-3.13,2.72-3.13a2.46,2.46,0,0,1,2.4,2.73,4,4,0,0,1,0,.49h-4.08Zm3.09-.76a1.5,1.5,0,0,0-1.46-1.72,1.75,1.75,0,0,0-1.62,1.72h3.08Z" transform="translate(-2254.52 -874.67)" style="fill:#181716"/><path d="M2739,1021.92a12.38,12.38,0,0,1,1.85-.13c1,0,2.58.16,2.58,1.45a1.37,1.37,0,0,1-1.21,1.31v0a1.48,1.48,0,0,1,1.48,1.44c0,1.52-1.92,1.72-3.06,1.72-0.65,0-1.32,0-1.63-.07v-5.73Zm1,5a6.41,6.41,0,0,0,.85,0c0.71,0,1.76-.17,1.76-1s-0.84-1-1.85-1H2740v2Zm0-2.67h0.79c0.78,0,1.58-.23,1.58-0.91s-0.5-.85-1.56-0.85a7.49,7.49,0,0,0-.82,0v1.72Z" transform="translate(-2254.52 -874.67)" style="fill:#181716"/><path d="M2750.31,1024.7a2.84,2.84,0,0,1-2.89,3.08,2.76,2.76,0,0,1-2.78-3,2.83,2.83,0,0,1,2.88-3.08A2.75,2.75,0,0,1,2750.31,1024.7Zm-4.61.06a1.81,1.81,0,1,0,3.53,0c0-1-.49-2.23-1.74-2.23S2745.7,1023.66,2745.7,1024.76Z" transform="translate(-2254.52 -874.67)" style="fill:#181716"/><path d="M2751.64,1023.74c0-.74,0-1.34,0-1.89h0.95l0,1h0a2.28,2.28,0,0,1,2.06-1.13c1.4,0,2.46,1.19,2.46,3,0,2.09-1.27,3.12-2.64,3.12a2,2,0,0,1-1.79-.91h0V1030h-1v-6.28Zm1,1.55a2.43,2.43,0,0,0,0,.43,1.63,1.63,0,0,0,1.58,1.24c1.12,0,1.76-.91,1.76-2.24a1.89,1.89,0,0,0-1.73-2.16,1.68,1.68,0,0,0-1.59,1.31,1.71,1.71,0,0,0-.07.43v1Z" transform="translate(-2254.52 -874.67)" style="fill:#181716"/><path d="M2763.73,1024.7a2.84,2.84,0,0,1-2.89,3.08,2.76,2.76,0,0,1-2.78-3,2.83,2.83,0,0,1,2.88-3.08A2.75,2.75,0,0,1,2763.73,1024.7Zm-4.61.06a1.81,1.81,0,1,0,3.53,0c0-1-.49-2.23-1.74-2.23S2759.12,1023.66,2759.12,1024.76Z" transform="translate(-2254.52 -874.67)" style="fill:#181716"/><path d="M2768.89,1021.84v0.84h-1.81v5h-1v-5h-1.81v-0.84h4.67Z" transform="translate(-2254.52 -874.67)" style="fill:#181716"/><path d="M2772.94,1027.65l-0.08-.73h0a2.16,2.16,0,0,1-1.78.86,1.65,1.65,0,0,1-1.77-1.67c0-1.4,1.25-2.17,3.49-2.16v-0.12a1.2,1.2,0,0,0-1.32-1.34,2.89,2.89,0,0,0-1.51.43l-0.24-.7a3.6,3.6,0,0,1,1.91-.52,2.06,2.06,0,0,1,2.21,2.37v2.17a8.24,8.24,0,0,0,.1,1.39h-1Zm-0.16-3c-1.15,0-2.46.18-2.46,1.31a0.93,0.93,0,0,0,1,1,1.44,1.44,0,0,0,1.4-1,1.1,1.1,0,0,0,.06-0.34v-1Z" transform="translate(-2254.52 -874.67)" style="fill:#181716"/><path d="M2698.5,1017.87a16.08,16.08,0,1,1,32.17,0" transform="translate(-2254.52 -874.67)" style="fill:none;stroke:#e94b3d;stroke-linecap:round;stroke-linejoin:round;stroke-width:7px"/><path d="M2357.75,1035.64c0.36-1.65.71-4,1.64-5.2a1.68,1.68,0,0,1,1.64-.8c0.81,0.16,1.39,1.31,1.78,2.2a27.51,27.51,0,0,1,1.92,9.93c-0.52,0-.9-0.07-1.41,0-0.17-3.26-.21-6.54-1.12-9.23-0.22-.66-0.8-1.93-1.5-1.92s-0.91,1.09-1.08,1.64a32.46,32.46,0,0,0-1,8.76h-1.55a37.85,37.85,0,0,0-.94-8.44c-0.13-.52-0.44-1.91-1.12-2s-1.32,1-1.59,1.64c-1.12,2.49-1.27,6.12-1.36,9.47h-1.5c0.35-3,.79-6.93,1.87-9.51,0.36-.87,1.21-2.43,2.16-2.58,1.24-.19,1.95,1.61,2.3,2.58A19,19,0,0,1,2357.75,1035.64Z" transform="translate(-2254.52 -874.67)" style="fill:#e94b3d;fill-rule:evenodd"/><path d="M2708.59,940.9l5.83-2.82a0.47,0.47,0,0,0,.06-0.29,0.46,0.46,0,0,0-.12-0.27l-5.62-1.4Z" transform="translate(-2254.52 -874.67)" style="fill:#ea4e3e;fill-rule:evenodd"/><path d="M2712.38,946.69l2.74-7.93a0.46,0.46,0,0,0-.17-0.24,0.47,0.47,0,0,0-.28-0.11l-6.15,3.73Z" transform="translate(-2254.52 -874.67)" style="fill:#ea4e3e;fill-rule:evenodd"/><path d="M2720.66,948.23l-4.56-9.48a0.51,0.51,0,0,0-.57.06l-2.22,8.91Z" transform="translate(-2254.52 -874.67)" style="fill:#ea4e3e;fill-rule:evenodd"/><path d="M2728.49,942.13l-11.71-4.08a0.48,0.48,0,0,0-.24.17,0.47,0.47,0,0,0-.11.28l5.9,9.88Z" transform="translate(-2254.52 -874.67)" style="fill:#ea4e3e;fill-rule:evenodd"/><path d="M2729.66,930.87l-12.9,6.2a0.52,0.52,0,0,0,.06.57l12.84,3.22v-10Z" transform="translate(-2254.52 -874.67)" style="fill:#ea4e3e;fill-rule:evenodd"/><path d="M2721.15,921.67l-5.08,14.72a0.47,0.47,0,0,0,.17.25,0.48,0.48,0,0,0,.28.11l13.13-7.83Z" transform="translate(-2254.52 -874.67)" style="fill:#ea4e3e;fill-rule:evenodd"/><path d="M2706.3,917.93l8.79,18.47a0.51,0.51,0,0,0,.56-0.06l4-16Z" transform="translate(-2254.52 -874.67)" style="fill:#ea4e3e;fill-rule:evenodd"/><path d="M2709.32,935.45l5.12,1.69a0.37,0.37,0,0,0,.19-0.17,0.47,0.47,0,0,0,.11-0.28l-2.66-4.27Z" transform="translate(-2254.52 -874.67)" style="fill:#ea4e3e;fill-rule:evenodd"/><polygon points="485.93 64.44 482.05 64.44 482.05 48.81 478.13 48.81 478.13 46.88 489.87 46.88 489.87 48.81 485.93 48.81 485.93 64.44" style="fill:#ea4e3e;fill-rule:evenodd"/><path d="M2750.21,939.11h-3.94V925.46a4,4,0,0,1,1.19-2.8,4.07,4.07,0,0,1,2.76-1.11h3.91a3.72,3.72,0,0,1,2.73,1.13,3.76,3.76,0,0,1,1.14,2.79v13.65h-3.87v-7.8h-3.91v7.8h0Zm0-13.64v3.85h3.91v-3.85a2.22,2.22,0,0,0-.58-1.42,2.42,2.42,0,0,0-1.4-.58,2.06,2.06,0,0,0-1.38.58,1.92,1.92,0,0,0-.56,1.42h0Z" transform="translate(-2254.52 -874.67)" style="fill:#ea4e3e;fill-rule:evenodd"/><polygon points="509.42 64.44 505.48 64.44 505.48 46.88 509.42 46.88 509.42 54.04 515.73 46.88 519.21 46.88 511.35 55.65 519.2 64.44 515.29 64.44 509.42 57.58 509.42 64.44" style="fill:#ea4e3e;fill-rule:evenodd"/><polygon points="527.45 64.44 523.56 64.44 523.56 48.81 519.64 48.81 519.64 46.88 531.38 46.88 531.38 48.81 527.45 48.81 527.45 64.44" style="fill:#ea4e3e;fill-rule:evenodd"/><polygon points="537.2 64.44 533.26 64.44 533.26 46.88 537.2 46.88 537.2 60.67 542.28 50.26 542.28 46.88 546.15 46.88 546.15 64.44 542.28 64.44 542.28 54.06 537.2 64.44 537.2 64.44" style="fill:#ea4e3e;fill-rule:evenodd"/><polygon points="552.11 64.44 548.18 64.44 548.18 46.88 552.11 46.88 552.11 54.04 558.42 46.88 561.9 46.88 554.04 55.65 561.9 64.44 557.98 64.44 552.11 57.58 552.11 64.44" style="fill:#ea4e3e;fill-rule:evenodd"/><path d="M2821.88,939.11h-3.94V925.46a4,4,0,0,1,1.18-2.8,4.07,4.07,0,0,1,2.76-1.11h3.91a3.86,3.86,0,0,1,3.87,3.92v13.65h-3.87v-7.8h-3.91v7.8h0Zm0-13.64v3.85h3.91v-3.85a2.19,2.19,0,0,0-.58-1.42,2.4,2.4,0,0,0-1.4-.58,2.06,2.06,0,0,0-1.37.58,1.92,1.92,0,0,0-.56,1.42h0Z" transform="translate(-2254.52 -874.67)" style="fill:#ea4e3e;fill-rule:evenodd"/><path d="M2738.53,944.54H2737v2.1h1.56a1.06,1.06,0,1,0,0-2.1h0Zm-0.06-2.54H2737v2h1.5a1,1,0,1,0,0-2h0Zm0.12,5.19h-2.23v-5.74h2.16a1.52,1.52,0,0,1,1.69,1.51,1.35,1.35,0,0,1-.42,1,1.14,1.14,0,0,1-.43.27,1.38,1.38,0,0,1,.51.31,1.42,1.42,0,0,1,.43,1.06A1.52,1.52,0,0,1,2738.58,947.19Z" transform="translate(-2254.52 -874.67)" style="fill:#ea4e3e;fill-rule:evenodd"/><path d="M2743.88,945.36h-1.11a0.72,0.72,0,0,0-.89.7c0,0.48.29,0.68,1,.68a0.85,0.85,0,0,0,1-.95v-0.43h0Zm0,1.83v-0.38a1.29,1.29,0,0,1-.45.32,1.71,1.71,0,0,1-.7.11,1.18,1.18,0,1,1,0-2.31h1.19v-0.38a0.83,0.83,0,0,0-1-.87,1.34,1.34,0,0,0-.61.12,0.87,0.87,0,0,0-.36.33l-0.39-.36a1.41,1.41,0,0,1,.5-0.43,2,2,0,0,1,.89-0.16c1.06,0,1.6.44,1.6,1.32v2.69h-0.58Z" transform="translate(-2254.52 -874.67)" style="fill:#ea4e3e;fill-rule:evenodd"/><polygon points="491.37 72.52 491.37 68.56 491.94 68.56 491.94 72.02 493.57 72.02 493.57 68.56 494.15 68.56 494.15 72.02 495.78 72.02 495.78 68.56 496.36 68.56 496.36 72.52 491.37 72.52" style="fill:#ea4e3e;fill-rule:evenodd"/><path d="M2754.59,945.36h-1.11a0.72,0.72,0,0,0-.89.7c0,0.48.29,0.68,1,.68a0.85,0.85,0,0,0,1-.95v-0.43h0Zm0,1.83v-0.38a1.27,1.27,0,0,1-.45.32,1.71,1.71,0,0,1-.7.11,1.18,1.18,0,1,1,0-2.31h1.19v-0.38a0.83,0.83,0,0,0-1-.87,1.33,1.33,0,0,0-.61.12,0.87,0.87,0,0,0-.36.33l-0.4-.36a1.4,1.4,0,0,1,.5-0.43,2,2,0,0,1,.89-0.16c1.06,0,1.61.44,1.61,1.32v2.69h-0.58Z" transform="translate(-2254.52 -874.67)" style="fill:#ea4e3e;fill-rule:evenodd"/><polygon points="506.58 72.52 506.58 70.72 504.66 70.72 504.66 72.52 504.08 72.52 504.08 68.56 504.66 68.56 504.66 70.22 506.58 70.22 506.58 68.56 507.16 68.56 507.16 72.52 506.58 72.52" style="fill:#ea4e3e;fill-rule:evenodd"/><path d="M2765.38,945.36h-1.12a0.72,0.72,0,0,0-.89.7c0,0.48.29,0.68,1,.68a0.85,0.85,0,0,0,1-.95v-0.43h0Zm0,1.83v-0.38a1.3,1.3,0,0,1-.45.32,1.72,1.72,0,0,1-.7.11,1.18,1.18,0,1,1,0-2.31h1.19v-0.38a0.83,0.83,0,0,0-1-.87,1.33,1.33,0,0,0-.61.12,0.88,0.88,0,0,0-.36.33l-0.4-.36a1.43,1.43,0,0,1,.5-0.43,2,2,0,0,1,.89-0.16c1.06,0,1.6.44,1.6,1.32v2.69h-0.58Z" transform="translate(-2254.52 -874.67)" style="fill:#ea4e3e;fill-rule:evenodd"/><path d="M2769.6,947.12a1.72,1.72,0,0,1-.67.12,2,2,0,0,1,0-4.06,1.7,1.7,0,0,1,.67.12,1.77,1.77,0,0,1,.61.47l-0.4.37a1.32,1.32,0,0,0-.45-0.36,1.11,1.11,0,0,0-.44-0.09c-0.78,0-1.19.52-1.19,1.52s0.4,1.52,1.18,1.52a1,1,0,0,0,.44-0.08,1.4,1.4,0,0,0,.47-0.37l0.4,0.38A1.75,1.75,0,0,1,2769.6,947.12Z" transform="translate(-2254.52 -874.67)" style="fill:#ea4e3e;fill-rule:evenodd"/><polygon points="518.03 69.06 518.03 72.52 517.45 72.52 517.45 69.06 516.09 69.06 516.09 68.56 519.33 68.56 519.33 69.06 518.03 69.06" style="fill:#ea4e3e;fill-rule:evenodd"/><path d="M2776.71,944a1,1,0,0,0-1.44,0,2.49,2.49,0,0,0,0,2.45,1,1,0,0,0,.72.29,1,1,0,0,0,.73-0.29,1.62,1.62,0,0,0,.31-1.2,1.64,1.64,0,0,0-.31-1.25h0Zm0.41,2.81a1.65,1.65,0,0,1-2.27,0,2.82,2.82,0,0,1,0-3.16,1.66,1.66,0,0,1,2.27,0,2,2,0,0,1,.49,1.56A2.09,2.09,0,0,1,2777.13,946.79Z" transform="translate(-2254.52 -874.67)" style="fill:#ea4e3e;fill-rule:evenodd"/><path d="M2781.07,943.7h-1.12a0.73,0.73,0,1,0,0,1.46h1.12V943.7h0Zm-2.48,3.49,0.93-1.63a1.12,1.12,0,0,1-.93-1.15,1.15,1.15,0,0,1,1.25-1.18h1.81v4h-0.57v-1.56h-1l-0.86,1.56h-0.67Z" transform="translate(-2254.52 -874.67)" style="fill:#ea4e3e;fill-rule:evenodd"/><polygon points="533.62 73.71 533.62 72.52 528.6 72.52 528.6 68.56 529.17 68.56 529.17 72.02 530.8 72.02 530.8 68.56 531.38 68.56 531.38 72.02 533.01 72.02 533.01 68.56 533.59 68.56 533.59 72.02 534.18 72.02 534.18 73.71 533.62 73.71" style="fill:#ea4e3e;fill-rule:evenodd"/><path d="M2791.94,945.36h-1.11a0.72,0.72,0,0,0-.89.7c0,0.48.29,0.68,1,.68a0.85,0.85,0,0,0,1-.95v-0.43h0Zm0,1.83v-0.38a1.29,1.29,0,0,1-.45.32,1.72,1.72,0,0,1-.7.11,1.18,1.18,0,1,1,0-2.31h1.19v-0.38a0.83,0.83,0,0,0-1-.87,1.32,1.32,0,0,0-.61.12,0.87,0.87,0,0,0-.36.33l-0.39-.36a1.41,1.41,0,0,1,.5-0.43,2,2,0,0,1,.89-0.16c1.06,0,1.6.44,1.6,1.32v2.69h-0.58Z" transform="translate(-2254.52 -874.67)" style="fill:#ea4e3e;fill-rule:evenodd"/><path d="M2796.15,943.7H2795a0.73,0.73,0,1,0,0,1.46h1.12V943.7h0Zm-2.48,3.49,0.93-1.63a1.12,1.12,0,0,1-.93-1.15,1.15,1.15,0,0,1,1.25-1.18h1.81v4h-0.57v-1.56h-1l-0.86,1.56h-0.67Z" transform="translate(-2254.52 -874.67)" style="fill:#ea4e3e;fill-rule:evenodd"/><polygon points="545.71 72.52 545.71 68.56 546.29 68.56 546.29 70.46 548.04 68.56 548.76 68.56 546.98 70.43 548.92 72.52 548.17 72.52 546.29 70.47 546.29 72.52 545.71 72.52" style="fill:#ea4e3e;fill-rule:evenodd"/><path d="M2806.19,944a1,1,0,0,0-1.44,0,2.49,2.49,0,0,0,0,2.45,1,1,0,0,0,.72.29,1,1,0,0,0,.72-0.29,1.61,1.61,0,0,0,.32-1.2,1.64,1.64,0,0,0-.32-1.25h0Zm0.41,2.81a1.65,1.65,0,0,1-2.27,0,2.82,2.82,0,0,1,0-3.16,1.66,1.66,0,0,1,2.27,0,2,2,0,0,1,.49,1.56A2.09,2.09,0,0,1,2806.6,946.79Z" transform="translate(-2254.52 -874.67)" style="fill:#ea4e3e;fill-rule:evenodd"/><polygon points="557.06 72.52 557.06 69.7 555.95 71.89 555.51 71.89 554.39 69.7 554.39 72.52 553.82 72.52 553.82 68.56 554.39 68.56 555.74 71.22 557.07 68.56 557.64 68.56 557.64 72.52 557.06 72.52" style="fill:#ea4e3e;fill-rule:evenodd"/><path d="M2815.87,945.36h-1.11a0.72,0.72,0,0,0-.89.7c0,0.48.29,0.68,1,.68a0.85,0.85,0,0,0,1-.95v-0.43h0Zm0,1.83v-0.38a1.29,1.29,0,0,1-.45.32,1.72,1.72,0,0,1-.7.11,1.18,1.18,0,1,1,0-2.31h1.19v-0.38a0.83,0.83,0,0,0-1-.87,1.33,1.33,0,0,0-.61.12,0.87,0.87,0,0,0-.36.33l-0.39-.36a1.41,1.41,0,0,1,.5-0.43,2,2,0,0,1,.89-0.16c1.07,0,1.61.44,1.61,1.32v2.69h-0.58Z" transform="translate(-2254.52 -874.67)" style="fill:#ea4e3e;fill-rule:evenodd"/><polygon points="565.85 72.52 565.85 70.72 563.93 70.72 563.93 72.52 563.36 72.52 563.36 68.56 563.93 68.56 563.93 70.22 565.85 70.22 565.85 68.56 566.43 68.56 566.43 72.52 565.85 72.52" style="fill:#ea4e3e;fill-rule:evenodd"/><path d="M2824.72,943.72h-1.36v0.75a5.07,5.07,0,0,1-.45,2.22h1.81v-3h0Zm0.6,4.65v-1.18h-3v1.18h-0.56v-1.69h0.47a5.64,5.64,0,0,0,.52-2.71v-0.76h2.49v3.47h0.59v1.69h-0.56Z" transform="translate(-2254.52 -874.67)" style="fill:#ea4e3e;fill-rule:evenodd"/><path d="M2829.13,945.36H2828a0.72,0.72,0,0,0-.89.7c0,0.48.29,0.68,1,.68a0.85,0.85,0,0,0,1-.95v-0.43h0Zm0,1.83v-0.38a1.28,1.28,0,0,1-.45.32,1.71,1.71,0,0,1-.7.11,1.18,1.18,0,1,1,0-2.31h1.19v-0.38a0.83,0.83,0,0,0-1-.87,1.34,1.34,0,0,0-.61.12,0.88,0.88,0,0,0-.36.33l-0.39-.36a1.4,1.4,0,0,1,.5-0.43,2,2,0,0,1,.89-0.16c1.07,0,1.6.44,1.6,1.32v2.69h-0.58Z" transform="translate(-2254.52 -874.67)" style="fill:#ea4e3e;fill-rule:evenodd"/><path d="M2862.85,877.17v288.36H2257V877.17h605.84m2.5-2.5H2254.52V1168h610.84V874.67h0Z" transform="translate(-2254.52 -874.67)" style="fill:#fff"/></svg>