<?xml version="1.0" encoding="utf-8"?><svg width="1463" height="1404" viewBox="0 0 1463 1404" xmlns="http://www.w3.org/2000/svg" xmlns:xlink="http://www.w3.org/1999/xlink"><svg data-name="Слой 1" viewBox="-5 -5 138.49 129.26" width="138.49" height="129.26" id="advantages-img1"><title>advantages-img1</title><path d="M128.49 19.07c-.15-6.43-4-11.75-9.53-14.73-12.75-6.83-30.16-4-43.78-2.08-20.37 2.91-39.28 8.72-58.25 16.75C8.76 22.47-1.5 29.43.18 39.62c1.51 9.14 11.93 12.77 20.3 13 .22.34.41.69.6 1s.22.42.33.63c.25 1.26.12 2.77.26 3.92a13.56 13.56 0 0 0 4.79 9.36c7.35 6 15.76 2.76 24 1.88a14.49 14.49 0 0 0 7.86 10.29 25.3 25.3 0 0 0 9.6 2.2c0 .94.06 1.87.06 2.83 0 8.37 8.52 12.26 15.77 12 4.94-.19 8.07-.48 10.24 4.78 1.66 4 1.9 8.47 1.94 12.74.05 4.8 7 7.05 9.32 2.52a127.86 127.86 0 0 0 7.45-16.78c2.48-7.07 4-14.18 6.93-21.1 2.33-5.43 4.81-11 3.91-17-.29-1.91-2.7-4.49-2.38-6.34a11.25 11.25 0 0 1 1.58-2.34 24.09 24.09 0 0 0 2.57-5.51c1.93-5.57-.92-11.47.77-17.07 1.26-3.9 2.5-7.43 2.41-11.56z" fill="#fff"/><path d="M21.95 40.53c-.75.13-3.71-2.52-3.83-2.89a5.58 5.58 0 0 0-.8-1.41 6.78 6.78 0 0 0-3.53-2.73 7.3 7.3 0 0 0-2.08-.51 12.38 12.38 0 0 1-1.91-.05c-.74-.13-.45-1.27-1.2-1.3-.47 0-2.92 1.78-3.23 2a3.17 3.17 0 0 0-1.39 2.34 3.91 3.91 0 0 0 .89 2.44 9.36 9.36 0 0 0 5.08 3.25c4.08 1.12 7.93-.01 12-1.14z" fill="#fff"/><path d="M22.24 40.26c-1.77-.3-3.12-2.19-4-3.54a8.79 8.79 0 0 0-5.16-3.83c-1-.33-3 .24-3.49-1.07a1 1 0 0 0-.67-.46c-.84-.19-2 .84-2.57 1.23-3 2-3.91 5.08-.41 7.52 5 3.47 10.64 2.18 16.09.67.58-.16.45-.66-.13-.5-5.65 1.56-12.23 3-16.56-2.06-2-2.28.36-4.49 2.22-5.73 1-.69 1.07.27 1.88.68 1.33.67 3.33.29 4.85.91 1.81.74 2.39 2.28 3.4 3.75a7.56 7.56 0 0 0 4 3c.28.02 1.11-.45.55-.57z" fill="#181716"/><path d="M103.89 37.63c-11.92 0-17.57 1.76-34.1 6.19-10.32 2.76-36.92 11.87-34.09 16.75l-6-.58c-3.62-7.92 31.33-21.81 36.25-23.12 10.44-2.77 39.68-8.1 44.43-3.12z" fill="#ea4e3e"/><path d="M103.94 37.3c-17.82.1-36 5.91-52.52 12.29-5.07 2-12.79 4.31-16 9.08a2.26 2.26 0 0 0-.31 1.68c0-.17 1.18-.07-.5-.23L32 59.87c-1.56-.15-2.21.14-2-1.67.14-1.45 1.38-2.72 2.33-3.71 5.37-5.62 13.59-9 20.55-12.14a90.69 90.69 0 0 1 16.38-6 166.77 166.77 0 0 1 27.57-4.23c3.88-.25 8.86-.63 12.44 1.26 1.2.63-1.34 1.46-2.38 2.08l-3.22 1.94c-.56.34.26.61.63.39l6.44-3.88c.11-.07.26-.28.13-.4-5-4.49-16.52-2-22.33-1.24-8.33 1-17.16 2.27-25.1 5.07A142.63 142.63 0 0 0 40.36 47.9c-3.33 1.9-13 6.91-11.1 12.18a.33.33 0 0 0 .31.2l6 .58c.19 0 .79-.15.66-.46-2.47-5.74 25-13.72 28.54-14.83 12.67-4 25.77-7.59 39.12-7.66.45.04.71-.61.05-.61z" fill="#181716"/><path d="M115.34 35.89c3.4 1.58 4.62 5.54 2.36 7.35h-.23c-1.58-1.36-7-1.85-9.06-1.85z" fill="#ea4e3e"/><path d="M114.96 36.14a6.07 6.07 0 0 1 3.3 3.86 3.33 3.33 0 0 1-.28 2.37c-.41.82-.24.54-.35.45a4.26 4.26 0 0 0-.91-.46 22 22 0 0 0-8.12-1.27l.21.39 6.93-5.5c.44-.35-.52-.4-.78-.19l-6.93 5.5c-.23.18 0 .39.21.39a29.82 29.82 0 0 1 6.2.72 6.8 6.8 0 0 1 2.66 1.09 1.06 1.06 0 0 0 .8 0c1.2-.53 1.5-2.21 1.4-3.34-.17-2-1.89-3.61-3.58-4.48-.3-.18-1.19.25-.76.47z" fill="#181716"/><path d="M118.08 67.21l.75-2c.23-3.17-2.92-4.62-6.34-6.56 0 0-13.21-5.35-32.56-.56-5.28 1.31-19.27 5.77-22 10.75l5.8 1.91c5.21-5.43 23.72-11.46 31.87-11 .01-.02 22.3 1.22 22.48 7.46z" fill="#ea4e3e"/><path d="M118.55 67.28c3.63-9.77-14.8-11.42-20.62-11.54a72.77 72.77 0 0 0-24.77 4c-5.25 1.76-12.45 4-15.62 8.95a.31.31 0 0 0 .14.5l5.8 1.91a.62.62 0 0 0 .6-.1c4.22-4.08 10.41-6.22 15.86-8 4.93-1.62 10.49-3.18 15.73-2.85 5 .31 21.08.72 21.94 7.22.06.48 1 .23 1-.26-.88-6.73-16.23-7.17-21-7.59-10.2-.89-21.68 3.13-30.39 8.21-1.56.91-2.77 2.81-4.36 2.29l-3.3-1.09c-1.87-.62-.15-1.29 1.13-2.36 5.2-4.35 13-6.45 19.42-8.09a62.08 62.08 0 0 1 26.78-.93c4.59.87 13.11 3.46 10.82 9.64-.3.49.63.52.84.09z" fill="#181716"/><path d="M99.34 80.14c6.31.54 5 8.37 4.28 10.41-.91 2.72-3.17 5-4.07 7.7-1.81 5-2.49 10.19.45 14.71l-.23-1.36c.91-5.66 3.62-10.7 6.11-15.84 11.35-23.39-9.73-19-13.58-17.88-3.39.68-13.42 3.82-13.88 7.89l3.18.43s11.47-6.6 17.74-6.06z" fill="#ea4e3e"/><path d="M99.21 80.45c8.13 1.36 3.66 11.19 1.18 15.16a17.49 17.49 0 0 0-.79 17.55.59.59 0 0 0 .93-.33c-1.35-8.11 19.66-32.91 2.3-36.11a24 24 0 0 0-10.29.79c-4.53 1.21-13.2 2.89-14.55 8.3 0 .18.18.25.31.27 2.15.29 3 .64 4.8-.33 4.83-2.61 10.53-5.47 16.12-5.3.42 0 1-.61.35-.63-4.8-.14-9.42 1.85-13.69 3.84-1.51.7-3 1.48-4.45 2.3.06 0-2-.41-2.44-.46-.9-.12 4.73-4.31 5-4.46 5.61-2.88 17.29-6.55 22.81-1.73 4.52 4 .59 12.32-1.32 16.41-1.71 3.64-3.52 7.19-4.89 11-.45 1.23-1.47 3.71-1.25 5 .54 3.26-.46-2.88-.64-3.62-1.88-8.07 5.35-13.43 6-20.82.36-3.86-1.29-6.82-5.17-7.47-.4-.06-.97.57-.32.64z" fill="#181716"/><path d="M62.47 11.33c3.62-.91 27.61-5.21 36.22-5.21 6.79 0 21.5-1.13 24.45 6.56 1.13 2.94-1.36 8.83-1.36 8.83-1.13-3.4-6.11-3.62-9.28-3.85-8.37-.45-17.43-.68-25.8.45-4.3.45-8.6 1.36-12.9 2-4.07.68-50.7 14-55.23 18.79 0 0-3.1 0-4.75-3.85-1.36.45-5.38 2.85-6.56 1.13-2.34-3.4 4.56-7 7.28-8.13 9.61-3.88 33.1-13.19 47.93-16.72z" fill="#ea4e3e"/><path d="M62.55 11.65c15-3.59 31.2-6 46.65-5.09 4.94.29 11.13 1.27 13.44 6.26 1 2.09-.18 5.3-.83 7.3s.45.35-.77-.56c-2.92-2.17-6.7-2.15-10.19-2.33a156.37 156.37 0 0 0-20.5.14c-14.66 1.17-28.58 5.49-42.54 9.84-6.9 2.15-13.79 4.41-20.54 7a61 61 0 0 0-7 3.12c-2.82 1.52-3.89 1.54-6-2.45a.56.56 0 0 0-.65-.07c-2.44 1-9.36 2.48-5-2.62 1.7-2 4.57-3.17 7-4.15q6.5-2.65 13.06-5.15c11.12-4.27 22.39-8.41 34-11.25.6-.15.42-.79-.17-.64a265.11 265.11 0 0 0-28.84 9.31c-7.87 2.91-16.89 5.42-23.95 10.07-2.09 1.38-4 3.43-2.84 6 .63 1.35 2.92.77 3.91.39 2.5-.94 2.41-1.38 4.13.78a5.49 5.49 0 0 0 3 1.67c1.21.31 1.93-.75 2.92-1.32 5.53-3.16 12-5 18-7 7.65-2.57 15.39-4.92 23.14-7.16a149.23 149.23 0 0 1 15.75-3.85 137.32 137.32 0 0 1 22-2.21c4.85-.06 19-1.62 21.74 4a.57.57 0 0 0 .94-.08c2.12-5.17 2.67-10.14-2.61-13.31s-13.08-2.59-19.12-2.5a178.88 178.88 0 0 0-38.34 5.22c-.56.14-.38.78.21.64z" fill="#181716"/><path d="M121.34 21.74c-5.92 14-66 35.54-84.09 38-3 .4-7.83-1.1-7.83-1.1 0 7.35 11.18 5.23 21.83 3.06 20-4.1 47.3-15.52 53.8-18.22 16.36-6.78 20.27-18.82 18.4-27.82z" fill="#fff"/><path d="M120.86 21.72c-2.63 5.72-9.47 9.37-14.66 12.37a201.58 201.58 0 0 1-25.94 12.14q-13.36 5.36-27.19 9.46c-7.59 2.25-15.52 5-23.39 2.66-.25-.08-.8.07-.77.41.7 9.3 17.17 4.25 22.39 3.19 12.54-2.55 24.73-6.88 36.69-11.39 15.7-5.91 39.89-13.54 35.92-35-.07-.4-.88-.07-1 .18l-2.11 6.09c-.12.36.85.24 1-.11l1.36-3.95c1-2.95-.05-1.36.15.73.48 5.12-1.36 10.13-4.24 14.28-5.94 8.57-17.34 11.86-26.64 15.51A304.36 304.36 0 0 1 56.64 60.2c-6.35 1.62-13 3.13-19.55 3.28-3.08.07-6.3-.64-7.15-4-.21-.81-.81-.54.85-.12a31.93 31.93 0 0 0 3.77.66c6.19.8 13.84-2.38 19.63-4.1 9-2.66 17.77-5.81 26.45-9.26a215.87 215.87 0 0 0 25.27-11.75c5.31-3 11.17-6.38 14.84-11.37a10.12 10.12 0 0 0 1-1.79c.23-.44-.74-.37-.89-.03z" fill="#181716"/><path d="M64.28 69.73c13.3-1.43 22.25-6.29 26.68-8 26.13-10.31 27.89-22 27.89-22 3.4 3.85 2 14-24.73 27.33-23.6 11.75-36 6.69-36.18 1.79 0-.03 4.48 1.08 6.34.88z" fill="#fff"/><path d="M64.24 70.1c14.94-1.81 31.33-8.32 43.72-16.84a32.61 32.61 0 0 0 9.75-9.79 15.53 15.53 0 0 0 1.44-3.06c.4-1.23-.39-.29.14.93 1.64 3.73-1.44 7.95-3.73 10.59-6.47 7.49-16.31 12.36-25.12 16.43-8 3.68-18.08 7.1-26.92 4.8a7.68 7.68 0 0 1-4.72-3.1c-.88-1.42-.68-.78.88-.45a20.69 20.69 0 0 0 4.55.49c.56 0 .73-.75.08-.74a25.36 25.36 0 0 1-6.21-.9.52.52 0 0 0-.65.5c.44 4.25 6.29 5.3 9.64 5.58 10.63.92 21.53-4.19 30.66-9 5.66-3 29.79-16.07 21.53-26.09a.57.57 0 0 0-.93.25c-1 5.87-7.63 10.71-12.08 13.76-6 4.09-12.69 6.62-19.26 9.49a80.26 80.26 0 0 1-22.67 6.43c-.57 0-.75.8-.1.72z" fill="#181716"/><path d="M118.44 64.59c0 14.83-10.48 18.76-15.46 21.25-4.3 2.26-23.91 6.08-24.59-.49 7 .4 20.47-2.09 23.87-3.67 9.08-3.85 16.18-17.09 16.18-17.09z" fill="#fff"/><path d="M117.96 64.64c-.28 11-6.33 16.68-15.62 21.18-3.59 1.74-8 2.26-11.91 2.69a27.57 27.57 0 0 1-7.44-.11c-1.16-.19-6.14-2.72-2.62-2.72 7.77 0 17.42-1.09 24.34-4.93 6.09-3.38 10.92-10.13 14.2-16.14.24-.43-.74-.36-.91-.05a45.35 45.35 0 0 1-12.87 15.19c-6.76 4.84-18.54 5.58-26.55 5.29-.21 0-.73.12-.66.43 1.54 7.64 19.1 2.81 23.56 1.3 10.29-3.5 17.17-11.12 17.46-22.24 0-.44-.97-.25-.98.11z" fill="#181716"/></svg><svg data-name="Слой 1" viewBox="-5 -5 199.73 153.17" width="199.73" height="153.17" id="advantages-img2" x="139" y="130"><title>advantages-img2</title><path d="M189.61 73.92c-.36-4.52-2.83-7.55-7.28-8.3-2.69-.45-5.81.33-8.42.84-4.62.89-9.19 2-13.88 2.41 2.61-5.16-.86-14.12-2.89-18.69-3.43-7.75-9-14.45-14.45-20.88-11.05-13.14-25.38-20.55-41.67-25.45-8.38-2.52-17.2-4.73-26-3.49-3.86.54-7.6 1.88-11.4 2.73-4.44 1-9-.07-13.41 1-6.78 1.63-11.05 5.9-15.38 11.13-3.81 4.6-9.56 6.71-13.91 10.5a1.19 1.19 0 0 0-.64.21c-3.79 2.84-4.85 6.88-6.83 11-1.33 2.77-3.78 4.85-5.75 7.15a39.91 39.91 0 0 0-5.2 7.94c-5 9.89-2.18 20.31 5.18 28 7.53 7.86 18.75 14.11 28.51 18.67a59.78 59.78 0 0 0 13.76 4.92c6.18 1.2 14.56 2.24 14.1 10.45-.29 5.31-3.06 8.67.9 13.34 3.52 4.16 16.85 5.15 21.58 7.59a75.44 75.44 0 0 0 38.89 8c14.36-1.14 16.42-6 29.6-10.49 4.38-1.49 9.12-2.62 13.06-5.14 4.8-3.08 7-7.27 9.47-12.26 6.19-12.29 13.19-27.09 12.06-41.18z" fill="#fff"/><path d="M75.67 15.39c.68 0 2.07-1 .77-1-.68 0-2.07 1-.77 1z" fill="#181716"/><path d="M46.94 25.22c2.11-7.17 13.7-10.41 20.18-10.91a16 16 0 0 1 11.59 3.56c3.34 2.83 3.63 7 5.33 10.7.15.34.43.08.43-.19 0-20.59-31.24-18.59-37.7-3.31-.06.13.12.33.17.15z" fill="#181716"/><path d="M66.44 22.53c-1.23 2.8-2.21 7.12 0 9.7.42.49.77-.42.47-.76-1.92-2.16-1.09-6.32-.42-8.88 0 0 0-.13-.07-.06z" fill="#181716"/><path d="M59.13 25.64a16.24 16.24 0 0 1 4 .93c1 .33 1.87 1.31 2.9 1.47.2 0 .2-.34.15-.44-1-2.46-4.92-2.5-7.08-2.07-.05 0-.05.11 0 .12zM77.54 15.55c4-4.31 12.84-3.28 17.22-.28 2.33 1.6 3.72 4.49 5.76 6.45 3 2.86 7.57 2.56 8.72 7.51.21.91 1.06.34.88-.4-.68-2.79-2.23-4.25-4.69-5.65-2.67-1.52-4.94-2.62-6.9-5.13a25.24 25.24 0 0 0-3.44-3.71c-4.8-4.12-13.34-3.07-17.66 1-.09.09 0 .37.11.26z" fill="#181716"/><path d="M100.09 20.97c-1.2 3.69-6.88 4.22-9.57 6.42-.21.17-.12.91.23.74a52.89 52.89 0 0 0 5.75-3.06 15 15 0 0 0 3.75-3.93c.11-.13-.1-.37-.16-.18zM81.65 12.53c6.37-4.66 22.8-3.61 25.26 5 .23.82 1 .31.81-.36-3.2-10.84-18.51-8.86-26.15-4.93-.13.07-.05.37.08.27zM104.29 20.67c5.58-2.82 12.74-.47 17.69 2.66 7.37 4.66 7.81 12.63 7.63 20.41 0 .44.55.86.72.28 2.18-7.15-.66-15.73-6.17-20.57-5-4.43-14.13-7.34-19.9-2.89v.11zM130.65 43.66c3-.08 4.8 1.31 6.07 4a8.66 8.66 0 0 1 .74 4.27 22.3 22.3 0 0 1-.92 3.09c0 .23.12.91.49.71 2.45-1.34 1.44-6.34.69-8.36-1-2.74-4-5.54-7.11-4-.1 0-.1.3 0 .29zM21.94 49c.91-6.84 9.52-11.08 15.7-11.68 3.33-.33 7.07 1.19 9.85 2.9 4.05 2.51 4.79 6.5 5.7 10.77.09.42.54.42.59 0 1.19-9-7.31-14.55-15.24-15.24-7.06-.61-16.87 5.7-17.06 13.19 0 .35.4.48.46.08z" fill="#181716"/><path d="M55.42 41.33a18.63 18.63 0 0 0-1.15 8.16c.14 2 .72 5.17 2.56 6.32.38.24.53-.39.41-.65-1.07-2.2-2-3.94-2.26-6.46a24.31 24.31 0 0 1 .52-7.32s0-.11-.07 0zM70.57 44.1c-7.24 1.53-4.71 11.13-2.15 15.67a13.23 13.23 0 0 0 10 6.91c6 1.07 7.2-5.2 8.47-9.49.07-.25-.15-1.27-.55-.79-1.85 2.24-1.45 5.33-3.46 7.58-3.2 3.6-10.33-.3-12.58-3.16-3.36-4.27-6.51-14 .26-16.61v-.11z" fill="#181716"/><path d="M86.31 57.33c-.3 2.82.14 6.1 2.1 8.29s6.21 3.48 8.26.83a.39.39 0 0 0-.18-.6c-1.22-.16-2.41.61-3.68.65a5.16 5.16 0 0 1-3.4-1.32c-2.22-1.82-3-5.12-3-7.84 0-.06-.07-.08-.08 0z" fill="#181716"/><path d="M94.09 67.31c1.48 3.63 7.71 1.65 8.19-1.83s-.58-6.63-1.09-10a18.37 18.37 0 0 1 .1-7.59c.78-2.92 3.45-3.55 5.9-4.36.39-.13.31-1-.12-1-4.71-.23-6.89 3.52-7.27 7.72a25.77 25.77 0 0 0 .56 6.73c.28 1.58.66 3.14 1 4.71q1.25 4.23-2 5.78c-1.34.83-4.15 1.51-5.21-.26 0-.06-.07 0-.06.07z" fill="#181716"/><path d="M89.94 44.13a10.25 10.25 0 0 0 .07 8.4c1.12 2.57 3.85 5.74 6.61 6.45.34.09.33-.49.16-.65-1.65-1.55-3.49-2.59-4.95-4.39a10.67 10.67 0 0 1-1.82-9.75s0-.13-.07-.06zM78.5 44.49c-1.88 2.77-3.52 5.12-3.79 8.58-.17 2.18.46 5.29 2.5 6.45.4.23.38-.62.28-.79-1.34-2.34-2.07-4.07-1.87-6.84.17-2.36 1.16-5.57 3-7.17.12-.1 0-.39-.12-.23zM32.72 53.89a11 11 0 0 0 1.92 5.62c1 1.38 3.24 3.24 5 2.85.41-.09.37-.74.06-.92a21.56 21.56 0 0 0-2.38-.89 8.07 8.07 0 0 1-2.12-1.48 9 9 0 0 1-2.45-5.19c0-.07-.08 0-.08 0z" fill="#181716"/><path d="M28.51 67.82c2.55-4.08 9.31-5.63 13.65-6.17a17.28 17.28 0 0 1 13.34 3.71c.48.36.55-.57.4-.84-2.57-4.45-9.32-4.53-13.77-4.07-5.55.57-10.37 2.76-13.77 7.16-.08.1.05.36.14.21z" fill="#181716"/><path d="M54.84 64.27a19.25 19.25 0 0 1 3.47-8.68 6.76 6.76 0 0 1 4.23-2.88c1.66-.27 2.67.95 4.16 1.21.37.07.3-.64.2-.81-2-3.37-6.42-1.61-8.49.65a14.56 14.56 0 0 0-3.65 10.49c0 .06.07.08.08 0zM47.27 60.61c2.41-5.06.42-10.39-4.46-13.11-6.1-3.4-14-2.84-20.22-.07s-10.43 9.27-9.37 16.08c1.31 8.46 13 17.24 21 10.62.41-.34.41-1.85-.35-1.74-4.11.58-7.06 1.55-11.21.06a11.71 11.71 0 0 1-7.72-12c.5-5.82 5.36-9.57 10.46-11.4 8.83-3.17 24.46-.85 21.85 11.55 0 .05 0 .11.07 0z" fill="#181716"/><path d="M33.14 73.68c-3.9 6.32-.93 11.75 6.13 13.44 3.51.84 9.34 1.31 12.24-1.43A20.48 20.48 0 0 0 57 75.11c.19-.86-.86-2-1.29-.78-2.37 6.62-4.49 11.47-12.49 11.3-7.23-.15-13.22-3.6-10-11.8 0-.08-.05-.26-.12-.14z" fill="#181716"/><path d="M54.94 80.75c4.07 5.21 9.51 5.36 14.69 1.61 2.36-1.71 9.26-10 5.85-13a.27.27 0 0 0-.3-.05c-1.18.68-.95 2.36-1.25 3.53a15.8 15.8 0 0 1-4.38 6.93c-4.12 4.09-10.18 4.81-14.53.81-.09-.08-.14.13-.09.19zM50.17 85c.1 4.43 2 7 6.21 8.45 5 1.72 9.87-.88 14-3.61.52-.35.71-2.06-.22-2-2.78.33-4.92 2.5-7.44 3.62-4.69 2.09-12.19-.88-12.31-6.52 0-.18-.2-.18-.2 0z" fill="#181716"/><path d="M67.27 91.16c4.11 4.82 8.18 7.55 14.69 7.63 5 .06 11.81-2.52 13.95-7.33.17-.37 0-1.45-.64-1.19-2 .83-3.34 2.54-5.16 3.68a18.34 18.34 0 0 1-7 2.36c-5.31.83-12.16-1.31-15.74-5.36-.12-.14-.22.12-.13.22z" fill="#181716"/><path d="M92.66 71.1c-6.77-1.6-11.89 6.26-13.77 11.69-1.29 3.72-1.25 15.16 5.32 14.15a.79.79 0 0 0 .3-1.21c-1.73-1.94-3.84-2.67-4.67-5.42s.09-5.74 1.08-8.27a16.72 16.72 0 0 1 11.71-10.36c.22 0 .28-.52 0-.58zM130.65 35.75c7.58.09 12.59 5.18 14.19 12.36a17.87 17.87 0 0 1-1 10.56c-1.48 3.64-4.4 5-7.64 6.72-.78.4-.84 2.68.29 2.53 8.35-1.14 10.71-11.7 9.9-18.58-.95-8.07-7.13-15.56-15.78-14.05-.2 0-.2.47 0 .47z" fill="#181716"/><path d="M145.73 54.2c5.64 5.7 8 11.54 3.79 19-1.12 2-2 4.13-3.27 6.08-5 7.77-13.57 3.65-20.81 3.65-.87 0-.67 1.54-.12 1.84 8.12 4.54 18.74 2.77 23.25-5.5 2-3.69 4.18-7.78 4.74-12 .76-5.73-3.23-10.26-7.5-13.37-.11-.08-.13.14-.07.2z" fill="#181716"/><path d="M94.75 91.1c10.65 8.94 24 4.59 31.21-6.45.28-.43.14-2.24-.72-1.75-4.4 2.52-6.85 7.16-11.61 9.48-6 2.91-13.17 1.37-18.85-1.39-.05 0-.06.08 0 .11zM131.51 64.59c3.33.57 5.9 3 7.79 5.64 3.16 4.42 1.46 9.45-1.53 13.4-.69.91.32 3.2 1.3 1.87 3.08-4.17 4.62-9 2.68-14-1.5-3.88-5.88-8-10.25-7.18a.13.13 0 0 0 0 .23zM113.94 39.21c.31 1.85 1.11 3.39 3 4a15.07 15.07 0 0 0 2.45.41 9.84 9.84 0 0 1 3 1.07.47.47 0 0 0 .49-.11 1.17 1.17 0 0 0 .09-1.54 3.65 3.65 0 0 0-2.65-1.07c-2.71-.32-5.1.33-6.33-2.78 0-.07-.08 0-.07 0zM75.68 97.75c0 3.12-.58 6.58 1 9.43.67 1.19 2.32 1.19 3.5 1.19a19.44 19.44 0 0 0 6-.73c.76-.27.61-2-.23-2a22 22 0 0 0-4.27.72c-1.14.19-3.42.72-4.29-.32s-.85-3-1-4.31-.32-2.67-.56-4c0-.13-.15-.08-.15 0z" fill="#181716"/><path d="M79.36 99.05a4.74 4.74 0 0 0 2.31 4.19c1.25.76 4 1.34 4.12 3.08s1.7 1.17 1.5-.35a3.91 3.91 0 0 0-3.05-3.41c-2.26-.58-4.22-.85-4.73-3.54 0-.13-.15-.08-.15 0zM101.87 94.9c-.88 1.51-.76 4.09-.25 5.67a3.68 3.68 0 0 0 2.56 2.36c1.25.38 3.31.36 4.29-.54a1.07 1.07 0 0 0-.18-1.6c-1-.29-1.95.24-2.94.34a2.68 2.68 0 0 1-2.87-1.36 12 12 0 0 1-.42-2.7 6.41 6.41 0 0 1-.13-2.11s0-.11-.07-.06z" fill="#181716"/><path d="M106.23 97.59a4.16 4.16 0 0 1 3.13 1.93c.45.84.19 1.19-.78 1.07s-.93 2.15.05 2.11c1.89-.08 2.47-1.93 1.81-3.5a3.64 3.64 0 0 0-1.55-1.73 3 3 0 0 0-2.68 0 .07.07 0 0 0 0 .11z" fill="#181716"/><path d="M46.16 27.09c16.42 6.7 35.87 7.35 53.37 4.32a76.28 76.28 0 0 0 18.15-5.4c3.46-1.51 5-3.24 8-.22a10.7 10.7 0 0 1 3 6.7l-.65-.22c-4.32 3.46-12.53 4.54-17.72 6.05-5.4 1.73-10.8 2.38-16.42 3-9.29 1.08-18.8-.22-28.09-.86a66.71 66.71 0 0 1-13-1.73c-3.89-1.08-8.64-3.24-12.75-2.81l-.22.43c.65-3.46 2.81-7.78 5.83-8.86" fill="#ea4e3e"/><path d="M46.15 27.19c13.68 5.67 28.36 7.06 43 6a95.2 95.2 0 0 0 20.48-3.68 68.47 68.47 0 0 0 9.48-3.66c3.06-1.44 4.23-2.08 7.26 1.43-.49-.57 2.84 4.48 1.63 4.51s-4.53 2.45-5.89 2.94a87.16 87.16 0 0 1-9.53 2.49c-8.11 1.94-15.94 3.68-24.32 4-8.12.32-16.25-.9-24.34-1.37a55.69 55.69 0 0 1-14.07-2.57 28.3 28.3 0 0 0-9.79-1.87.31.31 0 0 0-.25.16c1-2 3.08-6.06 6-7.52.41-.21.25-1.28-.22-1-3.61 1.82-5.19 5.48-6.07 9.25-.08.32.35 1 .61.51.93-1.86 9.4 1.51 11.13 2.07a51.28 51.28 0 0 0 10.85 1.94 233.84 233.84 0 0 0 26.2 1.49 93.05 93.05 0 0 0 23.26-3.76c3.12-.86 6.3-1.48 9.41-2.38 1.58-.46 6.24-3.6 7.63-3.14.35.12.43-.4.39-.63-.58-3.79-3-9.46-7.7-8.51-2.85.57-5.86 2.6-8.61 3.63a80.36 80.36 0 0 1-14.88 3.74c-17.17 2.89-35.27 1.9-51.64-4.21-.09 0-.1.16 0 .19z" fill="#181716"/><path d="M41.22 22.11c1.3-3.24 4.23-8.85 7.25-11 6.27-4.32 1.51 4.54.86 6.91 1.08-1.08 3.24-2.16 3.89-.43.65 1.94-1.51 2.16-2.59 3.24a50.22 50.22 0 0 0-5.83 7.56z" fill="#ea4e3e"/><path d="M41.29 22.17c1.87-4.26 4.37-9.25 8.59-11.57 2.44-1.34.77 3.27.49 4-.42 1.08-.91 2.13-1.25 3.24-.06.19.05.76.35.5l1.07-.81q1.47-1.07 2.13 1.47a17 17 0 0 1-2.19 1.49c-2.09 1.69-3.73 4.46-5.23 6.65-.66 1-.23 1.08-.87 0l-1.29-2.07-1.87-3 3.37 6.47c.09.18.27.26.4.07 2.23-3.22 4.31-6.26 7.47-8.6a2.15 2.15 0 0 0 1-2.68c-.59-1.42-1.91-1.14-3.05-.59-.84.4-.95 1.6-.44.25.41-1.08.85-2.14 1.25-3.22.23-.62 1.63-4.76-.51-4.18-5 1.36-7.84 8.08-9.54 12.42-.05.15.06.3.12.16z" fill="#181716"/><path d="M36.25 24.89c-1.94-.43-8.43 3.89-9.94 5.83-3 3.46-.86 1.94 1.51 3.24s1.73 1.73 2.59 4.32c1.95-.86 4.11-.86 6.05-1.51 2.59-.86 1.94-1.3 3.24-3.89-2.38-1.51-4.11-5.19-3.46-7.78v-.22z" fill="#ea4e3e"/><path d="M36.25 24.75c-2-.29-4.17 1.21-5.75 2.2a19.14 19.14 0 0 0-5 4.22c-.24.31-1.57 1.8-.64 2.25a20.61 20.61 0 0 0 2.33.63c2.19.75 2.37 2.43 2.94 4.32 0 .15.14.34.33.27 2.44-.92 5.26-.83 7.56-2.15 1.09-.63 1.42-2.39 1.91-3.42a.55.55 0 0 0-.12-.6c-2.69-1.95-3.29-4.49-3.29-7.62 0-.58-.62-.56-.62 0 0 3.21.54 5.72 3.09 8 .4.36-.32 1.5-.47 1.89-.56 1.42-2.54 1.74-3.82 2-.89.2-1.82.29-2.7.54-1.48.42-1.62-.36-2-1.52a4 4 0 0 0-2.15-2.22 5.06 5.06 0 0 0-1.62-.55c-1.83-.33-.58-1.14.4-2.32a19.58 19.58 0 0 1 4.51-3.53c1.39-.89 3.34-2.3 5.07-2.2.15.07.14-.19.04-.19zM119.77 51.64c1.05-.94 2.13-1.85 3.22-2.75.86-.7 2.15-1.3 2.33-2.46a.53.53 0 0 0-.23-.57l-.22-.1a.39.39 0 0 0-.41.09c-1.7 1.65-3.38 3.32-5 5.08-.21.23-.05 1 .29.7zM112.47 54.19c-1.15-.74-2.37-1.36-3.52-2.11a26.32 26.32 0 0 0-3.54-2.1c-1.27-.57-1.57 2.32-.44 2.84 2.16 1 4.85 3 7.33 2.58a.73.73 0 0 0 .18-1.21zM123.25 54c-1.17 1.35 0 3.78 1.22 4.66 2.35 1.68 2.79-2.74 2.57-4.1a2.29 2.29 0 0 0-1.47-1.94 2.12 2.12 0 0 0-1.93.62 2.89 2.89 0 0 0-.79 2.56 3.22 3.22 0 0 0 2 2.32.55.55 0 0 0 .65-.28 4.58 4.58 0 0 0 .5-4.26.68.68 0 0 0-.58-.48h-.65a.57.57 0 0 0-.46.31 4 4 0 0 0 .4 4.79c.52.57 1-.49.94-.87a9.4 9.4 0 0 0-.54-2.86.54.54 0 0 0-.87-.32 2.76 2.76 0 0 0 .43 4.35.4.4 0 0 0 .31 0l.15-.09a.74.74 0 0 0 .28-.8 2.29 2.29 0 0 0-.66-1.1c-.25-.29-.1-.42.16-.71l-.87-.32a6.21 6.21 0 0 1 .32 1.9l.94-.87a1.36 1.36 0 0 1 0-1.69l-.46.3h.65l-.58-.48a1.84 1.84 0 0 1-.37 1.79l.65-.28a3.21 3.21 0 0 1-.78-.51 1.23 1.23 0 0 1-.21-.26v-.06c0 .15 0 0 0 0a2.66 2.66 0 0 1 .22-.33c.5-.54 1.21-.61 1.47.1s.18 3.07-1.07 2.3c-.92-.56-1.93-2.11-1.47-3.2 0-.06 0-.25-.11-.16zM109.69 58.15c-.84-.32-1.09 1-1.19 1.59a6.41 6.41 0 0 0 .56 3.81c.18.33.49.49.75.13 1.28-1.79 1.42-4.71-.27-6.29a.48.48 0 0 0-.74.16c-.88 1.4-1.48 4.78.8 5.35s2-3.46 1.35-4.55c-.92-1.64-2.34.32-2.65 1.31-.59 1.85.25 3.64 2.27 3.8a.64.64 0 0 0 .52-.48c.72-1.55 1.16-5.72-1.57-5.5-2.45.2-1.3 4.64-.13 5.64.35.3.7 0 .83-.36a5 5 0 0 0 .26-3.1c-.13-.56-.62-.91-1-.39a1.93 1.93 0 0 0-.34 1.91.53.53 0 0 0 .37.35c.51.19.69-.73.87-1l-1-.39a2.48 2.48 0 0 1-.17 1.65l.83-.36c-.41-.35-1.12-2.07-.24-2.14 1.23-.1.53 2.15.27 2.72l.52-.48c-.66-.05-1.27-.25-1.14-1a1.38 1.38 0 0 1 .71-1c.1 0 .26 1.44-.27 1.46-1.12 0-.34-1.87-.12-2.21l-.74.16c.93.87.7 2.63.16 3.65h.67c-.82-1.16-1.14-3.3-.09-4.4a.07.07 0 0 0 0-.11zM117.26 75.37c4.86-.35 8.63-3.06 13-4.91 1-.43.61-3-.51-2.47-4.25 2-8.07 5.07-12.6 6.35-.38.11-.31 1.06.12 1zM99.49 67.75a9.41 9.41 0 0 0 3.32 5.83 25.77 25.77 0 0 0 3.58 2.57c.82.54 1.87 1.78 2.88 1.75.44 0 .46-.69.34-1-.68-1.68-3.27-2.66-4.73-3.59-2.28-1.45-4.61-2.79-5.31-5.6 0-.06-.08 0-.08 0zM88.67 77.63c2.95 4.79 6.43 8 10.89 11.39 1.71 1.29 7.13 6 9.61 4.57 2.94-1.74 2.22-5.29.79-7.8-1.07-1.87-3.32-2.22-5.24-2.39-3.29-.3-8.42-3.77-8.65-7.44-.13-2-2.28-2-2.15.05.19 3 1.89 5.21 4 7.29a13.53 13.53 0 0 0 4.51 2.9 8.07 8.07 0 0 0 2.38.28c.79 0 8.19 1.86 3.88 4.67-2 1.29-7.58-3.3-9.06-4.32-4.07-2.8-7.73-5.42-10.88-9.3 0-.06-.08 0-.05.08z" fill="#181716"/><path d="M106.55 89.85a6.79 6.79 0 0 1 1.07 2.16c.1.33.38.06.28-.19a6.57 6.57 0 0 0-1.31-2.06s-.07.06 0 .09zM107.08 88.97c.42.06.85 1.09 1 1.41a7.56 7.56 0 0 1 .59 1.72c.1.42.46.09.35-.23a8.39 8.39 0 0 0-.69-1.5 7 7 0 0 0-.57-.81 2.88 2.88 0 0 1-.6-.78c-.09-.3-.33.16-.09.19zM108.22 88.75a2.94 2.94 0 0 1 .62.74c.25.37.58.65.82 1s.44-.27.31-.5a2.28 2.28 0 0 0-1.74-1.37v.11zM74.71 120.82a6.21 6.21 0 0 1 .12 2 19.52 19.52 0 0 0 .26 2.2c.11.68.78.26.66-.29s-.29-1.34-.47-2a4.2 4.2 0 0 1-.39-1.94c.11-.28-.3-.25-.17 0zM131.31 98.62s3.46 1.8 3.69 1.91a26.87 26.87 0 0 0 4.76 2.06c1 .23 1.07-1.63.3-1.94-1.57-.64-3.21-1.11-4.82-1.65a9.41 9.41 0 0 0-2.5-.78 5.59 5.59 0 0 1-1.46.13c-.17-.08-.15.42 0 .27z" fill="#181716"/><path d="M76.06 119.75c.47-1.29 8.48-3 9.75-3.44 6.25-2.09 12.56-4 18.81-6.12q8.89-3 17.66-6.34c3-1.15 7.11-2.21 9.5-4.5.41-.4.06-1.72-.5-1.2-2.49 2.35-7 3.4-10.09 4.57-5.92 2.22-11.93 4.18-17.9 6.24s-11.81 4.18-17.69 6.32c-2.2.8-4.39 1.62-6.56 2.5-.48.19-2.58 1.83-3 1.74-.26 0 0 .5.06.22zM74.66 120.45c8.59 2.27 17.39 4.61 25.77 7.61 4.4 1.57 8.73 3.33 13.15 4.84 4.21 1.44 8.67 1.37 12.74 3.34 1.09.53 1.39-2 .39-2.5-4.08-1.9-8.46-2-12.77-3.14-4.48-1.15-8.83-3.1-13.19-4.63a66.52 66.52 0 0 0-11.58-3.32c-4.79-.75-9.65-2.45-14.49-2.5-.12 0-.13.27 0 .3z" fill="#181716"/><path d="M75.01 124.26c3.34.39 6.24 3.09 9.41 4.17 4.45 1.51 9.28 2 13.78 3.52s9.13 3.17 13.79 4.49 9.55 1.29 14 3.34c1.16.53 1.46-2.14.41-2.61-3.94-1.75-8.09-2-12.28-2.73-5.31-1-10.43-3.16-15.58-4.7-4.87-1.46-10-1.72-14.86-3.12-3-.86-5.4-3-8.67-2.47a.06.06 0 0 0 0 .12z" fill="#191916"/><path d="M126.28 134.97c-.07.71-.14 1.41-.25 2.11a5.3 5.3 0 0 0-.22 2.12c0 .15.18.35.34.2a2.07 2.07 0 0 0 .44-1.66 24.37 24.37 0 0 0-.17-2.75c0-.11-.14-.17-.15 0z" fill="#191916"/><path d="M148.61 81.82c-4.05 9.27-8.51 18.44-12.33 27.8-2.06 5-4.31 10-6.36 15-1.29 3.16-3.73 7.55-3.73 11 0 1.23 1.31 1.19 1.31 0 0-2 1.56-4.76 2.24-6.61.83-2.28 1.77-4.53 2.69-6.78 1.84-4.46 3.8-8.88 5.62-13.36 3.6-8.9 8.85-17.51 10.63-27 0 0 0-.11-.07 0z" fill="#181716"/><path d="M148.35 82.42c5-1.81 10.84-2.36 16-3.79a122.82 122.82 0 0 1 21-4.36c1.15-.11 1.07-2.67-.06-2.58-6.85.58-13.19 2.33-19.73 4.32-3.43 1-6.78 2.34-10.26 3.21-2.46.61-5.14 1.11-7 2.93-.07.07-.06.32.08.27z" fill="#181716"/><path d="M184.75 72.93c-2.69 6-4.9 12.3-7.32 18.45s-5.52 12.8-6.26 19.42c-.08.7.65 1.65 1.07.65 2.58-6.1 4-12.88 6.27-19.15s4.93-12.65 6.38-19.28c0-.1-.09-.21-.14-.09z" fill="#191916"/><path d="M127.02 135.27a256.62 256.62 0 0 0 24.82-11.24c6.66-3.32 16.84-6.19 21.41-12.43.73-1-.32-3.46-1.41-2-2.5 3.29-7.95 5.61-11.56 7.57-3.93 2.13-8 4.05-11.85 6.23-6.88 3.85-15.83 6.11-21.44 11.8v.11z" fill="#191916"/><path d="M126.58 138.82c2.62-2.22 6.12-3 9.15-4.54 4.12-2 8.12-4.27 12.12-6.52 7.07-4 15.53-6.7 22-11.63.42-.32.38-1.9-.35-1.74-3.79.85-7.24 3.34-10.67 5.09-4.38 2.23-8.76 4.44-13 7-3.81 2.29-7.56 4.65-11.44 6.81-3 1.67-5.8 2.43-7.92 5.28-.07.09 0 .39.15.27zM161.22 89.11c-1.1-.31-1.2 4.12-1 4.68.1.26.45.42.61.1a4.36 4.36 0 0 0 .11-2.14c0-.38-.3-2.44.24-2.55a.07.07 0 0 0 0-.12z" fill="#191916"/><path d="M160.34 90.81c-3.21-2.82-6.5-.59-9.57 1.34a1 1 0 0 0-.09 1.51c2.73 2 7 2 9.37-.68.54-.62-.06-2.48-.7-1.7a6.23 6.23 0 0 1-8.16.94l-.09 1.51c2.64-1.78 5.88-4.16 9.16-2.59.15.07.16-.25.08-.32z" fill="#191916"/><path d="M159.94 93.83c-1.11-.41-1.25 1.93-1.42 2.6-.8 3.14-4.52 4.16-5.31 7.47-1.08 4.55 3.5 11.06 6.91 5.09h-1.06c2.41 2.83 5.87 2.25 7.13-1.27a1.41 1.41 0 0 0-.78-1.93c-2.19-.39-2.28-3.88.14-3.17 1.16.34 1.3-1.46 1-2.16a7.91 7.91 0 0 0-1.54-2.48c-1-1.08-1-1.89-1.16-3.26a3 3 0 0 0-3-2.8c-2.94-.1-4.35 5.81-3.67 7.88a.6.6 0 0 0 1 .35c1.39-1.21.6-4.66 2.79-5.12 1.26-.27 1.3 2.62 1.56 3.42.44 1.37 1.92 2.17 2.49 3.51l1-2.16c-5.18-1.34-5.45 7.86-.52 8.58l-.78-1.93c-.83 2.53-3.16 2.49-4.76.74a.58.58 0 0 0-.9.2c-1.52 2.87-3.95 2.15-4.75-.78s1.66-4.8 3.42-6.53a4.45 4.45 0 0 0 1.21-2.33 15 15 0 0 0 .17-1.57s.49-2.63.77-2.12c.12.22.29-.16.11-.22z" fill="#191916"/><path d="M43.94 28.43a6.66 6.66 0 0 1 1.3-.86 8.89 8.89 0 0 1-3.67-5.83c-1.3 1.73-3.24 2.38-5 3l-.22-.22c-.43 3.67 1.73 5.62 3.89 8.43z" fill="#ea4e3e"/><path d="M43.94 28.55q.62-.44 1.28-.82a.2.2 0 0 0 0-.3 9.12 9.12 0 0 1-3.54-5.77c0-.11-.17-.31-.29-.17-.48.56-4.1 3.65-5 2.77-.14-.15-.31.07-.32.21-.27 3.46 1.57 6.41 4 8.75a.14.14 0 0 0 .21 0 58.1 58.1 0 0 1 3.56-4.7v-.06l-3.16 3.67c-.19.22-.37.44-.56.64.29-.31-1.25-1.9-1.44-2.14a14 14 0 0 1-1.62-2.48 14.19 14.19 0 0 1-.65-3 .16.16 0 0 0 .17 0 18.55 18.55 0 0 0 3.48-1.64c1-.63 1-1.49 1.57-.17a10.58 10.58 0 0 0 1.92 3.06c.9 1 1.5 1.08.26 2-.03-.02.04.23.13.15z" fill="#181716"/></svg><svg data-name="Слой 1" viewBox="-5 -5 138.85 175.87" width="138.85" height="175.87" id="advantages-img3" x="339" y="284"><title>advantages-img3</title><path d="M119.82 44.48c-4.14-1.67-9.48-1-13.83-1-6.44 0-31.15-6.85-40.57-7.19C73.69 16.42 50.98-4.2 31.28.76c-8.42 2.12-20 7.93-22.61 16.86-1.55 5.3-.53 12.42 1.69 17.34 3 6.69 7.7 11.75 2.75 18.9-3 4.38-7.32 7.44-10 12.17A28.24 28.24 0 0 0-.01 80.96c.23 5.28 2.56 9.83 6 13.72 2 2.26 4 4.2 5.35 6.94 2 4 .78 9-.16 13.16-1.68 7.33-3.73 14.47-5 21.9-.79 4.67-2.94 10.08-1.86 14.82.89 3.92 6.21 4.1 9.3 4a41.11 41.11 0 0 0 7.19-1.1c5.69-1.15 10.66-.74 16.35.16 13.66 2.16 27.4 3.11 40.89 6.32 6.75 1.61 13.49 3.22 20.36 4.24 3.65.54 7.48 1.12 11.14.39 7.61-1.52 8.24-15.17 9.23-20.85 2.42-13.93 4.31-27.94 6.37-41.92 1.81-12.25 3-24.46 3.6-36.83.43-8.23-.18-17.91-8.93-21.43z" fill="#fff"/><path d="M51.57 78.75a7.43 7.43 0 0 0 3.45-.12.91.91 0 0 0 .79-.92.9.9 0 0 0-1.14-.4 5.13 5.13 0 0 1-2.43 0 1.26 1.26 0 0 0-1.26.59.6.6 0 0 0 .59.81z" fill="#ea4e3e"/><path d="M48.52 95.8c-1.17 9.2 2.23 17.9 2.07 27.07 0 .89 1.93.52 1.94-.21.16-9.16-3.24-17.88-2.07-27.07.11-.86-1.85-.53-1.94.21zM19.57 73.87c-1.63 1.51-2.84 3.27-1.87 5.5s3.37 3.67 5.1 5.14c.53.45 2.33-.3 1.79-.76-3.05-2.61-7.68-5.62-3.47-9.55.83-.77-1.08-.78-1.55-.34z" fill="#181716"/><path d="M11.26 65.32c-2.8 5.15-6.38 12-3.71 17.91 2 4.42 8.39 5.19 12.23 7.13.84.43 2.21-.8 1.1-1.36-4.13-2.09-9.73-2.62-11.86-7.29-2.23-4.91 1.79-11.9 4.09-16.13.54-1-1.43-1.05-1.86-.26zM23.1 22.13c3.43 4.45 10.28 4.46 15.4 4.56 7.37.14 13.32-3.22 19.92-6.08 1.17-.51-.66-.46-1.12-.26-6.18 2.68-11.64 5.66-18.66 5.53-4.56-.08-10.58-.33-13.61-4.26-.36-.47-2.08.32-1.93.52z" fill="#181716"/><path d="M59.05 19.98c-1.49-10.05-19.32-15-27.87-13.12a21 21 0 0 0-14.85 12.18c-2.57 5.64-1.81 14.06 2.88 18.38.57.52 2.39-.24 1.78-.8-10.91-10 .19-29.08 13.5-28.79 7.52.17 21.33 3.86 22.63 12.67.11.77 2.05.31 1.93-.52z" fill="#181716"/><path d="M19.44 23.44a6.82 6.82 0 0 0 4.73 3c.84.13 2-1 .71-1.24a5.57 5.57 0 0 1-3.66-2.58c-.43-.62-2.29.06-1.78.8z" fill="#181716"/><path d="M18.52 25.56a11.87 11.87 0 0 0 4.75 3.48c.81.32 2.26-.84 1.12-1.29a10.3 10.3 0 0 1-4.1-3c-.56-.66-2.4.1-1.77.85z" fill="#181716"/><path d="M18.04 27.64a11.09 11.09 0 0 0 4.33 2.68 1.43 1.43 0 0 0 1.38-.14c.26-.18.58-.7.13-.89-1.38-.6-3.08-1.25-4.06-2.45-.5-.61-2.35.11-1.78.81zM17.09 30.12c1.4.74 2.46 2 4 2.56a2 2 0 0 0 1.24-.13s.89-.4.59-.51c-1.5-.55-2.57-1.82-4-2.56a1.82 1.82 0 0 0-1.24.13c-.06 0-.88.36-.59.51zM19.75 36.65a4 4 0 0 0-1.43.28 1.06 1.06 0 0 0-.82.66c-.28 3.57 4.35 10.1 8.35 7.71l-1.58-.09c.88 4 5.42 6.35 9 7.54.7.23 2.28-.79 1.15-1.16-3.29-1.09-7.43-3.22-8.23-6.9-.14-.64-1.25-.29-1.58-.09-1 .6-3.06-2.28-3.52-2.9a7 7 0 0 1-1.65-4.3l-.82.66.9-.18c1-.05 1.55-1.28.22-1.22zM51.99 24.46c.57 6.1 1.81 12 .48 18.09a22.4 22.4 0 0 1-2.07 5.4c-1.94 3.81-6.38 4.21-10.08 4.8-.77.12-1.72.92-.36.7 5.51-.87 9.12-.71 12.35-5.84 4.46-7.1 2.34-15.93 1.62-23.66 0-.36-2 0-1.93.52z" fill="#181716"/><path d="M46.17 30.38c-.43 1.55-.8 3.8 1.11 4.46a1.7 1.7 0 0 0 1.74-.56 4 4 0 0 0-.52-3.69c-.3-.43-2.17.18-1.81.7a3.63 3.63 0 0 1 .41 3.3l1.74-.56c-1.58-.54-1.09-2.72-.76-3.93.15-.53-1.76-.25-1.92.3zM36.42 31.08c-1 1.93-.69 4.38 1.76 4.79a1.23 1.23 0 0 0 1.26-.6 4.73 4.73 0 0 0-.51-4.27c-.51-.73-2.34 0-1.77.86a3.62 3.62 0 0 1 .43 3.18l1.26-.6c-1.5-.25-1.07-2.21-.57-3.13s-1.44-1-1.85-.23zM42.2 34.48c.35.92.76 1.81 1 2.76a4.23 4.23 0 0 1 .21 1.44c0 .57-.12.62-.61.6-.72 0-2.06 1-.76 1.08s3.21-.43 3.31-2.1c.09-1.48-.75-2.95-1.26-4.29-.26-.67-2.16-.09-1.93.52zM34.45 44.74c4.83 1.16 10 3.54 14.26-.26 1-.87-.55-1.59-1.29-.93-3.57 3.18-8.31.7-12.31-.26-1-.23-1.93 1.14-.66 1.45zM28.45 51.38v2.8c0 .92 1.95.56 1.95-.19v-2.8c0-.92-1.95-.56-1.95.19zM44.76 52.51v2.1c0 .86 1.94.47 1.94-.22v-2.1c0-.86-1.94-.47-1.94.22z" fill="#181716"/><path d="M28.17 54.45c4.56 2 9.38 3.79 14.4 2.53 5.5-1.38 10.21.88 14.1 4.86.4.41 2.21-.29 1.81-.7a23.39 23.39 0 0 0-9.66-5.84 6 6 0 0 0-3 0c-6.09 1.53-10.6.74-16.13-1.66-.48-.21-2.26.53-1.56.83z" fill="#ea4e3e"/><path d="M29.57 53.62c-5.19-.46-11 3.45-14.78 6.68-1.17 1-4.46 3.44-3.36 5.45 2 3.76 6.7 5.85 9.21 9.42.45.65 2.31-.06 1.78-.82a25.53 25.53 0 0 0-4.63-5c-2.85-2.37-6.14-4-2.45-7.66 3.14-3.1 9-7.22 13.54-6.82.87.08 2-1.17.7-1.29z" fill="#ea4e3e"/><path d="M15.18 89.14c-1 1.75-1.29 3.64.31 5.11s3.89 1.67 5.83 1.7c.59 0 2.1-.86.81-.88a7.82 7.82 0 0 1-4.83-1.51c-1.58-1.27-1.12-3.21-.21-4.73.2-.34-1.61-.2-1.91.31z" fill="#181716"/><path d="M21.45 94.87c-.16 7.14-1.92 14-3 21.07-1.22 7.76-1.61 15.65-2.57 23.44a.61.61 0 0 0 .43.62l10.49 3a1.17 1.17 0 0 0 1.53-.75c2.7-11 5.45-22.15 10.43-32.43.5-1-1.46-1.09-1.86-.27-5 10.4-7.81 21.65-10.54 32.82l1.53-.75-6.62-1.91-3.47-1s.81-6.43.91-7.37c.64-6.38 1.17-12.76 2.28-19.08 1-5.85 2.31-11.58 2.44-17.54 0-1.06-1.94-.81-2 .12z" fill="#181716"/><path d="M17.05 140.19c-.78 3.07-2.48 5.79-3.26 8.86-.1.41 1.78.14 1.91-.34.78-3.07 2.48-5.79 3.26-8.86.1-.41-1.78-.14-1.91.34z" fill="#181716"/><path d="M14.31 149.47c5.22-.51 9.54-3.95 13.41-7.21.38-.32-1.4-.11-1.74.18-3 2.56-6.7 5.9-10.82 6.31-.46 0-2.12.84-.85.72zM49.57 139.69a30 30 0 0 1-6.58 1.71q-.14-1.65-.38-3.28a78.45 78.45 0 0 0-1.74-8.49c-1.24-5.07-2.88-10-4.41-15-.13-.43-2.05.12-1.93.52 2.62 8.52 6.52 18 6.52 27 0 .17.47.12.54.12a31.92 31.92 0 0 0 8.63-2.16c1.3-.46.06-.67-.66-.41z" fill="#181716"/><path d="M41.52 142.29c-.79 4.45 4.42 4.14 7.38 4.64a2.37 2.37 0 0 0 1.35-.24c.14-.06.68-.43.23-.51-2.7-.45-7.8-.09-7.06-4.22.08-.47-1.82-.14-1.91.34zM84.9 55.02c.93-2.82 1.48-11.82 5.94-11.35 6.26.66 5.69 8.76 4.74 13.11-.08.37 1.8.09 1.9-.36 1.2-5.53.88-14.31-7-13.47-6 .64-6 8.05-7.46 12.43-.1.31 1.75.11 1.9-.36z" fill="#181716"/><path d="M88.57 48.6a1.72 1.72 0 0 0 1.17 2.89 3.87 3.87 0 0 0 4.37-2.46c.5-1.74-.2-3.6-2.2-3.51a3.73 3.73 0 0 0-3.59 3.88c0 .34 1.92.07 1.93-.52a3.92 3.92 0 0 1 .57-2.06 1.87 1.87 0 0 1 .55-.55s-.47 0-.12.09c1.26.3 1.17 2.24.91 3.15a2 2 0 0 1-.85 1.22c.07 0 .16 0 0 0a1.43 1.43 0 0 1-.52-.15c-1-.48-.8-1.52-.26-2.28.22-.3-.72-.23-.78-.22a1.74 1.74 0 0 0-1.13.54zM82.68 56.26a58.65 58.65 0 0 0 14 1.44c.84 0 2-1.27.7-1.28a56.79 56.79 0 0 1-13.53-1.36c-.74-.18-2.29.92-1.14 1.2z" fill="#181716"/><path d="M96.11 57.23c1.74 2.45 3.93 4.72 5.05 7.55.31.78 2.22.21 1.93-.52-1.16-2.94-3.39-5.29-5.2-7.83-.44-.62-2.3.07-1.78.8zM82.28 55.87a39.92 39.92 0 0 0-6.89 5.46c-.4.44 1.44.19 1.75-.15a38.34 38.34 0 0 1 6.62-5.26c.8-.55-1.14-.29-1.48-.06z" fill="#181716"/><path d="M75.93 62.23c8.36.48 16.26 3.87 24.72 2.81 1.1-.14 1.46-1.65.15-1.49-8.28 1-16-2.32-24.22-2.79-1-.06-2 1.4-.65 1.47zM83.57 50.62c-3.23 1.05-4.59 4.64-5.24 7.69-.19.91 1.78.64 2-.17.43-2 1.36-5.55 3.62-6.29 1.15-.38.84-1.62-.33-1.24zM96.69 53.09c2.41 1.44 3 4.27 2.84 6.89-.05.76 1.89.37 1.93-.25.2-3-.51-5.94-3.22-7.55-.52-.31-2.31.46-1.54.91z" fill="#181716"/><path d="M99.42 60.86c2 .14 15.24 1.09 15 3l-.85 7.82-3.41 31.19-5.5 50.51 1.56-.64c-11.1-2.09-22.5-3.1-33.7-4.56l-15.43-2c-2.16-.28-1.23-.4-1.12-2.63.17-3.26.38-6.53.6-9.79 1.13-16.9 2.55-33.79 4.08-50.66.59-6.53 1.21-13.06 1.93-19.58.21-1.9.43-3.79.71-5.68.05-.36 12.19 1.27 14.22 1.34.72 0 2.06-1 .76-1.08-5.21-.17-10.54-1.89-15.75-1a1.3 1.3 0 0 0-1.1.65c-2.14 13.11-2.81 26.57-3.94 39.79-1.39 16.33-2.83 32.68-3.57 49.05a.37.37 0 0 0 .37.39c16.86 2.16 34 3.61 50.75 6.76.4.08 1.5-.09 1.56-.64l9.87-90.27a.3.3 0 0 0-.19-.34c-5-1.91-10.75-2.4-16.09-2.79-.72-.05-2.06 1-.76 1.08z" fill="#181716"/><path d="M84.33 48.84c-7.65.13-15.23-1.3-22.87-1.35-3.33 0-3.69.82-3.95 3.78q-1.45 16.76-2.95 33.52-2.91 33-5.84 65.93a.37.37 0 0 0 .37.39c10.65 1.87 21.49 3 32.21 4.38 9.22 1.21 18.47 2.69 27.73 3.57a1.4 1.4 0 0 0 1.34-.66q3.85-32.08 7.61-64.17c1.35-11.59 2.73-23.17 3.95-34.77.32-3 1.14-4.37-2.15-5.27-7.16-2-14.72-2.31-22-3.92-.59-.13-2.28.78-1.19 1 6.75 1.5 13.66 2.16 20.43 3.56 2.22.46 3.38.45 3.16 2.73-.17 1.78-.37 3.56-.56 5.34-1.29 11.9-2.69 23.78-4.08 35.67q-3.52 30-7.13 60l1.34-.66c-12.06-1.14-25.18-3.24-37.55-4.87-6.56-.87-13.13-1.72-19.68-2.68-1.38-.2-1.93.15-1.87-.46l.37-4.17q3.9-44 7.77-87.91c.06-.66.46-9.25.85-9.3 7.69-1.11 16.1 1.44 23.88 1.31.7 0 2.06-1.09.76-1.07z" fill="#181716"/><path d="M67.76 45.26c-.37-2.5-2.25-1.25-2 .75.13 1.25 1 4.13 2.25 4 .5-1.62 0-3.25-.12-5z" fill="#fff"/><path d="M68.24 45.13c-.15-.8-.56-1.8-1.56-1.59a2 2 0 0 0-1.41 1.8 6.43 6.43 0 0 0 .71 3.32 2.31 2.31 0 0 0 2 1.71.56.56 0 0 0 .53-.39c.45-1.7 0-3.39-.13-5.09 0-.44-.82-.17-.94.07l-.12.25c-.25.49.73.5.92.11l.13-.25-.94.07c.14 1.65.55 3.27.12 4.91l.53-.39c-1 0-1.52-2.32-1.69-3a3.28 3.28 0 0 1 0-1.87c.39-1.09.8.1.9.64s1.03.16.95-.3z" fill="#181716"/><path d="M68.51 44.38c.63-3.5 2.62 0 2.62 1.75 0 1-.62 5.63-1.87 2.63z" fill="#fff"/><path d="M68.99 44.32a7.06 7.06 0 0 1 .19-.75c.09-.28.32-.32 0-.41a1.55 1.55 0 0 1 .63.63 5 5 0 0 1 .78 2.15 7.13 7.13 0 0 1-.54 3.31 1.47 1.47 0 0 1-.18.31c.24-.34.52.11.22-.22a1.79 1.79 0 0 1-.39-.74l-.21-1.25-.53-3.09c-.05-.31-1-.08-1 .26l.72 4.18c.24 1.4 1.69 1.79 2.31.44a6.38 6.38 0 0 0 .08-5 2.09 2.09 0 0 0-1.54-1.48c-1.05 0-1.39 1-1.56 1.82-.02.32.96.15 1.02-.16z" fill="#181716"/><path d="M71.63 43.88c2.63-3.5 2.38 7 0 5.13v-5.12z" fill="#fff"/><path d="M72.07 43.86c.09-.12.18-.23.28-.34s.25-.06 0-.13a.69.69 0 0 1 .32.36 3.65 3.65 0 0 1 .32 1.36 7.24 7.24 0 0 1-.42 3.37 1.82 1.82 0 0 1-.33.54c-.17.18.35 0 .13 0a.87.87 0 0 1-.25-.13v-5.11c0-.2-1-.05-1 .26v5c0 .45.9.42 1.18.36a1.73 1.73 0 0 0 1.2-1.08 7 7 0 0 0 .23-4.56c-.44-1.4-1.91-.71-2.57.14-.19.28.76.16.91-.04z" fill="#181716"/><path d="M74.26 44.26c2.12-1.37 2.37 4.75-.12 4.88z" fill="#fff"/><path d="M74.47 44.56c.82-.48 1 1.2 1 1.69 0 .81-.23 2.42-1.27 2.52l.45.34q.06-2.44.13-4.87c0-.52-1-.39-1 .07l-.12 4.88a.37.37 0 0 0 .45.34c1.73-.17 2.34-2 2.32-3.48 0-1.35-.83-3-2.38-2.06-.57.3-.06.85.42.57zM60.86 47.67a1.17 1.17 0 0 1 .89-1.44 1.34 1.34 0 0 1 1.16 1.45c0 .46 1 .28 1-.1a1.89 1.89 0 0 0-2.09-2 2 2 0 0 0-1.9 2.32c0 .38 1 .16 1-.26zM74.34 75.46c-1.77-.45-3.59-.53-5.37-.87a1.41 1.41 0 0 0-1.55.66c-.8 2.69-.54 5.49-.87 8.25a.4.4 0 0 0 .38.43c2.06.44 4.19.31 6.25.75.41.09 1.51-.08 1.55-.66.12-1.42.26-2.84.5-4.25.13-.78-1.82-.46-1.94.23-.24 1.41-.38 2.83-.5 4.25l1.55-.66c-2.06-.44-4.19-.31-6.25-.75l.38.43c.34-2.76.07-5.56.88-8.25l-1.55.66c1.79.34 3.61.43 5.37.88.64.16 2.28-.8 1.17-1.08z" fill="#181716"/><path d="M68.1 79.18a7.41 7.41 0 0 1 2.25 2.18c.34.45 1.52-.08 1.79-.38q4.14-4.49 8.62-8.63c.79-.73-1.12-.57-1.52-.21q-4.62 4.26-8.88 8.87l1.79-.38a8 8 0 0 0-2.5-2.32c-.47-.27-2.27.46-1.56.86z" fill="#ea4e3e"/><path d="M71.87 94.19c-1.6-.31-3.17-.9-4.81-.51s-1.44 2.43-1.52 3.78a15.37 15.37 0 0 1-.28 2.55c-.11.5-.41 1.37 0 1.8 1.41 1.36 4.46.67 6.18.64.29 0 1.31-.18 1.36-.6.17-1.51.57-3 .63-4.48 0-.4-1.91-.12-1.93.52-.06 1.45-.46 2.84-.62 4.27l1.36-.6c-1.53 0-3.66.54-5-.31-.67-.41.11-2.35.15-3a18.19 18.19 0 0 1 .41-4l-.6.17a5.85 5.85 0 0 1 .73.07c.42.05.82.15 1.23.25s1 .23 1.47.33 2.25-.69 1.23-.88z" fill="#181716"/><path d="M67.24 98.38a15.1 15.1 0 0 1 1.75 1.75 1.27 1.27 0 0 0 1.86-.5c1-3.87 5.2-6.3 8.27-8.42 1.08-.75-.55-1.17-1.23-.7-3.41 2.36-7.87 5-9 9.33l1.86-.5A15.06 15.06 0 0 0 69 97.59c-.58-.49-2.39.28-1.78.8z" fill="#ea4e3e"/><path d="M71.57 111.3c-1.31-.51-4.94-1.83-6.1-.28-1.5 2-1.06 5.19-.89 7.5a.43.43 0 0 0 .37.25c1.86.35 3.75.51 5.62.75.43.05 1.46-.08 1.56-.63a20.48 20.48 0 0 0 .25-3.76c0-.56-1.93-.21-1.93.52a19 19 0 0 1-.25 3.49l1.56-.63c-1.67-.21-3.34-.37-5-.63-.65-.11-.39-3.21-.37-3.64a9 9 0 0 1 .73-3q-1.14.21-.33.24.46 0 .91.11a10.54 10.54 0 0 1 2.32.62c.56.22 2.32-.61 1.54-.91z" fill="#181716"/><path d="M66.36 115.28l1.12 1.88c.33.55 1.57.1 1.8-.34 1.77-3.38 5.33-5.38 8-8 .84-.82-1.06-.94-1.58-.43-2.77 2.7-6.4 4.76-8.25 8.28l1.8-.34-1.12-1.87c-.38-.63-2.25 0-1.78.8z" fill="#ea4e3e"/><path d="M70.01 127.62c-1.6-.69-4.72-2.25-6.36-.8-.68.6-.67 1.88-.74 2.7a55 55 0 0 0 .25 5.59.56.56 0 0 0 .62.53c1.61 0 3.87.78 5.39 0 1.79-.87.6-3.5 1.06-5 .24-.8-1.72-.55-1.94.19a5.77 5.77 0 0 0-.11 1.89v1.15a5.43 5.43 0 0 1 0 .67q-.22.55.32.08a27.57 27.57 0 0 1-4-.25l.62.53c0-2.21-.45-4.42-.12-6.62 0-.31.1-.61.17-.92-.08.35-.88.16.1.23a10.26 10.26 0 0 1 3.25 1c.66.29 2.4-.64 1.51-1z" fill="#181716"/><path d="M78.57 76.98a47.85 47.85 0 0 1-.89 8.53c0 .26.92.08 1-.16a48.4 48.4 0 0 0 .9-8.62.81.81 0 0 0-1 .26zM79.04 76.52c1.19.28 2.62 0 3.67.72.23.16 1.06-.23.91-.34-1.11-.74-2.55-.48-3.79-.77-.23-.06-1.08.32-.79.39zM82.09 80.98c-2.51.43-1.53 4.61.94 3.74a2 2 0 0 0 1.23-2.91 1.47 1.47 0 0 0-2.6 0c-.24.48.73.46.92.1s.1-.25.33-.12a1.48 1.48 0 0 1 .6.74 1.21 1.21 0 0 1-.93 1.65c-.57.07-.88-.73-1-1.16s-.08-1.26.38-1.34a.57.57 0 0 0 .53-.38.35.35 0 0 0-.44-.3zM85.57 81.44a12.82 12.82 0 0 0 .23 4c.14.43 1.1.17 1-.26a12.2 12.2 0 0 1-.23-3.8c0-.5-1-.34-1 .08z" fill="#ea4e3e"/><path d="M84.49 81.25c1.06.2 2.25-.16 3.24.34.42.22 1.1-.4.55-.68-1.08-.55-2.32-.18-3.47-.4-.5-.1-1 .61-.32.74z" fill="#ea4e3e"/><path d="M89.57 81.17a1.5 1.5 0 0 0-1.58 1.48 2 2 0 0 0 .89 2 2.32 2.32 0 0 0 2.72-1.38c.55-1.39-.87-2.21-2.08-2a.6.6 0 0 0-.54.36c0 .22.27.28.43.26a1.07 1.07 0 0 1 1.28 1.34c-.11.46-.76 1.19-1.26.84a1.71 1.71 0 0 1-.47-1.34 1.79 1.79 0 0 1 .14-.7.74.74 0 0 1 .14-.21c.08-.08 0 0 0 0a.71.71 0 0 0 .63-.28c.12-.2-.1-.33-.28-.34z" fill="#ea4e3e"/><path d="M92 81.75a8.38 8.38 0 0 0 0 3.58c.09.38 1.06.13 1-.26a8 8 0 0 1 0-3.43c.09-.42-.89-.27-1 .1z" fill="#ea4e3e"/><path d="M93.19 82.02a1.65 1.65 0 0 1 0-.45c.06-.25-.67 0-.38.13a1.88 1.88 0 0 1 .54.62 2 2 0 0 1 .29.74.58.58 0 0 1 0 .21c.1-.11.32-.08.14-.11a2.15 2.15 0 0 1-.3-.09v.42a.94.94 0 0 1 1.14-.27 1.37 1.37 0 0 1 .42 1.09 1.38 1.38 0 0 1-.43 1 .47.47 0 0 1-.39 0 2 2 0 0 1-.44-.15q-.18-.15-.34.1a.73.73 0 0 0 .26-.19c.4-.41-.55-.41-.78-.17.14-.15-.11.08-.13.09a.46.46 0 0 0-.13.2c-.07.31.24.4.46.5a2.32 2.32 0 0 0 1.34.18 1.81 1.81 0 0 0 1.5-1.43 1.71 1.71 0 0 0-.58-1.75c-.79-.54-1.85-.06-2.52.43-.2.14-.26.33 0 .42a1.4 1.4 0 0 0 1.64-.31 1.43 1.43 0 0 0-.29-1.37 1.49 1.49 0 0 0-1.13-.84.94.94 0 0 0-.93 1.18c0 .33 1 .13 1-.26z" fill="#ea4e3e"/><path d="M97.57 81.97c-2.07.66-1.29 4.24.92 3.84a2.38 2.38 0 0 0 1.77-3.05 1.82 1.82 0 0 0-2.92-.9c-.51.42.27.72.64.42.65-.54 1.23.39 1.39 1a1.54 1.54 0 0 1-1.09 1.93c-.89.09-1.36-2.29-.53-2.56.58-.19.42-.83-.17-.64zM77.95 95.6a47.85 47.85 0 0 1-.89 8.53c0 .26.92.08 1-.16a48.4 48.4 0 0 0 .9-8.62.81.81 0 0 0-1 .26zM78.41 95.14c1.19.28 2.62 0 3.67.72.23.16 1.06-.23.91-.34-1.11-.74-2.55-.48-3.79-.77-.23-.06-1.08.32-.79.39zM81.46 99.6c-2.51.43-1.53 4.61.94 3.74a2 2 0 0 0 1.23-2.91 1.47 1.47 0 0 0-2.6 0c-.24.48.73.46.92.1s.1-.25.33-.12a1.48 1.48 0 0 1 .6.74 1.21 1.21 0 0 1-.93 1.65c-.57.07-.88-.73-1-1.16s-.08-1.26.38-1.34a.57.57 0 0 0 .53-.38.35.35 0 0 0-.44-.3zM84.95 100.06a12.82 12.82 0 0 0 .23 4c.14.43 1.1.17 1-.26a12.2 12.2 0 0 1-.22-3.79c0-.5-1-.34-1 .08z" fill="#ea4e3e"/><path d="M83.86 99.87c1.06.2 2.25-.16 3.24.34.42.22 1.1-.4.55-.68-1.08-.55-2.32-.18-3.47-.4-.5-.1-1 .61-.32.74z" fill="#ea4e3e"/><path d="M88.9 99.79a1.5 1.5 0 0 0-1.58 1.48 2 2 0 0 0 .89 2 2.32 2.32 0 0 0 2.72-1.38c.55-1.38-.87-2.21-2.08-2a.6.6 0 0 0-.54.36c0 .22.27.28.43.26a1.07 1.07 0 0 1 1.28 1.34c-.11.46-.76 1.19-1.26.84a1.71 1.71 0 0 1-.47-1.34 1.78 1.78 0 0 1 .14-.7.73.73 0 0 1 .14-.27c.08-.08 0 0 0 0a.71.71 0 0 0 .63-.28c.12-.2-.1-.33-.28-.34zM91.37 100.38a8.38 8.38 0 0 0 0 3.58c.09.38 1.06.13 1-.26a8 8 0 0 1 0-3.43c.09-.42-.89-.27-1 .1z" fill="#ea4e3e"/><path d="M92.57 100.64a1.65 1.65 0 0 1 0-.45c.06-.25-.67 0-.38.13a1.88 1.88 0 0 1 .54.62 2 2 0 0 1 .29.74.58.58 0 0 1 0 .21c.1-.11.32-.08.14-.11a2.15 2.15 0 0 1-.3-.09v.42a.94.94 0 0 1 1.14-.27 1.37 1.37 0 0 1 .42 1.09 1.38 1.38 0 0 1-.43 1 .47.47 0 0 1-.39 0 2 2 0 0 1-.44-.15q-.18-.15-.34.1a.73.73 0 0 0 .26-.19c.4-.41-.55-.41-.78-.17.14-.15-.11.08-.13.09a.46.46 0 0 0-.13.2c-.07.31.24.4.46.5a2.32 2.32 0 0 0 1.34.18 1.81 1.81 0 0 0 1.5-1.43 1.71 1.71 0 0 0-.58-1.75c-.79-.54-1.85-.06-2.52.43-.2.14-.26.33 0 .42a1.4 1.4 0 0 0 1.64-.31 1.43 1.43 0 0 0-.29-1.37 1.49 1.49 0 0 0-1.13-.84.94.94 0 0 0-.93 1.18c0 .33 1 .13 1-.26z" fill="#ea4e3e"/><path d="M96.99 100.59c-2.07.66-1.29 4.24.92 3.84a2.38 2.38 0 0 0 1.76-3.05 1.82 1.82 0 0 0-2.92-.9c-.51.42.27.72.64.42.65-.54 1.23.39 1.39 1a1.54 1.54 0 0 1-1.09 1.93c-.89.09-1.36-2.29-.53-2.56.58-.19.42-.83-.17-.64zM75.85 111.86a47.85 47.85 0 0 1-.89 8.53c0 .26.92.08 1-.16a48.36 48.36 0 0 0 .9-8.62.81.81 0 0 0-1 .26zM76.31 111.38c1.19.28 2.62 0 3.67.72.23.16 1.06-.23.91-.34-1.11-.74-2.55-.48-3.79-.77-.23-.06-1.08.32-.79.39zM79.36 115.87c-2.51.43-1.53 4.61.94 3.74a2 2 0 0 0 1.23-2.91 1.47 1.47 0 0 0-2.6 0c-.24.48.74.46.92.1s.1-.25.33-.12a1.48 1.48 0 0 1 .6.74 1.21 1.21 0 0 1-.93 1.65c-.57.07-.88-.73-1-1.16s-.08-1.26.38-1.34a.57.57 0 0 0 .53-.38.35.35 0 0 0-.44-.3zM82.85 116.32a12.84 12.84 0 0 0 .23 4c.14.43 1.1.17 1-.26a12.2 12.2 0 0 1-.22-3.79c0-.5-1-.34-1 .08z" fill="#ea4e3e"/><path d="M81.76 116.13c1.06.2 2.26-.16 3.24.34.42.21 1.1-.4.55-.68-1.08-.55-2.32-.18-3.47-.4-.5-.1-1 .61-.33.74z" fill="#ea4e3e"/><path d="M86.8 116.05a1.5 1.5 0 0 0-1.58 1.48 2 2 0 0 0 .89 2 2.32 2.32 0 0 0 2.72-1.38c.55-1.38-.87-2.21-2.08-2a.6.6 0 0 0-.54.36c0 .22.27.28.43.26a1.07 1.07 0 0 1 1.28 1.34c-.11.46-.76 1.19-1.26.84a1.7 1.7 0 0 1-.47-1.34 1.79 1.79 0 0 1 .14-.7.74.74 0 0 1 .14-.21c.08-.08 0 0 0 0a.71.71 0 0 0 .63-.28c.12-.2-.1-.33-.28-.34zM89.27 116.63a8.38 8.38 0 0 0 0 3.58c.09.38 1.06.13 1-.26a8 8 0 0 1 0-3.43c.09-.41-.89-.27-1 .1z" fill="#ea4e3e"/><path d="M90.46 116.9a1.65 1.65 0 0 1 0-.45c.06-.25-.67 0-.38.13a1.89 1.89 0 0 1 .54.62 2 2 0 0 1 .29.74.58.58 0 0 1 0 .21c.1-.11.32-.08.14-.11a2.14 2.14 0 0 1-.3-.09v.43a.94.94 0 0 1 1.14-.27 1.37 1.37 0 0 1 .42 1.09 1.37 1.37 0 0 1-.43 1 .47.47 0 0 1-.39 0 2 2 0 0 1-.44-.15q-.18-.15-.34.1a.74.74 0 0 0 .26-.19c.4-.41-.55-.41-.78-.17.14-.15-.11.08-.13.09a.46.46 0 0 0-.13.2c-.07.31.24.4.46.5a2.32 2.32 0 0 0 1.34.18 1.81 1.81 0 0 0 1.5-1.43 1.71 1.71 0 0 0-.58-1.75c-.79-.54-1.85-.06-2.52.43-.2.14-.26.33 0 .42a1.4 1.4 0 0 0 1.64-.31 1.43 1.43 0 0 0-.29-1.37 1.49 1.49 0 0 0-1.13-.84.94.94 0 0 0-.93 1.18c0 .33 1 .13 1-.26z" fill="#ea4e3e"/><path d="M94.89 116.86c-2.07.66-1.29 4.24.92 3.84a2.38 2.38 0 0 0 1.77-3.05 1.82 1.82 0 0 0-2.92-.9c-.51.42.27.72.64.42.65-.54 1.23.39 1.39 1a1.54 1.54 0 0 1-1.09 1.93c-.89.09-1.36-2.29-.53-2.56.58-.19.42-.83-.17-.64zM50.57 70.14c-.48 6.32-.8 12.66-1.38 19q-.18 1.9-.42 3.79c-.53 4.5-4.51 5.12-8.34 5.11a41.22 41.22 0 0 1-9.41-1.54c-2.54-.62-5.06-1.37-7.59-2-.54-.14.54-4.08.69-5a49.49 49.49 0 0 0-.28-16.31c-.07-.4-2 0-1.93.52a53.69 53.69 0 0 1-.69 21.35c0 .19.18.22.33.22 4.54 0 9.71 2.6 14.27 3.3a24 24 0 0 0 10.54-.52c4.68-1.48 4-2.43 4.57-7.5.81-6.93 1.05-13.92 1.58-20.87 0-.27-1.89-.06-1.93.52z" fill="#ea4e3e"/></svg><svg data-name="Слой 1" viewBox="-5 -5 174.42 177.95" width="174.42" height="177.95" id="advantages-img4" x="478" y="460"><title>advantages-img4</title><path d="M125.12 42.2c-3 1.31-4.59-1.61-5.14-4.79-.7-4-5.87-46.62-49-35.59C45.65 8.3 42.8 37.29 48.48 50.13 30.41 45.24 6.48 60 7.54 80.31c.17 3.27-4.71 2.83-6.63 4.92-2.51 2.73.82 10.63 1.89 13.56 2.36 6.49 15.9 30.21 17.21 31.84 2.65 3.31 6.11 4.54 10.19 4.73-.91 4 1.24 8 3.5 11.26 3.1 4.47 22.71 21.17 25.26 21.31 2.89.16 5.51-.95 8.08-2.15 3.89-1.83 56.13-23.46 60.05-25.17 2.81-1.23 5.33-2.84 6.59-5.71 1.19-2.69.49-6.05.68-8.89.26-4 2.58-6.1 5.74-8s6.3-3.44 8.67-6.08c41.88-46.71-12.37-74.64-23.65-69.73z" fill="#fff" fill-rule="evenodd"/><path d="M14.65 85.7c-1.46 2.73-5.77 6-4.38 10.27.64 1.95 17.11 33.57 19.15 34.42 2.72 1.36 5-3.19 7-4.38" fill="#fff" fill-rule="evenodd"/><path d="M13.78 85.19c-1.83 3.15-4.82 5.53-4.77 9.46a10.39 10.39 0 0 0 1.52 4.21c2.49 5.05 5.14 10 7.81 15s5.36 10 8.44 14.79c.58.9 1.3 2.3 2.38 2.7 3.54 1.32 5.35-2.84 7.78-4.48 1.06-.72.06-2.45-1-1.73-1.28.87-4.8 5.66-6.18 4.22a21 21 0 0 1-2.48-3.7c-2.73-4.48-5.22-9.12-7.71-13.74-2.36-4.39-4.67-8.8-6.91-13.25-.46-.92-1.08-2.09-1.4-2.91-1.41-3.61 2.64-6.78 4.25-9.56a1 1 0 0 0-1.73-1z" fill="#181716"/><path d="M36.04 126.37c0 3.57-.31 3-.48 6.54-.34 4.59-1.11 5.66 2.86 8.77 4.24 3.32 20.06 16.66 23.29 20.23" fill="#fff" fill-rule="evenodd"/><path d="M35.04 126.37c0 2.42-.34 4.82-.54 7.23-.14 1.74-.56 3.65.17 5.32 1.32 3 5.23 5.21 7.71 7.27 6.3 5.23 13.07 10.39 18.62 16.42a1 1 0 0 0 1.41-1.41c-5.2-5.65-11.51-10.48-17.39-15.39-2.57-2.15-5.53-4.14-7.83-6.58-1.43-1.51-.87-3.77-.7-5.62.22-2.4.52-4.82.54-7.23a1 1 0 0 0-2 0z" fill="#181716"/><path d="M36.44 126.01c4.52 3.35 22 17.92 26.3 20.94" fill="#fff" fill-rule="evenodd"/><path d="M35.94 126.87c9 6.7 17.15 14.48 26.3 20.94 1.06.75 2.05-1 1-1.73-9.15-6.46-17.33-14.24-26.3-20.94-1-.77-2 1-1 1.73z" fill="#181716"/><path d="M62.73 146.94c.17 4.76-.5 9.5-1 15" fill="#fff" fill-rule="evenodd"/><path d="M61.73 146.94a122.65 122.65 0 0 1-1 15c-.12 1.28 1.88 1.27 2 0a122.65 122.65 0 0 0 1-15 1 1 0 0 0-2 0z" fill="#181716"/><path d="M63.58 146.94c16.32-6.29 32.47-12.58 48.63-19 3.06-1.36 6-2.55 8.84-3.74 1.19-.51 4.76-1.36 5.1-2.38.85-2-2.38-4.08-3.74-4.93-3.74-2.55-18.63-11.26-23-13.77" fill="#fff" fill-rule="evenodd"/><path d="M63.85 147.91q17-6.56 34-13.23c5.24-2.06 10.55-4 15.7-6.28 2.57-1.14 5.17-2.2 7.77-3.27 1.51-.62 3.11-1 4.57-1.75 5.76-3-5.87-9.25-8-10.55-5.93-3.61-11.93-7.13-17.93-10.61a1 1 0 0 0-1 1.73q7.49 4.35 14.92 8.8c2.34 1.4 4.68 2.81 7 4.28a32.18 32.18 0 0 1 3.09 2.13c2.79 2.28-.49 3.13-2.39 3.76-4.21 1.4-8.24 3.48-12.35 5.12q-7.77 3.1-15.55 6.16-15.14 6-30.33 11.79c-1.19.46-.67 2.39.53 1.93z" fill="#181716"/><path d="M80.59 68.91c3.74 3.74 18.87 34.17 18.87 34.17-3.18 1.11-56.17 20.48-63 22.93a.66.66 0 0 1-.74-.15c-3.4-7.48-21.66-36.44-21.05-40.17z" fill="#fff" fill-rule="evenodd"/><path d="M79.88 69.61c1.87 1.94 3.16 4.6 4.49 6.91 2.15 3.74 4.19 7.55 6.2 11.37q4.11 7.79 8 15.68l.6-1.47c-12.64 4.44-25.2 9.16-37.79 13.75l-21.06 7.67-2.91 1.06c-1.36.49-.93.6-1.61-.75-1.69-3.33-3.59-6.56-5.45-9.8-3.29-5.73-6.62-11.43-9.78-17.23-1.24-2.28-2.45-4.58-3.55-6.94-.54-1.16-1.54-2.84-1.4-4.18l-.73 1 65.82-16.76h.12a1 1 0 0 0-.53-1.93L14.48 84.75h-.12a1 1 0 0 0-.73 1c-.22 2 1.34 4.52 2.17 6.26 1.83 3.81 3.92 7.49 6 11.17 4.13 7.33 8.62 14.5 12.43 22 .5 1 1 2.36 2.46 1.84l2.34-.84 8.1-2.94 24-8.74c9.53-3.47 19-7 28.6-10.4a1 1 0 0 0 .6-1.47q-3.92-7.89-8-15.68c-2.08-4-4.2-7.9-6.43-11.77a34.82 34.82 0 0 0-4.57-6.92 1 1 0 0 0-1.45 1.35z" fill="#181716"/><path d="M126.15 121.78c0 3.15.6 10.93-1.1 13.14-2.55 3.06-52.61 24.33-63.34 27" fill="#fff" fill-rule="evenodd"/><path d="M125.15 121.78c0 2.09.11 4.17.1 6.26 0 1.67.26 4.87-1 6.22-.92 1-2.7 1.69-3.92 2.32-6.13 3.18-12.48 5.93-18.81 8.69q-11.78 5.13-23.73 9.84c-5.36 2.11-10.8 4.4-16.39 5.81a1 1 0 0 0 .53 1.93c5.93-1.5 11.68-4 17.35-6.19 8.14-3.21 16.22-6.6 24.25-10.1 6.34-2.77 12.73-5.54 18.85-8.8 1.3-.69 2.86-1.39 3.69-2.66 1-1.56 1-4 1.1-5.77.12-2.52-.05-5-.07-7.57a1 1 0 0 0-2 0z" fill="#181716"/><path d="M99.46 103.08c-.34 4.93-.51 9-.51 13.94" fill="#fff" fill-rule="evenodd"/><path d="M98.46 103.08c-.31 4.64-.5 9.29-.51 13.94a1 1 0 0 0 2 0c0-4.66.2-9.3.51-13.94.09-1.29-1.91-1.28-2 0z" fill="#181716"/><path d="M48.49 135.17c8.34-2.38 49.1-18.08 50-18.38" fill="#fff" fill-rule="evenodd"/><path d="M48.76 136.13c17-4.93 33.25-12.57 50-18.38 1.21-.42.69-2.35-.53-1.93-16.74 5.81-32.95 13.45-50 18.38a1 1 0 0 0 .53 1.93z" fill="#181716"/><path d="M98.48 116.79c3.74 1.7 13.36 8.22 17.26 9.58" fill="#fff" fill-rule="evenodd"/><path d="M97.94 117.66c6 2.83 11.24 7.36 17.5 9.68 1.21.45 1.73-1.48.53-1.93-6.08-2.25-11.17-6.73-17-9.48-1.16-.54-2.18 1.18-1 1.73z" fill="#181716"/><path d="M80.59 68.91c-2.21 2.55-3.17 5.88-5.54 9" fill="#fff" fill-rule="evenodd"/><path d="M79.88 68.2c-2.32 2.81-3.56 6.28-5.7 9.21-.76 1 1 2 1.73 1 2-2.79 3.19-6.15 5.39-8.81.82-1-.59-2.41-1.41-1.41z" fill="#181716"/><path d="M75.04 77.92c2 3.89 11 19.57 12.67 23" fill="#fff" fill-rule="evenodd"/><path d="M74.18 78.42c4.07 7.75 8.83 15.16 12.67 23 .57 1.16 2.29.14 1.73-1-3.84-7.86-8.6-15.27-12.67-23a1 1 0 0 0-1.73 1z" fill="#181716"/><path d="M87.71 100.94c4.25.51 7.23 1 11.41 1.46" fill="#fff" fill-rule="evenodd"/><path d="M87.71 101.94c3.81.46 7.6 1 11.41 1.46 1.28.16 1.26-1.84 0-2-3.8-.47-7.6-1-11.41-1.46-1.28-.15-1.26 1.85 0 2z" fill="#181716"/><path d="M32.85 120.42c16.33-6 45-15.59 54.86-19.49" fill="#fff" fill-rule="evenodd"/><path d="M33.11 121.39c18.2-6.72 36.8-12.41 54.86-19.49 1.19-.47.67-2.4-.53-1.93-18.06 7.08-36.67 12.77-54.86 19.49-1.2.44-.68 2.38.53 1.93z" fill="#181716"/><path d="M17.66 93.47c4-1.19 47.35-13 57.38-15.56" fill="#fff" fill-rule="evenodd"/><path d="M17.94 94.44c19-5.68 38.21-10.67 57.38-15.56a1 1 0 0 0-.53-1.93c-19.17 4.89-38.42 9.88-57.38 15.56a1 1 0 0 0 .53 1.93zM88.02 142.23l4.54-1.66c1.2-.44.68-2.37-.53-1.93l-4.54 1.66c-1.2.44-.68 2.37.53 1.93zM99.45 138.29a35 35 0 0 0 5.72-2c1.2-.45.68-2.38-.53-1.93a35 35 0 0 1-5.72 2c-1.27.24-.73 2.16.53 1.93z" fill="#181716"/><path d="M89.51 140.59q0 2.17-.06 4.35a1 1 0 0 0 2 0q0-2.18.06-4.35a1 1 0 0 0-2 0z" fill="#181716"/><path d="M90.78 145.83c3.87-1.4 7.76-2.74 11.55-4.36 1.18-.51.16-2.23-1-1.73-3.63 1.55-7.37 2.81-11.07 4.15-1.2.44-.68 2.37.53 1.93z" fill="#181716"/><path d="M103.51 140.17a6.17 6.17 0 0 1 0-3.34c.45-1.21-1.48-1.73-1.93-.53a8.24 8.24 0 0 0 0 4.4c.23 1.27 2.16.73 1.93-.53z" fill="#181716"/><path d="M73.39 128.72c-5.87-6.46-7.24-17.1-5.13-24.85 2.29-9 4.66-16.39 2.32-25.78-2.41-9-14.35-19.78-24.68-19.66-12.8-.24-22.25 3.68-31.53 15.25-7.65 9.54-5.05 26.42 1.12 36.2 16.31 25.85 57.9 18.84 57.9 18.84z" fill="#fff" fill-rule="evenodd"/><path d="M74.1 128.02c-4.34-5-5.94-11.61-5.75-18.08.2-6.64 3.05-13 3.92-19.63.8-6.07.06-12.44-3-17.78a34.16 34.16 0 0 0-11.95-11.68c-9.16-5.51-21.58-4.07-30.72.8a42.85 42.85 0 0 0-13.29 11.84c-3.22 4.16-4.4 9.5-4.6 14.66a39.61 39.61 0 0 0 9.78 27.27c5.78 6.52 13.9 10.49 22.21 12.73a79.6 79.6 0 0 0 33 1.54c1.27-.21.73-2.14-.53-1.93a75.34 75.34 0 0 1-37.2-3.2c-9.66-3.53-17.75-10.3-22-19.77a39.12 39.12 0 0 1-3.22-18c.4-6.77 3.5-11.85 8.11-16.63a34.62 34.62 0 0 1 24.17-10.67c10-.42 18.75 5.25 24.14 13.53 6.4 9.82 2.22 21.55-.16 31.91-1.92 8.35 0 18.05 5.7 24.55.83.92 2.23-.5 1.39-1.46z" fill="#181716"/><path d="M44.64 111.74c9.18-10.76 14.15-23.71 18.64-36.94.31-.92-1.14-1.31-1.45-.4-4.4 13-9.25 25.72-18.25 36.28-.62.73.43 1.8 1.06 1.06z" fill="#ea4e3e"/><path d="M58.36 80.29a51.1 51.1 0 0 0 5-5.43l-1.25-.33c.37 2.41-.08 4.85.13 7.27.08 1 1.58 1 1.5 0-.22-2.56.2-5.12-.19-7.67a.75.75 0 0 0-1.25-.33 51.1 51.1 0 0 1-5 5.43.75.75 0 0 0 1.06 1.06zM33.2 84.91c1.68-2 2.62-4.39 1.7-7-.32-.9-1.76-.52-1.45.4a44.59 44.59 0 0 0 3.25 7.55.75.75 0 0 0 1.29-.76 42.46 42.46 0 0 1-3.1-7.19l-1.45.4c.74 2.06 0 3.89-1.31 5.51-.61.74.44 1.8 1.06 1.06z" fill="#ea4e3e"/><path d="M35.84 77.87a7.52 7.52 0 0 0 2.73 5.94c1.86 1.27 3.62-.26 3.72-2.21A7.75 7.75 0 0 0 40 76.09c-1.64-1.61-3.56-.84-4.54 1a.75.75 0 0 0 1.29.76c.66-1.26 1.42-1.55 2.43-.48a6.55 6.55 0 0 1 1.6 3.68c.13 1.27-.62 2.3-1.75 1.14a6.37 6.37 0 0 1-1.68-4.35c.09-1-1.41-1-1.5 0z" fill="#ea4e3e"/><path d="M40.8 75.06a6.91 6.91 0 0 0 2.69 5.68c2 1.48 3.35-.68 3.51-2.48.19-2.18-.81-5.11-3-6s-4.16.85-3.81 3.18c.14 1 1.59.55 1.45-.4-.27-1.82 1.53-1.73 2.56-.89s1.46 3 1.24 4.37c0 .28-.18 1.14-.59 1.17a1.89 1.89 0 0 1-1.17-.82 5.44 5.44 0 0 1-1.38-3.84c.06-1-1.44-1-1.5 0zM45.94 70.36a3.24 3.24 0 0 0 .64 2.66 1.47 1.47 0 0 0 2.39.09 2.72 2.72 0 0 0 .18-3.17 1.79 1.79 0 0 0-2.8-.34c-.74.63.33 1.68 1.06 1.06.27-.23.4-.06.56.22a1.18 1.18 0 0 1-.13 1.25s-.12.1 0 .07h.1a1.41 1.41 0 0 1-.27-.35 1.71 1.71 0 0 1-.22-1.1.752.752 0 0 0-1.45-.4z" fill="#ea4e3e"/><path d="M50.01 68.48c-.58 3.93-.5 7.9-1.08 11.83-.14.95 1.31 1.35 1.45.4.58-3.93.5-7.9 1.08-11.83.14-.95-1.31-1.35-1.45-.4zM51.31 76.05c-.42.85-.62 2 .3 2.58a2.32 2.32 0 0 0 2.38-.11 1.89 1.89 0 1 0-2.25-3c-.72.64.34 1.7 1.06 1.06a.41.41 0 0 1 .72.17.57.57 0 0 1-.41.51 1.53 1.53 0 0 1-.44.11.32.32 0 0 1-.24 0 1.28 1.28 0 0 1 .17-.57c.43-.86-.87-1.62-1.29-.76zM18.31 89.29c2.59 4.66 4.74 9.58 7.06 14.38s4.45 10.07 7.56 14.44a.78.78 0 0 0 1 .27c2-.86 5.83-1.53 7-3.6.55-.94-.28-2.57-.61-3.44a161.12 161.12 0 0 0-7.1-15.18c-1.15-2.29-2.31-4.58-3.46-6.87-.77-1.54-1.47-4.18-3-5-2.51-1.37-11.6 3.3-8.18 5.3a.753.753 0 0 0 .76-1.3c-.35-.21 2.72-1.83 3-2 .91-.4 2.82-1.45 3.78-.65s1.61 2.84 2.23 4.1c1.76 3.54 3.57 7.05 5.32 10.59s3.61 7.29 5.11 11.06c.27.68 1 2 .84 2.72-.11.61-2.86 1.55-3.32 1.74-1 .42-2.11.78-3.14 1.22l1 .27c-3-4.21-5.06-9.26-7.3-13.89-2.41-5-4.63-10.09-7.32-14.93a.75.75 0 0 0-1.29.76z" fill="#ea4e3e"/><path d="M21.73 93.11l2.9-1c.91-.3.52-1.75-.4-1.45l-2.9 1c-.91.3-.52 1.75.4 1.45zM24.48 99.72a18 18 0 0 0 3-1.19.753.753 0 0 0-.76-1.3 15.78 15.78 0 0 1-2.62 1c-.91.3-.52 1.75.4 1.45zM27.89 106.18a13 13 0 0 0 3.4-1.15c.87-.42.11-1.71-.76-1.3a11.54 11.54 0 0 1-3 1c-1 .16-.55 1.61.4 1.45zM31.19 113.5a19.37 19.37 0 0 1 2.7-1.06c1.22-.41.7-2.34-.53-1.93a22.9 22.9 0 0 0-3.18 1.26c-1.15.59-.14 2.31 1 1.73z" fill="#ea4e3e"/><path d="M83.18 80.03c3.19-11.39 15.71-16.61 23.09-25.64 5.88-7.19 6.51-16.12 5.73-25.1-.8-9.32-11.12-18.23-19.94-21-8.65-2.81-16.38-1.56-25.49 3.65-8.36 4.78-15.65 17.62-15.54 27 .07 8.34 5.56 18 12.49 22.2 10.86 6.66 18.25 12.73 19.34 19.65" fill="#fff" fill-rule="evenodd"/><path d="M84.15 80.29c3.49-11.67 16.21-16.82 23.35-25.86 3.85-4.87 5.37-11 5.72-17s-.19-11.81-3.5-17c-6.22-9.72-19-16.18-30.49-14.31-12.42 2-22.22 10.39-26.85 22a27.1 27.1 0 0 0-2 14.6 30.44 30.44 0 0 0 7.06 14.47c7.13 8.44 22.21 11.55 24.44 23.85.23 1.27 2.16.73 1.93-.53-2.25-12.41-16.88-16.12-24.46-24.18a27 27 0 0 1-7.33-18c0-6.15 3-12.28 6.45-17.23 8.07-11.71 24-16.53 36.9-10.36a30.73 30.73 0 0 1 14 13.24c3 5.75 2.28 14.17.82 20.25-3.82 16-23.41 20.16-28 35.6a1 1 0 0 0 1.93.53z" fill="#181716"/><path d="M78.94 59.29c-.35 3-.06 6.78 3.73 6.93a4.63 4.63 0 0 0 4.19-1.88c1-1.59.78-4 .69-5.75a1 1 0 0 0-2 0 15.56 15.56 0 0 1-.1 3.88c-.3 1.44-1.46 1.73-2.78 1.75-2.42 0-1.91-3.38-1.73-4.93.15-1.28-1.85-1.27-2 0z" fill="#181716"/><path d="M79.8 62.82a8 8 0 0 0 6.85-.4 1 1 0 0 0-1-1.73 6.1 6.1 0 0 1-5.31.2c-1.23-.41-1.75 1.52-.53 1.93zM62.25 37.75c.57.15 1.15.27 1.72.43a1 1 0 0 0 .53-1.93c-.57-.16-1.15-.27-1.72-.43a1 1 0 0 0-.53 1.93zM64 28.29a5.38 5.38 0 0 1 1.85.82c1.08.71 2.08-1 1-1.73a7 7 0 0 0-2.33-1c-1.26-.27-1.79 1.65-.53 1.93zM70.12 19a15.58 15.58 0 0 0 1.61 2 1 1 0 0 0 1.41 0 1 1 0 0 0 0-1.41 12.46 12.46 0 0 1-1.29-1.6 1 1 0 0 0-1.73 1zM84.01 15.29a14.28 14.28 0 0 0-.26 2.66 1 1 0 0 0 2 0 11.36 11.36 0 0 1 .19-2.13 1 1 0 0 0-.7-1.23 1 1 0 0 0-1.23.7zM97.19 25.45a21.06 21.06 0 0 0 1.95-2 1 1 0 0 0-1.41-1.41 21.24 21.24 0 0 1-1.95 2 1 1 0 0 0 0 1.41 1 1 0 0 0 1.41 0zM98.18 38.04c1 .14 2 .13 3 .24a1 1 0 0 0 1-1 1 1 0 0 0-1-1c-.82-.09-1.65-.06-2.47-.17a1 1 0 0 0-1.23.7 1 1 0 0 0 .7 1.23z" fill="#181716"/><path d="M82.51 59.29a84 84 0 0 0-.34-13 76.72 76.72 0 0 0-1.55-12.08c-.45-1.89-4-4.73-4.92-1.67-1.37 4.55 5.52 4.24 8 3.93s8.46-1.46 5.92-5.37c-1.8-2.77-3.49 1.76-3.73 2.94-1.61 8.13-.86 16.7-2.92 24.73l-.08.27a.752.752 0 0 0 1.45.4c1.43-5 1.44-10.61 1.91-15.79.27-2.95.52-5.91 1-8.83a13.72 13.72 0 0 1 .59-2.39c.23-.63 1.66.42.08 1.54a7.75 7.75 0 0 1-2.6.74 22.86 22.86 0 0 1-5.34.49 3.17 3.17 0 0 1-2.81-1.23q.66-1.87 1.62-.37a1.28 1.28 0 0 1 .14.3 30.35 30.35 0 0 1 1.22 7.11c.69 6 1.32 12.29.84 18.34-.08 1 1.42 1 1.5 0z" fill="#ea4e3e"/><path d="M82.21 60.99c4.07-.18 6-2.41 7.1-6.17.74-2.66 1.21-5 3-7.24a20.13 20.13 0 0 0 3.79-6.34 19.29 19.29 0 0 0-1.06-13.85c-2.23-4.24-7.39-6-11.88-6a15.2 15.2 0 0 0-14.93 17.55 10.16 10.16 0 0 0 2.64 5.21c.83.92 2 1.62 2.88 2.46 1.53 1.42 1.68 3.27 1.95 5.19.53 3.81 2.06 8.23 6.29 9.1 1.26.26 1.79-1.67.53-1.93-4.18-.86-4.61-5.88-5.12-9.33-.62-4.2-4.45-5.32-6.38-8.67s-.92-7.69.71-10.88c2.13-4.17 6.13-6.24 10.67-6.68s9.09 1.45 11.23 5.5c1.84 3.5 1.48 8.85.33 12.48-.68 2.13-2.38 3.77-3.67 5.52a13.42 13.42 0 0 0-2.16 4.56c-1 3.57-1.34 7.27-5.87 7.46a1 1 0 0 0 0 2z" fill="#181716"/><path d="M88.17 121.87a18.27 18.27 0 0 1 17.17-6.74c53.45 9.57 65.47-46.78 36.06-62.11-19.11-10-38.83 8.64-42.85 13.74-8.13 10.33-14.88 30.44-10.38 55.11z" fill="#fff" fill-rule="evenodd"/><path d="M88.88 122.57a18.74 18.74 0 0 1 7.93-5.71c3.44-1.3 6.77-1 10.3-.44a61.86 61.86 0 0 0 15.08.54 42.07 42.07 0 0 0 22.14-8.45 36.45 36.45 0 0 0 12.87-36.17 30.53 30.53 0 0 0-9.64-16.35c-7.48-6.53-17.42-8.25-26.85-5.47-8.42 2.49-16.39 8.13-22.17 14.69-6.52 7.39-9.92 17.63-11.63 27.16a84.85 84.85 0 0 0 .29 29.76c.23 1.27 2.15.73 1.93-.53-2.44-13.74-1.79-28 3.07-41.18a44.73 44.73 0 0 1 15.35-20.73c9.3-7 21.46-11.39 32.65-6.17a27.6 27.6 0 0 1 13.74 14.88c5.18 13.07.75 28.41-9.63 37.57-6.4 5.65-14.82 8.42-23.22 9.09a69.32 69.32 0 0 1-16.19-1c-5.59-.87-11.19 1.3-15.37 4.95a18.3 18.3 0 0 0-2 2.17c-.88.97.53 2.39 1.35 1.39z" fill="#181716"/><path d="M119.62 62.39a12.51 12.51 0 0 0-2.77 15.94c3.49 6 11.93 7.36 17.87 4.54 6.64-3.14 7.89-12.57 4.55-18.5-1.63-2.89-5-4.51-8.16-4.85a15.45 15.45 0 0 0-11.34 2.74c-.8.54 0 1.84.76 1.3a13.66 13.66 0 0 1 8.54-2.66c3.54 0 6.9 1.18 8.9 4.23 3.45 5.28 1.46 13.5-4 16.44-5.25 2.82-12.64 1-15.82-4-3-4.65-1.53-10.7 2.53-14.12.74-.62-.33-1.68-1.06-1.06z" fill="#ea4e3e"/><path d="M135.47 68.72c.73-.11 1.47-.05 2.21-.17l-.95-.72c.24 2.46-.92 4.69-2.11 6.76l1.29.76a9.09 9.09 0 0 0 .08-7.18c-.35-.89-1.8-.5-1.45.4a7.65 7.65 0 0 1 .08 6 .75.75 0 0 0 1.29.76c1.31-2.28 2.58-4.81 2.31-7.52a.77.77 0 0 0-.95-.72c-.73.11-1.47.05-2.21.17-1 .15-.55 1.59.4 1.45z" fill="#ea4e3e"/><path d="M115.18 79.6c-3.77 5.34-8.26 10.21-12.4 15.26-1.53 1.87-3.13 3.72-4.48 5.73-1.21 1.81 1.77 4.21 3.19 4.78 1.92.77 4.74-3.34 5.79-4.47 2.72-2.92 5.3-6 7.81-9.07 1.66-2 3.33-4.11 4.79-6.3a2 2 0 0 0 .54-1.46 1.84 1.84 0 0 0-.92-.85 8.39 8.39 0 0 1-3-3.62c-.39-.88-1.68-.12-1.29.76a9.75 9.75 0 0 0 2.84 3.62c.62.52.78.46.87.28-.13.25-.3.49-.46.72-1.34 2-2.9 3.9-4.41 5.78q-3 3.75-6.23 7.35-1.51 1.69-3.08 3.32c-.45.46-2.1 2.62-2.82 2.49s-2.72-1.94-2.17-2.75 1.11-1.5 1.68-2.23c1.75-2.21 3.55-4.37 5.35-6.54 3.28-4 6.76-7.84 9.73-12 .56-.79-.74-1.54-1.29-.76z" fill="#181716"/><path d="M121.94 95.83c1.79-1 1.71-2.65 0-3.75-1.95-1.28-5.14-.37-6.32 1.51s1.08 4 2.54 4.83 2.61 2.54.73 3.72a2.48 2.48 0 0 1-3 0c-1-.92 0-1.92 1-2.09s.55-1.62-.4-1.45a2.68 2.68 0 0 0-2.23 3.71c.75 2 3.14 2.14 4.81 1.35 2-.94 2.89-2.6 1.84-4.64a6.31 6.31 0 0 0-2.61-2.27c-1.11-.66-2.17-2.06-.8-3.1a4.41 4.41 0 0 1 1.43-.57h1.41q1.37 0 .77 1.44a.753.753 0 0 0 .76 1.3zM124.67 92.73c-.37 3-1.29 5.84-1.36 8.84a.74.74 0 0 0 .55.72 8.42 8.42 0 0 0 4.48-.85c.89-.34.5-1.8-.4-1.45a7.26 7.26 0 0 1-3.68.85l.55.72c.07-3 1-5.88 1.36-8.84.12-1-1.38-.95-1.5 0z" fill="#ea4e3e"/><path d="M125.08 97.9a10.17 10.17 0 0 0 4.45-.71c.9-.33.51-1.78-.4-1.45a9.16 9.16 0 0 1-4.05.65c-1-.09-1 1.41 0 1.5zM126.3 93.62a11.5 11.5 0 0 0 3.41-.93c.87-.42.11-1.71-.76-1.3a10.37 10.37 0 0 1-3.05.77c-1 .14-.55 1.58.4 1.45z" fill="#ea4e3e"/><path d="M133.05 91.35c-2 2.28-3.67 5.22-1.95 8.16 1.28 2.18 4.36 1.36 5.77-.19 1.63-1.8 2.73-5.3 1.71-7.59s-4-3-5.48-.74c-.54.81.76 1.56 1.29.76 1.18-1.79 3 .24 3.08 1.69a8.1 8.1 0 0 1-1.67 4.82c-1.13 1.46-3.2 1.48-3.79-.36-.66-2.06.82-4 2.09-5.48.63-.73-.43-1.79-1.06-1.06z" fill="#ea4e3e"/></svg><svg data-name="Слой 1" viewBox="-5 -5 133.51 181.58" width="133.51" height="181.58" id="advantages-img5" x="653" y="638"><title>advantages-img5</title><path d="M22.49 6.56c-1.64.89-12.2 5.39-12.69 20-.16 4.79 2.49 22.5.61 31C7.41 71.16 0 72.98 0 93.56c0 12.28 15.68 13 16.18 34.5.67 28.18-21.69 45.59 14.65 42.84 5.92-.45 11.51-3.17 17.26-3.74 7.48-.58 12.95 3.45 20.14 4.32 6.62.58 12.37-2.59 18.7-3.74 5.75-1.15 11.8-.58 17.55 0 2.88.29 7.19 1.44 8.92-.86 1.73-1.73.86-6.91.29-9.21-.86-4.89-4.6-10.93-3.74-15.54s5.18-6 5.18-10.93c0-2.88-1.15-6-2-8.92-1.15-5.47-3.16-11.8-.58-17.26 3.45-7.48 8.06-10.36 8.06-19 0-7.48-4-10.36-7.19-16.11-6.62-12.08 8.06-23.3 9.78-34.53 2-12.66-5.75-24.74-16.4-31.36a29.24 29.24 0 0 0-16.11-4c-8.63.29-13.81 6.33-21 9.78-2 1.15-4.32 2.3-6.62 1.73-.01.02-28.5-11.01-40.58-4.97z" fill="#fff"/><path d="M108.29 94.15a6.1 6.1 0 0 0 1.55-.65c1.06-.55.94-.56.68.65a8.22 8.22 0 0 1-3.34 4.42c-1 .75 0 2.49 1 1.73a10 10 0 0 0 4.46-6.91c.11-1-.4-2.38-1.63-2.34s-2.1.94-3.26 1.18-.73 2.19.53 1.93zM74.86 90.26a4.92 4.92 0 0 1 1.92 2.13 1 1 0 0 0 1.23.7 1 1 0 0 0 .7-1.23 7.21 7.21 0 0 0-2.83-3.32c-1.08-.71-2.08 1-1 1.73zM68.2 94.8c-2.86-.17-3 3.75-1.45 5.32 2 2 6.17 1.61 8.6.84a1.006 1.006 0 0 0-.57-1.93 11.48 11.48 0 0 1-4.45.41 4.34 4.34 0 0 1-2.21-.73c-.42-.33-.85-2 0-1.9 1.29.08 1.28-1.93 0-2zM105.44 104.88c1.44 7.85 1.91 16 2.69 23.9l.73-1c-7.47 2.82-16.41 3.32-24.29 2.94a36 36 0 0 1-6.45-.88c-1.06-.25-5.26-1.23-5.27-2.76 0-3.28.74-6.75 1.12-10 .46-3.9.89-7.79 1.16-11.71.09-1.29-1.91-1.28-2 0-.29 4.24-.78 8.46-1.27 12.68q-.34 2.92-.65 5.85c-.14 1.33-.61 3-.19 4.29.47 1.48 2.92 2.34 4.21 2.85a25.92 25.92 0 0 0 6.4 1.42 66.43 66.43 0 0 0 15.94-.29 50.29 50.29 0 0 0 11.83-2.48 1 1 0 0 0 .73-1c-.8-8.12-1.29-16.41-2.76-24.43-.23-1.27-2.16-.73-1.93.53zM55.84 104.71c2.08 7.28 3.43 14.84 5 22.24 1.77 8.31 3.71 16.66 4.94 25.08.18 1.27 2.11.73 1.93-.53-1.22-8.42-3.17-16.76-4.94-25.08-1.57-7.4-2.92-15-5-22.24a1 1 0 0 0-1.93.53zM21.59 107.69c1 8.44.79 17.18.95 25.67.13 7.13.27 14.25.29 21.38a1 1 0 0 0 2 0c0-7.13-.16-14.26-.29-21.38-.15-8.49.1-17.23-.95-25.67-.16-1.26-2.16-1.28-2 0zM45.9 14.56c-2.53 2.08-3.45-.7-4.59-2.27a5 5 0 0 0-1.93-1.48c-1.42-.69-3.68-.85-4.9.34a3.31 3.31 0 0 0-1.1 1.92 7.61 7.61 0 0 0 0 1.83l-1.67-.6-.18-.86c-.36-1.74-1.43-2.85-3.25-2.3-1 .3-4 5.64-4.41 5.22-.93-.93-1.75-3.21-3.55-1.52-1.45 1.37-3.08 3.54-3.12 5.64 0 1.85.56 5 2.72 5.53 1.93.51 3.63-.52 5.19-1.57a30.19 30.19 0 0 0 2.95-2.31c.44-.38 2.06-1.72 2.11-.38a6.94 6.94 0 0 0 .21 1.72c1.07 3.66 6.63-1 8.14-1.74s1.19 0 .78 1.21a1.68 1.68 0 0 0 .34 1.6 2.56 2.56 0 0 0 2.16.55c1.65-.16 2.88-1.39 4.65-1.48 4.89-.24.25 5.56.71 7.6s2.4 3.17 4.44 3.53a7.9 7.9 0 0 0 1.49.08 1 1 0 0 0 0-2 4.38 4.38 0 0 1-3.77-1.4c-.81-1.09.8-3.12 1.22-4.2a4.49 4.49 0 0 0-1.37-4.84c-1.36-1.11-4-1.07-5.52-.31a10.27 10.27 0 0 1-2.22.83 8.72 8.72 0 0 0 .39-1.09 2.5 2.5 0 0 0-.47-2.06c-1.73-2.4-6.7 2.25-8.42 2.9-1.14.43-.45-2.9-1.62-3.41-1.95-.85-3.84.76-5.25 2a24 24 0 0 1-2.95 2.13c-2.16 1.36-3.64.31-3.91-2.21-.19-1.72 1.06-3 2-4.28.48-.67 1.17.78 1.52 1.13 1.1 1.09 3-.48 3.79-1.18a8.6 8.6 0 0 0 1.81-2.92c1-2.13 1.67 1.54 1.83 1.82.74 1.34 2.4 2.66 4 1.47a2.48 2.48 0 0 0 1.29-1.77c.1-1.61 0-3.42 2.26-3.08s2.77 3 4.52 4.29 3.51.69 5.14-.65c1-.82-.43-2.23-1.41-1.41z" fill="#181716"/><path d="M16.26 20.45c-2.35 3-2.15 6.62-.87 10 .45 1.2 2.38.68 1.93-.53-1-2.63-1.52-5.7.36-8.09.79-1-.62-2.43-1.41-1.41zM42.03 12.19c1.23-1.23 2.72 1.16 3.77 1.42 1.22.29 2.8-1.4 3.53.44 1 2.41 1.06 3.68 3.52 5 1.76.95 3.2 1.63 3.39 3.87.13 1.6-.62 3.26-.82 4.84a6.18 6.18 0 0 0 .15 1.67 15.14 15.14 0 0 1 .21 4.6c-.31 2.3-1.1 4.53-1.58 6.79-.27 1.26 1.66 1.79 1.93.53.56-2.62 1.52-5.22 1.73-7.9s-.59-5.32.12-8.11c1.11-4.39-1.09-6.44-4.64-8.35-2.76-1.48-1.31-5.47-5.13-5.86-.44 0-2 .59-2.17.18a3 3 0 0 0-1.3-1.64c-1.51-.88-3 0-4.09 1.07a1 1 0 0 0 1.41 1.41z" fill="#181716"/><path d="M48.78 36.37c1.61.51 3.21 1.06 4.84 1.49a1 1 0 0 0 .53-1.93c-1.63-.44-3.23-1-4.84-1.49a1 1 0 0 0-.53 1.93z" fill="#181716"/><path d="M49.24 38.74c1.28.34 2.57.62 3.87.88s1.8-1.67.53-1.93-2.59-.54-3.87-.88a1 1 0 0 0-.53 1.93z" fill="#181716"/><path d="M49.5 40.8a6.71 6.71 0 0 1 2.81.67 1 1 0 0 0 .53-1.93 7.89 7.89 0 0 0-3.34-.74 1 1 0 0 0-1 1 1 1 0 0 0 1 1z" fill="#181716"/><path d="M49.33 42.7c.83.26 1.71.29 2.55.53a1 1 0 0 0 .53-1.93c-.84-.23-1.72-.27-2.55-.53a1 1 0 0 0-.53 1.93z" fill="#181716"/><path d="M49.42 44.32a9.23 9.23 0 0 1 2 .49 1 1 0 0 0 .53-1.93 11.37 11.37 0 0 0-2.55-.56 1 1 0 0 0 0 2z" fill="#181716"/><path d="M54.98 41.81c1.88 1.44-.34 4-.9 5.47s-1.25 4.53-3.43 3.87a1 1 0 0 0-1.13.46 22.92 22.92 0 0 1-5 7.54 1 1 0 0 0 1.41 1.41 24.26 24.26 0 0 0 5.34-7.94l-1.13.46c3.13.94 4.56-1.82 5.53-4.32 1.2-3.11 3.72-6.1.34-8.68-1-.78-2 1-1 1.73zM27.26 38.92a29.86 29.86 0 0 0-1.32 4.48 1 1 0 0 0 .46 1.13 2.86 2.86 0 0 0 1.65.4c1.28-.08 1.29-2.08 0-2a.73.73 0 0 1-.64-.13l.46 1.13a30.09 30.09 0 0 1 1.32-4.48 1 1 0 0 0-1.93-.53zM35.52 35.49a3.37 3.37 0 0 0-1 2.8A2.28 2.28 0 0 0 36 40.04a2.07 2.07 0 0 0 2.22-.71 2.77 2.77 0 0 0 .41-3.11 1.87 1.87 0 0 0-2.83-.52 2.25 2.25 0 0 0-.79 2.61 1.61 1.61 0 0 0 1.89.82 1.82 1.82 0 0 0 1.17-2 1.06 1.06 0 0 0-.73-1 1.48 1.48 0 0 0-1.59.52 1 1 0 0 0 0 1.41 1 1 0 0 0 1.41 0c.11-.09.2-.2.31-.29l-.44.26h-.22l-.73-1a1.75 1.75 0 0 1 0 .23c0 .29.05-.14 0 .1 0-.21-.07.06.09-.13-.11.13.14-.07.19-.09s.22 0 .14 0c.22.06 0 0 .2.1s0 0 .11.18a.28.28 0 1 0 0 .06v-.06c-.06.18.11-.15.11-.14a1.62 1.62 0 0 1 .14-.13c-.14.08-.32-.09-.18.05-.09-.09 0 .15 0 .06a.38.38 0 0 1 0 .24 1 1 0 0 1-.17.38c-.14.25.07 0-.11.14s.13-.07-.09.07c.11 0 .12 0 0 0s.2 0 0 0c.24 0 .06 0 0 0 .23.07 0 0 0 0q.15.12 0 0a.2.2 0 1 0 0-.06.32.32 0 0 1 0-.18.56.56 0 0 1 .05-.33 2.19 2.19 0 0 1 .39-.6c.85-1-.56-2.38-1.41-1.41zM22.44 34.03a3.37 3.37 0 0 0-1 2.8 2.28 2.28 0 0 0 1.48 1.75 2.07 2.07 0 0 0 2.22-.71 2.77 2.77 0 0 0 .41-3.11 1.87 1.87 0 0 0-2.83-.52 2.25 2.25 0 0 0-.79 2.61 1.62 1.62 0 0 0 1.89.82 1.82 1.82 0 0 0 1.17-2 1.06 1.06 0 0 0-.73-1 1.48 1.48 0 0 0-1.59.52 1 1 0 0 0 0 1.41 1 1 0 0 0 1.41 0c.11-.09.2-.2.31-.29l-.44.26h-.22l-.73-1a1.76 1.76 0 0 1 0 .23c0 .29.05-.14 0 .1 0-.21-.07.06.09-.13-.11.13.14-.08.19-.09s.22 0 .14 0c.22.06 0 0 .2.1s0 0 .11.18a.28.28 0 1 0 0 .06v-.06c-.06.18.11-.15.11-.14a1.61 1.61 0 0 1 .14-.13c-.14.08-.32-.09-.18.05-.09-.09 0 .15 0 .06a.38.38 0 0 1 0 .24 1 1 0 0 1-.17.38c-.14.25.07 0-.11.14s.13-.07-.09.07c.11 0 .12 0 0 0s.2 0 0 0c.24 0 .06 0 0 0 .23.07 0 0 0 0q.15.12 0 0a.2.2 0 1 0 0-.06.32.32 0 0 1 0-.18.56.56 0 0 1 .05-.33 2.19 2.19 0 0 1 .39-.6c.85-1-.56-2.38-1.41-1.41zM21.55 51.33c3.4 6.57 12.11 4.49 16.5.08A1 1 0 0 0 36.64 50c-3.47 3.5-10.58 5.69-13.36.33-.59-1.15-2.32-.13-1.73 1zM21.22 83.8c-.42-.47-1.3-1.34-.52-1.82s1.89.92 2.46 1.26a1 1 0 0 0 1-1.73A16.28 16.28 0 0 0 22 80.08a2.7 2.7 0 0 0-2.66.39c-1.8 1.34-.74 3.41.46 4.73a1 1 0 0 0 1.41-1.41z" fill="#181716"/><path d="M22.34 80.44c.16-.68.38-1 1.09-.81A3.12 3.12 0 0 1 25.16 81a1 1 0 0 0 1.73-1 5.14 5.14 0 0 0-3.27-2.36 2.71 2.71 0 0 0-3.21 2.29 1 1 0 0 0 1.93.53z" fill="#181716"/><path d="M25.16 78.56c1.36-2.08 4.65 2.91 5.44 3.94s2.51 0 1.73-1c-1.78-2.31-6-8.33-8.89-3.94a1 1 0 0 0 1.73 1zM42.98 80.94c1.08-1.41 2.18-2.37 4-2.38a5.71 5.71 0 0 1 4.95 3.63c.41 1.22 2.34.69 1.93-.53a7.88 7.88 0 0 0-6-5c-2.93-.56-5 1.09-6.67 3.27-.78 1 1 2 1.73 1z" fill="#181716"/><path d="M45.54 89.4a9.28 9.28 0 0 1 4.11-6.09 1 1 0 0 0-1-1.73 11.27 11.27 0 0 0-5 7.28c-.27 1.26 1.66 1.79 1.93.53z" fill="#181716"/><path d="M18.9 100.31c.6 1.48 1.13 3 1.66 4.5.36 1 .6 3 1.46 3.7 1.28 1.07 3.21 1.13 4.81 1.35a46.29 46.29 0 0 0 7.44.33 67.17 67.17 0 0 0 13.58-1.86 30.67 30.67 0 0 0 9.45-3.47 1 1 0 0 0 .36-1.37c-.9-1.8-.65-4.39-.65-6.36a1 1 0 0 0-2 0c0 2.33-.15 5.21.93 7.36l.36-1.37c-5.73 3.65-14 4.57-20.55 5a52.85 52.85 0 0 1-5.83 0c-1.08-.05-2.16-.16-3.24-.31-.64-.09-2.52-.13-3-.53-.72-.6-1-2.6-1.4-3.59-.47-1.32-.94-2.64-1.46-3.94s-2.41-.66-1.93.53z" fill="#ea4e3e"/><path d="M41.02 124.11a27.74 27.74 0 0 0-1.37 6c-.57 3.27-1 6.56-1.5 9.84-.67 4.81-1 9.81-2 14.56-.28 1.26 1.65 1.79 1.93.53 1-4.75 1.34-9.75 2-14.56.46-3.29.94-6.57 1.5-9.84a27.43 27.43 0 0 1 1.37-6c.5-1.19-1.44-1.7-1.93-.53z" fill="#181716"/><path d="M23.56 155.71c4.51.92 9 1.77 13.46 0 1.18-.47.67-2.41-.53-1.93-4.1 1.64-8.21.85-12.4 0-1.26-.26-1.79 1.67-.53 1.93zM39.41 123.03c2.07 1.5 2.73 4.07 3.86 6.24a93 93 0 0 1 4.09 9.05c2.22 5.64 3.93 11.49 5.74 17.27a1 1 0 0 0 1.93-.53c-2-6.39-4-12.78-6.43-19a88.55 88.55 0 0 0-4-8.45c-1.25-2.4-2-4.65-4.24-6.3-1-.76-2 1-1 1.73z" fill="#181716"/><path d="M54.43 156.68c2.28-.52 4.62-.62 6.89-1.17a26.64 26.64 0 0 0 5.84-2.63 1 1 0 0 0-1-1.73 27.19 27.19 0 0 1-6.18 2.63c-2 .48-4.07.51-6.07 1a1 1 0 0 0 .53 1.93zM24.07 154.57a33.75 33.75 0 0 1-6.11 4.13c-1.23.73-3.28 1.62-3.56 3.21-.6 3.31 5.5 1.71 6.79 1.34 2.74-.77 5.52-1.33 8.22-2.26a8.47 8.47 0 0 0 2.51-1.28q-.6-.15-.21.2a1.44 1.44 0 0 0 .65.46c1.24.25 3.15.63 4.17-.4s.67-3.41.49-4.7-2.11-.73-1.93.53a7.64 7.64 0 0 1 0 2.54c-.07.49-1.85.29-2 .05a1.67 1.67 0 0 0-1.63-.66c-1.16.32-2.23 1.2-3.4 1.6-1.62.56-3.3.94-5 1.35s-3 .81-4.51 1.22a4.79 4.79 0 0 1-2 0 9.53 9.53 0 0 0 1.7-1.13c2.46-1.53 5-2.84 7.16-4.84a1 1 0 0 0-1.41-1.41z" fill="#181716"/><path d="M54.43 156.03a12.07 12.07 0 0 0 5.27 6c1.84 1.12 4.57 2.18 6.63 1.1 3.26-1.71 1.62-8 1.11-10.69-.24-1.27-2.17-.73-1.93.53.45 2.37 1.3 5.53.27 7.85-.74 1.65-3.44.3-4.52-.22a9.78 9.78 0 0 1-4.9-5.08c-.45-1.19-2.39-.68-1.93.53zM89.49 16.86c0 2.76.87 5.13 3.53 6.25a5.31 5.31 0 0 0 4-.33c.95-.41 1.87-.88 2.85-1.2 1.47-.48 1.77 0 1.51 1.18-.49 2.13.94 3.53 3.08 3.39 1.17-.08 3.44-1.73 4.1-.15a14.55 14.55 0 0 1 .55 2.72c.32 1.58 1.46 2.7 1.61 4.4.12 1.27 2.12 1.28 2 0-.19-2.09-1.42-3.61-1.82-5.61-.29-1.4-.38-2.85-1.58-3.79a3 3 0 0 0-2.69-.28c-1.38.33-3.75 1.6-3.17-.82.48-2-.6-3-2.55-3.17-1.5-.12-3 .72-4.28 1.33-3.29 1.54-5.11-.82-5.1-3.92a1 1 0 0 0-2 0z" fill="#181716"/><path d="M89.49 17.46c-.22 3.19.23 6.15-2.2 8.62-1.78 1.81-4.17 2.92-6 4.72a4.17 4.17 0 0 0-1.28 4.23 4.49 4.49 0 0 0 1.63 2c2.39 1.94-.11 3-1.33 4-.77.66-2.08 2.16-.95 3.17a12.3 12.3 0 0 0 2 1.27c2.53 1.52-1.2 4.75-2.31 5.44-2.3 1.43-5.05.39-7.12-.93a4.61 4.61 0 0 1-2.25-3.34c-.23-1.94 1.84-2.77 3.3-3.27 1.21-.42.69-2.35-.53-1.93-2.1.72-4.67 2-4.75 4.57-.08 2.77 1.52 4.61 3.76 6a8.69 8.69 0 0 0 7.72 1c2.27-.85 5-3.52 5-6.14a3.58 3.58 0 0 0-1.05-2.63 6.2 6.2 0 0 0-1.75-1.12c-.59-.31 1.47-1.4 1.73-1.57a3.43 3.43 0 0 0 .46-5.61c-.79-.76-2.26-1.31-1.47-3a8.34 8.34 0 0 1 2.51-2.46c1.36-1 2.82-1.94 4.11-3.09 3-2.66 2.53-6.4 2.79-10 .09-1.29-1.91-1.28-2 0z" fill="#181716"/><path d="M112.24 35.12c1.9-3.2 7.45-5.35 5.95-9.89-.55-1.66-2.37-2.67-3.57-3.81-1.55-1.48-.38-4.1-1.68-5.86a4.73 4.73 0 0 0-4.67-1.69c-1.9.42-3.45.67-4.54-1.33-.54-1-.89-2.09-1.44-3.09a5.62 5.62 0 0 0-4.47-2.9c-3 0-4.43 1.85-6.6 3.5-1.64 1.24-4.91-1.4-6.82-1.44a5.35 5.35 0 0 0-5.44 3.15 11.18 11.18 0 0 0-.6 2.51c-.39 2.12-2 3-3.91 3.58-2.16.6-4.19.7-4.83 3.18-.56 2.19 2 4.34 1.06 6.35-.59 1.27-2.24 2.23-3.18 3.25a10.41 10.41 0 0 0-2 3c-1.68 4.06-.08 9.16 4.2 10.73 1.21.45 1.73-1.49.53-1.93-2.68-1-3.8-4.18-3.31-6.84s2.86-4.34 4.64-6.13a4.08 4.08 0 0 0 1.26-3.33c-.19-2.12-3-5.21.7-6 3.92-.89 6.22-2.35 7-6.45 1.27-7.05 7.81.48 11.3-1.61 2.17-1.3 3.57-3.93 6.48-3.39 2.23.41 2.91 3.17 3.73 4.9a4.87 4.87 0 0 0 3.14 2.77c2.21.62 4.51-1.85 6.35.63.87 1.18 0 3.12.68 4.45a12 12 0 0 0 3.08 3.2c3.73 3.23-3.19 6.89-4.75 9.5a1 1 0 0 0 1.73 1z" fill="#181716"/><path d="M110.72 32.67c-1.12 6.09-1.83 12.32-5.19 17.67a15 15 0 0 1-5.81 5.37c-3.59 1.86-6.67-.23-9.4-2.55-1-.83-2.4.58-1.41 1.41 2.3 2 4.81 3.82 7.93 4s6.07-2.22 8-4.19c5.57-5.54 6.43-13.85 7.77-21.16.23-1.26-1.7-1.8-1.93-.53zM80.61 50.97c0 1.64.17 3.87-1.35 4.94-1 .73 0 2.47 1 1.73 2.23-1.57 2.34-4.17 2.34-6.67a1 1 0 0 0-2 0z" fill="#181716"/><path d="M92.07 56.86a4.05 4.05 0 0 0 .2 2.76 3.49 3.49 0 0 0 2.35 1.46 1 1 0 0 0 .53-1.93 4 4 0 0 1-.77-.24.81.81 0 0 1-.38-.3.67.67 0 0 1-.08-.34 3.57 3.57 0 0 1 .08-.88c.24-1.26-1.69-1.8-1.93-.53z" fill="#181716"/><path d="M80.9 56.51c3.11 3.21 8.09 5 12.49 3.86a1 1 0 0 0-.53-1.93c-3.72 1-7.94-.65-10.55-3.35a1 1 0 0 0-1.41 1.41z" fill="#181716"/><path d="M64.37 71.2a67.74 67.74 0 0 1 9.76-8.94l-1.67-.44a63.84 63.84 0 0 0 4.37 9.12 20.8 20.8 0 0 1 2.32 12 51.62 51.62 0 0 1-2.72 11.87c-1.15 3.39-3.42 6.19-3.73 9.85a1 1 0 0 0 .73 1 25.52 25.52 0 0 0 17.45.89c5.5-1.77 8.65-5.56 10.09-11a42.07 42.07 0 0 0 .17-18.91c-.63-2.89-3-5.28-5-7.3a74.59 74.59 0 0 0-7.75-7.12c-2.38-1.81-4.66-3.85-7.16-5.48-1.85-1.21-2.85-1.15-4.59 0-2.09 1.32-6.83 5.62-2.08 6.95a23.84 23.84 0 0 0 6 .36c1.6 0 0 2.52 0 3.36a2.74 2.74 0 0 0 1.12 2.56c1.63.85 3.54.75 5.29 1.27a22.36 22.36 0 0 1 6.16 3.05 23.82 23.82 0 0 1 6.63 7.24 1 1 0 0 0 1.73-1 26.44 26.44 0 0 0-9.86-9.5 23.4 23.4 0 0 0-4.48-1.82 14.53 14.53 0 0 0-1.74-.4c-.62-.11-1.25-.14-1.87-.24-1.68-.28-.6-2.26-.34-2.93 1.56-3.91-3.11-3.62-5.55-3.67-.47 0-3.63.14-2.92-1.09a8.72 8.72 0 0 1 2.89-2.41l.78-.49c.69-.43-.24-.26.24-.17 1.62.32 3.06 1.75 4.27 2.77 4.45 3.74 8.92 7.18 12.95 11.42 2.86 3 3.52 5.93 3.84 9.92a47.59 47.59 0 0 1-.05 9.48 24.57 24.57 0 0 1-2 7.36c-1.31 2.85-3.9 4.54-6.71 5.69-5.44 2.23-11.75 1.54-17.08-.63l.73 1c.33-3.84 3-7.29 4.19-10.94a57.78 57.78 0 0 0 2.26-10.77 20.82 20.82 0 0 0-1.42-10.49c-1.58-3.81-4-7.19-5.33-11.12a1 1 0 0 0-1.67-.44A67.72 67.72 0 0 0 62.86 70c-.82 1 .58 2.4 1.41 1.41z" fill="#ea4e3e"/><path d="M80.11 83.51c-.74-2.34-3.06-3.29-4.65-4.93a1 1 0 0 0-1.41 1.41c1.26 1.29 3.57 2.22 4.14 4a1 1 0 0 0 1.93-.53z" fill="#ea4e3e"/><path d="M74.68 77.9c-2.9 1.34-8.19 4-4.25 7.45a26.05 26.05 0 0 0 2.35 1.68c1.93 1.32.55 3.14-.2 4.77l-1.19 2.57c-.47 1-.75 1.17-1.8.7a21.21 21.21 0 0 1-5.16-2.83c-1-.84-2.39.57-1.41 1.41a18.86 18.86 0 0 0 4.16 2.48c1.13.55 2.51 1.47 3.83 1.3 1.09-.14 1.64-1.18 2.12-2 1-1.81 1.82-3.81 2.68-5.7.94-2.07-.9-3.62-2.44-4.68s-3.39-1.89-1.31-3.45a19.72 19.72 0 0 1 3.62-1.91c1.17-.54.15-2.26-1-1.73zM101.5 78.72a45.07 45.07 0 0 1 1-5.6c.32-1.32 1.23-2.53 1.64-3.85a2.55 2.55 0 0 0-.33-2.34c-.44-.61-1.94-1.27-2.45-.93 4.17-2.85-3.81-6.19-5.87-6.85a1 1 0 0 0-1.23 1.23c2.25 5.36 4.9 11.35 5.17 17.23a1 1 0 0 0 2 0c-.29-6.09-2.92-12.2-5.25-17.76l-1.23 1.23a18.59 18.59 0 0 1 4.47 2.06c2.33 1.51-1.34 1.69-.09 3.55a2.55 2.55 0 0 0 1.54 1.07c2 .64 1.07 1.82.33 3.35-1.14 2.35-1.38 5-1.67 7.61-.15 1.28 1.86 1.27 2 0z" fill="#ea4e3e"/><path d="M100.78 64.75a14.84 14.84 0 0 1 5.09 10.61c0 1.71-.86 3.44-.93 5.2-.08 1.94.8 3.91 1.18 5.79a37.73 37.73 0 0 1 .07 13.88c-.15.76-.36 1.5-.56 2.25-.42 1.56-.67.66-1.81-.25a39 39 0 0 1-4.18-4 1 1 0 0 0-1.41 1.41c1.48 1.58 5.56 6.94 8.15 5.54 1.39-.75 1.63-3.82 1.89-5.13a38.49 38.49 0 0 0 .31-8.44 35.38 35.38 0 0 0-.93-7.57 11.16 11.16 0 0 1-.42-5.57 25.24 25.24 0 0 0 .65-3.07c.49-4.28-2.61-9.34-5.67-12-1-.85-2.39.56-1.41 1.41z" fill="#ea4e3e"/><path d="M99.9 64.49a21.38 21.38 0 0 1 7.09 5.54c2.25 2.52 5.08 5.26 5.41 8.81.29 3.09-1.46 6.27-2.87 8.88-1 1.9-2.45 3.65-2.63 5.87-.11 1.29 1.9 1.28 2 0a9.35 9.35 0 0 1 1.76-3.83 36.44 36.44 0 0 0 2.29-4.45 13.64 13.64 0 0 0 1.22-8.19c-.58-3-3.23-5.69-5.19-7.89a24.59 24.59 0 0 0-8.05-6.48c-1.16-.54-2.18 1.19-1 1.73z" fill="#ea4e3e"/><path d="M77.62 131.35c-.69 5.61-.7 11.36-1 17l-.18 3.7-.05 1.07c0 .82.23-.36-.23 0a20.2 20.2 0 0 0-3.94 5.14c-1 1.58-2.18 2.6-1.62 4.45a1 1 0 0 0 1.47.6 55.11 55.11 0 0 1 11.08-5c1.58-.58 1.82-3.63 2.25-5 2.11-7 4.1-14.08 6.57-21 .44-1.22-1.5-1.74-1.93-.53-2.37 6.6-4.28 13.4-6.31 20.12l-1.16 3.86-.31 1.07c.12-.43 1.07-.7-.12-.26a55.93 55.93 0 0 0-11.07 5l1.47.6c-.32-1.07 1.81-3.57 2.57-4.76a10.61 10.61 0 0 1 2.78-3.09 1.06 1.06 0 0 0 .5-.88q.13-2.8.27-5.6c.27-5.49.28-11.09 1-16.54.16-1.28-1.84-1.26-2 0z" fill="#181716"/><path d="M92.16 132.03c1.37 3.67 1.71 7.84 2.26 11.69s1.57 7.89 1.57 11.71a1 1 0 0 0 .5.86c1.92 1 3.88 1.9 5.83 2.81 1.39.65 4.21 1.46 5 2.81a1 1 0 0 0 1.73-1c-1.39-3.11-2.44-7.41-4.91-9.88-.26-.26.11.76.12 0v-1.35c0-1.29.09-2.57.15-3.86.21-5.11.46-10.22.78-15.32.08-1.29-1.92-1.28-2 0-.34 5.29-.58 10.58-.81 15.87-.06 1.36-.75 4.41 0 5.65s1.63 2.41 2.3 3.75c1 2 1.73 4.08 2.63 6.1l1.73-1c-.71-1.24-1.92-1.65-3.18-2.3-2.47-1.27-5-2.38-7.53-3.62-.37-.18-.25.5-.4-.42-.07-.42-.13-.85-.19-1.28-.21-1.5-.41-3-.61-4.49-.75-5.63-1-11.92-3-17.29-.45-1.2-2.38-.68-1.93.53z" fill="#181716"/><path d="M97.1 84.94a2.2 2.2 0 0 0 .87 3.49c1.53.56 2.76-.9 2.7-2.34a2 2 0 0 0-2.5-1.86 1.75 1.75 0 0 0-1.2 1.2 2.34 2.34 0 0 0 .63 2 1 1 0 0 0 1.41 0 1 1 0 0 0 0-1.41c0 .05-.17-.4-.09-.16 0-.12 0-.1 0 0 0-.09 0-.27 0 0 0-.1-.12.17-.05.11a.3.3 0 1 0-.07.06c.17-.11-.23.07 0 0a.53.53 0 1 0-.09 0c.07 0 .27 0 0 0 .26 0-.13-.1.1 0a.34.34 0 1 0-.06 0c.16.15-.11-.18 0 0 .08.24 0-.21 0 .07a.59.59 0 0 1-.07.36c0-.08 0-.07 0 0 .11-.19-.13.1.07-.05q-.15.08 0 0c-.07 0-.28 0 0 0-.11 0-.1 0 0 0-.06 0-.27-.09 0 0l-.13-.07c.2.12 0 0 0 0 .08.1.09.11 0 0 .11.19 0 0 0-.06 0 .13 0 .13 0 0V86.11a2.24 2.24 0 0 1 .21-.31 1 1 0 0 0-.36-1.37 1 1 0 0 0-1.37.36zM97.37 90.47a2.24 2.24 0 0 0-1.2 2.58 1.91 1.91 0 0 0 3 .66c1.46-1.32.2-4.5-1.87-3.34a1 1 0 0 0 1 1.73c.19-.11-.12 0-.17 0h-.15a.34.34 0 1 0-.08 0c-.21-.11 0 0-.15-.14.15.22 0-.09 0 .07s0 .29 0 0a1.73 1.73 0 0 1 0 .23c0-.26 0 0 0 0l.06-.07c-.14.17.18-.1 0 0 .2-.12-.08 0 .14 0a.22.22 0 0 1-.17 0 .31.31 0 0 1 .25.2v.12c0-.2-.09.14 0-.09s-.11.1.08-.1l.16-.09c1.16-.57.14-2.3-1-1.73z" fill="#ea4e3e"/><path d="M100.43 41.65c.13.81.62 1.56.67 2.37 0 .18-.19.32 0 .07a.35.35 0 1 0 .09-.1c-.32 0-.65 0-1 .08a1 1 0 0 0-1 1 1 1 0 0 0 1 1c1.07-.14 2.18 0 2.67-1.18s-.37-2.53-.57-3.78a1 1 0 0 0-1.23-.7 1 1 0 0 0-.7 1.23zM93.39 35.84a3 3 0 0 0 .33 4.42 1.82 1.82 0 0 0 2.22-.12 2.63 2.63 0 0 0 .93-2.1c0-1.39-.91-3.57-2.69-2.84s-1.4 3.28-.27 4.34a1 1 0 0 0 1.41 0 2.52 2.52 0 0 0 .47-2.68 1.26 1.26 0 0 0-1.12-.72 1.58 1.58 0 0 0-1.27.87c-.72 1.08 1 2.08 1.73 1a.9.9 0 0 1-1.09-.21c0-.12-.06-.13 0 0 0-.11 0-.1 0 0a.8.8 0 0 1-.09.31h1.41c-.07-.08-.08-.07 0 0a1.66 1.66 0 0 1-.15-.26v-.07a3.07 3.07 0 0 1-.09-.34 1.62 1.62 0 0 1 0-.42c0-.13.06-.15 0-.09-.26.12-.3.16-.13.1a.31.31 0 0 1-.24 0c.21.09-.1-.11.06.06-.13-.15 0 .1 0 .12a3.06 3.06 0 0 1 .08.31 2.72 2.72 0 0 1 0 .47v.26a.22.22 0 0 1-.09.2l-.16.16s.22-.1 0 0h.14c.24.07-.09-.09.08 0a1 1 0 0 1-.29-.56.91.91 0 0 1 .23-.82c.85-1-.56-2.38-1.41-1.41zM103.58 35.84a3 3 0 0 0 .33 4.42 1.82 1.82 0 0 0 2.22-.12 2.63 2.63 0 0 0 .93-2.1c0-1.39-.91-3.57-2.69-2.84s-1.4 3.28-.27 4.34a1 1 0 0 0 1.41 0 2.52 2.52 0 0 0 .47-2.68 1.26 1.26 0 0 0-1.12-.72 1.58 1.58 0 0 0-1.27.87c-.72 1.08 1 2.08 1.73 1a.9.9 0 0 1-1.09-.21c0-.12-.06-.13 0 0 0-.11 0-.1 0 0a.8.8 0 0 1-.09.31h1.41q-.11-.12 0 0a1.76 1.76 0 0 1-.15-.26v-.07a3.29 3.29 0 0 1-.09-.34 1.62 1.62 0 0 1 0-.42c0-.13.06-.15 0-.09-.26.12-.3.16-.13.1a.31.31 0 0 1-.24 0c.21.09-.1-.11.06.06-.13-.15 0 .1 0 .12a3.09 3.09 0 0 1 .08.31 2.74 2.74 0 0 1 0 .47v.26a.22.22 0 0 1-.09.2l-.16.16s.22-.1 0 0h.14c.24.07-.09-.09.08 0a1 1 0 0 1-.27-.58.91.91 0 0 1 .23-.82c.85-1-.56-2.38-1.41-1.41zM103.38 33.96a4.08 4.08 0 0 1 2.36.63c1 .83 2.4-.57 1.41-1.41a6.21 6.21 0 0 0-3.77-1.21c-1.29-.11-1.27 1.89 0 2zM92.57 34.68a3.19 3.19 0 0 1 2.48-.6c1.26.27 1.79-1.66.53-1.93a5.14 5.14 0 0 0-4 .8 1 1 0 0 0-.36 1.37 1 1 0 0 0 1.37.36zM91.72 49.43c4.56.83 8.55 1.6 12.91-.45 1.17-.55.15-2.27-1-1.73-3.8 1.79-7.42 1-11.37.25-1.26-.23-1.8 1.7-.53 1.93z" fill="#181716"/><path d="M93.78 50.4c1.51 1.74 3 3.33 5.46 3.11a6 6 0 0 0 4.92-4.34c.41-1.23-1.52-1.75-1.93-.53a4 4 0 0 1-3.5 2.92c-1.54.14-2.66-1.56-3.53-2.57s-2.26.45-1.41 1.41z" fill="#181716"/><path d="M103.24 48.47a2.1 2.1 0 0 1 .45 1.05 1 1 0 0 0 1.23.7 1 1 0 0 0 .7-1.23 4 4 0 0 0-1-1.94 1 1 0 0 0-1.41 1.41z" fill="#181716"/><path d="M20.4 85.79c5.8-1 11.12-3.63 17.09-3.73.64 0 3.31-.11 3.4.21.41 1.43.66 2.9 1.09 4.33s.51 3.62 2.16 4.28l-.24-1.83c-9.73 4.86-24.16 15.14-34.77 6.42-6.74-5.55-.43-17 3.21-22.57a24.54 24.54 0 0 1 11.37-9.71c.58-.22 2.43-1.06 3-.87l2.28.74c2.29.75 4.14 1.86 6.64 2a13.92 13.92 0 0 0 7.61-2.26c1.24-.74 2.28-1.77 3.51-2.53 2-1.22 4.52.69 6.16 1.75a36 36 0 0 1 9.93 9.79c4.37 6.36 6 16.13-1.2 21.08-7.94 5.44-17.8 3.75-26.48 1.52a1 1 0 0 0-.53 1.93 66.59 66.59 0 0 0 9.43 2.07 40 40 0 0 0 10.66-.44c4.77-.81 10-3.82 12.41-8.12 5.05-9.15-2-19.93-8.65-26-2.74-2.52-8.14-7.51-12.19-5.57-2.85 1.36-4.81 3.6-8 4.47s-5.47-.52-8.36-1.46c-1.71-.56-2.76-1.05-4.52-.68a20.14 20.14 0 0 0-6.62 2.85 30.37 30.37 0 0 0-9.1 9.84C5.55 79.99.62 91.08 8.1 97.24c4.09 3.36 10.16 4 15.2 3.08 7.89-1.45 14.55-6 21.58-9.53a1 1 0 0 0-.24-1.83c-.14-.06-.82-3.08-1-3.74-.4-1.35-.62-2.74-1-4.09a1 1 0 0 0-.7-.7 29.48 29.48 0 0 0-9.84.17c-4.16.78-8.06 2.52-12.24 3.26-1.27.23-.73 2.15.53 1.93z" fill="#ea4e3e"/><path d="M47.78 85.44c2.33-.94 4.73-1.69 7.12-2.46a1 1 0 0 0-.53-1.93c-2.39.77-4.79 1.53-7.12 2.46-1.18.47-.67 2.41.53 1.93z" fill="#ea4e3e"/><path d="M17.32 26.25c-2.81 9.85-5.31 23.39 2.73 31.6 3.16 3.22 9.13 5.8 13.72 4.46a1 1 0 0 0-.53-1.93c-3.83 1.12-8.81-1.17-11.54-3.72-7.87-7.36-5-20.91-2.44-29.87a1 1 0 0 0-1.93-.53z" fill="#181716"/></svg><svg data-name="Слой 1" viewBox="-5 -5 31.89 24.36" width="31.89" height="24.36" id="arrow_" x="787" y="820"><title>arrow</title><path d="M19.01 8.1c-2.46 1.07-5 2.53-7.7 3.08V2.06c0-.94-1.95-.59-1.95.18v8.38a20.62 20.62 0 0 1-6-3.57c-.52-.43-2.32.33-1.79.75a20.92 20.92 0 0 0 7.73 4.23.44.44 0 0 0 .12.59 1.26 1.26 0 0 0 1.63-.05c3.06-.57 6-2.14 8.77-3.37 1.24-.58.15-1.51-.81-1.1z" fill="#ea4e3f" stroke="#ea4e3f" stroke-miterlimit="10" stroke-width="3" fill-rule="evenodd"/></svg><svg data-name="Слой 1" viewBox="-5 -5 129.4 66.75" width="129.4" height="66.75" id="arrowservices" x="819" y="845"><title>arrowservices</title><path d="M119.28 31.31a5.44 5.44 0 0 0-3.21-6.11c-15.49-6.51-26.42-20.48-43-25-6.23-1.7-8.87 7.95-2.66 9.64 11.14 3 20 10.66 29.47 17.22-31.75.14-63.54.39-95.14-3-6.41-.7-6.34 9.31 0 10 28.45 3.09 57 3.19 85.63 3.08-.95.38-1.9.75-2.88 1.09-7.3 2.54-14.87 4.5-21.28 9-5.23 3.68-.24 12.36 5 8.63 6.61-4.65 14.52-6.35 22-9.12 6.79-2.52 13-6.24 19.39-9.69h1.6a4.68 4.68 0 0 0 4.81-4.64 4.09 4.09 0 0 0 .27-1.1z" fill="#f7a800"/></svg><svg data-name="Слой 1" viewBox="-5 -5 81.87 74.18" width="81.87" height="74.18" id="arrowtextleft" x="949" y="912"><title>arrowtextleft</title><path d="M41.18 2.57c-6.69 13.94-25.87 18.88-38.7 25.21a5 5 0 0 0-2.3 5.65c4.52 15.54 22.78 22.28 35.3 30 5.51 3.39 10.52-5.26 5-8.63-6-3.67-12.19-6.9-18.11-10.65-4-2.5-8.3-5.54-10.87-9.61 14.08-6.4 31.32-12.41 38.27-26.9 2.82-5.8-5.8-10.88-8.59-5.07z" fill="#fff"/><path d="M69.44 49.86c-6.62-3.82-12.91-8.15-19.22-12.45q-3.2-2.19-6.34-4.46l.28-.15c1.34-.74 2.77-1.36 4.16-2 8.32-3.91 20.32-12.78 20.13-23-.12-6.44-10.12-6.45-10 0 .09 4.64-6.62 8.87-9.91 11.37-5.3 4-12.69 5-16.52 10.92-4 6.08 6.42 11.29 10 13.83 7.27 5.1 14.63 10.15 22.32 14.59 5.65 3.22 10.68-5.43 5.1-8.65z" fill="#fff"/></svg><svg data-name="Слой 1" viewBox="-5 -5 83.21 82.1" width="83.21" height="82.1" id="arrowtextright" x="1031" y="987"><title>arrowtextright</title><path d="M46.52 33.95c-1.77-2.25-4.38-3.5-6.84-4.84-3.54-1.92-6.81-4.52-10.23-6.68-3.62-2.28-7.34-4.38-11-6.52-2.78-1.61-7.1-3.49-8.92-6.22-3.56-5.33-12.23-.33-8.63 5 4.23 6.33 12.41 9.72 18.82 13.43 3.73 2.16 7.35 4.53 10.93 6.92 1 .64 2.12 1.26 3.3 1.91a77 77 0 0 1-11.9 5.9c-6.37 2.36-12.44 4.19-17.56 8.88-4.77 4.36 2.32 11.41 7.07 7.07 4.54-4.15 10.81-5.28 16.36-7.56 6.2-2.54 11.83-6.18 17.63-9.49 3.01-1.66 2.91-5.33.97-7.8z" fill="#fff"/><path d="M72.28 33.54c-3.21-6.58-11.78-9.95-17.74-13.47C42.72 13.07 31.39 6 18.76.47c-5.85-2.56-10.94 6.05-5 8.63a232.47 232.47 0 0 1 30.75 16.33c5.7 3.59 12.31 6.64 17.44 11a7.27 7.27 0 0 1 .72.69 20.32 20.32 0 0 1-3.63 2.21c-4 2.3-8.16 4.29-12.15 6.62-4.67 2.73-9.1 5.84-13.78 8.55-5.12 3-10.64 5.17-15.73 8.21-5.53 3.31-.5 12 5 8.63s11.64-5.84 17.29-9.11c6.26-3.62 12.16-7.77 18.54-11.2 6.08-3.24 18.47-8.47 14.07-17.49z" fill="#fff"/></svg><svg data-name="Слой 1" viewBox="-5 -5 112.03 112.03" width="112.03" height="112.03" id="fb_" x="1115" y="1070"><title>fb</title><rect x="1.5" y="1.5" width="99.03" height="99.03" rx="10" ry="10" fill="none" stroke="#000" stroke-miterlimit="10" stroke-width="3"/><path d="M69.67 100.52H54.46V62.58H41.6c.11-4.91-.21-10.24.16-14.89 4.18-.1 8.78.21 12.7-.16 0-8.62-.68-15.87 2.19-21.32 2.67-5.06 7.8-8.48 14.58-8.94a75.33 75.33 0 0 1 13.64.63c-.1 4.34.2 9.09-.16 13.17-5.36.47-11.13-1.22-13.8 1.88s-.61 9.38-1.25 14.74c4.81.1 10-.21 14.58.16-.66 4.93-1.06 10.13-2 14.74H69.7v37.94z" fill="none" stroke="#000" stroke-miterlimit="10" stroke-width="3"/></svg><svg data-name="Слой 1" viewBox="-5 -5 121.88 107.24" width="121.88" height="107.24" id="sertificat" x="1228" y="1183"><title>sertificat</title><path d="M110.57 16.31c.28 10.46 0 20.92 0 31.38 0 7.07.85 15-.28 22.05l.22.6c-36.29 0-71.62-1.91-107.91-1.91v-1.27C-.58 44.84 1.96 23.32 1.96.99h.64c28.63 7.63 64.26 4.45 94.16 3.18l.32-.11c4.64 2.69 9.27 7.18 13 11.67" fill="#fff"/><path d="M109.57 16.31c.24 9.48.05 19 0 28.44 0 4.66.17 9.31.28 14q.07 3.26-.09 6.51c-.09 1.74-.83 3.73-.22 5.38l1-1.27c-36 0-71.93-1.89-107.91-1.91l1 1c0-5-1-10-1.31-15-.32-5.81-.33-11.63-.24-17.45.19-11.68.89-23.34.91-35l-1 1c1.91 0 4 .89 5.92 1.29 2.16.47 4.34.86 6.52 1.22 4.57.76 9.17 1.26 13.78 1.65a285.68 285.68 0 0 0 29 .69c9.6-.18 19.18-.68 28.77-1.16l6.71-.33 3.3-.15c1.41-.06.89-.15 2 .57a51.6 51.6 0 0 1 11.39 10.65c.83 1 2.24-.43 1.41-1.41a61.36 61.36 0 0 0-10.41-10c-.86-.64-2.52-2.29-3.7-1.86a12.25 12.25 0 0 1-3.18.17l-4.16.2c-9.83.48-19.65 1-29.48 1.26s-20 .21-29.92-.49q-7.52-.53-15-1.71c-2.46-.39-4.9-.87-7.32-1.4C5.78.8 3.86.01 1.97.01a1 1 0 0 0-1 1c0 11.68-.7 23.34-.91 35-.11 5.82-.05 11.64.24 17.45.25 5 1.31 10 1.31 15a1 1 0 0 0 1 1c36 0 71.93 1.89 107.91 1.91a1 1 0 0 0 1-1.27c-.49-1.33.2-3.46.29-4.85.14-2.17.12-4.34.09-6.51-.07-4.66-.29-9.31-.28-14 0-9.48.23-19 0-28.44a1 1 0 0 0-2 0z" fill="#181716"/><path d="M96.08 4.56c-.59 4.44-.68 8.92-1.27 13.36-.17 1.28 1.83 1.26 2 0 .59-4.44.68-8.92 1.27-13.36.17-1.28-1.83-1.26-2 0z" fill="#181716"/><path d="M95.83 19.16l14.59-1.91c1.26-.16 1.28-2.17 0-2l-14.59 1.91c-1.26.17-1.28 2.17 0 2zM22.08 23.33c20.52 0 41-.84 61.56-.86a1 1 0 0 0 0-2c-20.52 0-41 .84-61.56.86a1 1 0 0 0 0 2zM23.2 31.84c19.07-3.52 38.65-.86 57.87-.82a1 1 0 0 0 0-2c-19.42 0-39.14-2.67-58.41.89-1.27.23-.73 2.16.53 1.93zM26.35 39.57c17.76 0 35.67 2.52 53.28-.89 1.27-.25.73-2.17-.53-1.93-17.41 3.37-35.18.86-52.74.82a1 1 0 0 0 0 2z" fill="#181716"/><path d="M94 73.87c-1.06 3.47-2.79 22.37-2.79 22.37-1.78-1.88-5.11-5.91-5.11-5.91-1 .25-6 3.55-6 3.55.72-3.44 5-16.87 6.07-20.25z" fill="#fff"/><path d="M93.51 73.74c-1.14 3.94-1.33 8.29-1.78 12.35q-.56 5.07-1 10.16l.85-.35c-1.78-1.9-3.45-3.9-5.11-5.91a.49.49 0 0 0-.49-.13c-2.19.72-4.23 2.34-6.14 3.6l.73.56c1.22-5.59 3.17-11.07 4.89-16.52l1-3.2c.17-.54-.55-.18 0-.16h1.28l6.23.19a.5.5 0 0 0 0-1l-7.84-.24a.51.51 0 0 0-.48.37c-2.12 6.68-4.58 13.4-6.07 20.25a.5.5 0 0 0 .73.56 53.19 53.19 0 0 1 5.54-3.36q-.2-.39 0-.09l.4.48 1.34 1.59c1 1.24 2.11 2.47 3.22 3.66a.5.5 0 0 0 .85-.35q.44-4.81 1-9.62c.45-4.15.65-8.59 1.81-12.62a.5.5 0 0 0-.96-.22z" fill="#181716"/><path d="M99.25 72.07c.91 1.85 12.09 21.25 12.09 21.25-.66-.74-6.6-2.41-8-2.57a63.62 63.62 0 0 1-2.45 6c-2.44-6.35-8.21-23.17-8.21-23.17z" fill="#fff"/><path d="M98.83 72.32c3.66 7.26 8 14.21 12.09 21.25l.79-.61c-2-1.66-5.75-2.34-8.23-2.7a.52.52 0 0 0-.61.35 51.44 51.44 0 0 1-2.4 5.88l.91.12c-2.93-7.65-5.55-15.42-8.21-23.17l-.35.61 6.58-1.51a.518.518 0 0 0-.27-1l-6.58 1.51a.5.5 0 0 0-.35.62c2.66 7.75 5.28 15.52 8.21 23.17a.5.5 0 0 0 .91.12 53.5 53.5 0 0 0 2.5-6.12l-.61.35c2.25.33 6 1 7.79 2.45a.5.5 0 0 0 .79-.61c-4.06-7-8.43-14-12.09-21.25-.31-.55-1.17-.03-.87.54z" fill="#181716"/><path fill="#ea4e3e" d="M94.41 73.65l8.04 18.37.7-1.91 2.44.54-8.25-18.45-2.93 1.45zM88.11 73.72l-5.1 17.7 3.03-1.64 2.45 2.91 1.95-18.72-2.33-.25z"/><path d="M79 61.23c-.25 3.93 1.35 13.59 13.67 12.39a11 11 0 0 0 10.08-8.63c1-4.16 0-14.67-12.81-14.41-8.11.12-10.72 7.54-10.94 10.65z" fill="#fff"/><path d="M78.25 61.23c-.3 5.94 2.88 11.38 8.82 12.87 7.78 1.95 16-2.55 16.69-10.85a12.07 12.07 0 0 0-10.13-13.16c-7.64-1.41-14.64 3.23-15.38 11.14-.09 1 1.41 1 1.5 0a12.15 12.15 0 0 1 3.14-6.88c2.78-3.08 7.11-3.42 11-2.71 5.7 1 8.73 6.09 8.41 11.6-.44 7.76-8.6 10.95-15.35 9.26-5.06-1.27-7.41-6.43-7.16-11.28.04-.99-1.49-.99-1.54.01z" fill="#181716"/><path d="M97.46 68.8c-1.53-.68-4.66-2-6.3-1.74a63.3 63.3 0 0 0-6.09 2.42v-.17c.24-1.58 1.21-5.13 1.21-5.13-1.3-1.13-4.89-4-4.89-4 1.84-.56 3.42-.84 5.42-1.49l2.24-5.92c1.47 1.78 4.14 5.71 4.14 5.71 2.25-.16 4.41-.31 6.59-.37l-4.45 4.83c.11 1.83 2.13 5.86 2.13 5.86z" fill="#ea4e3e"/></svg><svg data-name="Слой 1" viewBox="-5 -5 112.03 112.03" width="112.03" height="112.03" id="vk_" x="1350" y="1291"><title>vk</title><path d="M73.19 30.59c2.74-.45 6.16-.09 9.44-.2 3.09-.11 6.56-.95 8.24 1-.25 5-3.21 8.3-5.83 11.85-1 1.34-2.46 3-4 5-1.19 1.56-3.26 4.12-3.21 5.83.09 3.21 4.88 5.89 7.23 8.24a42.2 42.2 0 0 1 3.62 4.22c1 1.27 2.78 3.63 2.41 5.22-.51 2.18-3.89 2-7.23 2-4.26 0-8.18.71-10.85-.4-2.28-.94-4.23-3.38-5.83-5.22-2.38-2.75-7.37-8.35-9-.8-.43 2-.13 4.55-1.21 5.63-1.3 1.3-5.76 1-8.64.8-14.51-1-22.58-13.22-28.73-23.7-1.76-3-3.34-6-4.82-9s-3.59-6-3.82-9.64c1.38-1.76 4.54-1.21 7.23-1.21s6.22-.52 8 .4c1.13.57 2.24 3.32 3.21 5.42a63.32 63.32 0 0 0 6 10.85c1 1.42 3.09 4 4.62 3.82 3.39-.45 2.93-14.71 1.21-17.28-.88-1.31-2.29-1.48-3.82-2.21 1-2.34 3.79-2.82 6.63-3 4-.28 11.79-.61 13.26 2 1.26 2.25.34 7.38.2 10.85s-.49 9 2 9.44c3 .47 6.77-7.2 7.83-9a57.52 57.52 0 0 0 3-5.42c.89-1.97 1.24-4.27 2.86-5.49z" fill="none" stroke="#000" stroke-miterlimit="10" stroke-width="3"/><rect x="1.5" y="1.5" width="99.03" height="99.03" rx="10" ry="10" fill="none" stroke="#000" stroke-miterlimit="10" stroke-width="3"/></svg></svg>