<svg id="Слой_1" data-name="Слой 1" xmlns="http://www.w3.org/2000/svg" viewBox="0 0 128.85 165.87"><title>advantages-img3</title><path d="M-62.75,1896.1c-4.14-1.67-9.48-1-13.83-1-6.44,0-31.15-6.85-40.57-7.19,8.27-19.87-14.44-40.49-34.14-35.53-8.42,2.12-20,7.93-22.61,16.86-1.55,5.3-.53,12.42,1.69,17.34,3,6.69,7.7,11.75,2.75,18.9-3,4.38-7.32,7.44-10,12.17a28.24,28.24,0,0,0-3.12,14.93c0.23,5.28,2.56,9.83,6,13.72,2,2.26,4,4.2,5.35,6.94,2,4,.78,9-0.16,13.16-1.68,7.33-3.73,14.47-5,21.9-0.79,4.67-2.94,10.08-1.86,14.82,0.89,3.92,6.21,4.1,9.3,4a41.11,41.11,0,0,0,7.19-1.1c5.69-1.15,10.66-.74,16.35.16,13.66,2.16,27.4,3.11,40.89,6.32,6.75,1.61,13.49,3.22,20.36,4.24,3.65,0.54,7.48,1.12,11.14.39,7.61-1.52,8.24-15.17,9.23-20.85,2.42-13.93,4.31-27.94,6.37-41.92,1.81-12.25,3-24.46,3.6-36.83C-53.39,1909.3-54,1899.62-62.75,1896.1Z" transform="translate(182.57 -1851.62)" style="fill:#fff"/><path d="M-131,1930.37a7.43,7.43,0,0,0,3.45-.12,0.91,0.91,0,0,0,.79-0.92,0.9,0.9,0,0,0-1.14-.4,5.13,5.13,0,0,1-2.43,0,1.26,1.26,0,0,0-1.26.59,0.6,0.6,0,0,0,.59.81h0Z" transform="translate(182.57 -1851.62)" style="fill:#ea4e3e"/><path d="M-134.05,1947.42c-1.17,9.2,2.23,17.9,2.07,27.07,0,0.89,1.93.52,1.94-.21,0.16-9.16-3.24-17.88-2.07-27.07,0.11-.86-1.85-0.53-1.94.21h0Z" transform="translate(182.57 -1851.62)" style="fill:#181716"/><path d="M-163,1925.49c-1.63,1.51-2.84,3.27-1.87,5.5s3.37,3.67,5.1,5.14c0.53,0.45,2.33-.3,1.79-0.76-3.05-2.61-7.68-5.62-3.47-9.55,0.83-.77-1.08-0.78-1.55-0.34h0Z" transform="translate(182.57 -1851.62)" style="fill:#181716"/><path d="M-171.31,1916.94c-2.8,5.15-6.38,12-3.71,17.91,2,4.42,8.39,5.19,12.23,7.13,0.84,0.43,2.21-.8,1.1-1.36-4.13-2.09-9.73-2.62-11.86-7.29-2.23-4.91,1.79-11.9,4.09-16.13,0.54-1-1.43-1.05-1.86-.26h0Z" transform="translate(182.57 -1851.62)" style="fill:#181716"/><path d="M-159.47,1873.75c3.43,4.45,10.28,4.46,15.4,4.56,7.37,0.14,13.32-3.22,19.92-6.08,1.17-.51-0.66-0.46-1.12-0.26-6.18,2.68-11.64,5.66-18.66,5.53-4.56-.08-10.58-0.33-13.61-4.26-0.36-.47-2.08.32-1.93,0.52h0Z" transform="translate(182.57 -1851.62)" style="fill:#181716"/><path d="M-123.52,1871.6c-1.49-10.05-19.32-15-27.87-13.12a21,21,0,0,0-14.85,12.18c-2.57,5.64-1.81,14.06,2.88,18.38,0.57,0.52,2.39-.24,1.78-0.8-10.91-10,.19-29.08,13.5-28.79,7.52,0.17,21.33,3.86,22.63,12.67,0.11,0.77,2.05.31,1.93-.52h0Z" transform="translate(182.57 -1851.62)" style="fill:#181716"/><path d="M-163.13,1875.06a6.82,6.82,0,0,0,4.73,3c0.84,0.13,2-1,.71-1.24a5.57,5.57,0,0,1-3.66-2.58c-0.43-.62-2.29.06-1.78,0.8h0Z" transform="translate(182.57 -1851.62)" style="fill:#181716"/><path d="M-164.05,1877.18a11.87,11.87,0,0,0,4.75,3.48c0.81,0.32,2.26-.84,1.12-1.29a10.3,10.3,0,0,1-4.1-3c-0.56-.66-2.4.1-1.77,0.85h0Z" transform="translate(182.57 -1851.62)" style="fill:#181716"/><path d="M-164.53,1879.26a11.09,11.09,0,0,0,4.33,2.68,1.43,1.43,0,0,0,1.38-.14c0.26-.18.58-0.7,0.13-0.89-1.38-.6-3.08-1.25-4.06-2.45-0.5-.61-2.35.11-1.78,0.81h0Z" transform="translate(182.57 -1851.62)" style="fill:#181716"/><path d="M-165.48,1881.74c1.4,0.74,2.46,2,4,2.56a2,2,0,0,0,1.24-.13s0.89-.4.59-0.51c-1.5-.55-2.57-1.82-4-2.56a1.82,1.82,0,0,0-1.24.13c-0.06,0-.88.36-0.59,0.51h0Z" transform="translate(182.57 -1851.62)" style="fill:#181716"/><path d="M-162.82,1888.27a4,4,0,0,0-1.43.28,1.06,1.06,0,0,0-.82.66c-0.28,3.57,4.35,10.1,8.35,7.71l-1.58-.09c0.88,4,5.42,6.35,9,7.54,0.7,0.23,2.28-.79,1.15-1.16-3.29-1.09-7.43-3.22-8.23-6.9-0.14-.64-1.25-0.29-1.58-0.09-1,.6-3.06-2.28-3.52-2.9a7,7,0,0,1-1.65-4.3l-0.82.66,0.9-.18c1-.05,1.55-1.28.22-1.22h0Z" transform="translate(182.57 -1851.62)" style="fill:#181716"/><path d="M-130.58,1876.08c0.57,6.1,1.81,12,.48,18.09a22.4,22.4,0,0,1-2.07,5.4c-1.94,3.81-6.38,4.21-10.08,4.8-0.77.12-1.72,0.92-.36,0.7,5.51-.87,9.12-0.71,12.35-5.84,4.46-7.1,2.34-15.93,1.62-23.66,0-.36-2,0-1.93.52h0Z" transform="translate(182.57 -1851.62)" style="fill:#181716"/><path d="M-136.4,1882c-0.43,1.55-.8,3.8,1.11,4.46a1.7,1.7,0,0,0,1.74-.56,4,4,0,0,0-.52-3.69c-0.3-.43-2.17.18-1.81,0.7a3.63,3.63,0,0,1,.41,3.3l1.74-.56c-1.58-.54-1.09-2.72-0.76-3.93,0.15-.53-1.76-0.25-1.92.3h0Z" transform="translate(182.57 -1851.62)" style="fill:#181716"/><path d="M-146.15,1882.7c-1,1.93-.69,4.38,1.76,4.79a1.23,1.23,0,0,0,1.26-.6,4.73,4.73,0,0,0-.51-4.27c-0.51-.73-2.34,0-1.77.86a3.62,3.62,0,0,1,.43,3.18l1.26-.6c-1.5-.25-1.07-2.21-0.57-3.13s-1.44-1-1.85-.23h0Z" transform="translate(182.57 -1851.62)" style="fill:#181716"/><path d="M-140.37,1886.1c0.35,0.92.76,1.81,1,2.76a4.23,4.23,0,0,1,.21,1.44c0,0.57-.12.62-0.61,0.6-0.72,0-2.06,1-.76,1.08s3.21-.43,3.31-2.1c0.09-1.48-.75-2.95-1.26-4.29-0.26-.67-2.16-0.09-1.93.52h0Z" transform="translate(182.57 -1851.62)" style="fill:#181716"/><path d="M-148.12,1896.36c4.83,1.16,10,3.54,14.26-.26,1-.87-0.55-1.59-1.29-0.93-3.57,3.18-8.31.7-12.31-.26-1-.23-1.93,1.14-0.66,1.45h0Z" transform="translate(182.57 -1851.62)" style="fill:#181716"/><path d="M-154.12,1903v2.8c0,0.92,1.95.56,1.95-.19v-2.8c0-.92-1.95-0.56-1.95.19h0Z" transform="translate(182.57 -1851.62)" style="fill:#181716"/><path d="M-137.81,1904.13v2.1c0,0.86,1.94.47,1.94-.22v-2.1c0-.86-1.94-0.47-1.94.22h0Z" transform="translate(182.57 -1851.62)" style="fill:#181716"/><path d="M-154.4,1906.07c4.56,2,9.38,3.79,14.4,2.53,5.5-1.38,10.21.88,14.1,4.86,0.4,0.41,2.21-.29,1.81-0.7a23.39,23.39,0,0,0-9.66-5.84,6,6,0,0,0-3,0c-6.09,1.53-10.6.74-16.13-1.66-0.48-.21-2.26.53-1.56,0.83h0Z" transform="translate(182.57 -1851.62)" style="fill:#ea4e3e"/><path d="M-153,1905.24c-5.19-.46-11,3.45-14.78,6.68-1.17,1-4.46,3.44-3.36,5.45,2,3.76,6.7,5.85,9.21,9.42,0.45,0.65,2.31-.06,1.78-0.82a25.53,25.53,0,0,0-4.63-5c-2.85-2.37-6.14-4-2.45-7.66,3.14-3.1,9-7.22,13.54-6.82,0.87,0.08,2-1.17.7-1.29h0Z" transform="translate(182.57 -1851.62)" style="fill:#ea4e3e"/><path d="M-167.39,1940.76c-1,1.75-1.29,3.64.31,5.11s3.89,1.67,5.83,1.7c0.59,0,2.1-.86.81-0.88a7.82,7.82,0,0,1-4.83-1.51c-1.58-1.27-1.12-3.21-.21-4.73,0.2-.34-1.61-0.2-1.91.31h0Z" transform="translate(182.57 -1851.62)" style="fill:#181716"/><path d="M-161.12,1946.49c-0.16,7.14-1.92,14-3,21.07-1.22,7.76-1.61,15.65-2.57,23.44a0.61,0.61,0,0,0,.43.62l10.49,3a1.17,1.17,0,0,0,1.53-.75c2.7-11,5.45-22.15,10.43-32.43,0.5-1-1.46-1.09-1.86-.27-5,10.4-7.81,21.65-10.54,32.82l1.53-.75-6.62-1.91-3.47-1s0.81-6.43.91-7.37c0.64-6.38,1.17-12.76,2.28-19.08,1-5.85,2.31-11.58,2.44-17.54,0-1.06-1.94-.81-2,0.12h0Z" transform="translate(182.57 -1851.62)" style="fill:#181716"/><path d="M-165.52,1991.81c-0.78,3.07-2.48,5.79-3.26,8.86-0.1.41,1.78,0.14,1.91-.34,0.78-3.07,2.48-5.79,3.26-8.86,0.1-.41-1.78-0.14-1.91.34h0Z" transform="translate(182.57 -1851.62)" style="fill:#181716"/><path d="M-168.26,2001.09c5.22-.51,9.54-3.95,13.41-7.21,0.38-.32-1.4-0.11-1.74.18-3,2.56-6.7,5.9-10.82,6.31-0.46,0-2.12.84-.85,0.72h0Z" transform="translate(182.57 -1851.62)" style="fill:#181716"/><path d="M-133,1991.31a30,30,0,0,1-6.58,1.71q-0.14-1.65-.38-3.28a78.45,78.45,0,0,0-1.74-8.49c-1.24-5.07-2.88-10-4.41-15-0.13-.43-2.05.12-1.93,0.52,2.62,8.52,6.52,18,6.52,27,0,0.17.47,0.12,0.54,0.12a31.92,31.92,0,0,0,8.63-2.16c1.3-.46.06-0.67-0.66-0.41h0Z" transform="translate(182.57 -1851.62)" style="fill:#181716"/><path d="M-141.05,1993.91c-0.79,4.45,4.42,4.14,7.38,4.64a2.37,2.37,0,0,0,1.35-.24c0.14-.06.68-0.43,0.23-0.51-2.7-.45-7.8-0.09-7.06-4.22,0.08-.47-1.82-0.14-1.91.34h0Z" transform="translate(182.57 -1851.62)" style="fill:#181716"/><path d="M-97.67,1906.64c0.93-2.82,1.48-11.82,5.94-11.35,6.26,0.66,5.69,8.76,4.74,13.11-0.08.37,1.8,0.09,1.9-.36,1.2-5.53.88-14.31-7-13.47-6,.64-6,8.05-7.46,12.43-0.1.31,1.75,0.11,1.9-.36h0Z" transform="translate(182.57 -1851.62)" style="fill:#181716"/><path d="M-94,1900.22a1.72,1.72,0,0,0,1.17,2.89,3.87,3.87,0,0,0,4.37-2.46c0.5-1.74-.2-3.6-2.2-3.51a3.73,3.73,0,0,0-3.59,3.88c0,0.34,1.92.07,1.93-.52a3.92,3.92,0,0,1,.57-2.06,1.87,1.87,0,0,1,.55-0.55s-0.47,0-.12.09c1.26,0.3,1.17,2.24.91,3.15a2,2,0,0,1-.85,1.22c0.07,0,.16,0,0,0a1.43,1.43,0,0,1-.52-0.15c-1-.48-0.8-1.52-0.26-2.28,0.22-.3-0.72-0.23-0.78-0.22a1.74,1.74,0,0,0-1.13.54h0Z" transform="translate(182.57 -1851.62)" style="fill:#181716"/><path d="M-99.89,1907.88a58.65,58.65,0,0,0,14,1.44c0.84,0,2-1.27.7-1.28a56.79,56.79,0,0,1-13.53-1.36c-0.74-.18-2.29.92-1.14,1.2h0Z" transform="translate(182.57 -1851.62)" style="fill:#181716"/><path d="M-86.46,1908.85c1.74,2.45,3.93,4.72,5.05,7.55,0.31,0.78,2.22.21,1.93-.52-1.16-2.94-3.39-5.29-5.2-7.83-0.44-.62-2.3.07-1.78,0.8h0Z" transform="translate(182.57 -1851.62)" style="fill:#181716"/><path d="M-100.29,1907.49a39.92,39.92,0,0,0-6.89,5.46c-0.4.44,1.44,0.19,1.75-.15a38.34,38.34,0,0,1,6.62-5.26c0.8-.55-1.14-0.29-1.48-0.06h0Z" transform="translate(182.57 -1851.62)" style="fill:#181716"/><path d="M-106.64,1913.85c8.36,0.48,16.26,3.87,24.72,2.81,1.1-.14,1.46-1.65.15-1.49-8.28,1-16-2.32-24.22-2.79-1-.06-2,1.4-0.65,1.47h0Z" transform="translate(182.57 -1851.62)" style="fill:#181716"/><path d="M-99,1902.24c-3.23,1.05-4.59,4.64-5.24,7.69-0.19.91,1.78,0.64,2-.17,0.43-2,1.36-5.55,3.62-6.29,1.15-.38.84-1.62-0.33-1.24h0Z" transform="translate(182.57 -1851.62)" style="fill:#181716"/><path d="M-85.88,1904.71c2.41,1.44,3,4.27,2.84,6.89-0.05.76,1.89,0.37,1.93-.25,0.2-3-.51-5.94-3.22-7.55-0.52-.31-2.31.46-1.54,0.91h0Z" transform="translate(182.57 -1851.62)" style="fill:#181716"/><path d="M-83.15,1912.48c2,0.14,15.24,1.09,15,3L-69,1923.3l-3.41,31.19L-77.91,2005l1.56-.64c-11.1-2.09-22.5-3.1-33.7-4.56l-15.43-2c-2.16-.28-1.23-0.4-1.12-2.63,0.17-3.26.38-6.53,0.6-9.79,1.13-16.9,2.55-33.79,4.08-50.66,0.59-6.53,1.21-13.06,1.93-19.58,0.21-1.9.43-3.79,0.71-5.68,0.05-.36,12.19,1.27,14.22,1.34,0.72,0,2.06-1,.76-1.08-5.21-.17-10.54-1.89-15.75-1a1.3,1.3,0,0,0-1.1.65c-2.14,13.11-2.81,26.57-3.94,39.79-1.39,16.33-2.83,32.68-3.57,49.05a0.37,0.37,0,0,0,.37.39c16.86,2.16,34,3.61,50.75,6.76,0.4,0.08,1.5-.09,1.56-0.64l9.87-90.27a0.3,0.3,0,0,0-.19-0.34c-5-1.91-10.75-2.4-16.09-2.79-0.72-.05-2.06,1-0.76,1.08h0Z" transform="translate(182.57 -1851.62)" style="fill:#181716"/><path d="M-98.24,1900.46c-7.65.13-15.23-1.3-22.87-1.35-3.33,0-3.69.82-3.95,3.78q-1.45,16.76-2.95,33.52-2.91,33-5.84,65.93a0.37,0.37,0,0,0,.37.39c10.65,1.87,21.49,3,32.21,4.38,9.22,1.21,18.47,2.69,27.73,3.57a1.4,1.4,0,0,0,1.34-.66q3.85-32.08,7.61-64.17c1.35-11.59,2.73-23.17,3.95-34.77,0.32-3,1.14-4.37-2.15-5.27-7.16-2-14.72-2.31-22-3.92-0.59-.13-2.28.78-1.19,1,6.75,1.5,13.66,2.16,20.43,3.56,2.22,0.46,3.38.45,3.16,2.73-0.17,1.78-.37,3.56-0.56,5.34-1.29,11.9-2.69,23.78-4.08,35.67q-3.52,30-7.13,60l1.34-.66c-12.06-1.14-25.18-3.24-37.55-4.87-6.56-.87-13.13-1.72-19.68-2.68-1.38-.2-1.93.15-1.87-0.46l0.37-4.17q3.9-44,7.77-87.91c0.06-.66.46-9.25,0.85-9.3,7.69-1.11,16.1,1.44,23.88,1.31,0.7,0,2.06-1.09.76-1.07h0Z" transform="translate(182.57 -1851.62)" style="fill:#181716"/><path d="M-114.81,1896.88c-0.37-2.5-2.25-1.25-2,.75,0.13,1.25,1,4.13,2.25,4,0.5-1.62,0-3.25-.12-5Z" transform="translate(182.57 -1851.62)" style="fill:#fff"/><path d="M-114.33,1896.75c-0.15-.8-0.56-1.8-1.56-1.59a2,2,0,0,0-1.41,1.8,6.43,6.43,0,0,0,.71,3.32,2.31,2.31,0,0,0,2,1.71,0.56,0.56,0,0,0,.53-0.39c0.45-1.7,0-3.39-.13-5.09,0-.44-0.82-0.17-0.94.07l-0.12.25c-0.25.49,0.73,0.5,0.92,0.11l0.13-.25-0.94.07c0.14,1.65.55,3.27,0.12,4.91l0.53-.39c-1,0-1.52-2.32-1.69-3a3.28,3.28,0,0,1,0-1.87c0.39-1.09.8,0.1,0.9,0.64S-114.25,1897.21-114.33,1896.75Z" transform="translate(182.57 -1851.62)" style="fill:#181716"/><path d="M-114.06,1896c0.63-3.5,2.62,0,2.62,1.75,0,1-.62,5.63-1.87,2.63Z" transform="translate(182.57 -1851.62)" style="fill:#fff"/><path d="M-113.58,1895.94a7.06,7.06,0,0,1,.19-0.75c0.09-.28.32-0.32,0-0.41a1.55,1.55,0,0,1,.63.63,5,5,0,0,1,.78,2.15,7.13,7.13,0,0,1-.54,3.31,1.47,1.47,0,0,1-.18.31c0.24-.34.52,0.11,0.22-0.22a1.79,1.79,0,0,1-.39-0.74l-0.21-1.25-0.53-3.09c-0.05-.31-1-0.08-1,0.26l0.72,4.18c0.24,1.4,1.69,1.79,2.31.44a6.38,6.38,0,0,0,.08-5,2.09,2.09,0,0,0-1.54-1.48c-1.05,0-1.39,1-1.56,1.82C-114.62,1896.42-113.64,1896.25-113.58,1895.94Z" transform="translate(182.57 -1851.62)" style="fill:#181716"/><path d="M-110.94,1895.5c2.63-3.5,2.38,7,0,5.13v-5.12Z" transform="translate(182.57 -1851.62)" style="fill:#fff"/><path d="M-110.5,1895.48c0.09-.12.18-0.23,0.28-0.34s0.25-.06,0-0.13a0.69,0.69,0,0,1,.32.36,3.65,3.65,0,0,1,.32,1.36,7.24,7.24,0,0,1-.42,3.37,1.82,1.82,0,0,1-.33.54c-0.17.18,0.35,0,.13,0a0.87,0.87,0,0,1-.25-0.13v-5.11c0-.2-1-0.05-1,0.26v5c0,0.45.9,0.42,1.18,0.36a1.73,1.73,0,0,0,1.2-1.08,7,7,0,0,0,.23-4.56c-0.44-1.4-1.91-.71-2.57.14C-111.6,1895.8-110.65,1895.68-110.5,1895.48Z" transform="translate(182.57 -1851.62)" style="fill:#181716"/><path d="M-108.31,1895.88c2.12-1.37,2.37,4.75-.12,4.88Z" transform="translate(182.57 -1851.62)" style="fill:#fff"/><path d="M-108.1,1896.18c0.82-.48,1,1.2,1,1.69,0,0.81-.23,2.42-1.27,2.52l0.45,0.34q0.06-2.44.13-4.87c0-.52-1-0.39-1,0.07q-0.06,2.44-.12,4.88a0.37,0.37,0,0,0,.45.34c1.73-.17,2.34-2,2.32-3.48,0-1.35-.83-3-2.38-2.06C-109.09,1895.91-108.58,1896.46-108.1,1896.18Z" transform="translate(182.57 -1851.62)" style="fill:#181716"/><path d="M-121.71,1899.29a1.17,1.17,0,0,1,.89-1.44,1.34,1.34,0,0,1,1.16,1.45c0,0.46,1,.28,1-0.1a1.89,1.89,0,0,0-2.09-2,2,2,0,0,0-1.9,2.32c0,0.38,1,.16,1-0.26h0Z" transform="translate(182.57 -1851.62)" style="fill:#181716"/><path d="M-108.23,1927.08c-1.77-.45-3.59-0.53-5.37-0.87a1.41,1.41,0,0,0-1.55.66c-0.8,2.69-.54,5.49-0.87,8.25a0.4,0.4,0,0,0,.38.43c2.06,0.44,4.19.31,6.25,0.75,0.41,0.09,1.51-.08,1.55-0.66,0.12-1.42.26-2.84,0.5-4.25,0.13-.78-1.82-0.46-1.94.23-0.24,1.41-.38,2.83-0.5,4.25l1.55-.66c-2.06-.44-4.19-0.31-6.25-0.75l0.38,0.43c0.34-2.76.07-5.56,0.88-8.25l-1.55.66c1.79,0.34,3.61.43,5.37,0.88,0.64,0.16,2.28-.8,1.17-1.08h0Z" transform="translate(182.57 -1851.62)" style="fill:#181716"/><path d="M-114.47,1930.8a7.41,7.41,0,0,1,2.25,2.18c0.34,0.45,1.52-.08,1.79-0.38q4.14-4.49,8.62-8.63c0.79-.73-1.12-0.57-1.52-0.21q-4.62,4.26-8.88,8.87l1.79-.38a8,8,0,0,0-2.5-2.32c-0.47-.27-2.27.46-1.56,0.86h0Z" transform="translate(182.57 -1851.62)" style="fill:#ea4e3e"/><path d="M-110.7,1945.81c-1.6-.31-3.17-0.9-4.81-0.51s-1.44,2.43-1.52,3.78a15.37,15.37,0,0,1-.28,2.55c-0.11.5-.41,1.37,0,1.8,1.41,1.36,4.46.67,6.18,0.64,0.29,0,1.31-.18,1.36-0.6,0.17-1.51.57-3,.63-4.48,0-.4-1.91-0.12-1.93.52-0.06,1.45-.46,2.84-0.62,4.27l1.36-.6c-1.53,0-3.66.54-5-.31-0.67-.41.11-2.35,0.15-3a18.19,18.19,0,0,1,.41-4l-0.6.17a5.85,5.85,0,0,1,.73.07c0.42,0.05.82,0.15,1.23,0.25s1,0.23,1.47.33,2.25-.69,1.23-0.88h0Z" transform="translate(182.57 -1851.62)" style="fill:#181716"/><path d="M-115.33,1950a15.1,15.1,0,0,1,1.75,1.75,1.27,1.27,0,0,0,1.86-.5c1-3.87,5.2-6.3,8.27-8.42,1.08-.75-0.55-1.17-1.23-0.7-3.41,2.36-7.87,5-9,9.33l1.86-.5a15.06,15.06,0,0,0-1.75-1.75c-0.58-.49-2.39.28-1.78,0.8h0Z" transform="translate(182.57 -1851.62)" style="fill:#ea4e3e"/><path d="M-111,1962.92c-1.31-.51-4.94-1.83-6.1-0.28-1.5,2-1.06,5.19-.89,7.5a0.43,0.43,0,0,0,.37.25c1.86,0.35,3.75.51,5.62,0.75,0.43,0.05,1.46-.08,1.56-0.63a20.48,20.48,0,0,0,.25-3.76c0-.56-1.93-0.21-1.93.52a19,19,0,0,1-.25,3.49l1.56-.63c-1.67-.21-3.34-0.37-5-0.63-0.65-.11-0.39-3.21-0.37-3.64a9,9,0,0,1,.73-3q-1.14.21-.33,0.24,0.46,0,.91.11a10.54,10.54,0,0,1,2.32.62c0.56,0.22,2.32-.61,1.54-0.91h0Z" transform="translate(182.57 -1851.62)" style="fill:#181716"/><path d="M-116.21,1966.9l1.12,1.88c0.33,0.55,1.57.1,1.8-.34,1.77-3.38,5.33-5.38,8-8,0.84-.82-1.06-0.94-1.58-0.43-2.77,2.7-6.4,4.76-8.25,8.28l1.8-.34-1.12-1.87c-0.38-.63-2.25,0-1.78.8h0Z" transform="translate(182.57 -1851.62)" style="fill:#ea4e3e"/><path d="M-112.56,1979.24c-1.6-.69-4.72-2.25-6.36-0.8-0.68.6-.67,1.88-0.74,2.7a55,55,0,0,0,.25,5.59,0.56,0.56,0,0,0,.62.53c1.61,0,3.87.78,5.39,0,1.79-.87.6-3.5,1.06-5,0.24-.8-1.72-0.55-1.94.19a5.77,5.77,0,0,0-.11,1.89c0,0.38,0,.76,0,1.15a5.43,5.43,0,0,1,0,.67q-0.22.55,0.32,0.08a27.57,27.57,0,0,1-4-.25l0.62,0.53c0-2.21-.45-4.42-0.12-6.62,0-.31.1-0.61,0.17-0.92-0.08.35-.88,0.16,0.1,0.23a10.26,10.26,0,0,1,3.25,1c0.66,0.29,2.4-.64,1.51-1h0Z" transform="translate(182.57 -1851.62)" style="fill:#181716"/><path d="M-104,1928.6a47.85,47.85,0,0,1-.89,8.53c0,0.26.92,0.08,1-.16a48.4,48.4,0,0,0,.9-8.62,0.81,0.81,0,0,0-1,.26h0Z" transform="translate(182.57 -1851.62)" style="fill:#ea4e3e"/><path d="M-103.53,1928.14c1.19,0.28,2.62,0,3.67.72,0.23,0.16,1.06-.23.91-0.34-1.11-.74-2.55-0.48-3.79-0.77-0.23-.06-1.08.32-0.79,0.39h0Z" transform="translate(182.57 -1851.62)" style="fill:#ea4e3e"/><path d="M-100.48,1932.6c-2.51.43-1.53,4.61,0.94,3.74a2,2,0,0,0,1.23-2.91,1.47,1.47,0,0,0-2.6,0c-0.24.48,0.73,0.46,0.92,0.1s0.1-.25.33-0.12a1.48,1.48,0,0,1,.6.74,1.21,1.21,0,0,1-.93,1.65c-0.57.07-.88-0.73-1-1.16s-0.08-1.26.38-1.34a0.57,0.57,0,0,0,.53-0.38,0.35,0.35,0,0,0-.44-0.3h0Z" transform="translate(182.57 -1851.62)" style="fill:#ea4e3e"/><path d="M-97,1933.06a12.82,12.82,0,0,0,.23,4c0.14,0.43,1.1.17,1-.26A12.2,12.2,0,0,1-96,1933c0-.5-1-0.34-1,0.08h0Z" transform="translate(182.57 -1851.62)" style="fill:#ea4e3e"/><path d="M-98.08,1932.87c1.06,0.2,2.25-.16,3.24.34,0.42,0.22,1.1-.4.55-0.68-1.08-.55-2.32-0.18-3.47-0.4-0.5-.1-1,0.61-0.32.74h0Z" transform="translate(182.57 -1851.62)" style="fill:#ea4e3e"/><path d="M-93,1932.79a1.5,1.5,0,0,0-1.58,1.48,2,2,0,0,0,.89,2,2.32,2.32,0,0,0,2.72-1.38c0.55-1.39-.87-2.21-2.08-2a0.6,0.6,0,0,0-.54.36c0,0.22.27,0.28,0.43,0.26a1.07,1.07,0,0,1,1.28,1.34c-0.11.46-.76,1.19-1.26,0.84a1.71,1.71,0,0,1-.47-1.34,1.79,1.79,0,0,1,.14-0.7,0.74,0.74,0,0,1,.14-0.21c0.08-.08,0,0,0,0a0.71,0.71,0,0,0,.63-0.28c0.12-.2-0.1-0.33-0.28-0.34h0Z" transform="translate(182.57 -1851.62)" style="fill:#ea4e3e"/><path d="M-90.57,1933.37a8.38,8.38,0,0,0,0,3.58c0.09,0.38,1.06.13,1-.26a8,8,0,0,1,0-3.43c0.09-.42-0.89-0.27-1,0.1h0Z" transform="translate(182.57 -1851.62)" style="fill:#ea4e3e"/><path d="M-89.38,1933.64a1.65,1.65,0,0,1,0-.45c0.06-.25-0.67,0-0.38.13a1.88,1.88,0,0,1,.54.62,2,2,0,0,1,.29.74,0.58,0.58,0,0,1,0,.21c0.1-.11.32-0.08,0.14-0.11a2.15,2.15,0,0,1-.3-0.09v0.42a0.94,0.94,0,0,1,1.14-.27,1.37,1.37,0,0,1,.42,1.09,1.38,1.38,0,0,1-.43,1,0.47,0.47,0,0,1-.39,0,2,2,0,0,1-.44-0.15q-0.18-.15-0.34.1a0.73,0.73,0,0,0,.26-0.19c0.4-.41-0.55-0.41-0.78-0.17,0.14-.15-0.11.08-0.13,0.09a0.46,0.46,0,0,0-.13.2c-0.07.31,0.24,0.4,0.46,0.5a2.32,2.32,0,0,0,1.34.18,1.81,1.81,0,0,0,1.5-1.43,1.71,1.71,0,0,0-.58-1.75c-0.79-.54-1.85-0.06-2.52.43-0.2.14-.26,0.33,0,0.42a1.4,1.4,0,0,0,1.64-.31,1.43,1.43,0,0,0-.29-1.37,1.49,1.49,0,0,0-1.13-.84,0.94,0.94,0,0,0-.93,1.18c0,0.33,1,.13,1-0.26h0Z" transform="translate(182.57 -1851.62)" style="fill:#ea4e3e"/><path d="M-85,1933.59c-2.07.66-1.29,4.24,0.92,3.84a2.38,2.38,0,0,0,1.77-3.05,1.82,1.82,0,0,0-2.92-.9c-0.51.42,0.27,0.72,0.64,0.42,0.65-.54,1.23.39,1.39,1a1.54,1.54,0,0,1-1.09,1.93c-0.89.09-1.36-2.29-.53-2.56,0.58-.19.42-0.83-0.17-0.64h0Z" transform="translate(182.57 -1851.62)" style="fill:#ea4e3e"/><path d="M-104.62,1947.22a47.85,47.85,0,0,1-.89,8.53c0,0.26.92,0.08,1-.16a48.4,48.4,0,0,0,.9-8.62,0.81,0.81,0,0,0-1,.26h0Z" transform="translate(182.57 -1851.62)" style="fill:#ea4e3e"/><path d="M-104.16,1946.76c1.19,0.28,2.62,0,3.67.72,0.23,0.16,1.06-.23.91-0.34-1.11-.74-2.55-0.48-3.79-0.77-0.23-.06-1.08.32-0.79,0.39h0Z" transform="translate(182.57 -1851.62)" style="fill:#ea4e3e"/><path d="M-101.11,1951.22c-2.51.43-1.53,4.61,0.94,3.74a2,2,0,0,0,1.23-2.91,1.47,1.47,0,0,0-2.6,0c-0.24.48,0.73,0.46,0.92,0.1s0.1-.25.33-0.12a1.48,1.48,0,0,1,.6.74,1.21,1.21,0,0,1-.93,1.65c-0.57.07-.88-0.73-1-1.16s-0.08-1.26.38-1.34a0.57,0.57,0,0,0,.53-0.38,0.35,0.35,0,0,0-.44-0.3h0Z" transform="translate(182.57 -1851.62)" style="fill:#ea4e3e"/><path d="M-97.62,1951.68a12.82,12.82,0,0,0,.23,4c0.14,0.43,1.1.17,1-.26a12.2,12.2,0,0,1-.22-3.79c0-.5-1-0.34-1,0.08h0Z" transform="translate(182.57 -1851.62)" style="fill:#ea4e3e"/><path d="M-98.71,1951.49c1.06,0.2,2.25-.16,3.24.34,0.42,0.22,1.1-.4.55-0.68-1.08-.55-2.32-0.18-3.47-0.4-0.5-.1-1,0.61-0.32.74h0Z" transform="translate(182.57 -1851.62)" style="fill:#ea4e3e"/><path d="M-93.67,1951.41a1.5,1.5,0,0,0-1.58,1.48,2,2,0,0,0,.89,2,2.32,2.32,0,0,0,2.72-1.38c0.55-1.38-.87-2.21-2.08-2a0.6,0.6,0,0,0-.54.36c0,0.22.27,0.28,0.43,0.26a1.07,1.07,0,0,1,1.28,1.34c-0.11.46-.76,1.19-1.26,0.84a1.71,1.71,0,0,1-.47-1.34,1.78,1.78,0,0,1,.14-0.7A0.73,0.73,0,0,1-94,1952c0.08-.08,0,0,0,0a0.71,0.71,0,0,0,.63-0.28c0.12-.2-0.1-0.33-0.28-0.34h0Z" transform="translate(182.57 -1851.62)" style="fill:#ea4e3e"/><path d="M-91.2,1952a8.38,8.38,0,0,0,0,3.58c0.09,0.38,1.06.13,1-.26a8,8,0,0,1,0-3.43c0.09-.42-0.89-0.27-1,0.1h0Z" transform="translate(182.57 -1851.62)" style="fill:#ea4e3e"/><path d="M-90,1952.26a1.65,1.65,0,0,1,0-.45c0.06-.25-0.67,0-0.38.13a1.88,1.88,0,0,1,.54.62,2,2,0,0,1,.29.74,0.58,0.58,0,0,1,0,.21c0.1-.11.32-0.08,0.14-0.11a2.15,2.15,0,0,1-.3-0.09v0.42a0.94,0.94,0,0,1,1.14-.27,1.37,1.37,0,0,1,.42,1.09,1.38,1.38,0,0,1-.43,1,0.47,0.47,0,0,1-.39,0,2,2,0,0,1-.44-0.15q-0.18-.15-0.34.1a0.73,0.73,0,0,0,.26-0.19c0.4-.41-0.55-0.41-0.78-0.17,0.14-.15-0.11.08-0.13,0.09a0.46,0.46,0,0,0-.13.2c-0.07.31,0.24,0.4,0.46,0.5a2.32,2.32,0,0,0,1.34.18,1.81,1.81,0,0,0,1.5-1.43,1.71,1.71,0,0,0-.58-1.75c-0.79-.54-1.85-0.06-2.52.43-0.2.14-.26,0.33,0,0.42a1.4,1.4,0,0,0,1.64-.31,1.43,1.43,0,0,0-.29-1.37,1.49,1.49,0,0,0-1.13-.84,0.94,0.94,0,0,0-.93,1.18c0,0.33,1,.13,1-0.26h0Z" transform="translate(182.57 -1851.62)" style="fill:#ea4e3e"/><path d="M-85.58,1952.21c-2.07.66-1.29,4.24,0.92,3.84A2.38,2.38,0,0,0-82.9,1953a1.82,1.82,0,0,0-2.92-.9c-0.51.42,0.27,0.72,0.64,0.42,0.65-.54,1.23.39,1.39,1a1.54,1.54,0,0,1-1.09,1.93c-0.89.09-1.36-2.29-.53-2.56,0.58-.19.42-0.83-0.17-0.64h0Z" transform="translate(182.57 -1851.62)" style="fill:#ea4e3e"/><path d="M-106.72,1963.48a47.85,47.85,0,0,1-.89,8.53c0,0.26.92,0.08,1-.16a48.36,48.36,0,0,0,.9-8.62,0.81,0.81,0,0,0-1,.26h0Z" transform="translate(182.57 -1851.62)" style="fill:#ea4e3e"/><path d="M-106.26,1963c1.19,0.28,2.62,0,3.67.72,0.23,0.16,1.06-.23.91-0.34-1.11-.74-2.55-0.48-3.79-0.77-0.23-.06-1.08.32-0.79,0.39h0Z" transform="translate(182.57 -1851.62)" style="fill:#ea4e3e"/><path d="M-103.21,1967.49c-2.51.43-1.53,4.61,0.94,3.74a2,2,0,0,0,1.23-2.91,1.47,1.47,0,0,0-2.6,0c-0.24.48,0.74,0.46,0.92,0.1s0.1-.25.33-0.12a1.48,1.48,0,0,1,.6.74,1.21,1.21,0,0,1-.93,1.65c-0.57.07-.88-0.73-1-1.16s-0.08-1.26.38-1.34a0.57,0.57,0,0,0,.53-0.38,0.35,0.35,0,0,0-.44-0.3h0Z" transform="translate(182.57 -1851.62)" style="fill:#ea4e3e"/><path d="M-99.72,1967.94a12.84,12.84,0,0,0,.23,4c0.14,0.43,1.1.17,1-.26a12.2,12.2,0,0,1-.22-3.79c0-.5-1-0.34-1,0.08h0Z" transform="translate(182.57 -1851.62)" style="fill:#ea4e3e"/><path d="M-100.81,1967.75c1.06,0.2,2.26-.16,3.24.34,0.42,0.21,1.1-.4.55-0.68-1.08-.55-2.32-0.18-3.47-0.4-0.5-.1-1,0.61-0.33.74h0Z" transform="translate(182.57 -1851.62)" style="fill:#ea4e3e"/><path d="M-95.77,1967.67a1.5,1.5,0,0,0-1.58,1.48,2,2,0,0,0,.89,2,2.32,2.32,0,0,0,2.72-1.38c0.55-1.38-.87-2.21-2.08-2a0.6,0.6,0,0,0-.54.36c0,0.22.27,0.28,0.43,0.26a1.07,1.07,0,0,1,1.28,1.34c-0.11.46-.76,1.19-1.26,0.84a1.7,1.7,0,0,1-.47-1.34,1.79,1.79,0,0,1,.14-0.7,0.74,0.74,0,0,1,.14-0.21c0.08-.08,0,0,0,0a0.71,0.71,0,0,0,.63-0.28c0.12-.2-0.1-0.33-0.28-0.34h0Z" transform="translate(182.57 -1851.62)" style="fill:#ea4e3e"/><path d="M-93.3,1968.25a8.38,8.38,0,0,0,0,3.58c0.09,0.38,1.06.13,1-.26a8,8,0,0,1,0-3.43c0.09-.41-0.89-0.27-1,0.1h0Z" transform="translate(182.57 -1851.62)" style="fill:#ea4e3e"/><path d="M-92.11,1968.52a1.65,1.65,0,0,1,0-.45c0.06-.25-0.67,0-0.38.13a1.89,1.89,0,0,1,.54.62,2,2,0,0,1,.29.74,0.58,0.58,0,0,1,0,.21c0.1-.11.32-0.08,0.14-0.11a2.14,2.14,0,0,1-.3-0.09V1970a0.94,0.94,0,0,1,1.14-.27,1.37,1.37,0,0,1,.42,1.09,1.37,1.37,0,0,1-.43,1,0.47,0.47,0,0,1-.39,0,2,2,0,0,1-.44-0.15q-0.18-.15-0.34.1a0.74,0.74,0,0,0,.26-0.19c0.4-.41-0.55-0.41-0.78-0.17,0.14-.15-0.11.08-0.13,0.09a0.46,0.46,0,0,0-.13.2c-0.07.31,0.24,0.4,0.46,0.5a2.32,2.32,0,0,0,1.34.18,1.81,1.81,0,0,0,1.5-1.43,1.71,1.71,0,0,0-.58-1.75c-0.79-.54-1.85-0.06-2.52.43-0.2.14-.26,0.33,0,0.42a1.4,1.4,0,0,0,1.64-.31,1.43,1.43,0,0,0-.29-1.37,1.49,1.49,0,0,0-1.13-.84,0.94,0.94,0,0,0-.93,1.18c0,0.33,1,.13,1-0.26h0Z" transform="translate(182.57 -1851.62)" style="fill:#ea4e3e"/><path d="M-87.68,1968.48c-2.07.66-1.29,4.24,0.92,3.84a2.38,2.38,0,0,0,1.77-3.05,1.82,1.82,0,0,0-2.92-.9c-0.51.42,0.27,0.72,0.64,0.42,0.65-.54,1.23.39,1.39,1a1.54,1.54,0,0,1-1.09,1.93c-0.89.09-1.36-2.29-.53-2.56,0.58-.19.42-0.83-0.17-0.64h0Z" transform="translate(182.57 -1851.62)" style="fill:#ea4e3e"/><path d="M-132,1921.76c-0.48,6.32-.8,12.66-1.38,19q-0.18,1.9-.42,3.79c-0.53,4.5-4.51,5.12-8.34,5.11a41.22,41.22,0,0,1-9.41-1.54c-2.54-.62-5.06-1.37-7.59-2-0.54-.14.54-4.08,0.69-5a49.49,49.49,0,0,0-.28-16.31c-0.07-.4-2,0-1.93.52a53.69,53.69,0,0,1-.69,21.35c0,0.19.18,0.22,0.33,0.22,4.54,0,9.71,2.6,14.27,3.3a24,24,0,0,0,10.54-.52c4.68-1.48,4-2.43,4.57-7.5,0.81-6.93,1.05-13.92,1.58-20.87,0-.27-1.89-0.06-1.93.52h0Z" transform="translate(182.57 -1851.62)" style="fill:#ea4e3e"/></svg>