<svg id="Слой_1" data-name="Слой 1" xmlns="http://www.w3.org/2000/svg" viewBox="0 0 123.51 171.58"><title>advantages-img5</title><path d="M811.71,2050.53c-1.64.89-12.2,5.39-12.69,20-0.16,4.79,2.49,22.5.61,31-3,13.6-10.41,15.42-10.41,36,0,12.28,15.68,13,16.18,34.5,0.67,28.18-21.69,45.59,14.65,42.84,5.92-.45,11.51-3.17,17.26-3.74,7.48-.58,12.95,3.45,20.14,4.32,6.62,0.58,12.37-2.59,18.7-3.74,5.75-1.15,11.8-.58,17.55,0,2.88,0.29,7.19,1.44,8.92-.86,1.73-1.73.86-6.91,0.29-9.21-0.86-4.89-4.6-10.93-3.74-15.54s5.18-6,5.18-10.93c0-2.88-1.15-6-2-8.92-1.15-5.47-3.16-11.8-.58-17.26,3.45-7.48,8.06-10.36,8.06-19,0-7.48-4-10.36-7.19-16.11-6.62-12.08,8.06-23.3,9.78-34.53,2-12.66-5.75-24.74-16.4-31.36a29.24,29.24,0,0,0-16.11-4c-8.63.29-13.81,6.33-21,9.78-2,1.15-4.32,2.3-6.62,1.73C852.28,2055.52,823.79,2044.49,811.71,2050.53Z" transform="translate(-789.22 -2043.97)" style="fill:#fff"/><path d="M897.51,2138.12a6.1,6.1,0,0,0,1.55-.65c1.06-.55.94-0.56,0.68,0.65a8.22,8.22,0,0,1-3.34,4.42c-1,.75,0,2.49,1,1.73a10,10,0,0,0,4.46-6.91c0.11-1-.4-2.38-1.63-2.34s-2.1.94-3.26,1.18-0.73,2.19.53,1.93h0Z" transform="translate(-789.22 -2043.97)" style="fill:#181716"/><path d="M864.08,2134.23a4.92,4.92,0,0,1,1.92,2.13,1,1,0,0,0,1.23.7,1,1,0,0,0,.7-1.23,7.21,7.21,0,0,0-2.83-3.32c-1.08-.71-2.08,1-1,1.73h0Z" transform="translate(-789.22 -2043.97)" style="fill:#181716"/><path d="M857.42,2138.77c-2.86-.17-3,3.75-1.45,5.32,2,2,6.17,1.61,8.6.84A1,1,0,0,0,864,2143a11.48,11.48,0,0,1-4.45.41,4.34,4.34,0,0,1-2.21-.73c-0.42-.33-0.85-2,0-1.9,1.29,0.08,1.28-1.93,0-2h0Z" transform="translate(-789.22 -2043.97)" style="fill:#181716"/><path d="M894.66,2148.85c1.44,7.85,1.91,16,2.69,23.9l0.73-1c-7.47,2.82-16.41,3.32-24.29,2.94a36,36,0,0,1-6.45-.88c-1.06-.25-5.26-1.23-5.27-2.76,0-3.28.74-6.75,1.12-10,0.46-3.9.89-7.79,1.16-11.71,0.09-1.29-1.91-1.28-2,0-0.29,4.24-.78,8.46-1.27,12.68q-0.34,2.92-.65,5.85c-0.14,1.33-.61,3-0.19,4.29,0.47,1.48,2.92,2.34,4.21,2.85a25.92,25.92,0,0,0,6.4,1.42,66.43,66.43,0,0,0,15.94-.29,50.29,50.29,0,0,0,11.83-2.48,1,1,0,0,0,.73-1c-0.8-8.12-1.29-16.41-2.76-24.43-0.23-1.27-2.16-.73-1.93.53h0Z" transform="translate(-789.22 -2043.97)" style="fill:#181716"/><path d="M845.06,2148.68c2.08,7.28,3.43,14.84,5,22.24,1.77,8.31,3.71,16.66,4.94,25.08,0.18,1.27,2.11.73,1.93-.53-1.22-8.42-3.17-16.76-4.94-25.08-1.57-7.4-2.92-15-5-22.24a1,1,0,0,0-1.93.53h0Z" transform="translate(-789.22 -2043.97)" style="fill:#181716"/><path d="M810.81,2151.66c1,8.44.79,17.18,0.95,25.67,0.13,7.13.27,14.25,0.29,21.38a1,1,0,0,0,2,0c0-7.13-.16-14.26-0.29-21.38-0.15-8.49.1-17.23-.95-25.67-0.16-1.26-2.16-1.28-2,0h0Z" transform="translate(-789.22 -2043.97)" style="fill:#181716"/><path d="M835.12,2058.53c-2.53,2.08-3.45-.7-4.59-2.27a5,5,0,0,0-1.93-1.48c-1.42-.69-3.68-0.85-4.9.34a3.31,3.31,0,0,0-1.1,1.92,7.61,7.61,0,0,0,0,1.83l-1.67-.6-0.18-.86c-0.36-1.74-1.43-2.85-3.25-2.3-1,.3-4,5.64-4.41,5.22-0.93-.93-1.75-3.21-3.55-1.52-1.45,1.37-3.08,3.54-3.12,5.64,0,1.85.56,5,2.72,5.53,1.93,0.51,3.63-.52,5.19-1.57a30.19,30.19,0,0,0,2.95-2.31c0.44-.38,2.06-1.72,2.11-0.38a6.94,6.94,0,0,0,.21,1.72c1.07,3.66,6.63-1,8.14-1.74s1.19,0,.78,1.21a1.68,1.68,0,0,0,.34,1.6,2.56,2.56,0,0,0,2.16.55c1.65-.16,2.88-1.39,4.65-1.48,4.89-.24.25,5.56,0.71,7.6s2.4,3.17,4.44,3.53a7.9,7.9,0,0,0,1.49.08,1,1,0,0,0,0-2,4.38,4.38,0,0,1-3.77-1.4c-0.81-1.09.8-3.12,1.22-4.2a4.49,4.49,0,0,0-1.37-4.84c-1.36-1.11-4-1.07-5.52-.31a10.27,10.27,0,0,1-2.22.83,8.72,8.72,0,0,0,.39-1.09,2.5,2.5,0,0,0-.47-2.06c-1.73-2.4-6.7,2.25-8.42,2.9-1.14.43-.45-2.9-1.62-3.41-1.95-.85-3.84.76-5.25,2a24,24,0,0,1-2.95,2.13c-2.16,1.36-3.64.31-3.91-2.21-0.19-1.72,1.06-3,2-4.28,0.48-.67,1.17.78,1.52,1.13,1.1,1.09,3-.48,3.79-1.18a8.6,8.6,0,0,0,1.81-2.92c1-2.13,1.67,1.54,1.83,1.82,0.74,1.34,2.4,2.66,4,1.47a2.48,2.48,0,0,0,1.29-1.77c0.1-1.61,0-3.42,2.26-3.08s2.77,3,4.52,4.29,3.51,0.69,5.14-.65c1-.82-0.43-2.23-1.41-1.41h0Z" transform="translate(-789.22 -2043.97)" style="fill:#181716"/><path d="M805.48,2064.42c-2.35,3-2.15,6.62-.87,10,0.45,1.2,2.38.68,1.93-.53-1-2.63-1.52-5.7.36-8.09,0.79-1-.62-2.43-1.41-1.41h0Z" transform="translate(-789.22 -2043.97)" style="fill:#181716"/><path d="M831.25,2056.16c1.23-1.23,2.72,1.16,3.77,1.42,1.22,0.29,2.8-1.4,3.53.44,1,2.41,1.06,3.68,3.52,5,1.76,0.95,3.2,1.63,3.39,3.87,0.13,1.6-.62,3.26-0.82,4.84a6.18,6.18,0,0,0,.15,1.67A15.14,15.14,0,0,1,845,2078c-0.31,2.3-1.1,4.53-1.58,6.79-0.27,1.26,1.66,1.79,1.93.53,0.56-2.62,1.52-5.22,1.73-7.9s-0.59-5.32.12-8.11c1.11-4.39-1.09-6.44-4.64-8.35-2.76-1.48-1.31-5.47-5.13-5.86-0.44,0-2,.59-2.17.18a3,3,0,0,0-1.3-1.64c-1.51-.88-3,0-4.09,1.07a1,1,0,0,0,1.41,1.41h0Z" transform="translate(-789.22 -2043.97)" style="fill:#181716"/><path d="M838,2080.34c1.61,0.51,3.21,1.06,4.84,1.49a1,1,0,0,0,.53-1.93c-1.63-.44-3.23-1-4.84-1.49a1,1,0,0,0-.53,1.93h0Z" transform="translate(-789.22 -2043.97)" style="fill:#181716"/><path d="M838.46,2082.71c1.28,0.34,2.57.62,3.87,0.88s1.8-1.67.53-1.93-2.59-.54-3.87-0.88a1,1,0,0,0-.53,1.93h0Z" transform="translate(-789.22 -2043.97)" style="fill:#181716"/><path d="M838.72,2084.77a6.71,6.71,0,0,1,2.81.67,1,1,0,0,0,.53-1.93,7.89,7.89,0,0,0-3.34-.74,1,1,0,0,0-1,1,1,1,0,0,0,1,1h0Z" transform="translate(-789.22 -2043.97)" style="fill:#181716"/><path d="M838.55,2086.67c0.83,0.26,1.71.29,2.55,0.53a1,1,0,0,0,.53-1.93c-0.84-.23-1.72-0.27-2.55-0.53a1,1,0,0,0-.53,1.93h0Z" transform="translate(-789.22 -2043.97)" style="fill:#181716"/><path d="M838.64,2088.29a9.23,9.23,0,0,1,2,.49,1,1,0,0,0,.53-1.93,11.37,11.37,0,0,0-2.55-.56,1,1,0,0,0,0,2h0Z" transform="translate(-789.22 -2043.97)" style="fill:#181716"/><path d="M844.2,2085.78c1.88,1.44-.34,4-0.9,5.47s-1.25,4.53-3.43,3.87a1,1,0,0,0-1.13.46,22.92,22.92,0,0,1-5,7.54,1,1,0,0,0,1.41,1.41,24.26,24.26,0,0,0,5.34-7.94l-1.13.46c3.13,0.94,4.56-1.82,5.53-4.32,1.2-3.11,3.72-6.1.34-8.68-1-.78-2,1-1,1.73h0Z" transform="translate(-789.22 -2043.97)" style="fill:#181716"/><path d="M816.48,2082.89a29.86,29.86,0,0,0-1.32,4.48,1,1,0,0,0,.46,1.13,2.86,2.86,0,0,0,1.65.4c1.28-.08,1.29-2.08,0-2a0.73,0.73,0,0,1-.64-0.13l0.46,1.13a30.09,30.09,0,0,1,1.32-4.48,1,1,0,0,0-1.93-.53h0Z" transform="translate(-789.22 -2043.97)" style="fill:#181716"/><path d="M824.74,2079.46a3.37,3.37,0,0,0-1,2.8,2.28,2.28,0,0,0,1.48,1.75,2.07,2.07,0,0,0,2.22-.71,2.77,2.77,0,0,0,.41-3.11,1.87,1.87,0,0,0-2.83-.52,2.25,2.25,0,0,0-.79,2.61,1.61,1.61,0,0,0,1.89.82,1.82,1.82,0,0,0,1.17-2,1.06,1.06,0,0,0-.73-1,1.48,1.48,0,0,0-1.59.52,1,1,0,0,0,0,1.41,1,1,0,0,0,1.41,0c0.11-.09.2-0.2,0.31-0.29l-0.44.26-0.22,0-0.73-1a1.75,1.75,0,0,1,0,.23c0,0.29.05-.14,0,0.1,0-.21-0.07.06,0.09-0.13-0.11.13,0.14-.07,0.19-0.09s0.22,0,.14,0c0.22,0.06,0,0,.2.1s0,0,.11.18a0.28,0.28,0,1,0,0,.06c0,0.23,0,0,0-.06-0.06.18,0.11-.15,0.11-0.14a1.62,1.62,0,0,1,.14-0.13c-0.14.08-.32-0.09-0.18,0.05-0.09-.09,0,0.15,0,0.06a0.38,0.38,0,0,1,0,.24,1,1,0,0,1-.17.38c-0.14.25,0.07,0-.11,0.14s0.13-.07-0.09.07c0.11,0,.12,0,0,0s0.2,0,0,0c0.24,0,.06,0,0,0,0.23,0.07,0,0,0,0q0.15,0.12,0,0a0.2,0.2,0,1,0,0-.06,0.32,0.32,0,0,1,0-.18,0.56,0.56,0,0,1,.05-0.33,2.19,2.19,0,0,1,.39-0.6c0.85-1-.56-2.38-1.41-1.41h0Z" transform="translate(-789.22 -2043.97)" style="fill:#181716"/><path d="M811.66,2078a3.37,3.37,0,0,0-1,2.8,2.28,2.28,0,0,0,1.48,1.75,2.07,2.07,0,0,0,2.22-.71,2.77,2.77,0,0,0,.41-3.11,1.87,1.87,0,0,0-2.83-.52,2.25,2.25,0,0,0-.79,2.61,1.62,1.62,0,0,0,1.89.82,1.82,1.82,0,0,0,1.17-2,1.06,1.06,0,0,0-.73-1,1.48,1.48,0,0,0-1.59.52,1,1,0,0,0,0,1.41,1,1,0,0,0,1.41,0c0.11-.09.2-0.2,0.31-0.29l-0.44.26-0.22,0-0.73-1a1.76,1.76,0,0,1,0,.23c0,0.29.05-.14,0,0.1,0-.21-0.07.06,0.09-0.13-0.11.13,0.14-.08,0.19-0.09s0.22,0,.14,0c0.22,0.06,0,0,.2.1s0,0,.11.18a0.28,0.28,0,1,0,0,.06c0,0.23,0,0,0-.06-0.06.18,0.11-.15,0.11-0.14a1.61,1.61,0,0,1,.14-0.13c-0.14.08-.32-0.09-0.18,0.05-0.09-.09,0,0.15,0,0.06a0.38,0.38,0,0,1,0,.24,1,1,0,0,1-.17.38c-0.14.25,0.07,0-.11,0.14s0.13-.07-0.09.07c0.11,0,.12,0,0,0s0.2,0,0,0c0.24,0,.06,0,0,0,0.23,0.07,0,0,0,0q0.15,0.12,0,0a0.2,0.2,0,1,0,0-.06,0.32,0.32,0,0,1,0-.18,0.56,0.56,0,0,1,.05-0.33,2.19,2.19,0,0,1,.39-0.6c0.85-1-.56-2.38-1.41-1.41h0Z" transform="translate(-789.22 -2043.97)" style="fill:#181716"/><path d="M810.77,2095.3c3.4,6.57,12.11,4.49,16.5.08a1,1,0,0,0-1.41-1.41c-3.47,3.5-10.58,5.69-13.36.33-0.59-1.15-2.32-.13-1.73,1h0Z" transform="translate(-789.22 -2043.97)" style="fill:#181716"/><path d="M810.44,2127.77c-0.42-.47-1.3-1.34-0.52-1.82s1.89,0.92,2.46,1.26a1,1,0,0,0,1-1.73,16.28,16.28,0,0,0-2.16-1.43,2.7,2.7,0,0,0-2.66.39c-1.8,1.34-.74,3.41.46,4.73a1,1,0,0,0,1.41-1.41h0Z" transform="translate(-789.22 -2043.97)" style="fill:#181716"/><path d="M811.56,2124.41c0.16-.68.38-1,1.09-0.81a3.12,3.12,0,0,1,1.73,1.37,1,1,0,0,0,1.73-1,5.14,5.14,0,0,0-3.27-2.36,2.71,2.71,0,0,0-3.21,2.29,1,1,0,0,0,1.93.53h0Z" transform="translate(-789.22 -2043.97)" style="fill:#181716"/><path d="M814.38,2122.53c1.36-2.08,4.65,2.91,5.44,3.94s2.51,0,1.73-1c-1.78-2.31-6-8.33-8.89-3.94a1,1,0,0,0,1.73,1h0Z" transform="translate(-789.22 -2043.97)" style="fill:#181716"/><path d="M832.2,2124.91c1.08-1.41,2.18-2.37,4-2.38a5.71,5.71,0,0,1,4.95,3.63c0.41,1.22,2.34.69,1.93-.53a7.88,7.88,0,0,0-6-5c-2.93-.56-5,1.09-6.67,3.27-0.78,1,1,2,1.73,1h0Z" transform="translate(-789.22 -2043.97)" style="fill:#181716"/><path d="M834.76,2133.37a9.28,9.28,0,0,1,4.11-6.09,1,1,0,0,0-1-1.73,11.27,11.27,0,0,0-5,7.28c-0.27,1.26,1.66,1.79,1.93.53h0Z" transform="translate(-789.22 -2043.97)" style="fill:#181716"/><path d="M808.12,2144.28c0.6,1.48,1.13,3,1.66,4.5,0.36,1,.6,3,1.46,3.7,1.28,1.07,3.21,1.13,4.81,1.35a46.29,46.29,0,0,0,7.44.33,67.17,67.17,0,0,0,13.58-1.86,30.67,30.67,0,0,0,9.45-3.47,1,1,0,0,0,.36-1.37c-0.9-1.8-.65-4.39-0.65-6.36a1,1,0,0,0-2,0c0,2.33-.15,5.21.93,7.36l0.36-1.37c-5.73,3.65-14,4.57-20.55,5a52.85,52.85,0,0,1-5.83,0c-1.08-.05-2.16-0.16-3.24-0.31-0.64-.09-2.52-0.13-3-0.53-0.72-.6-1-2.6-1.4-3.59-0.47-1.32-.94-2.64-1.46-3.94s-2.41-.66-1.93.53h0Z" transform="translate(-789.22 -2043.97)" style="fill:#ea4e3e"/><path d="M830.24,2168.08a27.74,27.74,0,0,0-1.37,6c-0.57,3.27-1,6.56-1.5,9.84-0.67,4.81-1,9.81-2,14.56-0.28,1.26,1.65,1.79,1.93.53,1-4.75,1.34-9.75,2-14.56,0.46-3.29.94-6.57,1.5-9.84a27.43,27.43,0,0,1,1.37-6c0.5-1.19-1.44-1.7-1.93-.53h0Z" transform="translate(-789.22 -2043.97)" style="fill:#181716"/><path d="M812.78,2199.68c4.51,0.92,9,1.77,13.46,0,1.18-.47.67-2.41-0.53-1.93-4.1,1.64-8.21.85-12.4,0-1.26-.26-1.79,1.67-0.53,1.93h0Z" transform="translate(-789.22 -2043.97)" style="fill:#181716"/><path d="M828.63,2167c2.07,1.5,2.73,4.07,3.86,6.24a93,93,0,0,1,4.09,9.05c2.22,5.64,3.93,11.49,5.74,17.27a1,1,0,0,0,1.93-.53c-2-6.39-4-12.78-6.43-19a88.55,88.55,0,0,0-4-8.45c-1.25-2.4-2-4.65-4.24-6.3-1-.76-2,1-1,1.73h0Z" transform="translate(-789.22 -2043.97)" style="fill:#181716"/><path d="M843.65,2200.65c2.28-.52,4.62-0.62,6.89-1.17a26.64,26.64,0,0,0,5.84-2.63,1,1,0,0,0-1-1.73,27.19,27.19,0,0,1-6.18,2.63c-2,.48-4.07.51-6.07,1a1,1,0,0,0,.53,1.93h0Z" transform="translate(-789.22 -2043.97)" style="fill:#181716"/><path d="M813.29,2198.54a33.75,33.75,0,0,1-6.11,4.13c-1.23.73-3.28,1.62-3.56,3.21-0.6,3.31,5.5,1.71,6.79,1.34,2.74-.77,5.52-1.33,8.22-2.26a8.47,8.47,0,0,0,2.51-1.28q-0.6-.15-0.21.2a1.44,1.44,0,0,0,.65.46c1.24,0.25,3.15.63,4.17-.4s0.67-3.41.49-4.7-2.11-.73-1.93.53a7.64,7.64,0,0,1,0,2.54c-0.07.49-1.85,0.29-2,.05a1.67,1.67,0,0,0-1.63-.66c-1.16.32-2.23,1.2-3.4,1.6-1.62.56-3.3,0.94-5,1.35s-3,.81-4.51,1.22a4.79,4.79,0,0,1-2,0,9.53,9.53,0,0,0,1.7-1.13c2.46-1.53,5-2.84,7.16-4.84a1,1,0,0,0-1.41-1.41h0Z" transform="translate(-789.22 -2043.97)" style="fill:#181716"/><path d="M843.65,2200a12.07,12.07,0,0,0,5.27,6c1.84,1.12,4.57,2.18,6.63,1.1,3.26-1.71,1.62-8,1.11-10.69-0.24-1.27-2.17-.73-1.93.53,0.45,2.37,1.3,5.53.27,7.85-0.74,1.65-3.44.3-4.52-.22a9.78,9.78,0,0,1-4.9-5.08c-0.45-1.19-2.39-.68-1.93.53h0Z" transform="translate(-789.22 -2043.97)" style="fill:#181716"/><path d="M878.71,2060.83c0,2.76.87,5.13,3.53,6.25a5.31,5.31,0,0,0,4-.33c0.95-.41,1.87-0.88,2.85-1.2,1.47-.48,1.77,0,1.51,1.18-0.49,2.13.94,3.53,3.08,3.39,1.17-.08,3.44-1.73,4.1-0.15a14.55,14.55,0,0,1,.55,2.72c0.32,1.58,1.46,2.7,1.61,4.4,0.12,1.27,2.12,1.28,2,0-0.19-2.09-1.42-3.61-1.82-5.61-0.29-1.4-.38-2.85-1.58-3.79a3,3,0,0,0-2.69-.28c-1.38.33-3.75,1.6-3.17-.82,0.48-2-.6-3-2.55-3.17-1.5-.12-3,0.72-4.28,1.33-3.29,1.54-5.11-.82-5.1-3.92a1,1,0,0,0-2,0h0Z" transform="translate(-789.22 -2043.97)" style="fill:#181716"/><path d="M878.71,2061.43c-0.22,3.19.23,6.15-2.2,8.62-1.78,1.81-4.17,2.92-6,4.72a4.17,4.17,0,0,0-1.28,4.23,4.49,4.49,0,0,0,1.63,2c2.39,1.94-.11,3-1.33,4-0.77.66-2.08,2.16-.95,3.17a12.3,12.3,0,0,0,2,1.27c2.53,1.52-1.2,4.75-2.31,5.44-2.3,1.43-5.05.39-7.12-.93a4.61,4.61,0,0,1-2.25-3.34c-0.23-1.94,1.84-2.77,3.3-3.27,1.21-.42.69-2.35-0.53-1.93-2.1.72-4.67,2-4.75,4.57-0.08,2.77,1.52,4.61,3.76,6a8.69,8.69,0,0,0,7.72,1c2.27-.85,5-3.52,5-6.14a3.58,3.58,0,0,0-1.05-2.63,6.2,6.2,0,0,0-1.75-1.12c-0.59-.31,1.47-1.4,1.73-1.57a3.43,3.43,0,0,0,.46-5.61c-0.79-.76-2.26-1.31-1.47-3a8.34,8.34,0,0,1,2.51-2.46c1.36-1,2.82-1.94,4.11-3.09,3-2.66,2.53-6.4,2.79-10,0.09-1.29-1.91-1.28-2,0h0Z" transform="translate(-789.22 -2043.97)" style="fill:#181716"/><path d="M901.46,2079.09c1.9-3.2,7.45-5.35,5.95-9.89-0.55-1.66-2.37-2.67-3.57-3.81-1.55-1.48-.38-4.1-1.68-5.86a4.73,4.73,0,0,0-4.67-1.69c-1.9.42-3.45,0.67-4.54-1.33-0.54-1-.89-2.09-1.44-3.09a5.62,5.62,0,0,0-4.47-2.9c-3,0-4.43,1.85-6.6,3.5-1.64,1.24-4.91-1.4-6.82-1.44a5.35,5.35,0,0,0-5.44,3.15,11.18,11.18,0,0,0-.6,2.51c-0.39,2.12-2,3-3.91,3.58-2.16.6-4.19,0.7-4.83,3.18-0.56,2.19,2,4.34,1.06,6.35-0.59,1.27-2.24,2.23-3.18,3.25a10.41,10.41,0,0,0-2,3c-1.68,4.06-.08,9.16,4.2,10.73,1.21,0.45,1.73-1.49.53-1.93-2.68-1-3.8-4.18-3.31-6.84s2.86-4.34,4.64-6.13a4.08,4.08,0,0,0,1.26-3.33c-0.19-2.12-3-5.21.7-6,3.92-.89,6.22-2.35,7-6.45,1.27-7.05,7.81.48,11.3-1.61,2.17-1.3,3.57-3.93,6.48-3.39,2.23,0.41,2.91,3.17,3.73,4.9a4.87,4.87,0,0,0,3.14,2.77c2.21,0.62,4.51-1.85,6.35.63,0.87,1.18,0,3.12.68,4.45a12,12,0,0,0,3.08,3.2c3.73,3.23-3.19,6.89-4.75,9.5a1,1,0,0,0,1.73,1h0Z" transform="translate(-789.22 -2043.97)" style="fill:#181716"/><path d="M899.94,2076.64c-1.12,6.09-1.83,12.32-5.19,17.67a15,15,0,0,1-5.81,5.37c-3.59,1.86-6.67-.23-9.4-2.55-1-.83-2.4.58-1.41,1.41,2.3,2,4.81,3.82,7.93,4s6.07-2.22,8-4.19c5.57-5.54,6.43-13.85,7.77-21.16,0.23-1.26-1.7-1.8-1.93-.53h0Z" transform="translate(-789.22 -2043.97)" style="fill:#181716"/><path d="M869.83,2094.94c0,1.64.17,3.87-1.35,4.94-1,.73,0,2.47,1,1.73,2.23-1.57,2.34-4.17,2.34-6.67a1,1,0,0,0-2,0h0Z" transform="translate(-789.22 -2043.97)" style="fill:#181716"/><path d="M881.29,2100.83a4.05,4.05,0,0,0,.2,2.76,3.49,3.49,0,0,0,2.35,1.46,1,1,0,0,0,.53-1.93,4,4,0,0,1-.77-0.24,0.81,0.81,0,0,1-.38-0.3,0.67,0.67,0,0,1-.08-0.34,3.57,3.57,0,0,1,.08-0.88c0.24-1.26-1.69-1.8-1.93-.53h0Z" transform="translate(-789.22 -2043.97)" style="fill:#181716"/><path d="M870.12,2100.48c3.11,3.21,8.09,5,12.49,3.86a1,1,0,0,0-.53-1.93c-3.72,1-7.94-.65-10.55-3.35a1,1,0,0,0-1.41,1.41h0Z" transform="translate(-789.22 -2043.97)" style="fill:#181716"/><path d="M853.59,2115.17a67.74,67.74,0,0,1,9.76-8.94l-1.67-.44a63.84,63.84,0,0,0,4.37,9.12,20.8,20.8,0,0,1,2.32,12,51.62,51.62,0,0,1-2.72,11.87c-1.15,3.39-3.42,6.19-3.73,9.85a1,1,0,0,0,.73,1,25.52,25.52,0,0,0,17.45.89c5.5-1.77,8.65-5.56,10.09-11a42.07,42.07,0,0,0,.17-18.91c-0.63-2.89-3-5.28-5-7.3a74.59,74.59,0,0,0-7.75-7.12c-2.38-1.81-4.66-3.85-7.16-5.48-1.85-1.21-2.85-1.15-4.59,0-2.09,1.32-6.83,5.62-2.08,6.95a23.84,23.84,0,0,0,6,.36c1.6,0,0,2.52,0,3.36a2.74,2.74,0,0,0,1.12,2.56c1.63,0.85,3.54.75,5.29,1.27a22.36,22.36,0,0,1,6.16,3.05,23.82,23.82,0,0,1,6.63,7.24,1,1,0,0,0,1.73-1,26.44,26.44,0,0,0-9.86-9.5,23.4,23.4,0,0,0-4.48-1.82,14.53,14.53,0,0,0-1.74-.4c-0.62-.11-1.25-0.14-1.87-0.24-1.68-.28-0.6-2.26-0.34-2.93,1.56-3.91-3.11-3.62-5.55-3.67-0.47,0-3.63.14-2.92-1.09a8.72,8.72,0,0,1,2.89-2.41l0.78-.49c0.69-.43-0.24-0.26.24-0.17,1.62,0.32,3.06,1.75,4.27,2.77,4.45,3.74,8.92,7.18,12.95,11.42,2.86,3,3.52,5.93,3.84,9.92a47.59,47.59,0,0,1-.05,9.48,24.57,24.57,0,0,1-2,7.36c-1.31,2.85-3.9,4.54-6.71,5.69-5.44,2.23-11.75,1.54-17.08-.63l0.73,1c0.33-3.84,3-7.29,4.19-10.94a57.78,57.78,0,0,0,2.26-10.77,20.82,20.82,0,0,0-1.42-10.49c-1.58-3.81-4-7.19-5.33-11.12a1,1,0,0,0-1.67-.44,67.72,67.72,0,0,0-9.76,8.94c-0.82,1,.58,2.4,1.41,1.41h0Z" transform="translate(-789.22 -2043.97)" style="fill:#ea4e3e"/><path d="M869.33,2127.48c-0.74-2.34-3.06-3.29-4.65-4.93a1,1,0,0,0-1.41,1.41c1.26,1.29,3.57,2.22,4.14,4a1,1,0,0,0,1.93-.53h0Z" transform="translate(-789.22 -2043.97)" style="fill:#ea4e3e"/><path d="M863.9,2121.87c-2.9,1.34-8.19,4-4.25,7.45A26.05,26.05,0,0,0,862,2131c1.93,1.32.55,3.14-.2,4.77l-1.19,2.57c-0.47,1-.75,1.17-1.8.7a21.21,21.21,0,0,1-5.16-2.83c-1-.84-2.39.57-1.41,1.41a18.86,18.86,0,0,0,4.16,2.48c1.13,0.55,2.51,1.47,3.83,1.3,1.09-.14,1.64-1.18,2.12-2,1-1.81,1.82-3.81,2.68-5.7,0.94-2.07-.9-3.62-2.44-4.68s-3.39-1.89-1.31-3.45a19.72,19.72,0,0,1,3.62-1.91c1.17-.54.15-2.26-1-1.73h0Z" transform="translate(-789.22 -2043.97)" style="fill:#ea4e3e"/><path d="M890.72,2122.69a45.07,45.07,0,0,1,1-5.6c0.32-1.32,1.23-2.53,1.64-3.85a2.55,2.55,0,0,0-.33-2.34c-0.44-.61-1.94-1.27-2.45-0.93,4.17-2.85-3.81-6.19-5.87-6.85a1,1,0,0,0-1.23,1.23c2.25,5.36,4.9,11.35,5.17,17.23a1,1,0,0,0,2,0c-0.29-6.09-2.92-12.2-5.25-17.76l-1.23,1.23a18.59,18.59,0,0,1,4.47,2.06c2.33,1.51-1.34,1.69-.09,3.55a2.55,2.55,0,0,0,1.54,1.07c2,0.64,1.07,1.82.33,3.35-1.14,2.35-1.38,5-1.67,7.61-0.15,1.28,1.86,1.27,2,0h0Z" transform="translate(-789.22 -2043.97)" style="fill:#ea4e3e"/><path d="M890,2108.72a14.84,14.84,0,0,1,5.09,10.61c0,1.71-.86,3.44-0.93,5.2-0.08,1.94.8,3.91,1.18,5.79a37.73,37.73,0,0,1,.07,13.88c-0.15.76-.36,1.5-0.56,2.25-0.42,1.56-.67.66-1.81-0.25a39,39,0,0,1-4.18-4,1,1,0,0,0-1.41,1.41c1.48,1.58,5.56,6.94,8.15,5.54,1.39-.75,1.63-3.82,1.89-5.13a38.49,38.49,0,0,0,.31-8.44,35.38,35.38,0,0,0-.93-7.57,11.16,11.16,0,0,1-.42-5.57,25.24,25.24,0,0,0,.65-3.07c0.49-4.28-2.61-9.34-5.67-12-1-.85-2.39.56-1.41,1.41h0Z" transform="translate(-789.22 -2043.97)" style="fill:#ea4e3e"/><path d="M889.12,2108.46a21.38,21.38,0,0,1,7.09,5.54c2.25,2.52,5.08,5.26,5.41,8.81,0.29,3.09-1.46,6.27-2.87,8.88-1,1.9-2.45,3.65-2.63,5.87-0.11,1.29,1.9,1.28,2,0a9.35,9.35,0,0,1,1.76-3.83,36.44,36.44,0,0,0,2.29-4.45,13.64,13.64,0,0,0,1.22-8.19c-0.58-3-3.23-5.69-5.19-7.89a24.59,24.59,0,0,0-8.05-6.48c-1.16-.54-2.18,1.19-1,1.73h0Z" transform="translate(-789.22 -2043.97)" style="fill:#ea4e3e"/><path d="M866.84,2175.32c-0.69,5.61-.7,11.36-1,17q-0.09,1.85-.18,3.7l-0.05,1.07c0,0.82.23-.36-0.23,0a20.2,20.2,0,0,0-3.94,5.14c-1,1.58-2.18,2.6-1.62,4.45a1,1,0,0,0,1.47.6,55.11,55.11,0,0,1,11.08-5c1.58-.58,1.82-3.63,2.25-5,2.11-7,4.1-14.08,6.57-21,0.44-1.22-1.5-1.74-1.93-.53-2.37,6.6-4.28,13.4-6.31,20.12q-0.58,1.93-1.16,3.86l-0.31,1.07c0.12-.43,1.07-0.7-0.12-0.26a55.93,55.93,0,0,0-11.07,5l1.47,0.6c-0.32-1.07,1.81-3.57,2.57-4.76a10.61,10.61,0,0,1,2.78-3.09,1.06,1.06,0,0,0,.5-0.88q0.13-2.8.27-5.6c0.27-5.49.28-11.09,1-16.54,0.16-1.28-1.84-1.26-2,0h0Z" transform="translate(-789.22 -2043.97)" style="fill:#181716"/><path d="M881.38,2176c1.37,3.67,1.71,7.84,2.26,11.69s1.57,7.89,1.57,11.71a1,1,0,0,0,.5.86c1.92,1,3.88,1.9,5.83,2.81,1.39,0.65,4.21,1.46,5,2.81a1,1,0,0,0,1.73-1c-1.39-3.11-2.44-7.41-4.91-9.88-0.26-.26.11,0.76,0.12,0,0-.45,0-0.9,0-1.35,0-1.29.09-2.57,0.15-3.86,0.21-5.11.46-10.22,0.78-15.32,0.08-1.29-1.92-1.28-2,0-0.34,5.29-.58,10.58-0.81,15.87-0.06,1.36-.75,4.41,0,5.65s1.63,2.41,2.3,3.75c1,2,1.73,4.08,2.63,6.1l1.73-1c-0.71-1.24-1.92-1.65-3.18-2.3-2.47-1.27-5-2.38-7.53-3.62-0.37-.18-0.25.5-0.4-0.42-0.07-.42-0.13-0.85-0.19-1.28-0.21-1.5-.41-3-0.61-4.49-0.75-5.63-1-11.92-3-17.29-0.45-1.2-2.38-.68-1.93.53h0Z" transform="translate(-789.22 -2043.97)" style="fill:#181716"/><path d="M886.32,2128.91a2.2,2.2,0,0,0,.87,3.49c1.53,0.56,2.76-.9,2.7-2.34a2,2,0,0,0-2.5-1.86,1.75,1.75,0,0,0-1.2,1.2,2.34,2.34,0,0,0,.63,2,1,1,0,0,0,1.41,0,1,1,0,0,0,0-1.41c0,0.05-.17-0.4-0.09-0.16,0-.12,0-0.1,0,0,0-.09,0-0.27,0,0,0-.1-0.12.17-0.05,0.11a0.3,0.3,0,1,0-.07.06c0.17-.11-0.23.07,0,0a0.53,0.53,0,1,0-.09,0c0.07,0,.27,0,0,0,0.26,0-.13-0.1.1,0a0.34,0.34,0,1,0-.06,0c0.16,0.15-.11-0.18,0,0a0.22,0.22,0,1,0,0,0c0.08,0.24,0-.21,0,0.07a0.59,0.59,0,0,1-.07.36c0-.08,0-0.07,0,0,0.11-.19-0.13.1,0.07-0.05q-0.15.08,0,0c-0.07,0-.28,0,0,0-0.11,0-.1,0,0,0-0.06,0-.27-0.09,0,0l-0.13-.07c0.2,0.12,0,0,0,0,0.08,0.1.09,0.11,0,0,0.11,0.19,0,0,0-.06,0,0.13,0,.13,0,0,0,0.21,0-.05,0-0.11l0-.06a2.24,2.24,0,0,1,.21-0.31,1,1,0,0,0-.36-1.37,1,1,0,0,0-1.37.36h0Z" transform="translate(-789.22 -2043.97)" style="fill:#ea4e3e"/><path d="M886.59,2134.44a2.24,2.24,0,0,0-1.2,2.58,1.91,1.91,0,0,0,3,.66c1.46-1.32.2-4.5-1.87-3.34a1,1,0,0,0,1,1.73c0.19-.11-0.12,0-0.17,0l-0.15,0a0.34,0.34,0,1,0-.08,0c-0.21-.11,0,0-0.15-0.14,0.15,0.22,0-.09,0,0.07s0,0.29,0,0a1.73,1.73,0,0,1,0,.23c0-.26,0,0,0,0s0,0,.06-0.07c-0.14.17,0.18-.1,0,0,0.2-.12-0.08,0,0.14,0a0.22,0.22,0,0,1-.17,0,0.31,0.31,0,0,1,.25.2,0.19,0.19,0,1,0,0,0c0,0.06,0,.32,0,0.12s-0.09.14,0-.09-0.11.1,0.08-.1a0.23,0.23,0,1,0,0,0l0.16-.09c1.16-.57.14-2.3-1-1.73h0Z" transform="translate(-789.22 -2043.97)" style="fill:#ea4e3e"/><path d="M889.65,2085.62c0.13,0.81.62,1.56,0.67,2.37,0,0.18-.19.32,0,0.07a0.35,0.35,0,1,0,.09-0.1c-0.32,0-.65,0-1,0.08a1,1,0,0,0-1,1,1,1,0,0,0,1,1c1.07-.14,2.18,0,2.67-1.18s-0.37-2.53-.57-3.78a1,1,0,0,0-1.23-.7,1,1,0,0,0-.7,1.23h0Z" transform="translate(-789.22 -2043.97)" style="fill:#181716"/><path d="M882.61,2079.81a3,3,0,0,0,.33,4.42,1.82,1.82,0,0,0,2.22-.12,2.63,2.63,0,0,0,.93-2.1c0-1.39-.91-3.57-2.69-2.84s-1.4,3.28-.27,4.34a1,1,0,0,0,1.41,0,2.52,2.52,0,0,0,.47-2.68,1.26,1.26,0,0,0-1.12-.72,1.58,1.58,0,0,0-1.27.87c-0.72,1.08,1,2.08,1.73,1h0a0.9,0.9,0,0,1-1.09-.21c0-.12-0.06-0.13,0,0,0-.11,0-0.1,0,0a0.8,0.8,0,0,1-.09.31h1.41c-0.07-.08-0.08-0.07,0,0a1.66,1.66,0,0,1-.15-0.26l0-.07a3.07,3.07,0,0,1-.09-0.34,1.62,1.62,0,0,1,0-.42c0-.13.06-0.15,0-0.09-0.26.12-.3,0.16-0.13,0.1a0.31,0.31,0,0,1-.24,0c0.21,0.09-.1-0.11.06,0.06-0.13-.15,0,0.1,0,0.12a0.18,0.18,0,1,0,0,0,3.06,3.06,0,0,1,.08.31,2.72,2.72,0,0,1,0,.47q0,0.1,0,.19c0,0.29,0-.19,0,0.07a0.22,0.22,0,0,1-.09.2l-0.16.16s0.22-.1,0,0c0.06,0,.33,0,0.14,0,0.24,0.07-.09-0.09.08,0a1,1,0,0,1-.29-0.56,0.91,0.91,0,0,1,.23-0.82c0.85-1-.56-2.38-1.41-1.41h0Z" transform="translate(-789.22 -2043.97)" style="fill:#181716"/><path d="M892.8,2079.81a3,3,0,0,0,.33,4.42,1.82,1.82,0,0,0,2.22-.12,2.63,2.63,0,0,0,.93-2.1c0-1.39-.91-3.57-2.69-2.84s-1.4,3.28-.27,4.34a1,1,0,0,0,1.41,0,2.52,2.52,0,0,0,.47-2.68,1.26,1.26,0,0,0-1.12-.72,1.58,1.58,0,0,0-1.27.87c-0.72,1.08,1,2.08,1.73,1h0a0.9,0.9,0,0,1-1.09-.21c0-.12-0.06-0.13,0,0,0-.11,0-0.1,0,0a0.8,0.8,0,0,1-.09.31h1.41q-0.11-.12,0,0a1.76,1.76,0,0,1-.15-0.26c0,0.07,0,.05,0-0.07a3.29,3.29,0,0,1-.09-0.34,1.62,1.62,0,0,1,0-.42c0-.13.06-0.15,0-0.09-0.26.12-.3,0.16-0.13,0.1a0.31,0.31,0,0,1-.24,0c0.21,0.09-.1-0.11.06,0.06-0.13-.15,0,0.1,0,0.12a0.18,0.18,0,1,0,0,0,3.09,3.09,0,0,1,.08.31,2.74,2.74,0,0,1,0,.47q0,0.1,0,.19c0,0.29,0-.19,0,0.07a0.22,0.22,0,0,1-.09.2l-0.16.16s0.22-.1,0,0c0.06,0,.33,0,0.14,0,0.24,0.07-.09-0.09.08,0A1,1,0,0,1,894,2082a0.91,0.91,0,0,1,.23-0.82c0.85-1-.56-2.38-1.41-1.41h0Z" transform="translate(-789.22 -2043.97)" style="fill:#181716"/><path d="M892.6,2077.93a4.08,4.08,0,0,1,2.36.63c1,0.83,2.4-.57,1.41-1.41a6.21,6.21,0,0,0-3.77-1.21c-1.29-.11-1.27,1.89,0,2h0Z" transform="translate(-789.22 -2043.97)" style="fill:#181716"/><path d="M881.79,2078.65a3.19,3.19,0,0,1,2.48-.6c1.26,0.27,1.79-1.66.53-1.93a5.14,5.14,0,0,0-4,.8,1,1,0,0,0-.36,1.37,1,1,0,0,0,1.37.36h0Z" transform="translate(-789.22 -2043.97)" style="fill:#181716"/><path d="M880.94,2093.4c4.56,0.83,8.55,1.6,12.91-.45,1.17-.55.15-2.27-1-1.73-3.8,1.79-7.42,1-11.37.25-1.26-.23-1.8,1.7-0.53,1.93h0Z" transform="translate(-789.22 -2043.97)" style="fill:#181716"/><path d="M883,2094.37c1.51,1.74,3,3.33,5.46,3.11a6,6,0,0,0,4.92-4.34c0.41-1.23-1.52-1.75-1.93-.53a4,4,0,0,1-3.5,2.92c-1.54.14-2.66-1.56-3.53-2.57s-2.26.45-1.41,1.41h0Z" transform="translate(-789.22 -2043.97)" style="fill:#181716"/><path d="M892.46,2092.44a2.1,2.1,0,0,1,.45,1.05,1,1,0,0,0,1.23.7,1,1,0,0,0,.7-1.23,4,4,0,0,0-1-1.94,1,1,0,0,0-1.41,1.41h0Z" transform="translate(-789.22 -2043.97)" style="fill:#181716"/><path d="M809.62,2129.76c5.8-1,11.12-3.63,17.09-3.73,0.64,0,3.31-.11,3.4.21,0.41,1.43.66,2.9,1.09,4.33s0.51,3.62,2.16,4.28l-0.24-1.83c-9.73,4.86-24.16,15.14-34.77,6.42-6.74-5.55-.43-17,3.21-22.57a24.54,24.54,0,0,1,11.37-9.71c0.58-.22,2.43-1.06,3-0.87l2.28,0.74c2.29,0.75,4.14,1.86,6.64,2a13.92,13.92,0,0,0,7.61-2.26c1.24-.74,2.28-1.77,3.51-2.53,2-1.22,4.52.69,6.16,1.75a36,36,0,0,1,9.93,9.79c4.37,6.36,6,16.13-1.2,21.08-7.94,5.44-17.8,3.75-26.48,1.52a1,1,0,0,0-.53,1.93,66.59,66.59,0,0,0,9.43,2.07,40,40,0,0,0,10.66-.44c4.77-.81,10-3.82,12.41-8.12,5.05-9.15-2-19.93-8.65-26-2.74-2.52-8.14-7.51-12.19-5.57-2.85,1.36-4.81,3.6-8,4.47s-5.47-.52-8.36-1.46c-1.71-.56-2.76-1.05-4.52-0.68a20.14,20.14,0,0,0-6.62,2.85,30.37,30.37,0,0,0-9.1,9.84c-4.14,6.69-9.07,17.78-1.59,23.94,4.09,3.36,10.16,4,15.2,3.08,7.89-1.45,14.55-6,21.58-9.53a1,1,0,0,0-.24-1.83c-0.14-.06-0.82-3.08-1-3.74-0.4-1.35-.62-2.74-1-4.09a1,1,0,0,0-.7-0.7,29.48,29.48,0,0,0-9.84.17c-4.16.78-8.06,2.52-12.24,3.26-1.27.23-.73,2.15,0.53,1.93h0Z" transform="translate(-789.22 -2043.97)" style="fill:#ea4e3e"/><path d="M837,2129.41c2.33-.94,4.73-1.69,7.12-2.46a1,1,0,0,0-.53-1.93c-2.39.77-4.79,1.53-7.12,2.46-1.18.47-.67,2.41,0.53,1.93h0Z" transform="translate(-789.22 -2043.97)" style="fill:#ea4e3e"/><path d="M806.54,2070.22c-2.81,9.85-5.31,23.39,2.73,31.6,3.16,3.22,9.13,5.8,13.72,4.46a1,1,0,0,0-.53-1.93c-3.83,1.12-8.81-1.17-11.54-3.72-7.87-7.36-5-20.91-2.44-29.87a1,1,0,0,0-1.93-.53h0Z" transform="translate(-789.22 -2043.97)" style="fill:#181716"/></svg>