<svg id="Слой_1" data-name="Слой 1" xmlns="http://www.w3.org/2000/svg" viewBox="0 0 189.73 143.17"><title>advantages-img2</title><path d="M581.67,2146.17c-0.36-4.52-2.83-7.55-7.28-8.3-2.69-.45-5.81.33-8.42,0.84-4.62.89-9.19,2-13.88,2.41,2.61-5.16-.86-14.12-2.89-18.69-3.43-7.75-9-14.45-14.45-20.88-11.05-13.14-25.38-20.55-41.67-25.45-8.38-2.52-17.2-4.73-26-3.49-3.86.54-7.6,1.88-11.4,2.73-4.44,1-9-.07-13.41,1-6.78,1.63-11.05,5.9-15.38,11.13-3.81,4.6-9.56,6.71-13.91,10.5a1.19,1.19,0,0,0-.64.21c-3.79,2.84-4.85,6.88-6.83,11-1.33,2.77-3.78,4.85-5.75,7.15a39.91,39.91,0,0,0-5.2,7.94c-5,9.89-2.18,20.31,5.18,28,7.53,7.86,18.75,14.11,28.51,18.67a59.78,59.78,0,0,0,13.76,4.92c6.18,1.2,14.56,2.24,14.1,10.45-0.29,5.31-3.06,8.67.9,13.34,3.52,4.16,16.85,5.15,21.58,7.59a75.44,75.44,0,0,0,38.89,8c14.36-1.14,16.42-6,29.6-10.49,4.38-1.49,9.12-2.62,13.06-5.14,4.8-3.08,7-7.27,9.47-12.26C575.8,2175.06,582.8,2160.26,581.67,2146.17Z" transform="translate(-392.06 -2072.25)" style="fill:#fff"/><path d="M467.73,2087.64c0.68,0,2.07-1,.77-1-0.68,0-2.07,1-.77,1h0Z" transform="translate(-392.06 -2072.25)" style="fill:#181716"/><path d="M439,2097.47c2.11-7.17,13.7-10.41,20.18-10.91a16,16,0,0,1,11.59,3.56c3.34,2.83,3.63,7,5.33,10.7,0.15,0.34.43,0.08,0.43-.19,0-20.59-31.24-18.59-37.7-3.31-0.06.13,0.12,0.33,0.17,0.15h0Z" transform="translate(-392.06 -2072.25)" style="fill:#181716"/><path d="M458.5,2094.78c-1.23,2.8-2.21,7.12,0,9.7,0.42,0.49.77-.42,0.47-0.76-1.92-2.16-1.09-6.32-.42-8.88,0,0,0-.13-0.07-0.06h0Z" transform="translate(-392.06 -2072.25)" style="fill:#181716"/><path d="M451.19,2097.89a16.24,16.24,0,0,1,4,.93c1,0.33,1.87,1.31,2.9,1.47,0.2,0,.2-0.34.15-0.44-1-2.46-4.92-2.5-7.08-2.07-0.05,0-.05.11,0,0.12h0Z" transform="translate(-392.06 -2072.25)" style="fill:#181716"/><path d="M469.6,2087.8c4-4.31,12.84-3.28,17.22-.28,2.33,1.6,3.72,4.49,5.76,6.45,3,2.86,7.57,2.56,8.72,7.51,0.21,0.91,1.06.34,0.88-.4-0.68-2.79-2.23-4.25-4.69-5.65-2.67-1.52-4.94-2.62-6.9-5.13a25.24,25.24,0,0,0-3.44-3.71c-4.8-4.12-13.34-3.07-17.66,1-0.09.09,0,.37,0.11,0.26h0Z" transform="translate(-392.06 -2072.25)" style="fill:#181716"/><path d="M492.15,2093.22c-1.2,3.69-6.88,4.22-9.57,6.42-0.21.17-.12,0.91,0.23,0.74a52.89,52.89,0,0,0,5.75-3.06,15,15,0,0,0,3.75-3.93c0.11-.13-0.1-0.37-0.16-0.18h0Z" transform="translate(-392.06 -2072.25)" style="fill:#181716"/><path d="M473.71,2084.78c6.37-4.66,22.8-3.61,25.26,5,0.23,0.82,1,.31.81-0.36-3.2-10.84-18.51-8.86-26.15-4.93-0.13.07-.05,0.37,0.08,0.27h0Z" transform="translate(-392.06 -2072.25)" style="fill:#181716"/><path d="M496.35,2092.92c5.58-2.82,12.74-.47,17.69,2.66,7.37,4.66,7.81,12.63,7.63,20.41,0,0.44.55,0.86,0.72,0.28,2.18-7.15-.66-15.73-6.17-20.57-5-4.43-14.13-7.34-19.9-2.89,0,0,0,.13,0,0.11h0Z" transform="translate(-392.06 -2072.25)" style="fill:#181716"/><path d="M522.71,2115.91c3-.08,4.8,1.31,6.07,4a8.66,8.66,0,0,1,.74,4.27,22.3,22.3,0,0,1-.92,3.09c0,0.23.12,0.91,0.49,0.71,2.45-1.34,1.44-6.34.69-8.36-1-2.74-4-5.54-7.11-4-0.1,0-.1.3,0,0.29h0Z" transform="translate(-392.06 -2072.25)" style="fill:#181716"/><path d="M414,2121.25c0.91-6.84,9.52-11.08,15.7-11.68,3.33-.33,7.07,1.19,9.85,2.9,4.05,2.51,4.79,6.5,5.7,10.77,0.09,0.42.54,0.42,0.59,0,1.19-9-7.31-14.55-15.24-15.24-7.06-.61-16.87,5.7-17.06,13.19,0,0.35.4,0.48,0.46,0.08h0Z" transform="translate(-392.06 -2072.25)" style="fill:#181716"/><path d="M447.48,2113.58a18.63,18.63,0,0,0-1.15,8.16c0.14,2,.72,5.17,2.56,6.32,0.38,0.24.53-.39,0.41-0.65-1.07-2.2-2-3.94-2.26-6.46a24.31,24.31,0,0,1,.52-7.32s0-.11-0.07,0h0Z" transform="translate(-392.06 -2072.25)" style="fill:#181716"/><path d="M462.63,2116.35c-7.24,1.53-4.71,11.13-2.15,15.67a13.23,13.23,0,0,0,10,6.91c6,1.07,7.2-5.2,8.47-9.49,0.07-.25-0.15-1.27-0.55-0.79-1.85,2.24-1.45,5.33-3.46,7.58-3.2,3.6-10.33-.3-12.58-3.16-3.36-4.27-6.51-14,.26-16.61,0,0,0-.12,0-0.11h0Z" transform="translate(-392.06 -2072.25)" style="fill:#181716"/><path d="M478.37,2129.58c-0.3,2.82.14,6.1,2.1,8.29s6.21,3.48,8.26.83a0.39,0.39,0,0,0-.18-0.6c-1.22-.16-2.41.61-3.68,0.65a5.16,5.16,0,0,1-3.4-1.32c-2.22-1.82-3-5.12-3-7.84,0-.06-0.07-0.08-0.08,0h0Z" transform="translate(-392.06 -2072.25)" style="fill:#181716"/><path d="M486.15,2139.56c1.48,3.63,7.71,1.65,8.19-1.83s-0.58-6.63-1.09-10a18.37,18.37,0,0,1,.1-7.59c0.78-2.92,3.45-3.55,5.9-4.36,0.39-.13.31-1-0.12-1-4.71-.23-6.89,3.52-7.27,7.72a25.77,25.77,0,0,0,.56,6.73c0.28,1.58.66,3.14,1,4.71q1.25,4.23-2,5.78c-1.34.83-4.15,1.51-5.21-.26,0-.06-0.07,0-0.06.07h0Z" transform="translate(-392.06 -2072.25)" style="fill:#181716"/><path d="M482,2116.38a10.25,10.25,0,0,0,.07,8.4c1.12,2.57,3.85,5.74,6.61,6.45,0.34,0.09.33-.49,0.16-0.65-1.65-1.55-3.49-2.59-4.95-4.39a10.67,10.67,0,0,1-1.82-9.75s0-.13-0.07-0.06h0Z" transform="translate(-392.06 -2072.25)" style="fill:#181716"/><path d="M470.56,2116.74c-1.88,2.77-3.52,5.12-3.79,8.58-0.17,2.18.46,5.29,2.5,6.45,0.4,0.23.38-.62,0.28-0.79-1.34-2.34-2.07-4.07-1.87-6.84,0.17-2.36,1.16-5.57,3-7.17,0.12-.1,0-0.39-0.12-0.23h0Z" transform="translate(-392.06 -2072.25)" style="fill:#181716"/><path d="M424.78,2126.14a11,11,0,0,0,1.92,5.62c1,1.38,3.24,3.24,5,2.85,0.41-.09.37-0.74,0.06-0.92a21.56,21.56,0,0,0-2.38-.89,8.07,8.07,0,0,1-2.12-1.48,9,9,0,0,1-2.45-5.19c0-.07-0.08,0-0.08,0h0Z" transform="translate(-392.06 -2072.25)" style="fill:#181716"/><path d="M420.57,2140.07c2.55-4.08,9.31-5.63,13.65-6.17a17.28,17.28,0,0,1,13.34,3.71c0.48,0.36.55-.57,0.4-0.84-2.57-4.45-9.32-4.53-13.77-4.07-5.55.57-10.37,2.76-13.77,7.16-0.08.1,0.05,0.36,0.14,0.21h0Z" transform="translate(-392.06 -2072.25)" style="fill:#181716"/><path d="M446.9,2136.52a19.25,19.25,0,0,1,3.47-8.68,6.76,6.76,0,0,1,4.23-2.88c1.66-.27,2.67.95,4.16,1.21,0.37,0.07.3-.64,0.2-0.81-2-3.37-6.42-1.61-8.49.65a14.56,14.56,0,0,0-3.65,10.49c0,0.06.07,0.08,0.08,0h0Z" transform="translate(-392.06 -2072.25)" style="fill:#181716"/><path d="M439.33,2132.86c2.41-5.06.42-10.39-4.46-13.11-6.1-3.4-14-2.84-20.22-.07s-10.43,9.27-9.37,16.08c1.31,8.46,13,17.24,21,10.62,0.41-.34.41-1.85-0.35-1.74-4.11.58-7.06,1.55-11.21,0.06a11.71,11.71,0,0,1-7.72-12c0.5-5.82,5.36-9.57,10.46-11.4,8.83-3.17,24.46-.85,21.85,11.55,0,0.05,0,.11.07,0h0Z" transform="translate(-392.06 -2072.25)" style="fill:#181716"/><path d="M425.2,2145.93c-3.9,6.32-.93,11.75,6.13,13.44,3.51,0.84,9.34,1.31,12.24-1.43a20.48,20.48,0,0,0,5.49-10.58c0.19-.86-0.86-2-1.29-0.78-2.37,6.62-4.49,11.47-12.49,11.3-7.23-.15-13.22-3.6-10-11.8,0-.08-0.05-0.26-0.12-0.14h0Z" transform="translate(-392.06 -2072.25)" style="fill:#181716"/><path d="M447,2153c4.07,5.21,9.51,5.36,14.69,1.61,2.36-1.71,9.26-10,5.85-13a0.27,0.27,0,0,0-.3-0.05c-1.18.68-.95,2.36-1.25,3.53a15.8,15.8,0,0,1-4.38,6.93c-4.12,4.09-10.18,4.81-14.53.81-0.09-.08-0.14.13-0.09,0.19h0Z" transform="translate(-392.06 -2072.25)" style="fill:#181716"/><path d="M442.23,2157.25c0.1,4.43,2,7,6.21,8.45,5,1.72,9.87-.88,14-3.61,0.52-.35.71-2.06-0.22-2-2.78.33-4.92,2.5-7.44,3.62-4.69,2.09-12.19-.88-12.31-6.52,0-.18-0.2-0.18-0.2,0h0Z" transform="translate(-392.06 -2072.25)" style="fill:#181716"/><path d="M459.33,2163.41c4.11,4.82,8.18,7.55,14.69,7.63,5,0.06,11.81-2.52,13.95-7.33,0.17-.37,0-1.45-0.64-1.19-2,.83-3.34,2.54-5.16,3.68a18.34,18.34,0,0,1-7,2.36c-5.31.83-12.16-1.31-15.74-5.36-0.12-.14-0.22.12-0.13,0.22h0Z" transform="translate(-392.06 -2072.25)" style="fill:#181716"/><path d="M484.72,2143.35c-6.77-1.6-11.89,6.26-13.77,11.69-1.29,3.72-1.25,15.16,5.32,14.15a0.79,0.79,0,0,0,.3-1.21c-1.73-1.94-3.84-2.67-4.67-5.42s0.09-5.74,1.08-8.27a16.72,16.72,0,0,1,11.71-10.36c0.22,0,.28-0.52,0-0.58h0Z" transform="translate(-392.06 -2072.25)" style="fill:#181716"/><path d="M522.71,2108c7.58,0.09,12.59,5.18,14.19,12.36a17.87,17.87,0,0,1-1,10.56c-1.48,3.64-4.4,5-7.64,6.72-0.78.4-.84,2.68,0.29,2.53,8.35-1.14,10.71-11.7,9.9-18.58-0.95-8.07-7.13-15.56-15.78-14.05-0.2,0-.2.47,0,0.47h0Z" transform="translate(-392.06 -2072.25)" style="fill:#181716"/><path d="M537.79,2126.45c5.64,5.7,8,11.54,3.79,19-1.12,2-2,4.13-3.27,6.08-5,7.77-13.57,3.65-20.81,3.65-0.87,0-.67,1.54-0.12,1.84,8.12,4.54,18.74,2.77,23.25-5.5,2-3.69,4.18-7.78,4.74-12,0.76-5.73-3.23-10.26-7.5-13.37-0.11-.08-0.13.14-0.07,0.2h0Z" transform="translate(-392.06 -2072.25)" style="fill:#181716"/><path d="M486.81,2163.35c10.65,8.94,24,4.59,31.21-6.45,0.28-.43.14-2.24-0.72-1.75-4.4,2.52-6.85,7.16-11.61,9.48-6,2.91-13.17,1.37-18.85-1.39-0.05,0-.06.08,0,0.11h0Z" transform="translate(-392.06 -2072.25)" style="fill:#181716"/><path d="M523.57,2136.84c3.33,0.57,5.9,3,7.79,5.64,3.16,4.42,1.46,9.45-1.53,13.4-0.69.91,0.32,3.2,1.3,1.87,3.08-4.17,4.62-9,2.68-14-1.5-3.88-5.88-8-10.25-7.18a0.13,0.13,0,0,0,0,.23h0Z" transform="translate(-392.06 -2072.25)" style="fill:#181716"/><path d="M506,2111.46c0.31,1.85,1.11,3.39,3,4a15.07,15.07,0,0,0,2.45.41,9.84,9.84,0,0,1,3,1.07,0.47,0.47,0,0,0,.49-0.11,1.17,1.17,0,0,0,.09-1.54,3.65,3.65,0,0,0-2.65-1.07c-2.71-.32-5.1.33-6.33-2.78,0-.07-0.08,0-0.07,0h0Z" transform="translate(-392.06 -2072.25)" style="fill:#181716"/><path d="M467.74,2170c0,3.12-.58,6.58,1,9.43,0.67,1.19,2.32,1.19,3.5,1.19a19.44,19.44,0,0,0,6-.73c0.76-.27.61-2-0.23-2a22,22,0,0,0-4.27.72c-1.14.19-3.42,0.72-4.29-.32s-0.85-3-1-4.31-0.32-2.67-.56-4c0-.13-0.15-0.08-0.15,0h0Z" transform="translate(-392.06 -2072.25)" style="fill:#181716"/><path d="M471.42,2171.3a4.74,4.74,0,0,0,2.31,4.19c1.25,0.76,4,1.34,4.12,3.08s1.7,1.17,1.5-.35a3.91,3.91,0,0,0-3.05-3.41c-2.26-.58-4.22-0.85-4.73-3.54,0-.13-0.15-0.08-0.15,0h0Z" transform="translate(-392.06 -2072.25)" style="fill:#181716"/><path d="M493.93,2167.15c-0.88,1.51-.76,4.09-0.25,5.67a3.68,3.68,0,0,0,2.56,2.36c1.25,0.38,3.31.36,4.29-.54a1.07,1.07,0,0,0-.18-1.6c-1-.29-1.95.24-2.94,0.34a2.68,2.68,0,0,1-2.87-1.36,12,12,0,0,1-.42-2.7,6.41,6.41,0,0,1-.13-2.11s0-.11-0.07-0.06h0Z" transform="translate(-392.06 -2072.25)" style="fill:#181716"/><path d="M498.29,2169.84a4.16,4.16,0,0,1,3.13,1.93c0.45,0.84.19,1.19-.78,1.07s-0.93,2.15.05,2.11c1.89-.08,2.47-1.93,1.81-3.5a3.64,3.64,0,0,0-1.55-1.73,3,3,0,0,0-2.68,0,0.07,0.07,0,0,0,0,.11h0Z" transform="translate(-392.06 -2072.25)" style="fill:#181716"/><path d="M438.22,2099.34c16.42,6.7,35.87,7.35,53.37,4.32a76.28,76.28,0,0,0,18.15-5.4c3.46-1.51,5-3.24,8-.22a10.7,10.7,0,0,1,3,6.7l-0.65-.22c-4.32,3.46-12.53,4.54-17.72,6.05-5.4,1.73-10.8,2.38-16.42,3-9.29,1.08-18.8-.22-28.09-0.86a66.71,66.71,0,0,1-13-1.73c-3.89-1.08-8.64-3.24-12.75-2.81l-0.22.43c0.65-3.46,2.81-7.78,5.83-8.86" transform="translate(-392.06 -2072.25)" style="fill:#ea4e3e"/><path d="M438.21,2099.44c13.68,5.67,28.36,7.06,43,6a95.2,95.2,0,0,0,20.48-3.68,68.47,68.47,0,0,0,9.48-3.66c3.06-1.44,4.23-2.08,7.26,1.43-0.49-.57,2.84,4.48,1.63,4.51s-4.53,2.45-5.89,2.94a87.16,87.16,0,0,1-9.53,2.49c-8.11,1.94-15.94,3.68-24.32,4-8.12.32-16.25-.9-24.34-1.37a55.69,55.69,0,0,1-14.07-2.57,28.3,28.3,0,0,0-9.79-1.87,0.31,0.31,0,0,0-.25.16c1-2,3.08-6.06,6-7.52,0.41-.21.25-1.28-0.22-1-3.61,1.82-5.19,5.48-6.07,9.25-0.08.32,0.35,1,.61,0.51,0.93-1.86,9.4,1.51,11.13,2.07a51.28,51.28,0,0,0,10.85,1.94,233.84,233.84,0,0,0,26.2,1.49,93.05,93.05,0,0,0,23.26-3.76c3.12-.86,6.3-1.48,9.41-2.38,1.58-.46,6.24-3.6,7.63-3.14,0.35,0.12.43-.4,0.39-0.63-0.58-3.79-3-9.46-7.7-8.51-2.85.57-5.86,2.6-8.61,3.63a80.36,80.36,0,0,1-14.88,3.74c-17.17,2.89-35.27,1.9-51.64-4.21-0.09,0-.1.16,0,0.19h0Z" transform="translate(-392.06 -2072.25)" style="fill:#181716"/><path d="M433.28,2094.36c1.3-3.24,4.23-8.85,7.25-11,6.27-4.32,1.51,4.54.86,6.91,1.08-1.08,3.24-2.16,3.89-.43,0.65,1.94-1.51,2.16-2.59,3.24a50.22,50.22,0,0,0-5.83,7.56Z" transform="translate(-392.06 -2072.25)" style="fill:#ea4e3e"/><path d="M433.35,2094.42c1.87-4.26,4.37-9.25,8.59-11.57,2.44-1.34.77,3.27,0.49,4-0.42,1.08-.91,2.13-1.25,3.24-0.06.19,0.05,0.76,0.35,0.5l1.07-.81q1.47-1.07,2.13,1.47a17,17,0,0,1-2.19,1.49c-2.09,1.69-3.73,4.46-5.23,6.65-0.66,1-.23,1.08-0.87,0l-1.29-2.07-1.87-3s0,0,0,0l3.37,6.47c0.09,0.18.27,0.26,0.4,0.07,2.23-3.22,4.31-6.26,7.47-8.6a2.15,2.15,0,0,0,1-2.68c-0.59-1.42-1.91-1.14-3.05-.59-0.84.4-.95,1.6-0.44,0.25,0.41-1.08.85-2.14,1.25-3.22,0.23-.62,1.63-4.76-0.51-4.18-5,1.36-7.84,8.08-9.54,12.42C433.18,2094.41,433.29,2094.56,433.35,2094.42Z" transform="translate(-392.06 -2072.25)" style="fill:#181716"/><path d="M428.31,2097.14c-1.94-.43-8.43,3.89-9.94,5.83-3,3.46-.86,1.94,1.51,3.24s1.73,1.73,2.59,4.32c1.95-.86,4.11-0.86,6.05-1.51,2.59-.86,1.94-1.3,3.24-3.89-2.38-1.51-4.11-5.19-3.46-7.78v-0.22Z" transform="translate(-392.06 -2072.25)" style="fill:#ea4e3e"/><path d="M428.31,2097c-2-.29-4.17,1.21-5.75,2.2a19.14,19.14,0,0,0-5,4.22c-0.24.31-1.57,1.8-.64,2.25a20.61,20.61,0,0,0,2.33.63c2.19,0.75,2.37,2.43,2.94,4.32,0,0.15.14,0.34,0.33,0.27,2.44-.92,5.26-0.83,7.56-2.15,1.09-.63,1.42-2.39,1.91-3.42a0.55,0.55,0,0,0-.12-0.6c-2.69-1.95-3.29-4.49-3.29-7.62,0-.58-0.62-0.56-0.62,0,0,3.21.54,5.72,3.09,8,0.4,0.36-.32,1.5-0.47,1.89-0.56,1.42-2.54,1.74-3.82,2-0.89.2-1.82,0.29-2.7,0.54-1.48.42-1.62-.36-2-1.52a4,4,0,0,0-2.15-2.22,5.06,5.06,0,0,0-1.62-.55c-1.83-.33-0.58-1.14.4-2.32a19.58,19.58,0,0,1,4.51-3.53c1.39-.89,3.34-2.3,5.07-2.2C428.42,2097.26,428.41,2097,428.31,2097Z" transform="translate(-392.06 -2072.25)" style="fill:#181716"/><path d="M511.83,2123.89c1.05-.94,2.13-1.85,3.22-2.75,0.86-.7,2.15-1.3,2.33-2.46a0.53,0.53,0,0,0-.23-0.57l-0.22-.1a0.39,0.39,0,0,0-.41.09c-1.7,1.65-3.38,3.32-5,5.08-0.21.23-.05,1,0.29,0.7h0Z" transform="translate(-392.06 -2072.25)" style="fill:#181716"/><path d="M504.53,2126.44c-1.15-.74-2.37-1.36-3.52-2.11a26.32,26.32,0,0,0-3.54-2.1c-1.27-.57-1.57,2.32-0.44,2.84,2.16,1,4.85,3,7.33,2.58a0.73,0.73,0,0,0,.18-1.21h0Z" transform="translate(-392.06 -2072.25)" style="fill:#181716"/><path d="M515.31,2126.25c-1.17,1.35,0,3.78,1.22,4.66,2.35,1.68,2.79-2.74,2.57-4.1a2.29,2.29,0,0,0-1.47-1.94,2.12,2.12,0,0,0-1.93.62,2.89,2.89,0,0,0-.79,2.56,3.22,3.22,0,0,0,2,2.32,0.55,0.55,0,0,0,.65-0.28,4.58,4.58,0,0,0,.5-4.26,0.68,0.68,0,0,0-.58-0.48h-0.65a0.57,0.57,0,0,0-.46.31,4,4,0,0,0,.4,4.79c0.52,0.57,1-.49.94-0.87a9.4,9.4,0,0,0-.54-2.86,0.54,0.54,0,0,0-.87-0.32,2.76,2.76,0,0,0,.43,4.35,0.4,0.4,0,0,0,.31,0l0.15-.09a0.74,0.74,0,0,0,.28-0.8,2.29,2.29,0,0,0-.66-1.1c-0.25-.29-0.1-0.42.16-0.71l-0.87-.32a6.21,6.21,0,0,1,.32,1.9l0.94-.87a1.36,1.36,0,0,1,0-1.69l-0.46.3h0.65l-0.58-.48a1.84,1.84,0,0,1-.37,1.79l0.65-.28a3.21,3.21,0,0,1-.78-0.51,1.23,1.23,0,0,1-.21-0.26s0,0,0-.06c0,0.15,0,0,0,0a2.66,2.66,0,0,1,.22-0.33c0.5-.54,1.21-0.61,1.47.1s0.18,3.07-1.07,2.3c-0.92-.56-1.93-2.11-1.47-3.2,0-.06,0-0.25-0.11-0.16h0Z" transform="translate(-392.06 -2072.25)" style="fill:#181716"/><path d="M501.75,2130.4c-0.84-.32-1.09,1-1.19,1.59a6.41,6.41,0,0,0,.56,3.81c0.18,0.33.49,0.49,0.75,0.13,1.28-1.79,1.42-4.71-.27-6.29a0.48,0.48,0,0,0-.74.16c-0.88,1.4-1.48,4.78.8,5.35s2-3.46,1.35-4.55c-0.92-1.64-2.34.32-2.65,1.31-0.59,1.85.25,3.64,2.27,3.8a0.64,0.64,0,0,0,.52-0.48c0.72-1.55,1.16-5.72-1.57-5.5-2.45.2-1.3,4.64-.13,5.64,0.35,0.3.7,0,.83-0.36a5,5,0,0,0,.26-3.1c-0.13-.56-0.62-0.91-1-0.39a1.93,1.93,0,0,0-.34,1.91,0.53,0.53,0,0,0,.37.35c0.51,0.19.69-.73,0.87-1l-1-.39a2.48,2.48,0,0,1-.17,1.65l0.83-.36c-0.41-.35-1.12-2.07-0.24-2.14,1.23-.1.53,2.15,0.27,2.72l0.52-.48c-0.66-.05-1.27-0.25-1.14-1a1.38,1.38,0,0,1,.71-1c0.1,0,.26,1.44-0.27,1.46-1.12,0-.34-1.87-0.12-2.21l-0.74.16c0.93,0.87.7,2.63,0.16,3.65l0.67,0c-0.82-1.16-1.14-3.3-.09-4.4a0.07,0.07,0,0,0,0-.11h0Z" transform="translate(-392.06 -2072.25)" style="fill:#181716"/><path d="M509.32,2147.62c4.86-.35,8.63-3.06,13-4.91,1-.43.61-3-0.51-2.47-4.25,2-8.07,5.07-12.6,6.35-0.38.11-.31,1.06,0.12,1h0Z" transform="translate(-392.06 -2072.25)" style="fill:#181716"/><path d="M491.55,2140a9.41,9.41,0,0,0,3.32,5.83,25.77,25.77,0,0,0,3.58,2.57c0.82,0.54,1.87,1.78,2.88,1.75,0.44,0,.46-0.69.34-1-0.68-1.68-3.27-2.66-4.73-3.59-2.28-1.45-4.61-2.79-5.31-5.6,0-.06-0.08,0-0.08,0h0Z" transform="translate(-392.06 -2072.25)" style="fill:#181716"/><path d="M480.73,2149.88c2.95,4.79,6.43,8,10.89,11.39,1.71,1.29,7.13,6,9.61,4.57,2.94-1.74,2.22-5.29.79-7.8-1.07-1.87-3.32-2.22-5.24-2.39-3.29-.3-8.42-3.77-8.65-7.44-0.13-2-2.28-2-2.15.05,0.19,3,1.89,5.21,4,7.29a13.53,13.53,0,0,0,4.51,2.9,8.07,8.07,0,0,0,2.38.28c0.79,0,8.19,1.86,3.88,4.67-2,1.29-7.58-3.3-9.06-4.32-4.07-2.8-7.73-5.42-10.88-9.3,0-.06-0.08,0-0.05.08h0Z" transform="translate(-392.06 -2072.25)" style="fill:#181716"/><path d="M498.61,2162.1a6.79,6.79,0,0,1,1.07,2.16c0.1,0.33.38,0.06,0.28-.19a6.57,6.57,0,0,0-1.31-2.06s-0.07.06,0,.09h0Z" transform="translate(-392.06 -2072.25)" style="fill:#181716"/><path d="M499.14,2161.22c0.42,0.06.85,1.09,1,1.41a7.56,7.56,0,0,1,.59,1.72c0.1,0.42.46,0.09,0.35-.23a8.39,8.39,0,0,0-.69-1.5,7,7,0,0,0-.57-0.81,2.88,2.88,0,0,1-.6-0.78c-0.09-.3-0.33.16-0.09,0.19h0Z" transform="translate(-392.06 -2072.25)" style="fill:#181716"/><path d="M500.28,2161a2.94,2.94,0,0,1,.62.74c0.25,0.37.58,0.65,0.82,1s0.44-.27.31-0.5a2.28,2.28,0,0,0-1.74-1.37s0,0.09,0,.11h0Z" transform="translate(-392.06 -2072.25)" style="fill:#181716"/><path d="M466.77,2193.07a6.21,6.21,0,0,1,.12,2,19.52,19.52,0,0,0,.26,2.2c0.11,0.68.78,0.26,0.66-.29s-0.29-1.34-.47-2a4.2,4.2,0,0,1-.39-1.94c0.11-.28-0.3-0.25-0.17,0h0Z" transform="translate(-392.06 -2072.25)" style="fill:#181716"/><path d="M523.37,2170.87s3.46,1.8,3.69,1.91a26.87,26.87,0,0,0,4.76,2.06c1,0.23,1.07-1.63.3-1.94-1.57-.64-3.21-1.11-4.82-1.65a9.41,9.41,0,0,0-2.5-.78,5.59,5.59,0,0,1-1.46.13c-0.17-.08-0.15.42,0,0.27h0Z" transform="translate(-392.06 -2072.25)" style="fill:#181716"/><path d="M468.12,2192c0.47-1.29,8.48-3,9.75-3.44,6.25-2.09,12.56-4,18.81-6.12q8.89-3,17.66-6.34c3-1.15,7.11-2.21,9.5-4.5,0.41-.4.06-1.72-0.5-1.2-2.49,2.35-7,3.4-10.09,4.57-5.92,2.22-11.93,4.18-17.9,6.24s-11.81,4.18-17.69,6.32c-2.2.8-4.39,1.62-6.56,2.5-0.48.19-2.58,1.83-3,1.74-0.26,0,0,.5.06,0.22h0Z" transform="translate(-392.06 -2072.25)" style="fill:#181716"/><path d="M466.72,2192.7c8.59,2.27,17.39,4.61,25.77,7.61,4.4,1.57,8.73,3.33,13.15,4.84,4.21,1.44,8.67,1.37,12.74,3.34,1.09,0.53,1.39-2,.39-2.5-4.08-1.9-8.46-2-12.77-3.14-4.48-1.15-8.83-3.1-13.19-4.63a66.52,66.52,0,0,0-11.58-3.32c-4.79-.75-9.65-2.45-14.49-2.5-0.12,0-.13.27,0,0.3h0Z" transform="translate(-392.06 -2072.25)" style="fill:#181716"/><path d="M467.07,2196.51c3.34,0.39,6.24,3.09,9.41,4.17,4.45,1.51,9.28,2,13.78,3.52s9.13,3.17,13.79,4.49,9.55,1.29,14,3.34c1.16,0.53,1.46-2.14.41-2.61-3.94-1.75-8.09-2-12.28-2.73-5.31-1-10.43-3.16-15.58-4.7-4.87-1.46-10-1.72-14.86-3.12-3-.86-5.4-3-8.67-2.47a0.06,0.06,0,0,0,0,.12h0Z" transform="translate(-392.06 -2072.25)" style="fill:#191916"/><path d="M518.34,2207.22c-0.07.71-.14,1.41-0.25,2.11a5.3,5.3,0,0,0-.22,2.12c0,0.15.18,0.35,0.34,0.2a2.07,2.07,0,0,0,.44-1.66,24.37,24.37,0,0,0-.17-2.75c0-.11-0.14-0.17-0.15,0h0Z" transform="translate(-392.06 -2072.25)" style="fill:#191916"/><path d="M540.67,2154.07c-4.05,9.27-8.51,18.44-12.33,27.8-2.06,5-4.31,10-6.36,15-1.29,3.16-3.73,7.55-3.73,11,0,1.23,1.31,1.19,1.31,0,0-2,1.56-4.76,2.24-6.61,0.83-2.28,1.77-4.53,2.69-6.78,1.84-4.46,3.8-8.88,5.62-13.36,3.6-8.9,8.85-17.51,10.63-27,0,0,0-.11-0.07,0h0Z" transform="translate(-392.06 -2072.25)" style="fill:#181716"/><path d="M540.41,2154.67c5-1.81,10.84-2.36,16-3.79a122.82,122.82,0,0,1,21-4.36c1.15-.11,1.07-2.67-0.06-2.58-6.85.58-13.19,2.33-19.73,4.32-3.43,1-6.78,2.34-10.26,3.21-2.46.61-5.14,1.11-7,2.93-0.07.07-.06,0.32,0.08,0.27h0Z" transform="translate(-392.06 -2072.25)" style="fill:#181716"/><path d="M576.81,2145.18c-2.69,6-4.9,12.3-7.32,18.45s-5.52,12.8-6.26,19.42c-0.08.7,0.65,1.65,1.07,0.65,2.58-6.1,4-12.88,6.27-19.15s4.93-12.65,6.38-19.28c0-.1-0.09-0.21-0.14-0.09h0Z" transform="translate(-392.06 -2072.25)" style="fill:#191916"/><path d="M519.08,2207.52a256.62,256.62,0,0,0,24.82-11.24c6.66-3.32,16.84-6.19,21.41-12.43,0.73-1-.32-3.46-1.41-2-2.5,3.29-7.95,5.61-11.56,7.57-3.93,2.13-8,4.05-11.85,6.23-6.88,3.85-15.83,6.11-21.44,11.8,0,0,0,.13,0,0.11h0Z" transform="translate(-392.06 -2072.25)" style="fill:#191916"/><path d="M518.64,2211.07c2.62-2.22,6.12-3,9.15-4.54,4.12-2,8.12-4.27,12.12-6.52,7.07-4,15.53-6.7,22-11.63,0.42-.32.38-1.9-0.35-1.74-3.79.85-7.24,3.34-10.67,5.09-4.38,2.23-8.76,4.44-13,7-3.81,2.29-7.56,4.65-11.44,6.81-3,1.67-5.8,2.43-7.92,5.28-0.07.09,0,.39,0.15,0.27h0Z" transform="translate(-392.06 -2072.25)" style="fill:#191916"/><path d="M553.28,2161.36c-1.1-.31-1.2,4.12-1,4.68,0.1,0.26.45,0.42,0.61,0.1A4.36,4.36,0,0,0,553,2164c0-.38-0.3-2.44.24-2.55a0.07,0.07,0,0,0,0-.12h0Z" transform="translate(-392.06 -2072.25)" style="fill:#191916"/><path d="M552.4,2163.06c-3.21-2.82-6.5-.59-9.57,1.34a1,1,0,0,0-.09,1.51c2.73,2,7,2,9.37-.68,0.54-.62-0.06-2.48-0.7-1.7a6.23,6.23,0,0,1-8.16.94l-0.09,1.51c2.64-1.78,5.88-4.16,9.16-2.59,0.15,0.07.16-.25,0.08-0.32h0Z" transform="translate(-392.06 -2072.25)" style="fill:#191916"/><path d="M552,2166.08c-1.11-.41-1.25,1.93-1.42,2.6-0.8,3.14-4.52,4.16-5.31,7.47-1.08,4.55,3.5,11.06,6.91,5.09l-1.06,0c2.41,2.83,5.87,2.25,7.13-1.27a1.41,1.41,0,0,0-.78-1.93c-2.19-.39-2.28-3.88.14-3.17,1.16,0.34,1.3-1.46,1-2.16a7.91,7.91,0,0,0-1.54-2.48c-1-1.08-1-1.89-1.16-3.26a3,3,0,0,0-3-2.8c-2.94-.1-4.35,5.81-3.67,7.88a0.6,0.6,0,0,0,1,.35c1.39-1.21.6-4.66,2.79-5.12,1.26-.27,1.3,2.62,1.56,3.42,0.44,1.37,1.92,2.17,2.49,3.51l1-2.16c-5.18-1.34-5.45,7.86-.52,8.58l-0.78-1.93c-0.83,2.53-3.16,2.49-4.76.74a0.58,0.58,0,0,0-.9.2c-1.52,2.87-3.95,2.15-4.75-.78s1.66-4.8,3.42-6.53A4.45,4.45,0,0,0,551,2170a15,15,0,0,0,.17-1.57s0.49-2.63.77-2.12c0.12,0.22.29-.16,0.11-0.22h0Z" transform="translate(-392.06 -2072.25)" style="fill:#191916"/><path d="M436,2100.68a6.66,6.66,0,0,1,1.3-.86,8.89,8.89,0,0,1-3.67-5.83c-1.3,1.73-3.24,2.38-5,3l-0.22-.22c-0.43,3.67,1.73,5.62,3.89,8.43Z" transform="translate(-392.06 -2072.25)" style="fill:#ea4e3e"/><path d="M436,2100.8q0.62-.44,1.28-0.82a0.2,0.2,0,0,0,0-.3,9.12,9.12,0,0,1-3.54-5.77c0-.11-0.17-0.31-0.29-0.17-0.48.56-4.1,3.65-5,2.77-0.14-.15-0.31.07-0.32,0.21-0.27,3.46,1.57,6.41,4,8.75a0.14,0.14,0,0,0,.21,0,58.1,58.1,0,0,1,3.56-4.7s0-.09,0-0.06l-3.16,3.67c-0.19.22-.37,0.44-0.56,0.64,0.29-.31-1.25-1.9-1.44-2.14a14,14,0,0,1-1.62-2.48,14.19,14.19,0,0,1-.65-3,0.16,0.16,0,0,0,.17,0,18.55,18.55,0,0,0,3.48-1.64c1-.63,1-1.49,1.57-0.17a10.58,10.58,0,0,0,1.92,3.06c0.9,1,1.5,1.08.26,2C435.84,2100.63,435.91,2100.88,436,2100.8Z" transform="translate(-392.06 -2072.25)" style="fill:#181716"/></svg>