<svg id="Слой_1" data-name="Слой 1" xmlns="http://www.w3.org/2000/svg" viewBox="0 0 128.49 119.26"><title>advantages-img1</title><path d="M153.15,1951.69c-0.15-6.43-4-11.75-9.53-14.73-12.75-6.83-30.16-4-43.78-2.08-20.37,2.91-39.28,8.72-58.25,16.75-8.17,3.46-18.43,10.42-16.75,20.61,1.51,9.14,11.93,12.77,20.3,13l0,0c0.22,0.34.41,0.69,0.6,1s0.22,0.42.33,0.63c0.25,1.26.12,2.77,0.26,3.92a13.56,13.56,0,0,0,4.79,9.36c7.35,6,15.76,2.76,24,1.88a14.49,14.49,0,0,0,7.86,10.29,25.3,25.3,0,0,0,9.6,2.2c0,0.94.06,1.87,0.06,2.83,0,8.37,8.52,12.26,15.77,12,4.94-.19,8.07-0.48,10.24,4.78,1.66,4,1.9,8.47,1.94,12.74,0.05,4.8,7,7.05,9.32,2.52a127.86,127.86,0,0,0,7.45-16.78c2.48-7.07,4-14.18,6.93-21.1,2.33-5.43,4.81-11,3.91-17-0.29-1.91-2.7-4.49-2.38-6.34a11.25,11.25,0,0,1,1.58-2.34,24.09,24.09,0,0,0,2.57-5.51c1.93-5.57-.92-11.47.77-17.07C152,1959.35,153.24,1955.82,153.15,1951.69Z" transform="translate(-24.66 -1932.62)" style="fill:#fff"/><path d="M46.61,1973.15c-0.75.13-3.71-2.52-3.83-2.89a5.58,5.58,0,0,0-.8-1.41,6.78,6.78,0,0,0-3.53-2.73,7.3,7.3,0,0,0-2.08-.51,12.38,12.38,0,0,1-1.91-.05c-0.74-.13-0.45-1.27-1.2-1.3-0.47,0-2.92,1.78-3.23,2a3.17,3.17,0,0,0-1.39,2.34,3.91,3.91,0,0,0,.89,2.44,9.36,9.36,0,0,0,5.08,3.25C38.69,1975.41,42.54,1974.28,46.61,1973.15Z" transform="translate(-24.66 -1932.62)" style="fill:#fff"/><path d="M46.9,1972.88c-1.77-.3-3.12-2.19-4-3.54a8.79,8.79,0,0,0-5.16-3.83c-1-.33-3,0.24-3.49-1.07a1,1,0,0,0-.67-0.46c-0.84-.19-2,0.84-2.57,1.23-3,2-3.91,5.08-.41,7.52,5,3.47,10.64,2.18,16.09.67,0.58-.16.45-0.66-0.13-0.5-5.65,1.56-12.23,3-16.56-2.06-2-2.28.36-4.49,2.22-5.73,1-.69,1.07.27,1.88,0.68,1.33,0.67,3.33.29,4.85,0.91,1.81,0.74,2.39,2.28,3.4,3.75a7.56,7.56,0,0,0,4,3C46.63,1973.47,47.46,1973,46.9,1972.88Z" transform="translate(-24.66 -1932.62)" style="fill:#181716"/><path d="M128.55,1970.25c-11.92,0-17.57,1.76-34.1,6.19-10.32,2.76-36.92,11.87-34.09,16.75l-6-.58c-3.62-7.92,31.33-21.81,36.25-23.12,10.44-2.77,39.68-8.1,44.43-3.12Z" transform="translate(-24.66 -1932.62)" style="fill:#ea4e3e"/><path d="M128.6,1969.92c-17.82.1-36,5.91-52.52,12.29-5.07,2-12.79,4.31-16,9.08a2.26,2.26,0,0,0-.31,1.68c0-.17,1.18-0.07-0.5-0.23l-2.61-.25c-1.56-.15-2.21.14-2-1.67,0.14-1.45,1.38-2.72,2.33-3.71,5.37-5.62,13.59-9,20.55-12.14a90.69,90.69,0,0,1,16.38-6,166.77,166.77,0,0,1,27.57-4.23c3.88-.25,8.86-0.63,12.44,1.26,1.2,0.63-1.34,1.46-2.38,2.08l-3.22,1.94c-0.56.34,0.26,0.61,0.63,0.39l6.44-3.88c0.11-.07.26-0.28,0.13-0.4-5-4.49-16.52-2-22.33-1.24-8.33,1-17.16,2.27-25.1,5.07a142.63,142.63,0,0,0-23.08,10.56c-3.33,1.9-13,6.91-11.1,12.18a0.33,0.33,0,0,0,.31.2l6,0.58c0.19,0,.79-0.15.66-0.46-2.47-5.74,25-13.72,28.54-14.83,12.67-4,25.77-7.59,39.12-7.66C129,1970.57,129.26,1969.92,128.6,1969.92Z" transform="translate(-24.66 -1932.62)" style="fill:#181716"/><path d="M140,1968.51c3.4,1.58,4.62,5.54,2.36,7.35h-0.23c-1.58-1.36-7-1.85-9.06-1.85Z" transform="translate(-24.66 -1932.62)" style="fill:#ea4e3e"/><path d="M139.62,1968.76a6.07,6.07,0,0,1,3.3,3.86,3.33,3.33,0,0,1-.28,2.37c-0.41.82-.24,0.54-0.35,0.45a4.26,4.26,0,0,0-.91-0.46,22,22,0,0,0-8.12-1.27l0.21,0.39,6.93-5.5c0.44-.35-0.52-0.4-0.78-0.19l-6.93,5.5c-0.23.18,0,.39,0.21,0.39a29.82,29.82,0,0,1,6.2.72,6.8,6.8,0,0,1,2.66,1.09,1.06,1.06,0,0,0,.8,0c1.2-.53,1.5-2.21,1.4-3.34-0.17-2-1.89-3.61-3.58-4.48C140.08,1968.11,139.19,1968.54,139.62,1968.76Z" transform="translate(-24.66 -1932.62)" style="fill:#181716"/><path d="M142.74,1999.83l0.75-2c0.23-3.17-2.92-4.62-6.34-6.56,0,0-13.21-5.35-32.56-.56-5.28,1.31-19.27,5.77-22,10.75l5.8,1.91c5.21-5.43,23.72-11.46,31.87-11C120.27,1992.35,142.56,1993.59,142.74,1999.83Z" transform="translate(-24.66 -1932.62)" style="fill:#ea4e3e"/><path d="M143.21,1999.9c3.63-9.77-14.8-11.42-20.62-11.54a72.77,72.77,0,0,0-24.77,4c-5.25,1.76-12.45,4-15.62,8.95a0.31,0.31,0,0,0,.14.5l5.8,1.91a0.62,0.62,0,0,0,.6-0.1c4.22-4.08,10.41-6.22,15.86-8,4.93-1.62,10.49-3.18,15.73-2.85,5,0.31,21.08.72,21.94,7.22,0.06,0.48,1,.23,1-0.26-0.88-6.73-16.23-7.17-21-7.59-10.2-.89-21.68,3.13-30.39,8.21-1.56.91-2.77,2.81-4.36,2.29l-3.3-1.09c-1.87-.62-0.15-1.29,1.13-2.36,5.2-4.35,13-6.45,19.42-8.09a62.08,62.08,0,0,1,26.78-.93c4.59,0.87,13.11,3.46,10.82,9.64C142.07,2000.3,143,2000.33,143.21,1999.9Z" transform="translate(-24.66 -1932.62)" style="fill:#181716"/><path d="M124,2012.76c6.31,0.54,5,8.37,4.28,10.41-0.91,2.72-3.17,5-4.07,7.7-1.81,5-2.49,10.19.45,14.71l-0.23-1.36c0.91-5.66,3.62-10.7,6.11-15.84,11.35-23.39-9.73-19-13.58-17.88-3.39.68-13.42,3.82-13.88,7.89l3.18,0.43S117.73,2012.22,124,2012.76Z" transform="translate(-24.66 -1932.62)" style="fill:#ea4e3e"/><path d="M123.87,2013.07c8.13,1.36,3.66,11.19,1.18,15.16a17.49,17.49,0,0,0-.79,17.55,0.59,0.59,0,0,0,.93-0.33c-1.35-8.11,19.66-32.91,2.3-36.11a24,24,0,0,0-10.29.79c-4.53,1.21-13.2,2.89-14.55,8.3,0,0.18.18,0.25,0.31,0.27,2.15,0.29,3,.64,4.8-0.33,4.83-2.61,10.53-5.47,16.12-5.3,0.42,0,1-.61.35-0.63-4.8-.14-9.42,1.85-13.69,3.84-1.51.7-3,1.48-4.45,2.3,0.06,0-2-.41-2.44-0.46-0.9-.12,4.73-4.31,5-4.46,5.61-2.88,17.29-6.55,22.81-1.73,4.52,4,.59,12.32-1.32,16.41-1.71,3.64-3.52,7.19-4.89,11-0.45,1.23-1.47,3.71-1.25,5,0.54,3.26-.46-2.88-0.64-3.62-1.88-8.07,5.35-13.43,6-20.82,0.36-3.86-1.29-6.82-5.17-7.47C123.79,2012.37,123.22,2013,123.87,2013.07Z" transform="translate(-24.66 -1932.62)" style="fill:#181716"/><path d="M87.13,1943.95c3.62-.91,27.61-5.21,36.22-5.21,6.79,0,21.5-1.13,24.45,6.56,1.13,2.94-1.36,8.83-1.36,8.83-1.13-3.4-6.11-3.62-9.28-3.85-8.37-.45-17.43-0.68-25.8.45-4.3.45-8.6,1.36-12.9,2-4.07.68-50.7,14-55.23,18.79,0,0-3.1,0-4.75-3.85-1.36.45-5.38,2.85-6.56,1.13-2.34-3.4,4.56-7,7.28-8.13C48.81,1956.79,72.3,1947.48,87.13,1943.95Z" transform="translate(-24.66 -1932.62)" style="fill:#ea4e3e"/><path d="M87.21,1944.27c15-3.59,31.2-6,46.65-5.09,4.94,0.29,11.13,1.27,13.44,6.26,1,2.09-.18,5.3-0.83,7.3s0.45,0.35-.77-0.56c-2.92-2.17-6.7-2.15-10.19-2.33a156.37,156.37,0,0,0-20.5.14c-14.66,1.17-28.58,5.49-42.54,9.84-6.9,2.15-13.79,4.41-20.54,7a61,61,0,0,0-7,3.12c-2.82,1.52-3.89,1.54-6-2.45a0.56,0.56,0,0,0-.65-0.07c-2.44,1-9.36,2.48-5-2.62,1.7-2,4.57-3.17,7-4.15q6.5-2.65,13.06-5.15c11.12-4.27,22.39-8.41,34-11.25,0.6-.15.42-0.79-0.17-0.64a265.11,265.11,0,0,0-28.84,9.31c-7.87,2.91-16.89,5.42-23.95,10.07-2.09,1.38-4,3.43-2.84,6,0.63,1.35,2.92.77,3.91,0.39,2.5-.94,2.41-1.38,4.13.78a5.49,5.49,0,0,0,3,1.67c1.21,0.31,1.93-.75,2.92-1.32,5.53-3.16,12-5,18-7,7.65-2.57,15.39-4.92,23.14-7.16a149.23,149.23,0,0,1,15.75-3.85,137.32,137.32,0,0,1,22-2.21c4.85-.06,19-1.62,21.74,4a0.57,0.57,0,0,0,.94-0.08c2.12-5.17,2.67-10.14-2.61-13.31s-13.08-2.59-19.12-2.5A178.88,178.88,0,0,0,87,1943.63C86.44,1943.77,86.62,1944.41,87.21,1944.27Z" transform="translate(-24.66 -1932.62)" style="fill:#181716"/><path d="M146,1954.36c-5.92,14-66,35.54-84.09,38-3,.4-7.83-1.1-7.83-1.1,0,7.35,11.18,5.23,21.83,3.06,20-4.1,47.3-15.52,53.8-18.22,16.36-6.78,20.27-18.82,18.4-27.82Z" transform="translate(-24.66 -1932.62)" style="fill:#fff"/><path d="M145.52,1954.34c-2.63,5.72-9.47,9.37-14.66,12.37a201.58,201.58,0,0,1-25.94,12.14q-13.36,5.36-27.19,9.46c-7.59,2.25-15.52,5-23.39,2.66-0.25-.08-0.8.07-0.77,0.41,0.7,9.3,17.17,4.25,22.39,3.19,12.54-2.55,24.73-6.88,36.69-11.39,15.7-5.91,39.89-13.54,35.92-35-0.07-.4-0.88-0.07-1,0.18l-2.11,6.09c-0.12.36,0.85,0.24,1-.11l1.36-3.95c1-2.95-.05-1.36.15,0.73,0.48,5.12-1.36,10.13-4.24,14.28-5.94,8.57-17.34,11.86-26.64,15.51a304.36,304.36,0,0,1-35.79,11.91c-6.35,1.62-13,3.13-19.55,3.28-3.08.07-6.3-.64-7.15-4-0.21-.81-0.81-0.54.85-0.12a31.93,31.93,0,0,0,3.77.66c6.19,0.8,13.84-2.38,19.63-4.1,9-2.66,17.77-5.81,26.45-9.26a215.87,215.87,0,0,0,25.27-11.75c5.31-3,11.17-6.38,14.84-11.37a10.12,10.12,0,0,0,1-1.79C146.64,1953.93,145.67,1954,145.52,1954.34Z" transform="translate(-24.66 -1932.62)" style="fill:#181716"/><path d="M88.94,2002.35c13.3-1.43,22.25-6.29,26.68-8,26.13-10.31,27.89-22,27.89-22,3.4,3.85,2,14-24.73,27.33-23.6,11.75-36,6.69-36.18,1.79C82.6,2001.44,87.08,2002.55,88.94,2002.35Z" transform="translate(-24.66 -1932.62)" style="fill:#fff"/><path d="M88.9,2002.72c14.94-1.81,31.33-8.32,43.72-16.84a32.61,32.61,0,0,0,9.75-9.79,15.53,15.53,0,0,0,1.44-3.06c0.4-1.23-.39-0.29.14,0.93,1.64,3.73-1.44,7.95-3.73,10.59-6.47,7.49-16.31,12.36-25.12,16.43-8,3.68-18.08,7.1-26.92,4.8a7.68,7.68,0,0,1-4.72-3.1c-0.88-1.42-.68-0.78.88-0.45a20.69,20.69,0,0,0,4.55.49c0.56,0,.73-0.75.08-0.74a25.36,25.36,0,0,1-6.21-.9,0.52,0.52,0,0,0-.65.5c0.44,4.25,6.29,5.3,9.64,5.58,10.63,0.92,21.53-4.19,30.66-9,5.66-3,29.79-16.07,21.53-26.09a0.57,0.57,0,0,0-.93.25c-1,5.87-7.63,10.71-12.08,13.76-6,4.09-12.69,6.62-19.26,9.49A80.26,80.26,0,0,1,89,2002C88.43,2002,88.25,2002.8,88.9,2002.72Z" transform="translate(-24.66 -1932.62)" style="fill:#181716"/><path d="M143.1,1997.21c0,14.83-10.48,18.76-15.46,21.25-4.3,2.26-23.91,6.08-24.59-.49,7,0.4,20.47-2.09,23.87-3.67C136,2010.45,143.1,1997.21,143.1,1997.21Z" transform="translate(-24.66 -1932.62)" style="fill:#fff"/><path d="M142.62,1997.26c-0.28,11-6.33,16.68-15.62,21.18-3.59,1.74-8,2.26-11.91,2.69a27.57,27.57,0,0,1-7.44-.11c-1.16-.19-6.14-2.72-2.62-2.72,7.77,0,17.42-1.09,24.34-4.93,6.09-3.38,10.92-10.13,14.2-16.14,0.24-.43-0.74-0.36-0.91-0.05a45.35,45.35,0,0,1-12.87,15.19c-6.76,4.84-18.54,5.58-26.55,5.29-0.21,0-.73.12-0.66,0.43,1.54,7.64,19.1,2.81,23.56,1.3,10.29-3.5,17.17-11.12,17.46-22.24C143.6,1996.71,142.63,1996.9,142.62,1997.26Z" transform="translate(-24.66 -1932.62)" style="fill:#181716"/></svg>