<svg id="Слой_1" data-name="Слой 1" xmlns="http://www.w3.org/2000/svg" viewBox="0 0 164.42 167.95"><title>advantages-img4</title><path d="M714.18,2090.91c-3,1.31-4.59-1.61-5.14-4.79-0.7-4-5.87-46.62-49-35.59-25.33,6.48-28.18,35.47-22.5,48.31-18.07-4.89-42,9.87-40.94,30.18,0.17,3.27-4.71,2.83-6.63,4.92-2.51,2.73.82,10.63,1.89,13.56,2.36,6.49,15.9,30.21,17.21,31.84,2.65,3.31,6.11,4.54,10.19,4.73-0.91,4,1.24,8,3.5,11.26,3.1,4.47,22.71,21.17,25.26,21.31,2.89,0.16,5.51-.95,8.08-2.15,3.89-1.83,56.13-23.46,60.05-25.17,2.81-1.23,5.33-2.84,6.59-5.71,1.19-2.69.49-6.05,0.68-8.89,0.26-4,2.58-6.1,5.74-8s6.3-3.44,8.67-6.08C779.71,2113.93,725.46,2086,714.18,2090.91Z" transform="translate(-589.06 -2048.71)" style="fill:#fff;fill-rule:evenodd"/><path d="M603.71,2134.41c-1.46,2.73-5.77,6-4.38,10.27,0.64,1.95,17.11,33.57,19.15,34.42,2.72,1.36,5-3.19,7-4.38" transform="translate(-589.06 -2048.71)" style="fill:#fff;fill-rule:evenodd"/><path d="M602.84,2133.9c-1.83,3.15-4.82,5.53-4.77,9.46a10.39,10.39,0,0,0,1.52,4.21c2.49,5.05,5.14,10,7.81,15s5.36,10,8.44,14.79c0.58,0.9,1.3,2.3,2.38,2.7,3.54,1.32,5.35-2.84,7.78-4.48,1.06-.72.06-2.45-1-1.73-1.28.87-4.8,5.66-6.18,4.22a21,21,0,0,1-2.48-3.7c-2.73-4.48-5.22-9.12-7.71-13.74-2.36-4.39-4.67-8.8-6.91-13.25-0.46-.92-1.08-2.09-1.4-2.91-1.41-3.61,2.64-6.78,4.25-9.56a1,1,0,0,0-1.73-1h0Z" transform="translate(-589.06 -2048.71)" style="fill:#181716"/><path d="M625.1,2175.08c0,3.57-.31,3-0.48,6.54-0.34,4.59-1.11,5.66,2.86,8.77,4.24,3.32,20.06,16.66,23.29,20.23" transform="translate(-589.06 -2048.71)" style="fill:#fff;fill-rule:evenodd"/><path d="M624.1,2175.08c0,2.42-.34,4.82-0.54,7.23-0.14,1.74-.56,3.65.17,5.32,1.32,3,5.23,5.21,7.71,7.27,6.3,5.23,13.07,10.39,18.62,16.42a1,1,0,0,0,1.41-1.41c-5.2-5.65-11.51-10.48-17.39-15.39-2.57-2.15-5.53-4.14-7.83-6.58-1.43-1.51-.87-3.77-0.7-5.62,0.22-2.4.52-4.82,0.54-7.23a1,1,0,0,0-2,0h0Z" transform="translate(-589.06 -2048.71)" style="fill:#181716"/><path d="M625.5,2174.72c4.52,3.35,22,17.92,26.3,20.94" transform="translate(-589.06 -2048.71)" style="fill:#fff;fill-rule:evenodd"/><path d="M625,2175.58c9,6.7,17.15,14.48,26.3,20.94,1.06,0.75,2.05-1,1-1.73-9.15-6.46-17.33-14.24-26.3-20.94-1-.77-2,1-1,1.73h0Z" transform="translate(-589.06 -2048.71)" style="fill:#181716"/><path d="M651.79,2195.65c0.17,4.76-.5,9.5-1,15" transform="translate(-589.06 -2048.71)" style="fill:#fff;fill-rule:evenodd"/><path d="M650.79,2195.65a122.65,122.65,0,0,1-1,15c-0.12,1.28,1.88,1.27,2,0a122.65,122.65,0,0,0,1-15,1,1,0,0,0-2,0h0Z" transform="translate(-589.06 -2048.71)" style="fill:#181716"/><path d="M652.64,2195.65c16.32-6.29,32.47-12.58,48.63-19,3.06-1.36,6-2.55,8.84-3.74,1.19-.51,4.76-1.36,5.1-2.38,0.85-2-2.38-4.08-3.74-4.93-3.74-2.55-18.63-11.26-23-13.77" transform="translate(-589.06 -2048.71)" style="fill:#fff;fill-rule:evenodd"/><path d="M652.91,2196.62q17-6.56,34-13.23c5.24-2.06,10.55-4,15.7-6.28,2.57-1.14,5.17-2.2,7.77-3.27,1.51-.62,3.11-1,4.57-1.75,5.76-3-5.87-9.25-8-10.55-5.93-3.61-11.93-7.13-17.93-10.61a1,1,0,0,0-1,1.73q7.49,4.35,14.92,8.8c2.34,1.4,4.68,2.81,7,4.28a32.18,32.18,0,0,1,3.09,2.13c2.79,2.28-.49,3.13-2.39,3.76-4.21,1.4-8.24,3.48-12.35,5.12q-7.77,3.1-15.55,6.16-15.14,6-30.33,11.79c-1.19.46-.67,2.39,0.53,1.93h0Z" transform="translate(-589.06 -2048.71)" style="fill:#181716"/><path d="M669.65,2117.62c3.74,3.74,18.87,34.17,18.87,34.17-3.18,1.11-56.17,20.48-63,22.93a0.66,0.66,0,0,1-.74-0.15c-3.4-7.48-21.66-36.44-21.05-40.17Z" transform="translate(-589.06 -2048.71)" style="fill:#fff;fill-rule:evenodd"/><path d="M668.94,2118.32c1.87,1.94,3.16,4.6,4.49,6.91,2.15,3.74,4.19,7.55,6.2,11.37q4.11,7.79,8,15.68l0.6-1.47c-12.64,4.44-25.2,9.16-37.79,13.75l-21.06,7.67-2.91,1.06c-1.36.49-.93,0.6-1.61-0.75-1.69-3.33-3.59-6.56-5.45-9.8-3.29-5.73-6.62-11.43-9.78-17.23-1.24-2.28-2.45-4.58-3.55-6.94-0.54-1.16-1.54-2.84-1.4-4.18l-0.73,1,65.82-16.76,0.12,0a1,1,0,0,0-.53-1.93l-65.82,16.76-0.12,0a1,1,0,0,0-.73,1c-0.22,2,1.34,4.52,2.17,6.26,1.83,3.81,3.92,7.49,6,11.17,4.13,7.33,8.62,14.5,12.43,22,0.5,1,1,2.36,2.46,1.84l2.34-.84,8.1-2.94,24-8.74c9.53-3.47,19-7,28.6-10.4a1,1,0,0,0,.6-1.47q-3.92-7.89-8-15.68c-2.08-4-4.2-7.9-6.43-11.77a34.82,34.82,0,0,0-4.57-6.92A1,1,0,0,0,668.94,2118.32Z" transform="translate(-589.06 -2048.71)" style="fill:#181716"/><path d="M715.21,2170.49c0,3.15.6,10.93-1.1,13.14-2.55,3.06-52.61,24.33-63.34,27" transform="translate(-589.06 -2048.71)" style="fill:#fff;fill-rule:evenodd"/><path d="M714.21,2170.49c0,2.09.11,4.17,0.1,6.26,0,1.67.26,4.87-1,6.22-0.92,1-2.7,1.69-3.92,2.32-6.13,3.18-12.48,5.93-18.81,8.69q-11.78,5.13-23.73,9.84c-5.36,2.11-10.8,4.4-16.39,5.81a1,1,0,0,0,.53,1.93c5.93-1.5,11.68-4,17.35-6.19,8.14-3.21,16.22-6.6,24.25-10.1,6.34-2.77,12.73-5.54,18.85-8.8,1.3-.69,2.86-1.39,3.69-2.66,1-1.56,1-4,1.1-5.77,0.12-2.52-.05-5-0.07-7.57a1,1,0,0,0-2,0h0Z" transform="translate(-589.06 -2048.71)" style="fill:#181716"/><path d="M688.52,2151.79c-0.34,4.93-.51,9-0.51,13.94" transform="translate(-589.06 -2048.71)" style="fill:#fff;fill-rule:evenodd"/><path d="M687.52,2151.79c-0.31,4.64-.5,9.29-0.51,13.94a1,1,0,0,0,2,0c0-4.66.2-9.3,0.51-13.94,0.09-1.29-1.91-1.28-2,0h0Z" transform="translate(-589.06 -2048.71)" style="fill:#181716"/><path d="M637.55,2183.88c8.34-2.38,49.1-18.08,50-18.38" transform="translate(-589.06 -2048.71)" style="fill:#fff;fill-rule:evenodd"/><path d="M637.82,2184.84c17-4.93,33.25-12.57,50-18.38,1.21-.42.69-2.35-0.53-1.93-16.74,5.81-32.95,13.45-50,18.38a1,1,0,0,0,.53,1.93h0Z" transform="translate(-589.06 -2048.71)" style="fill:#181716"/><path d="M687.54,2165.5c3.74,1.7,13.36,8.22,17.26,9.58" transform="translate(-589.06 -2048.71)" style="fill:#fff;fill-rule:evenodd"/><path d="M687,2166.37c6,2.83,11.24,7.36,17.5,9.68,1.21,0.45,1.73-1.48.53-1.93-6.08-2.25-11.17-6.73-17-9.48-1.16-.54-2.18,1.18-1,1.73h0Z" transform="translate(-589.06 -2048.71)" style="fill:#181716"/><path d="M669.65,2117.62c-2.21,2.55-3.17,5.88-5.54,9" transform="translate(-589.06 -2048.71)" style="fill:#fff;fill-rule:evenodd"/><path d="M668.94,2116.91c-2.32,2.81-3.56,6.28-5.7,9.21-0.76,1,1,2,1.73,1,2-2.79,3.19-6.15,5.39-8.81,0.82-1-.59-2.41-1.41-1.41h0Z" transform="translate(-589.06 -2048.71)" style="fill:#181716"/><path d="M664.1,2126.63c2,3.89,11,19.57,12.67,23" transform="translate(-589.06 -2048.71)" style="fill:#fff;fill-rule:evenodd"/><path d="M663.24,2127.13c4.07,7.75,8.83,15.16,12.67,23,0.57,1.16,2.29.14,1.73-1-3.84-7.86-8.6-15.27-12.67-23a1,1,0,0,0-1.73,1h0Z" transform="translate(-589.06 -2048.71)" style="fill:#181716"/><path d="M676.77,2149.65c4.25,0.51,7.23,1,11.41,1.46" transform="translate(-589.06 -2048.71)" style="fill:#fff;fill-rule:evenodd"/><path d="M676.77,2150.65c3.81,0.46,7.6,1,11.41,1.46,1.28,0.16,1.26-1.84,0-2-3.8-.47-7.6-1-11.41-1.46-1.28-.15-1.26,1.85,0,2h0Z" transform="translate(-589.06 -2048.71)" style="fill:#181716"/><path d="M621.91,2169.13c16.33-6,45-15.59,54.86-19.49" transform="translate(-589.06 -2048.71)" style="fill:#fff;fill-rule:evenodd"/><path d="M622.17,2170.1c18.2-6.72,36.8-12.41,54.86-19.49,1.19-.47.67-2.4-0.53-1.93-18.06,7.08-36.67,12.77-54.86,19.49-1.2.44-.68,2.38,0.53,1.93h0Z" transform="translate(-589.06 -2048.71)" style="fill:#181716"/><path d="M606.72,2142.18c4-1.19,47.35-13,57.38-15.56" transform="translate(-589.06 -2048.71)" style="fill:#fff;fill-rule:evenodd"/><path d="M607,2143.15c19-5.68,38.21-10.67,57.38-15.56a1,1,0,0,0-.53-1.93c-19.17,4.89-38.42,9.88-57.38,15.56a1,1,0,0,0,.53,1.93h0Z" transform="translate(-589.06 -2048.71)" style="fill:#181716"/><path d="M677.08,2190.94l4.54-1.66c1.2-.44.68-2.37-0.53-1.93l-4.54,1.66c-1.2.44-.68,2.37,0.53,1.93h0Z" transform="translate(-589.06 -2048.71)" style="fill:#181716"/><path d="M688.51,2187a35,35,0,0,0,5.72-2c1.2-.45.68-2.38-0.53-1.93a35,35,0,0,1-5.72,2c-1.27.24-.73,2.16,0.53,1.93h0Z" transform="translate(-589.06 -2048.71)" style="fill:#181716"/><path d="M678.57,2189.3q0,2.17-.06,4.35a1,1,0,0,0,2,0q0-2.18.06-4.35a1,1,0,0,0-2,0h0Z" transform="translate(-589.06 -2048.71)" style="fill:#181716"/><path d="M679.84,2194.54c3.87-1.4,7.76-2.74,11.55-4.36,1.18-.51.16-2.23-1-1.73-3.63,1.55-7.37,2.81-11.07,4.15-1.2.44-.68,2.37,0.53,1.93h0Z" transform="translate(-589.06 -2048.71)" style="fill:#181716"/><path d="M692.57,2188.88a6.17,6.17,0,0,1,0-3.34c0.45-1.21-1.48-1.73-1.93-.53a8.24,8.24,0,0,0,0,4.4c0.23,1.27,2.16.73,1.93-.53h0Z" transform="translate(-589.06 -2048.71)" style="fill:#181716"/><path d="M662.45,2177.43c-5.87-6.46-7.24-17.1-5.13-24.85,2.29-9,4.66-16.39,2.32-25.78-2.41-9-14.35-19.78-24.68-19.66-12.8-.24-22.25,3.68-31.53,15.25-7.65,9.54-5.05,26.42,1.12,36.2C620.86,2184.44,662.45,2177.43,662.45,2177.43Z" transform="translate(-589.06 -2048.71)" style="fill:#fff;fill-rule:evenodd"/><path d="M663.16,2176.73c-4.34-5-5.94-11.61-5.75-18.08,0.2-6.64,3.05-13,3.92-19.63,0.8-6.07.06-12.44-3-17.78a34.16,34.16,0,0,0-11.95-11.68c-9.16-5.51-21.58-4.07-30.72.8a42.85,42.85,0,0,0-13.29,11.84c-3.22,4.16-4.4,9.5-4.6,14.66a39.61,39.61,0,0,0,9.78,27.27c5.78,6.52,13.9,10.49,22.21,12.73a79.6,79.6,0,0,0,33,1.54c1.27-.21.73-2.14-0.53-1.93a75.34,75.34,0,0,1-37.2-3.2c-9.66-3.53-17.75-10.3-22-19.77a39.12,39.12,0,0,1-3.22-18c0.4-6.77,3.5-11.85,8.11-16.63a34.62,34.62,0,0,1,24.17-10.67c10-.42,18.75,5.25,24.14,13.53,6.4,9.82,2.22,21.55-.16,31.91-1.92,8.35,0,18.05,5.7,24.55C662.6,2179.11,664,2177.69,663.16,2176.73Z" transform="translate(-589.06 -2048.71)" style="fill:#181716"/><path d="M633.7,2160.45c9.18-10.76,14.15-23.71,18.64-36.94,0.31-.92-1.14-1.31-1.45-0.4-4.4,13-9.25,25.72-18.25,36.28-0.62.73,0.43,1.8,1.06,1.06h0Z" transform="translate(-589.06 -2048.71)" style="fill:#ea4e3e"/><path d="M647.42,2129a51.1,51.1,0,0,0,5-5.43l-1.25-.33c0.37,2.41-.08,4.85.13,7.27,0.08,1,1.58,1,1.5,0-0.22-2.56.2-5.12-.19-7.67a0.75,0.75,0,0,0-1.25-.33,51.1,51.1,0,0,1-5,5.43,0.75,0.75,0,0,0,1.06,1.06h0Z" transform="translate(-589.06 -2048.71)" style="fill:#ea4e3e"/><path d="M622.26,2133.62c1.68-2,2.62-4.39,1.7-7-0.32-.9-1.76-0.52-1.45.4a44.59,44.59,0,0,0,3.25,7.55,0.75,0.75,0,0,0,1.29-.76,42.46,42.46,0,0,1-3.1-7.19l-1.45.4c0.74,2.06,0,3.89-1.31,5.51-0.61.74,0.44,1.8,1.06,1.06h0Z" transform="translate(-589.06 -2048.71)" style="fill:#ea4e3e"/><path d="M624.9,2126.58a7.52,7.52,0,0,0,2.73,5.94c1.86,1.27,3.62-.26,3.72-2.21a7.75,7.75,0,0,0-2.29-5.51c-1.64-1.61-3.56-.84-4.54,1a0.75,0.75,0,0,0,1.29.76c0.66-1.26,1.42-1.55,2.43-.48a6.55,6.55,0,0,1,1.6,3.68c0.13,1.27-.62,2.3-1.75,1.14a6.37,6.37,0,0,1-1.68-4.35c0.09-1-1.41-1-1.5,0h0Z" transform="translate(-589.06 -2048.71)" style="fill:#ea4e3e"/><path d="M629.86,2123.77a6.91,6.91,0,0,0,2.69,5.68c2,1.48,3.35-.68,3.51-2.48,0.19-2.18-.81-5.11-3-6s-4.16.85-3.81,3.18c0.14,1,1.59.55,1.45-.4-0.27-1.82,1.53-1.73,2.56-.89s1.46,3,1.24,4.37c0,0.28-.18,1.14-0.59,1.17a1.89,1.89,0,0,1-1.17-.82,5.44,5.44,0,0,1-1.38-3.84c0.06-1-1.44-1-1.5,0h0Z" transform="translate(-589.06 -2048.71)" style="fill:#ea4e3e"/><path d="M635,2119.07a3.24,3.24,0,0,0,.64,2.66,1.47,1.47,0,0,0,2.39.09,2.72,2.72,0,0,0,.18-3.17,1.79,1.79,0,0,0-2.8-.34c-0.74.63,0.33,1.68,1.06,1.06,0.27-.23.4-0.06,0.56,0.22a1.18,1.18,0,0,1-.13,1.25s-0.12.1,0,.07H637a1.41,1.41,0,0,1-.27-0.35,1.71,1.71,0,0,1-.22-1.1,0.75,0.75,0,0,0-1.45-.4h0Z" transform="translate(-589.06 -2048.71)" style="fill:#ea4e3e"/><path d="M639.07,2117.19c-0.58,3.93-.5,7.9-1.08,11.83-0.14.95,1.31,1.35,1.45,0.4,0.58-3.93.5-7.9,1.08-11.83,0.14-.95-1.31-1.35-1.45-0.4h0Z" transform="translate(-589.06 -2048.71)" style="fill:#ea4e3e"/><path d="M640.37,2124.76c-0.42.85-.62,2,0.3,2.58a2.32,2.32,0,0,0,2.38-.11,1.89,1.89,0,1,0-2.25-3c-0.72.64,0.34,1.7,1.06,1.06a0.41,0.41,0,0,1,.72.17,0.57,0.57,0,0,1-.41.51,1.53,1.53,0,0,1-.44.11,0.32,0.32,0,0,1-.24,0h0a1.28,1.28,0,0,1,.17-0.57c0.43-.86-0.87-1.62-1.29-0.76h0Z" transform="translate(-589.06 -2048.71)" style="fill:#ea4e3e"/><path d="M607.37,2138c2.59,4.66,4.74,9.58,7.06,14.38s4.45,10.07,7.56,14.44a0.78,0.78,0,0,0,1,.27c2-.86,5.83-1.53,7-3.6,0.55-.94-0.28-2.57-0.61-3.44a161.12,161.12,0,0,0-7.1-15.18c-1.15-2.29-2.31-4.58-3.46-6.87-0.77-1.54-1.47-4.18-3-5-2.51-1.37-11.6,3.3-8.18,5.3a0.75,0.75,0,0,0,.76-1.3c-0.35-.21,2.72-1.83,3-2,0.91-.4,2.82-1.45,3.78-0.65s1.61,2.84,2.23,4.1c1.76,3.54,3.57,7.05,5.32,10.59s3.61,7.29,5.11,11.06c0.27,0.68,1,2,.84,2.72-0.11.61-2.86,1.55-3.32,1.74-1,.42-2.11.78-3.14,1.22l1,0.27c-3-4.21-5.06-9.26-7.3-13.89-2.41-5-4.63-10.09-7.32-14.93a0.75,0.75,0,0,0-1.29.76h0Z" transform="translate(-589.06 -2048.71)" style="fill:#ea4e3e"/><path d="M610.79,2141.82l2.9-1c0.91-.3.52-1.75-0.4-1.45l-2.9,1c-0.91.3-.52,1.75,0.4,1.45h0Z" transform="translate(-589.06 -2048.71)" style="fill:#ea4e3e"/><path d="M613.54,2148.43a18,18,0,0,0,3-1.19,0.75,0.75,0,0,0-.76-1.3,15.78,15.78,0,0,1-2.62,1c-0.91.3-.52,1.75,0.4,1.45h0Z" transform="translate(-589.06 -2048.71)" style="fill:#ea4e3e"/><path d="M616.95,2154.89a13,13,0,0,0,3.4-1.15c0.87-.42.11-1.71-0.76-1.3a11.54,11.54,0,0,1-3,1c-1,.16-0.55,1.61.4,1.45h0Z" transform="translate(-589.06 -2048.71)" style="fill:#ea4e3e"/><path d="M620.25,2162.21a19.37,19.37,0,0,1,2.7-1.06c1.22-.41.7-2.34-0.53-1.93a22.9,22.9,0,0,0-3.18,1.26c-1.15.59-.14,2.31,1,1.73h0Z" transform="translate(-589.06 -2048.71)" style="fill:#ea4e3e"/><path d="M672.24,2128.74c3.19-11.39,15.71-16.61,23.09-25.64,5.88-7.19,6.51-16.12,5.73-25.1-0.8-9.32-11.12-18.23-19.94-21-8.65-2.81-16.38-1.56-25.49,3.65-8.36,4.78-15.65,17.62-15.54,27,0.07,8.34,5.56,18,12.49,22.2,10.86,6.66,18.25,12.73,19.34,19.65" transform="translate(-589.06 -2048.71)" style="fill:#fff;fill-rule:evenodd"/><path d="M673.21,2129c3.49-11.67,16.21-16.82,23.35-25.86,3.85-4.87,5.37-11,5.72-17s-0.19-11.81-3.5-17c-6.22-9.72-19-16.18-30.49-14.31-12.42,2-22.22,10.39-26.85,22a27.1,27.1,0,0,0-2,14.6,30.44,30.44,0,0,0,7.06,14.47c7.13,8.44,22.21,11.55,24.44,23.85,0.23,1.27,2.16.73,1.93-.53-2.25-12.41-16.88-16.12-24.46-24.18a27,27,0,0,1-7.33-18c0-6.15,3-12.28,6.45-17.23,8.07-11.71,24-16.53,36.9-10.36a30.73,30.73,0,0,1,14,13.24c3,5.75,2.28,14.17.82,20.25-3.82,16-23.41,20.16-28,35.6a1,1,0,0,0,1.93.53h0Z" transform="translate(-589.06 -2048.71)" style="fill:#181716"/><path d="M668,2108c-0.35,3-.06,6.78,3.73,6.93a4.63,4.63,0,0,0,4.19-1.88c1-1.59.78-4,.69-5.75a1,1,0,0,0-2,0,15.56,15.56,0,0,1-.1,3.88c-0.3,1.44-1.46,1.73-2.78,1.75-2.42,0-1.91-3.38-1.73-4.93,0.15-1.28-1.85-1.27-2,0h0Z" transform="translate(-589.06 -2048.71)" style="fill:#181716"/><path d="M668.86,2111.53a8,8,0,0,0,6.85-.4,1,1,0,0,0-1-1.73,6.1,6.1,0,0,1-5.31.2c-1.23-.41-1.75,1.52-0.53,1.93h0Z" transform="translate(-589.06 -2048.71)" style="fill:#181716"/><path d="M651.31,2086.46c0.57,0.15,1.15.27,1.72,0.43a1,1,0,0,0,.53-1.93c-0.57-.16-1.15-0.27-1.72-0.43a1,1,0,0,0-.53,1.93h0Z" transform="translate(-589.06 -2048.71)" style="fill:#181716"/><path d="M653.06,2077a5.38,5.38,0,0,1,1.85.82c1.08,0.71,2.08-1,1-1.73a7,7,0,0,0-2.33-1c-1.26-.27-1.79,1.65-0.53,1.93h0Z" transform="translate(-589.06 -2048.71)" style="fill:#181716"/><path d="M659.18,2067.71a15.58,15.58,0,0,0,1.61,2,1,1,0,0,0,1.41,0,1,1,0,0,0,0-1.41,12.46,12.46,0,0,1-1.29-1.6,1,1,0,0,0-1.73,1h0Z" transform="translate(-589.06 -2048.71)" style="fill:#181716"/><path d="M673.07,2064a14.28,14.28,0,0,0-.26,2.66,1,1,0,0,0,2,0,11.36,11.36,0,0,1,.19-2.13,1,1,0,0,0-.7-1.23,1,1,0,0,0-1.23.7h0Z" transform="translate(-589.06 -2048.71)" style="fill:#181716"/><path d="M686.25,2074.16a21.06,21.06,0,0,0,1.95-2,1,1,0,0,0-1.41-1.41,21.24,21.24,0,0,1-1.95,2,1,1,0,0,0,0,1.41,1,1,0,0,0,1.41,0h0Z" transform="translate(-589.06 -2048.71)" style="fill:#181716"/><path d="M687.24,2086.75c1,0.14,2,.13,3,0.24a1,1,0,0,0,1-1,1,1,0,0,0-1-1c-0.82-.09-1.65-0.06-2.47-0.17a1,1,0,0,0-1.23.7,1,1,0,0,0,.7,1.23h0Z" transform="translate(-589.06 -2048.71)" style="fill:#181716"/><path d="M671.57,2108a84,84,0,0,0-.34-13,76.72,76.72,0,0,0-1.55-12.08c-0.45-1.89-4-4.73-4.92-1.67-1.37,4.55,5.52,4.24,8,3.93s8.46-1.46,5.92-5.37c-1.8-2.77-3.49,1.76-3.73,2.94-1.61,8.13-.86,16.7-2.92,24.73l-0.08.27a0.75,0.75,0,0,0,1.45.4c1.43-5,1.44-10.61,1.91-15.79,0.27-2.95.52-5.91,1-8.83a13.72,13.72,0,0,1,.59-2.39c0.23-.63,1.66.42,0.08,1.54a7.75,7.75,0,0,1-2.6.74,22.86,22.86,0,0,1-5.34.49,3.17,3.17,0,0,1-2.81-1.23q0.66-1.87,1.62-.37a1.28,1.28,0,0,1,.14.3,30.35,30.35,0,0,1,1.22,7.11c0.69,6,1.32,12.29.84,18.34-0.08,1,1.42,1,1.5,0h0Z" transform="translate(-589.06 -2048.71)" style="fill:#ea4e3e"/><path d="M671.27,2109.7c4.07-.18,6-2.41,7.1-6.17,0.74-2.66,1.21-5,3-7.24a20.13,20.13,0,0,0,3.79-6.34,19.29,19.29,0,0,0-1.06-13.85c-2.23-4.24-7.39-6-11.88-6a15.2,15.2,0,0,0-14.93,17.55,10.16,10.16,0,0,0,2.64,5.21c0.83,0.92,2,1.62,2.88,2.46,1.53,1.42,1.68,3.27,1.95,5.19,0.53,3.81,2.06,8.23,6.29,9.1,1.26,0.26,1.79-1.67.53-1.93-4.18-.86-4.61-5.88-5.12-9.33-0.62-4.2-4.45-5.32-6.38-8.67s-0.92-7.69.71-10.88c2.13-4.17,6.13-6.24,10.67-6.68s9.09,1.45,11.23,5.5c1.84,3.5,1.48,8.85.33,12.48-0.68,2.13-2.38,3.77-3.67,5.52a13.42,13.42,0,0,0-2.16,4.56c-1,3.57-1.34,7.27-5.87,7.46a1,1,0,0,0,0,2h0Z" transform="translate(-589.06 -2048.71)" style="fill:#181716"/><path d="M677.23,2170.58a18.27,18.27,0,0,1,17.17-6.74c53.45,9.57,65.47-46.78,36.06-62.11-19.11-10-38.83,8.64-42.85,13.74C679.48,2125.8,672.73,2145.91,677.23,2170.58Z" transform="translate(-589.06 -2048.71)" style="fill:#fff;fill-rule:evenodd"/><path d="M677.94,2171.28a18.74,18.74,0,0,1,7.93-5.71c3.44-1.3,6.77-1,10.3-.44a61.86,61.86,0,0,0,15.08.54,42.07,42.07,0,0,0,22.14-8.45,36.45,36.45,0,0,0,12.87-36.17,30.53,30.53,0,0,0-9.64-16.35c-7.48-6.53-17.42-8.25-26.85-5.47-8.42,2.49-16.39,8.13-22.17,14.69-6.52,7.39-9.92,17.63-11.63,27.16a84.85,84.85,0,0,0,.29,29.76c0.23,1.27,2.15.73,1.93-.53-2.44-13.74-1.79-28,3.07-41.18a44.73,44.73,0,0,1,15.35-20.73c9.3-7,21.46-11.39,32.65-6.17A27.6,27.6,0,0,1,743,2117.11c5.18,13.07.75,28.41-9.63,37.57-6.4,5.65-14.82,8.42-23.22,9.09a69.32,69.32,0,0,1-16.19-1c-5.59-.87-11.19,1.3-15.37,4.95a18.3,18.3,0,0,0-2,2.17C675.71,2170.86,677.12,2172.28,677.94,2171.28Z" transform="translate(-589.06 -2048.71)" style="fill:#181716"/><path d="M708.68,2111.1a12.51,12.51,0,0,0-2.77,15.94c3.49,6,11.93,7.36,17.87,4.54,6.64-3.14,7.89-12.57,4.55-18.5-1.63-2.89-5-4.51-8.16-4.85a15.45,15.45,0,0,0-11.34,2.74c-0.8.54,0,1.84,0.76,1.3a13.66,13.66,0,0,1,8.54-2.66c3.54,0,6.9,1.18,8.9,4.23,3.45,5.28,1.46,13.5-4,16.44-5.25,2.82-12.64,1-15.82-4-3-4.65-1.53-10.7,2.53-14.12,0.74-.62-0.33-1.68-1.06-1.06h0Z" transform="translate(-589.06 -2048.71)" style="fill:#ea4e3e"/><path d="M724.53,2117.43c0.73-.11,1.47-0.05,2.21-0.17l-0.95-.72c0.24,2.46-.92,4.69-2.11,6.76l1.29,0.76a9.09,9.09,0,0,0,.08-7.18c-0.35-.89-1.8-0.5-1.45.4a7.65,7.65,0,0,1,.08,6,0.75,0.75,0,0,0,1.29.76c1.31-2.28,2.58-4.81,2.31-7.52a0.77,0.77,0,0,0-.95-0.72c-0.73.11-1.47,0.05-2.21,0.17-1,.15-0.55,1.59.4,1.45h0Z" transform="translate(-589.06 -2048.71)" style="fill:#ea4e3e"/><path d="M704.24,2128.31c-3.77,5.34-8.26,10.21-12.4,15.26-1.53,1.87-3.13,3.72-4.48,5.73-1.21,1.81,1.77,4.21,3.19,4.78,1.92,0.77,4.74-3.34,5.79-4.47,2.72-2.92,5.3-6,7.81-9.07,1.66-2,3.33-4.11,4.79-6.3a2,2,0,0,0,.54-1.46,1.84,1.84,0,0,0-.92-0.85,8.39,8.39,0,0,1-3-3.62c-0.39-.88-1.68-0.12-1.29.76a9.75,9.75,0,0,0,2.84,3.62c0.62,0.52.78,0.46,0.87,0.28-0.13.25-.3,0.49-0.46,0.72-1.34,2-2.9,3.9-4.41,5.78q-3,3.75-6.23,7.35-1.51,1.69-3.08,3.32c-0.45.46-2.1,2.62-2.82,2.49s-2.72-1.94-2.17-2.75,1.11-1.5,1.68-2.23c1.75-2.21,3.55-4.37,5.35-6.54,3.28-4,6.76-7.84,9.73-12,0.56-.79-0.74-1.54-1.29-0.76h0Z" transform="translate(-589.06 -2048.71)" style="fill:#181716"/><path d="M711,2144.54c1.79-1,1.71-2.65,0-3.75-1.95-1.28-5.14-.37-6.32,1.51s1.08,4,2.54,4.83,2.61,2.54.73,3.72a2.48,2.48,0,0,1-3,0c-1-.92,0-1.92,1-2.09s0.55-1.62-.4-1.45a2.68,2.68,0,0,0-2.23,3.71c0.75,2,3.14,2.14,4.81,1.35,2-.94,2.89-2.6,1.84-4.64a6.31,6.31,0,0,0-2.61-2.27c-1.11-.66-2.17-2.06-0.8-3.1a4.41,4.41,0,0,1,1.43-.57l1.41,0q1.37,0,.77,1.44a0.75,0.75,0,0,0,.76,1.3h0Z" transform="translate(-589.06 -2048.71)" style="fill:#ea4e3e"/><path d="M713.73,2141.44c-0.37,3-1.29,5.84-1.36,8.84a0.74,0.74,0,0,0,.55.72,8.42,8.42,0,0,0,4.48-.85c0.89-.34.5-1.8-0.4-1.45a7.26,7.26,0,0,1-3.68.85l0.55,0.72c0.07-3,1-5.88,1.36-8.84,0.12-1-1.38-.95-1.5,0h0Z" transform="translate(-589.06 -2048.71)" style="fill:#ea4e3e"/><path d="M714.14,2146.61a10.17,10.17,0,0,0,4.45-.71c0.9-.33.51-1.78-0.4-1.45a9.16,9.16,0,0,1-4.05.65c-1-.09-1,1.41,0,1.5h0Z" transform="translate(-589.06 -2048.71)" style="fill:#ea4e3e"/><path d="M715.36,2142.33a11.5,11.5,0,0,0,3.41-.93c0.87-.42.11-1.71-0.76-1.3a10.37,10.37,0,0,1-3.05.77c-1,.14-0.55,1.58.4,1.45h0Z" transform="translate(-589.06 -2048.71)" style="fill:#ea4e3e"/><path d="M722.11,2140.06c-2,2.28-3.67,5.22-1.95,8.16,1.28,2.18,4.36,1.36,5.77-.19,1.63-1.8,2.73-5.3,1.71-7.59s-4-3-5.48-.74c-0.54.81,0.76,1.56,1.29,0.76,1.18-1.79,3,.24,3.08,1.69a8.1,8.1,0,0,1-1.67,4.82c-1.13,1.46-3.2,1.48-3.79-.36-0.66-2.06.82-4,2.09-5.48,0.63-.73-0.43-1.79-1.06-1.06h0Z" transform="translate(-589.06 -2048.71)" style="fill:#ea4e3e"/></svg>