<svg id="Слой_1" data-name="Слой 1" xmlns="http://www.w3.org/2000/svg" viewBox="0 0 21.89 14.36"><title>arrow </title><path d="M-650.26,561.48c-2.46,1.07-5,2.53-7.7,3.08v-9.12c0-.94-1.95-0.59-1.95.18V564a20.62,20.62,0,0,1-6-3.57c-0.52-.43-2.32.33-1.79,0.75a20.92,20.92,0,0,0,7.73,4.23,0.44,0.44,0,0,0,.12.59,1.26,1.26,0,0,0,1.63-.05c3.06-.57,6-2.14,8.77-3.37C-648.21,562-649.3,561.07-650.26,561.48Z" transform="translate(669.27 -553.38)" style="fill:#ea4e3f;stroke:#ea4e3f;stroke-miterlimit:10;stroke-width:3px;fill-rule:evenodd"/></svg>