<svg id="Слой_1" data-name="Слой 1" xmlns="http://www.w3.org/2000/svg" viewBox="0 0 71.87 64.18"><title>arrowtextleft</title><path d="M-446.66,1839.26c-6.69,13.94-25.87,18.88-38.7,25.21a5,5,0,0,0-2.3,5.65c4.52,15.54,22.78,22.28,35.3,30,5.51,3.39,10.52-5.26,5-8.63-6-3.67-12.19-6.9-18.11-10.65-4-2.5-8.3-5.54-10.87-9.61,14.08-6.4,31.32-12.41,38.27-26.9C-435.25,1838.53-443.87,1833.45-446.66,1839.26Z" transform="translate(487.84 -1836.69)" style="fill:#fff"/><path d="M-418.4,1886.55c-6.62-3.82-12.91-8.15-19.22-12.45q-3.2-2.19-6.34-4.46l0.28-.15c1.34-.74,2.77-1.36,4.16-2,8.32-3.91,20.32-12.78,20.13-23-0.12-6.44-10.12-6.45-10,0,0.09,4.64-6.62,8.87-9.91,11.37-5.3,4-12.69,5-16.52,10.92-4,6.08,6.42,11.29,10,13.83,7.27,5.1,14.63,10.15,22.32,14.59C-417.85,1898.42-412.82,1889.77-418.4,1886.55Z" transform="translate(487.84 -1836.69)" style="fill:#fff"/></svg>