<svg id="Слой_1" data-name="Слой 1" xmlns="http://www.w3.org/2000/svg" viewBox="0 0 73.21 72.1"><title>arrowtextright</title><path d="M-352.33,1866.86c-1.77-2.25-4.38-3.5-6.84-4.84-3.54-1.92-6.81-4.52-10.23-6.68-3.62-2.28-7.34-4.38-11-6.52-2.78-1.61-7.1-3.49-8.92-6.22-3.56-5.33-12.23-.33-8.63,5,4.23,6.33,12.41,9.72,18.82,13.43,3.73,2.16,7.35,4.53,10.93,6.92,1,0.64,2.12,1.26,3.3,1.91a77,77,0,0,1-11.9,5.9c-6.37,2.36-12.44,4.19-17.56,8.88-4.77,4.36,2.32,11.41,7.07,7.07,4.54-4.15,10.81-5.28,16.36-7.56,6.2-2.54,11.83-6.18,17.63-9.49C-350.29,1873-350.39,1869.33-352.33,1866.86Z" transform="translate(398.85 -1832.91)" style="fill:#fff"/><path d="M-326.57,1866.45c-3.21-6.58-11.78-9.95-17.74-13.47-11.82-7-23.15-14.07-35.78-19.6-5.85-2.56-10.94,6.05-5,8.63a232.47,232.47,0,0,1,30.75,16.33c5.7,3.59,12.31,6.64,17.44,11a7.27,7.27,0,0,1,.72.69,20.32,20.32,0,0,1-3.63,2.21c-4,2.3-8.16,4.29-12.15,6.62-4.67,2.73-9.1,5.84-13.78,8.55-5.12,3-10.64,5.17-15.73,8.21-5.53,3.31-.5,12,5,8.63s11.64-5.84,17.29-9.11c6.26-3.62,12.16-7.77,18.54-11.2C-334.56,1880.7-322.17,1875.47-326.57,1866.45Z" transform="translate(398.85 -1832.91)" style="fill:#fff"/></svg>