<svg id="Слой_1" data-name="Слой 1" xmlns="http://www.w3.org/2000/svg" viewBox="0 0 119.4 56.75"><title>arrowservices</title><path d="M-354,1660.13a5.44,5.44,0,0,0-3.21-6.11c-15.49-6.51-26.42-20.48-43-25-6.23-1.7-8.87,7.95-2.66,9.64,11.14,3,20,10.66,29.47,17.22-31.75.14-63.54,0.39-95.14-3-6.41-.7-6.34,9.31,0,10,28.45,3.09,57,3.19,85.63,3.08-0.95.38-1.9,0.75-2.88,1.09-7.3,2.54-14.87,4.5-21.28,9-5.23,3.68-.24,12.36,5,8.63,6.61-4.65,14.52-6.35,22-9.12,6.79-2.52,13-6.24,19.39-9.69h1.6a4.68,4.68,0,0,0,4.81-4.64A4.09,4.09,0,0,0-354,1660.13Z" transform="translate(473.28 -1628.82)" style="fill:#f7a800"/></svg>