<svg id="Слой_1" data-name="Слой 1" xmlns="http://www.w3.org/2000/svg" viewBox="0 0 102.03 102.03"><title>fb </title><rect x="1.5" y="1.5" width="99.03" height="99.03" rx="10" ry="10" style="fill:none;stroke:#000;stroke-miterlimit:10;stroke-width:3px"/><path d="M-837.47,1991.62h-15.21v-37.94h-12.86c0.11-4.91-.21-10.24.16-14.89,4.18-.1,8.78.21,12.7-0.16,0-8.62-.68-15.87,2.19-21.32,2.67-5.06,7.8-8.48,14.58-8.94a75.33,75.33,0,0,1,13.64.63c-0.1,4.34.2,9.09-.16,13.17-5.36.47-11.13-1.22-13.8,1.88s-0.61,9.38-1.25,14.74c4.81,0.1,10-.21,14.58.16-0.66,4.93-1.06,10.13-2,14.74h-12.54v37.94Z" transform="translate(907.14 -1891.1)" style="fill:none;stroke:#000;stroke-miterlimit:10;stroke-width:3px;fill-rule:evenodd"/></svg>