<svg id="Слой_1" data-name="Слой 1" xmlns="http://www.w3.org/2000/svg" viewBox="0 0 111.88 97.24"><title>sertificat</title><path d="M-620.26,2098.08c0.28,10.46,0,20.92,0,31.38,0,7.07.85,15-.28,22.05l0.22,0.6c-36.29,0-71.62-1.91-107.91-1.91v-1.27c-3.18-22.32-.64-43.84-0.64-66.17h0.64c28.63,7.63,64.26,4.45,94.16,3.18l0.32-.11c4.64,2.69,9.27,7.18,13,11.67" transform="translate(730.83 -2081.77)" style="fill:#fff"/><path d="M-621.26,2098.08c0.24,9.48.05,19,0,28.44,0,4.66.17,9.31,0.28,14q0.07,3.26-.09,6.51c-0.09,1.74-.83,3.73-0.22,5.38l1-1.27c-36,0-71.93-1.89-107.91-1.91l1,1c0-5-1-10-1.31-15-0.32-5.81-.33-11.63-0.24-17.45,0.19-11.68.89-23.34,0.91-35l-1,1c1.91,0,4,.89,5.92,1.29,2.16,0.47,4.34.86,6.52,1.22,4.57,0.76,9.17,1.26,13.78,1.65a285.68,285.68,0,0,0,29,.69c9.6-.18,19.18-0.68,28.77-1.16l6.71-.33,3.3-.15c1.41-.06.89-0.15,2,0.57a51.6,51.6,0,0,1,11.39,10.65c0.83,1,2.24-.43,1.41-1.41a61.36,61.36,0,0,0-10.41-10c-0.86-.64-2.52-2.29-3.7-1.86a12.25,12.25,0,0,1-3.18.17l-4.16.2c-9.83.48-19.65,1-29.48,1.26s-20,.21-29.92-0.49q-7.52-.53-15-1.71c-2.46-.39-4.9-0.87-7.32-1.4-1.84-.4-3.76-1.19-5.65-1.19a1,1,0,0,0-1,1c0,11.68-.7,23.34-0.91,35-0.11,5.82-.05,11.64.24,17.45,0.25,5,1.31,10,1.31,15a1,1,0,0,0,1,1c36,0,71.93,1.89,107.91,1.91a1,1,0,0,0,1-1.27c-0.49-1.33.2-3.46,0.29-4.85,0.14-2.17.12-4.34,0.09-6.51-0.07-4.66-.29-9.31-0.28-14,0-9.48.23-19,0-28.44a1,1,0,0,0-2,0h0Z" transform="translate(730.83 -2081.77)" style="fill:#181716"/><path d="M-634.75,2086.33c-0.59,4.44-.68,8.92-1.27,13.36-0.17,1.28,1.83,1.26,2,0,0.59-4.44.68-8.92,1.27-13.36,0.17-1.28-1.83-1.26-2,0h0Z" transform="translate(730.83 -2081.77)" style="fill:#181716"/><path d="M-635,2100.93l14.59-1.91c1.26-.16,1.28-2.17,0-2l-14.59,1.91c-1.26.17-1.28,2.17,0,2h0Z" transform="translate(730.83 -2081.77)" style="fill:#181716"/><path d="M-708.75,2105.1c20.52,0,41-.84,61.56-0.86a1,1,0,0,0,0-2c-20.52,0-41,.84-61.56.86a1,1,0,0,0,0,2h0Z" transform="translate(730.83 -2081.77)" style="fill:#181716"/><path d="M-707.63,2113.61c19.07-3.52,38.65-.86,57.87-0.82a1,1,0,0,0,0-2c-19.42,0-39.14-2.67-58.41.89-1.27.23-.73,2.16,0.53,1.93h0Z" transform="translate(730.83 -2081.77)" style="fill:#181716"/><path d="M-704.48,2121.34c17.76,0,35.67,2.52,53.28-.89,1.27-.25.73-2.17-0.53-1.93-17.41,3.37-35.18.86-52.74,0.82a1,1,0,0,0,0,2h0Z" transform="translate(730.83 -2081.77)" style="fill:#181716"/><path d="M-636.83,2155.64c-1.06,3.47-2.79,22.37-2.79,22.37-1.78-1.88-5.11-5.91-5.11-5.91-1,.25-6,3.55-6,3.55,0.72-3.44,5-16.87,6.07-20.25Z" transform="translate(730.83 -2081.77)" style="fill:#fff"/><path d="M-637.32,2155.51c-1.14,3.94-1.33,8.29-1.78,12.35q-0.56,5.07-1,10.16l0.85-.35c-1.78-1.9-3.45-3.9-5.11-5.91a0.49,0.49,0,0,0-.49-0.13c-2.19.72-4.23,2.34-6.14,3.6l0.73,0.56c1.22-5.59,3.17-11.07,4.89-16.52l1-3.2c0.17-.54-0.55-0.18,0-0.16l1.28,0,6.23,0.19a0.5,0.5,0,0,0,0-1l-7.84-.24a0.51,0.51,0,0,0-.48.37c-2.12,6.68-4.58,13.4-6.07,20.25a0.5,0.5,0,0,0,.73.56,53.19,53.19,0,0,1,5.54-3.36q-0.2-.39,0-0.09l0.4,0.48,1.34,1.59c1,1.24,2.11,2.47,3.22,3.66a0.5,0.5,0,0,0,.85-0.35q0.44-4.81,1-9.62c0.45-4.15.65-8.59,1.81-12.62A0.5,0.5,0,0,0-637.32,2155.51Z" transform="translate(730.83 -2081.77)" style="fill:#181716"/><path d="M-631.58,2153.84c0.91,1.85,12.09,21.25,12.09,21.25-0.66-.74-6.6-2.41-8-2.57a63.62,63.62,0,0,1-2.45,6c-2.44-6.35-8.21-23.17-8.21-23.17Z" transform="translate(730.83 -2081.77)" style="fill:#fff"/><path d="M-632,2154.09c3.66,7.26,8,14.21,12.09,21.25l0.79-.61c-2-1.66-5.75-2.34-8.23-2.7a0.52,0.52,0,0,0-.61.35,51.44,51.44,0,0,1-2.4,5.88l0.91,0.12c-2.93-7.65-5.55-15.42-8.21-23.17l-0.35.61,6.58-1.51a0.5,0.5,0,0,0-.27-1l-6.58,1.51a0.5,0.5,0,0,0-.35.62c2.66,7.75,5.28,15.52,8.21,23.17a0.5,0.5,0,0,0,.91.12,53.5,53.5,0,0,0,2.5-6.12l-0.61.35c2.25,0.33,6,1,7.79,2.45a0.5,0.5,0,0,0,.79-0.61c-4.06-7-8.43-14-12.09-21.25C-631.44,2153-632.3,2153.52-632,2154.09Z" transform="translate(730.83 -2081.77)" style="fill:#181716"/><polygon points="94.41 73.65 102.45 92.02 103.15 90.11 105.59 90.65 97.34 72.2 94.41 73.65" style="fill:#ea4e3e"/><polygon points="88.11 73.72 83.01 91.42 86.04 89.78 88.49 92.69 90.44 73.97 88.11 73.72" style="fill:#ea4e3e"/><path d="M-651.83,2143c-0.25,3.93,1.35,13.59,13.67,12.39a11,11,0,0,0,10.08-8.63c1-4.16,0-14.67-12.81-14.41C-649,2132.47-651.61,2139.89-651.83,2143Z" transform="translate(730.83 -2081.77)" style="fill:#fff"/><path d="M-652.58,2143c-0.3,5.94,2.88,11.38,8.82,12.87,7.78,1.95,16-2.55,16.69-10.85a12.07,12.07,0,0,0-10.13-13.16c-7.64-1.41-14.64,3.23-15.38,11.14-0.09,1,1.41,1,1.5,0a12.15,12.15,0,0,1,3.14-6.88c2.78-3.08,7.11-3.42,11-2.71,5.7,1,8.73,6.09,8.41,11.6-0.44,7.76-8.6,10.95-15.35,9.26-5.06-1.27-7.41-6.43-7.16-11.28C-651,2142-652.53,2142-652.58,2143Z" transform="translate(730.83 -2081.77)" style="fill:#181716"/><path d="M-633.37,2150.57c-1.53-.68-4.66-2-6.3-1.74a63.3,63.3,0,0,0-6.09,2.42v-0.17c0.24-1.58,1.21-5.13,1.21-5.13-1.3-1.13-4.89-4-4.89-4,1.84-.56,3.42-0.84,5.42-1.49l2.24-5.92c1.47,1.78,4.14,5.71,4.14,5.71,2.25-.16,4.41-0.31,6.59-0.37l-4.45,4.83C-635.39,2146.54-633.37,2150.57-633.37,2150.57Z" transform="translate(730.83 -2081.77)" style="fill:#ea4e3e"/></svg>