<svg id="Слой_1" data-name="Слой 1" xmlns="http://www.w3.org/2000/svg" viewBox="0 0 102.03 102.03"><title>vk </title><path d="M-711.38,1921.69c2.74-.45,6.16-0.09,9.44-0.2,3.09-.11,6.56-0.95,8.24,1-0.25,5-3.21,8.3-5.83,11.85-1,1.34-2.46,3-4,5-1.19,1.56-3.26,4.12-3.21,5.83,0.09,3.21,4.88,5.89,7.23,8.24a42.2,42.2,0,0,1,3.62,4.22c1,1.27,2.78,3.63,2.41,5.22-0.51,2.18-3.89,2-7.23,2-4.26,0-8.18.71-10.85-.4-2.28-.94-4.23-3.38-5.83-5.22-2.38-2.75-7.37-8.35-9-.8-0.43,2-.13,4.55-1.21,5.63-1.3,1.3-5.76,1-8.64.8-14.51-1-22.58-13.22-28.73-23.7-1.76-3-3.34-6-4.82-9s-3.59-6-3.82-9.64c1.38-1.76,4.54-1.21,7.23-1.21s6.22-.52,8,0.4c1.13,0.57,2.24,3.32,3.21,5.42a63.32,63.32,0,0,0,6,10.85c1,1.42,3.09,4,4.62,3.82,3.39-.45,2.93-14.71,1.21-17.28-0.88-1.31-2.29-1.48-3.82-2.21,1-2.34,3.79-2.82,6.63-3,4-.28,11.79-0.61,13.26,2,1.26,2.25.34,7.38,0.2,10.85s-0.49,9,2,9.44c3,0.47,6.77-7.2,7.83-9a57.52,57.52,0,0,0,3-5.42C-713.35,1925.21-713,1922.91-711.38,1921.69Z" transform="translate(784.57 -1891.1)" style="fill:none;stroke:#000;stroke-miterlimit:10;stroke-width:3px;fill-rule:evenodd"/><rect x="1.5" y="1.5" width="99.03" height="99.03" rx="10" ry="10" style="fill:none;stroke:#000;stroke-miterlimit:10;stroke-width:3px"/></svg>